<?xml version="1.0" encoding="UTF-8"?>
<svg width="1180px" height="382px" viewBox="0 0 1180 382" version="1.1" xmlns="http://www.w3.org/2000/svg" xmlns:xlink="http://www.w3.org/1999/xlink">
    <!-- Generator: Sketch 43.2 (39069) - http://www.bohemiancoding.com/sketch -->
    <title>remote</title>
    <desc>Created with Sketch.</desc>
    <defs></defs>
    <g id="Page-1" stroke="none" stroke-width="1" fill="none" fill-rule="evenodd">
        <g id="Artboard" transform="translate(-73.000000, -237.000000)">
            <g id="remote" transform="translate(73.000000, 237.000000)">
                <g id="remote-2" transform="translate(118.500000, 189.000000) scale(-1, 1) translate(-118.500000, -189.000000) ">
                    <polygon id="Fill-26" fill="#52311C" points="12.019226 377.391558 46.2868933 377.391558 46.2868933 357.984029 12.019226 357.984029"></polygon>
                    <polygon id="Fill-27" fill="#52311C" points="106.761497 377.391558 141.033772 377.391558 141.033772 357.984029 106.761497 357.984029"></polygon>
                    <path d="M117.608456,220.214129 L190.051143,227.532424 C206.88317,229.53698 213.389281,233.446102 218.190533,240.90724 C222.43425,247.5018 223.715198,254.486797 223.715198,264.828591 C223.715198,288.269039 215.421289,364.39931 215.421289,364.39931 L182.489863,363.885078 L187.369446,273.899088 C187.369446,273.899088 100.532219,270.875589 80.0416557,270.875589 C56.2058828,270.875589 56.9845887,241.392904 56.9845887,216.938275 L117.608456,220.214129" id="Fill-28" fill="#366D86"></path>
                    <polyline id="Fill-29" fill="#2C2D2B" points="182.234153 363.791795 182.469147 376.752368 236.144561 376.752368 215.165579 364.306028 182.234153 363.791795"></polyline>
                    <path d="M43.220393,279.99817 L0.778617656,279.99817 L0.778617656,175.642229 C0.778617656,167.290706 7.33080575,160.519973 15.417367,160.519973 L28.5862514,160.519973 C36.6682049,160.519973 43.220393,167.290706 43.220393,175.642229 L43.220393,279.99817" id="Fill-30" fill="#4A4A4A"></path>
                    <path d="M151.276204,333.182567 L0.778617656,333.182567 L0.778617656,272.526896 L136.642062,272.526896 C144.728623,272.526896 151.276204,279.292867 151.276204,287.64439 L151.276204,333.182567" id="Fill-31" fill="#545454"></path>
                    <path d="M91.1206929,117.549903 L53.199098,109.884024 C50.9413116,109.450735 49.4391926,107.165256 49.8124185,104.732172 L51.1394439,96.3092285 C51.3467916,95.0141235 52.0609894,93.8809066 53.0931203,93.1809786 C54.1436821,92.4953347 55.4015916,92.3096395 56.5903852,92.6572229 L85.9922925,101.822948 C87.522058,102.294328 88.6739898,103.637047 88.9642766,105.289258 L91.1206929,117.549903" id="Fill-32" fill="#E6E6E1"></path>
                    <path d="M87.9962383,9.55624483 C63.8609632,10.3799697 46.7017871,19.0552686 51.4200997,59.7510862 C52.3508606,67.70265 54.2999292,73.9162971 56.7881019,78.8062707 L56.6821242,78.7300881 L50.5584547,100.961137 L78.3107957,113.793151 C79.776053,98.8661139 86.7982293,97.9566836 86.7982293,97.9566836 C95.046061,100.842101 115.780833,103.632291 121.425299,62.1175097 C126.949964,21.5264432 112.131513,8.71823572 87.9962383,9.55624483" id="Fill-33" fill="#F0C69B"></path>
                    <path d="M78.2619053,0.443955317 C41.4507727,1.70096899 38.2576177,31.2026989 38.5294736,39.6446885 C39.3358259,64.5516526 49.9842835,75.2315073 51.5094412,80.6785666 C53.0852839,86.2827525 53.5829184,89.5157536 53.5829184,89.5157536 C59.4577706,85.1685813 67.3323764,76.1837904 68.0880437,68.5083888 C63.4987474,55.6001916 66.765626,44.9060525 78.0683808,55.0811973 C79.4230526,56.4239164 81.2753589,59.7092931 81.3536903,62.0614323 L85.1320266,61.9233512 C82.8051244,50.4721472 84.5975303,32.2835402 90.1682725,27.7554342 C103.069909,17.2850817 117.326217,29.5504878 120.127715,29.4552595 C122.933821,29.3600312 120.920244,-1.03684488 78.2619053,0.443955317" id="Fill-34" fill="#3F2104"></path>
                    <polyline id="Fill-35" fill="#F3F2EF" points="107.47211 151.1207 90.9994857 117.728894 84.7145458 114.057842 81.8715781 121.414229 107.47211 151.1207"></polyline>
                    <path d="M87.7439364,121.873119 L44.9381506,111.355153 L46.6522251,100.432466 C46.8503574,99.1468835 47.5783783,98.0184281 48.6427632,97.3280228 C49.7117559,96.6328562 51.011135,96.4519224 52.2183596,96.8233128 L82.4312269,106.117596 C83.9978541,106.60326 85.1774323,107.945979 85.4815423,109.607713 L87.7439364,121.873119" id="Fill-36" fill="#F3F2EF"></path>
                    <path d="M111.116669,243.752291 C111.333233,251.256281 105.684159,257.550873 98.422381,257.898456 L49.2763625,260.231549 L37.1119627,143.643531 C36.4622732,137.439407 37.3792109,131.1591 39.7798368,125.426356 L42.4845726,118.950831 C44.6594199,113.741843 49.7325275,110.47075 55.1926843,110.756435 L75.9919649,116.022561 C78.558469,116.665352 80.8761558,118.103299 82.6409153,120.136423 L104.237333,145.005296 C106.25091,147.328867 107.430488,150.290467 107.577935,153.404433 L109.987776,204.175406 L111.116669,243.752291" id="Fill-37" fill="#D1A530"></path>
                    <polyline id="Fill-38" fill="#D1A530" points="40.120747 124.361511 45.4564951 107.420395 59.0170363 112.029445 40.120747 124.361511"></polyline>
                    <path d="M104.208117,218.108544 L127.357338,199.400943 L79.3816826,131.907879 C76.6539081,128.070178 72.516169,125.560912 67.9406959,124.975258 C63.3698305,124.389604 58.7621033,125.775176 55.2003302,128.812959 C47.8786516,135.059936 46.841913,146.258785 52.8872511,153.829436 L104.208117,218.108544" id="Fill-39" fill="#DBB44D"></path>
                    <path d="M221.92528,224.677452 L214.350177,224.677452 L214.350177,121.754696 C214.350177,120.25485 215.529755,119.035928 216.985797,119.035928 L219.28966,119.035928 C220.745702,119.035928 221.92528,120.25485 221.92528,121.754696 L221.92528,224.677452" id="Fill-40" fill="#494946"></path>
                    <path d="M221.83955,221.086679 L221.83955,228.909685 L122.243526,228.909685 C120.787484,228.909685 119.607906,227.695524 119.607906,226.190917 L119.607906,223.805448 C119.607906,222.305602 120.787484,221.086679 122.243526,221.086679 L221.83955,221.086679" id="Fill-41" fill="#494946"></path>
                    <path d="M184.687245,210.399044 C198.768459,208.584944 209.366232,201.23808 208.375571,193.981683 C207.380302,186.753855 195.169824,182.344784 181.102433,184.158883 C167.016611,185.987267 156.409623,193.319847 157.4095,200.581005 C158.395554,207.818357 170.624462,212.20362 184.687245,210.399044" id="Fill-42" fill="#F0C69B"></path>
                    <path d="M140.549415,358.220205 L15.417367,358.220205 C7.33080575,358.220205 0.778617656,351.449472 0.778617656,343.09795 L0.778617656,221.086679 L125.915273,221.086679 C134.001835,221.086679 140.549415,227.857412 140.549415,236.213696 L140.549415,358.220205" id="Fill-43" fill="#404040"></path>
                    <polyline id="Fill-44" fill="#DAB44D" points="181.609401 211.030382 179.734056 184.58072 110.627363 192.675126 103.549894 217.901105 181.609401 211.030382"></polyline>
                    <path d="M151.276204,343.019822 C151.276204,351.371344 144.728623,358.142077 136.642062,358.142077 L15.4127593,358.142077 C7.33080575,358.142077 0.778617656,351.371344 0.778617656,343.019822 L0.778617656,305.714132 L151.276204,305.714132 L151.276204,343.019822" id="Fill-45" fill="#404040"></path>
                </g>
                <g id="coffee-shop" transform="translate(788.000000, 5.000000)">
                    <g id="Group" transform="translate(125.357798, 0.000000)">
                        <polygon id="Fill-226" fill="#222222" points="92.6027541 127.643778 173.972785 127.643778 173.972785 59.785114 92.6027541 59.785114"></polygon>
                        <path d="M266.252943,337.902182 C266.252943,347.160434 258.714459,354.66627 249.415936,354.66627 L17.1277959,354.66627 C7.82927256,354.66627 0.290788991,347.160434 0.290788991,337.902182 L0.290788991,219.423994 C0.290788991,210.160463 7.82927256,202.654628 17.1277959,202.654628 L249.415936,202.654628 C258.714459,202.654628 266.252943,210.160463 266.252943,219.423994 L266.252943,337.902182" id="Fill-227" fill="#404040"></path>
                        <path d="M217.41714,327.297946 L49.1159885,327.297946 L49.1159885,152.37292 C49.1159885,143.109389 56.6544721,135.603553 65.9582967,135.603553 L200.580133,135.603553 C209.883958,135.603553 217.41714,143.109389 217.41714,152.37292 L217.41714,327.297946" id="Fill-228" fill="#4A4A4A"></path>
                        <path d="M181.2356,120.929698 C181.2356,120.929698 204.481908,158.870587 204.481908,194.066727 C204.481908,220.268533 181.2356,220.05212 181.2356,220.05212 L181.2356,120.929698" id="Fill-229" fill="#7466A5"></path>
                        <polygon id="Fill-230" fill="#545454" points="49.1212898 327.297946 217.41714 327.297946 217.41714 260.035737 49.1212898 260.035737"></polygon>
                        <polygon id="Fill-231" fill="#52311C" points="21.0507761 376.191444 70.3106842 376.191444 70.3106842 354.676827 21.0507761 354.676827"></polygon>
                        <path d="M85.2975288,120.929698 C85.2975288,120.929698 62.0565218,158.870587 62.0565218,194.066727 C62.0565218,220.268533 83.3201348,220.05212 83.3201348,220.05212 L85.2975288,120.929698" id="Fill-232" fill="#7466A5"></path>
                        <polygon id="Fill-233" fill="#52311C" points="196.233047 376.191444 245.482353 376.191444 245.482353 354.676827 196.233047 354.676827"></polygon>
                        <path d="M184.633749,250.656082 C184.633749,253.34277 183.568183,255.913333 181.654405,257.818823 C179.751229,259.713756 177.169484,260.779986 174.47111,260.779986 L92.0726217,260.779986 C86.4585189,260.779986 81.9099824,256.251149 81.9099824,250.66136 L81.9099824,224.881824 L184.623146,224.881824 L184.633749,250.656082" id="Fill-234" fill="#518A9C"></path>
                        <polyline id="Fill-235" fill="#9382CE" points="184.628448 224.876545 81.9099824 224.876545 85.2975288 120.929698 132.553536 110.863855 181.2356 120.929698 184.628448 224.876545"></polyline>
                        <polyline id="Fill-236" fill="#ECB884" points="124.84541 372.559928 95.4654694 372.559928 88.6850753 228.645298 131.615202 228.645298 124.84541 372.559928"></polyline>
                        <polyline id="Fill-237" fill="#ECB884" points="171.072961 372.559928 141.682417 372.559928 134.907324 228.645298 177.853355 228.645298 171.072961 372.559928"></polyline>
                        <path d="M131.615202,228.645298 C131.615202,237.68186 122.014503,245.002952 110.15544,245.002952 C98.2910754,245.002952 88.6850753,237.68186 88.6850753,228.645298 C88.6850753,219.619294 98.2910754,212.303479 110.15544,212.303479 C122.014503,212.303479 131.615202,219.619294 131.615202,228.645298" id="Fill-238" fill="#ECB884"></path>
                        <path d="M177.853355,228.645298 C177.853355,237.68186 168.236752,245.002952 156.38299,245.002952 C144.523927,245.002952 134.907324,237.68186 134.907324,228.645298 C134.907324,219.619294 144.523927,212.303479 156.38299,212.303479 C168.236752,212.303479 177.853355,219.619294 177.853355,228.645298" id="Fill-239" fill="#ECB884"></path>
                        <path d="M131.604599,372.676052 L131.615202,372.559928 C131.615202,364.077595 122.014503,357.194607 110.15544,357.194607 C98.2910754,357.194607 88.6850753,364.077595 88.6850753,372.559928 L88.6850753,372.676052 L131.604599,372.676052" id="Fill-240" fill="#9382CE"></path>
                        <path d="M177.842752,372.676052 L177.853355,372.559928 C177.853355,364.077595 168.236752,357.194607 156.38299,357.194607 C144.523927,357.194607 134.907324,364.077595 134.907324,372.559928 L134.917927,372.676052 L177.842752,372.676052" id="Fill-241" fill="#9382CE"></path>
                        <polyline id="Fill-242" fill="#ECB884" points="151.362636 117.577936 133.359338 132.373194 114.947837 117.577936 121.72293 88.4519159 144.582242 88.4519159 151.362636 117.577936"></polyline>
                        <path d="M116.776794,109.707893 C124.246361,115.097104 131.636407,115.445476 133.274516,115.445476 C134.907324,115.445476 142.164838,115.097104 149.560186,109.855687 L144.582242,88.4519159 L121.72293,88.4519159 L116.776794,109.707893" id="Fill-243" fill="#D8A775"></path>
                        <path d="M133.274516,112.062044 C136.619652,112.062044 163.619298,110.668555 166.990941,68.4785816 C170.611746,23.2113208 158.959434,8.95445616 133.274516,8.95445616 C107.5949,8.95445616 95.931986,23.2113208 99.558092,68.4785816 C102.940337,110.668555 129.934682,112.062044 133.274516,112.062044" id="Fill-244" fill="#ECB884"></path>
                        <path d="M99.6376119,68.4785816 C99.361943,65.0318091 99.2135059,61.822563 99.1074794,58.7294409 L99.0120556,58.3441203 C94.3946018,52.4692997 89.8036547,58.0749236 91.6750223,69.03281 C93.6259098,80.4604709 97.6867244,81.7589487 101.291625,79.8006752 L101.291625,79.7901185 C100.544138,76.3855729 99.9768966,72.6379335 99.6376119,68.4785816" id="Fill-245" fill="#ECB884"></path>
                        <path d="M166.911421,68.4785816 C167.171186,65.0318091 167.335527,61.822563 167.441553,58.7294409 L167.552881,58.3441203 C172.159732,52.4692997 176.750679,58.0749236 174.884613,69.03281 C172.939027,80.4604709 168.872911,81.7589487 165.273312,79.8006752 L165.262709,79.7901185 C166.004894,76.3855729 166.566835,72.6379335 166.911421,68.4785816" id="Fill-246" fill="#ECB884"></path>
                        <path d="M133.274516,25.8716169 C147.948583,25.8716169 162.813497,34.4489606 162.813497,34.4489606 L165.405845,66.7261644 L166.821298,66.7261644 C168.284464,56.0374746 175.022448,60.5135284 175.022448,60.5135284 C188.286362,9.52451961 150.816599,0.0868024523 133.274516,0.0868024523 C115.737735,0.0868024523 78.2626711,9.52451961 91.5265852,60.5135284 C91.5265852,60.5135284 98.2645688,56.0374746 99.7330357,66.7261644 L101.148489,66.7261644 L103.740837,34.4489606 C103.740837,34.4489606 118.611053,25.8716169 133.274516,25.8716169" id="Fill-247" fill="#222222"></path>
                        <path d="M184.63905,200.157961 C184.63905,202.934381 182.375385,205.188243 179.586888,205.188243 L86.9674461,205.188243 C84.1789494,205.188243 81.9152838,202.934381 81.9152838,200.157961 L81.9152838,139.578162 C81.9152838,136.801742 84.1789494,134.54788 86.9674461,134.54788 L179.586888,134.54788 C182.375385,134.54788 184.63905,136.801742 184.63905,139.578162 L184.63905,200.157961" id="Fill-248" fill="#E6E6E1"></path>
                        <path d="M184.63905,208.52417 C184.63905,210.376876 183.133474,211.88121 181.278011,211.88121 L85.2975288,211.88121 C83.4420652,211.88121 81.9364891,210.376876 81.9364891,208.52417 C81.9364891,206.671464 83.4420652,205.172408 85.3028302,205.172408 L181.272709,205.172408 C183.133474,205.172408 184.63905,206.671464 184.63905,208.52417" id="Fill-249" fill="#C3C2BE"></path>
                        <polygon id="Fill-250" fill="#E6E6E1" points="89.056168 207.837982 96.096327 207.837982 96.096327 202.527947 89.056168 202.527947"></polygon>
                        <polygon id="Fill-251" fill="#E6E6E1" points="170.458007 207.837982 177.492865 207.837982 177.492865 202.527947 170.458007 202.527947"></polygon>
                        <path d="M179.592189,205.177686 C182.375385,205.177686 184.63905,202.929103 184.63905,200.152682 L184.63905,139.583441 C184.63905,136.801742 182.375385,134.54788 179.592189,134.54788 L133.152586,134.54788 L133.152586,205.177686 L179.592189,205.177686" id="Fill-252" fill="#F3F2EF"></path>
                        <g id="logo" transform="translate(122.275229, 162.305177)" fill-rule="nonzero" fill="#C2C2BD">
                            <path d="M9.27875745,9.99151199 C8.77977307,9.87721794 8.34127164,9.43110246 8.17116333,8.87069293 C8.09177945,8.60892269 8.0804389,8.0005834 8.15226241,7.74618697 C8.32237072,7.13416078 8.70038919,6.56637744 9.13889062,6.28617267 C9.22205468,6.2308691 9.29009801,6.18293934 9.29009801,6.17925243 C9.29009801,6.17187863 9.10486896,6.05758458 8.87427769,5.91748219 C7.63059692,5.16535362 6.46630003,3.97079646 5.77452622,2.74674407 L5.64599994,2.51815597 L4.71985469,2.25638573 C4.20952975,2.11259645 2.92804713,1.74759287 1.8733756,1.45264049 C0.410444115,1.03970715 -0.0356176815,0.89960477 0.00218416561,0.866422627 C0.0248652739,0.844301198 0.365081898,0.637834529 0.754440924,0.412933337 L1.46511565,0 L2.87134436,0.567783338 C3.64628223,0.881170246 4.72741506,1.31622501 5.27554184,1.53375239 C5.81988844,1.75127978 6.26595024,1.95037264 6.26595024,1.96880716 C6.26595024,1.99092859 6.23948894,2.03885835 6.2016871,2.0757274 C6.16766543,2.11259645 6.14876451,2.14946549 6.15632488,2.1568393 C6.20546728,2.20108216 17.4590772,6.13132267 17.5687025,6.14238339 C17.640526,6.1497572 18.6876372,6.47789172 19.8935161,6.87239054 L22.0860233,7.58765007 L22.3355155,8.32134412 C22.4716021,8.72321674 22.5812275,9.06241198 22.5736671,9.06609889 C22.5698869,9.0734727 21.4509522,8.58311436 20.0900857,7.97477507 L17.6178449,6.86501673 L17.3796933,6.9203203 C15.6370281,7.31481911 13.4369606,7.3848703 11.9551282,7.08623101 C11.7698992,7.04936197 11.6111314,7.02355363 11.6035711,7.02724054 C11.5960107,7.03461435 11.6111314,7.14153459 11.6375927,7.26320244 C11.705636,7.60239769 11.664054,8.11119055 11.5430881,8.46513341 C11.1764102,9.51958818 10.170881,10.1979787 9.27875745,9.99151199 Z M17.4477366,6.64011553 C17.455297,6.59587268 16.1700342,6.13132267 11.7320973,4.57176194 C6.79139591,2.83522979 6.01645804,2.57345955 6.06938063,2.65088455 C6.17900599,2.81310836 7.09759087,3.60947979 7.57389415,3.95973575 C9.60007315,5.43449767 12.1781591,6.35253696 15.0624401,6.62168101 C15.87896,6.69541911 15.9772448,6.70279292 16.7559628,6.69910601 C17.3343311,6.69541911 17.4363961,6.6880453 17.4477366,6.64011553 Z" id="Shape" transform="translate(11.287018, 5.014248) scale(-1, 1) rotate(-180.000000) translate(-11.287018, -5.014248) "></path>
                            <path d="M3.74456703,13.7075181 C3.11327618,13.5895371 2.53490792,13.3167062 1.97544059,12.8742776 L1.8242332,12.7526098 L2.11530742,12.7747312 C2.48198534,12.8005395 3.10571582,12.7489229 3.59713983,12.6493764 C4.46280213,12.4797788 5.26420129,12.1516443 6.86699961,11.31103 C8.90451917,10.2455145 9.47154687,10.0464216 10.5942617,10.0132395 C11.2898157,9.99111807 11.2822554,9.96530973 10.6925465,10.3376871 C10.4997571,10.459355 9.81932387,10.9423395 9.18047265,11.4105764 C7.83472689,12.3986669 7.18831531,12.8226609 6.53056317,13.1471086 C5.71404327,13.5526681 5.14701556,13.7148919 4.45146157,13.7407002 C4.1717279,13.751761 3.92223571,13.7407002 3.74456703,13.7075181 Z" id="Shape" transform="translate(6.475106, 11.873537) scale(-1, 1) rotate(-180.000000) translate(-6.475106, -11.873537) "></path>
                            <path d="M2.3685798,13.6004356 C1.94519911,13.5598797 1.71082766,13.5008892 1.37061103,13.3423523 C1.03795478,13.1875023 0.73554,12.925732 0.569211873,12.6529011 C0.467146885,12.4796165 0.293258389,12.0482487 0.293258389,11.9634499 C0.293258389,11.9302677 0.391543191,11.9523892 0.614574089,12.0408749 C1.86581523,12.5312332 4.06966292,12.6823963 6.35289448,12.4353737 C6.64396871,12.4058784 6.88590053,12.3874439 6.8934609,12.3948177 C6.90102127,12.4021915 6.72335259,12.4980511 6.50032169,12.6123451 C5.44186997,13.1543201 4.22843068,13.5156368 3.17753933,13.6004356 C2.93182732,13.6188701 2.71635679,13.6336177 2.69367568,13.6299308 C2.67477476,13.6299308 2.52734755,13.6151832 2.3685798,13.6004356 Z" id="Shape" transform="translate(3.593476, 12.789652) scale(-1, 1) rotate(-180.000000) translate(-3.593476, -12.789652) "></path>
                            <path d="M16.8769287,12.8267707 C16.8164458,12.8193969 16.4308669,12.7456588 16.0263872,12.6682338 C13.4785427,12.1668148 11.1990913,11.1713505 9.39216299,9.77032665 C8.99902378,9.46431355 8.20140481,8.73799331 8.20140481,8.68637664 C8.20140481,8.67531593 8.26566795,8.64213379 8.34505183,8.61632545 C8.65124679,8.51309212 9.4148441,8.12596711 9.83444461,7.86419687 C10.4657355,7.46969806 11.0100821,7.06045163 12.2613232,6.039179 C12.8661527,5.54513376 13.3878182,5.12851352 13.4218399,5.11007899 C13.4709823,5.08427066 13.5390256,5.13957423 13.7469358,5.37922304 C15.1153627,6.95721829 16.1549134,9.13249212 16.7975448,11.7465076 C16.9563126,12.3843422 17.047037,12.856266 17.0130154,12.8488922 C17.0016748,12.8452053 16.9411919,12.8341445 16.8769287,12.8267707 Z" id="Shape" transform="translate(12.610765, 8.976630) scale(-1, 1) rotate(-180.000000) translate(-12.610765, -8.976630) "></path>
                            <path d="M5.57795662,14.857502 C5.40406812,14.8390675 5.08275242,14.7874508 4.85972152,14.743208 L4.45902194,14.6584091 L4.82569986,14.6141663 C6.06182026,14.4593163 7.12027198,14.0685044 8.22408592,13.3495579 C8.81757492,12.9624329 9.22583487,12.649046 10.3561101,11.7088853 C12.0874347,10.2636186 13.0097998,9.68846148 14.2307994,9.29396267 C15.0246382,9.03587933 16.1095512,8.89946386 16.9978946,8.94739362 L17.4439564,8.96951505 L17.0394767,9.07274838 C15.9734646,9.33451862 15.0926815,9.77326029 13.9208243,10.6249353 C13.6940132,10.7871591 13.5125643,10.9309484 13.5125643,10.9420091 C13.5125643,10.9530698 13.5428058,10.9973127 13.5806077,11.0378686 C13.4634219,10.9641305 13.6410906,10.8387758 12.1781591,12.0259591 C10.620723,13.2942544 9.92894922,13.7772389 9.08974822,14.1901722 C8.43955645,14.510933 7.91789096,14.6805306 7.19965586,14.8021984 C6.7951761,14.8722496 5.99377694,14.898058 5.57795662,14.857502 Z" id="Shape" transform="translate(10.951489, 11.907340) scale(-1, 1) rotate(-180.000000) translate(-10.951489, -11.907340) "></path>
                        </g>
                    </g>
                    <polygon id="Fill-97" fill="#52311C" points="10.4153731 376.487426 22.1171214 376.487426 22.1171214 282.332695 10.4153731 282.332695"></polygon>
                    <polygon id="Fill-100" fill="#52311C" points="99.6656186 376.487426 111.37351 376.487426 111.37351 282.332695 99.6656186 282.332695"></polygon>
                    <polygon id="Fill-109" fill="#653921" points="0 282.366446 119.795181 282.366446 119.795181 259.368318 0 259.368318"></polygon>
                    <g id="Group-2" transform="translate(52.403670, 233.185286)">
                        <path d="M46.7522936,18.4904632 C42.2124116,18.4904632 38.5321101,14.8111466 38.5321101,10.2724796 C38.5321101,5.73381252 42.2124116,2.05449591 46.7522936,2.05449591 C51.2921756,2.05449591 54.9724771,5.73381252 54.9724771,10.2724796 C54.9724771,14.8111466 51.2921756,18.4904632 46.7522936,18.4904632 Z M46.7522936,14.3814714 C49.0222346,14.3814714 50.8623853,12.5418131 50.8623853,10.2724796 C50.8623853,8.00314604 49.0222346,6.16348774 46.7522936,6.16348774 C44.4823526,6.16348774 42.6422018,8.00314604 42.6422018,10.2724796 C42.6422018,12.5418131 44.4823526,14.3814714 46.7522936,14.3814714 Z" id="Combined-Shape" fill="#74A9BA"></path>
                        <path d="M0,5.00415906 C0,2.24043832 2.23920962,0 5.00331438,0 L41.7489792,0 C44.5122334,0 46.7522936,2.23335587 46.7522936,5.00415906 L46.7522936,13.0974114 C46.7522936,20.330912 40.8784225,26.1948229 33.651451,26.1948229 L13.1008426,26.1948229 C5.86544701,26.1948229 0,20.3325025 0,13.0974114 L0,5.00415906 Z" id="Rectangle" fill="#8AC5D7"></path>
                    </g>
                </g>
                <g id="plant" transform="translate(684.500000, 220.500000) scale(-1, 1) translate(-684.500000, -220.500000) translate(638.000000, 59.000000)">
                    <g id="Group" transform="translate(1.000000, 0.000000)">
                        <path d="M49.6583963,204.676855 C49.6583963,204.676855 15.1981306,134.686126 35.0790531,55.8727031 C54.9599757,-22.9407203 49.6583963,204.676855 49.6583963,204.676855 Z" id="Path-2" fill="#7BABC1" transform="translate(39.600331, 121.980598) scale(-1, 1) rotate(5.000000) translate(-39.600331, -121.980598) "></path>
                        <path d="M33.8411993,206.568769 C33.8411993,206.568769 8.41144883,154.919522 23.0824587,96.7596196 C37.7534686,38.5997172 33.8411993,206.568769 33.8411993,206.568769 Z" id="Path-2" fill="#729FB4" transform="translate(26.418909, 145.543552) scale(-1, 1) rotate(18.000000) translate(-26.418909, -145.543552) "></path>
                        <path d="M65.4398998,214.073179 C65.4398998,214.073179 21.081594,123.978977 46.6729243,22.5279328 C72.2642545,-78.9231111 65.4398998,214.073179 65.4398998,214.073179 Z" id="Path-2" fill="#86BBD3" transform="translate(52.492851, 107.624033) rotate(5.000000) translate(-52.492851, -107.624033) "></path>
                    </g>
                    <path d="M0.725926759,175.38594 C0.504157787,172.629669 2.55349623,170.395269 5.32263985,170.395269 L88.2922176,170.395269 C91.0526811,170.395269 93.1109798,172.626187 92.8889307,175.38594 L81.4134856,318.009329 C81.1917166,320.7656 78.77474,323 76.0093749,323 L17.6054825,323 C14.8426436,323 12.423421,320.769083 12.2013718,318.009329 L0.725926759,175.38594 Z" id="Rectangle" fill="#D8D8D8"></path>
                </g>
                <g id="plant" transform="translate(277.000000, 54.000000)">
                    <g id="Group" transform="translate(1.000000, 0.000000)">
                        <path d="M49.6583963,204.676855 C49.6583963,204.676855 15.1981306,134.686126 35.0790531,55.8727031 C54.9599757,-22.9407203 49.6583963,204.676855 49.6583963,204.676855 Z" id="Path-2" fill="#7BABC1" transform="translate(39.600331, 121.980598) scale(-1, 1) rotate(5.000000) translate(-39.600331, -121.980598) "></path>
                        <path d="M33.8411993,206.568769 C33.8411993,206.568769 8.41144883,154.919522 23.0824587,96.7596196 C37.7534686,38.5997172 33.8411993,206.568769 33.8411993,206.568769 Z" id="Path-2" fill="#729FB4" transform="translate(26.418909, 145.543552) scale(-1, 1) rotate(18.000000) translate(-26.418909, -145.543552) "></path>
                        <path d="M65.4398998,214.073179 C65.4398998,214.073179 21.081594,123.978977 46.6729243,22.5279328 C72.2642545,-78.9231111 65.4398998,214.073179 65.4398998,214.073179 Z" id="Path-2" fill="#86BBD3" transform="translate(52.492851, 107.624033) rotate(5.000000) translate(-52.492851, -107.624033) "></path>
                    </g>
                    <path d="M0.725926759,175.38594 C0.504157787,172.629669 2.55349623,170.395269 5.32263985,170.395269 L88.2922176,170.395269 C91.0526811,170.395269 93.1109798,172.626187 92.8889307,175.38594 L81.4134856,318.009329 C81.1917166,320.7656 78.77474,323 76.0093749,323 L17.6054825,323 C14.8426436,323 12.423421,320.769083 12.2013718,318.009329 L0.725926759,175.38594 Z" id="Rectangle" fill="#D8D8D8"></path>
                </g>
            </g>
        </g>
    </g>
</svg>