<?xml version="1.0" encoding="UTF-8"?>
<svg width="154px" height="137px" viewBox="0 0 154 137" version="1.1" xmlns="http://www.w3.org/2000/svg" xmlns:xlink="http://www.w3.org/1999/xlink">
    <title>Shape</title>
    <g id="Page-1" stroke="none" stroke-width="1" fill="none" fill-rule="evenodd">
        <g id="icon-custom-software-development" fill="#979797">
            <path d="M133.376,0 L130.181,0 C128.947,0 127.947,1.00046 127.947,2.2345 C127.947,3.46853 128.947,4.46899 130.181,4.46899 L133.376,4.46899 C141.882,4.46899 148.802,11.3891 148.802,19.8954 L148.802,80.0876 L141.192,80.0876 L141.192,22.1227 C141.192,16.585 136.686,12.0797 131.149,12.0797 L22.8519,12.0797 C17.3142,12.0797 12.8089,16.585 12.8089,22.1227 L12.8089,80.0876 L5.19848,80.0876 L5.19848,19.8954 C5.19848,11.3894 12.1189,4.46899 20.6248,4.46899 L119.651,4.46899 C120.885,4.46899 121.886,3.46853 121.886,2.2345 C121.886,1.00046 120.885,0 119.651,0 L20.6248,0 C9.65437,0 0.729492,8.92517 0.729492,19.8954 L0.729492,87.2639 C0.729492,96.9369 7.63319,105.177 17.1453,106.855 C17.2767,106.879 17.4072,106.89 17.5365,106.89 C18.6001,106.89 19.5431,106.127 19.7343,105.043 C19.9488,103.828 19.1376,102.669 17.9223,102.455 C10.5497,101.153 5.19848,94.7647 5.19848,87.2639 L5.19848,84.5566 L148.802,84.5566 L148.802,87.2639 C148.802,95.7699 141.882,102.69 133.376,102.69 L28.0249,102.69 C26.7909,102.69 25.7904,103.691 25.7904,104.925 C25.7904,106.159 26.7909,107.159 28.0249,107.159 L54.7525,107.159 L53.5604,120.101 L52.588,120.101 C48.3797,120.101 44.6102,122.921 43.4215,126.958 L42.9052,128.712 C42.3713,130.526 42.7148,132.434 43.8469,133.947 C44.9791,135.461 46.7124,136.328 48.6025,136.328 L105.398,136.328 C107.288,136.328 109.021,135.461 110.153,133.947 C111.286,132.434 111.629,130.526 111.095,128.712 L110.579,126.958 C109.39,122.921 105.621,120.101 101.412,120.101 L100.44,120.101 L99.2478,107.159 L133.375,107.159 C144.346,107.159 153.271,98.2341 153.271,87.2639 L153.271,19.8954 C153.271,8.92517 144.346,0 133.376,0 Z M33.8954,31.344 C35.1295,31.344 36.1299,30.3435 36.1299,29.1095 L36.1299,26.5175 C36.1299,25.2834 35.1295,24.283 33.8954,24.283 C32.6614,24.283 31.6609,25.2834 31.6609,26.5175 L31.6609,29.1095 C31.6609,30.3438 32.6614,31.344 33.8954,31.344 Z M65.1262,31.344 C66.3603,31.344 67.3607,30.3435 67.3607,29.1095 L67.3607,26.5175 C67.3607,25.2834 66.3603,24.283 65.1262,24.283 C63.8922,24.283 62.8917,25.2834 62.8917,26.5175 L62.8917,29.1095 C62.8917,30.3438 63.8919,31.344 65.1262,31.344 Z M68.6307,47.482 L30.391,47.482 C29.1566,47.482 28.1565,46.4816 28.1565,45.2475 C28.1565,44.0135 29.1569,43.013 30.391,43.013 L68.6307,43.013 C69.8647,43.013 70.8652,44.0135 70.8652,45.2475 C70.8652,46.4816 69.8647,47.482 68.6307,47.482 Z M49.5108,33.3348 C51.7346,33.3348 53.849,32.3719 55.3125,30.6928 C56.1232,29.7626 56.0263,28.351 55.0959,27.5403 C54.1657,26.7297 52.7541,26.8265 51.9435,27.7569 C51.3294,28.4616 50.4428,28.8659 49.5111,28.8659 C48.5798,28.8659 47.6932,28.4616 47.0788,27.7569 C46.2681,26.8265 44.8565,26.7297 43.9264,27.5403 C42.9959,28.351 42.8991,29.7626 43.7098,30.6928 C45.1726,32.3719 47.2874,33.3348 49.5108,33.3348 Z M68.6307,59.6265 L30.391,59.6265 C29.1566,59.6265 28.1565,58.626 28.1565,57.392 C28.1565,56.158 29.1569,55.1575 30.391,55.1575 L68.6307,55.1575 C69.8647,55.1575 70.8652,56.158 70.8652,57.392 C70.8652,58.626 69.8647,59.6265 68.6307,59.6265 Z M17.2782,80.0881 L80.6089,80.0881 L80.6089,16.5491 L22.8522,16.5491 C19.7788,16.5491 17.2782,19.0497 17.2782,22.1232 L17.2782,80.0881 Z M136.723,80.0881 L85.0778,80.0881 L85.0778,16.5491 L131.149,16.5491 C134.222,16.5491 136.723,19.0497 136.723,22.1232 L136.723,80.0881 Z M94.76,107.159 L59.2399,107.159 L58.0478,120.101 L95.952,120.101 L94.76,107.159 Z M101.412,124.57 C103.652,124.57 105.658,126.071 106.291,128.22 L106.808,129.974 C106.988,130.589 106.739,131.05 106.575,131.27 C106.41,131.49 106.038,131.859 105.397,131.859 L48.6022,131.859 C47.9619,131.859 47.5898,131.49 47.4251,131.27 C47.145,130.895 47.0598,130.423 47.1921,129.974 L47.7084,128.22 C48.3412,126.071 50.3475,124.57 52.5876,124.57 L55.5977,124.57 L55.6009,124.57 L55.6039,124.57 L98.396,124.57 L98.399,124.57 L98.4023,124.57 L101.412,124.57 Z M77.0002,89.3366 C79.3676,89.3366 81.2869,91.2556 81.2869,93.6233 C81.2869,95.9906 79.3676,97.9099 77.0002,97.9099 C74.6329,97.9099 72.7136,95.9906 72.7136,93.6233 C72.7136,91.2559 74.6329,89.3366 77.0002,89.3366 Z M130.106,33.8075 L114.901,25.0292 C112.433,23.6042 109.366,23.6036 106.897,25.0292 L91.6927,33.8075 C90.5844,34.4472 89.9019,35.562 89.8161,36.8226 C89.8056,36.9099 89.7988,36.9981 89.7988,37.088 L89.7988,57.98 C89.7988,59.3493 90.5067,60.5756 91.6927,61.2602 L106.897,70.0385 C108.075,70.7184 109.388,71.07 110.708,71.1012 C110.771,71.1066 110.835,71.1108 110.899,71.1108 C110.964,71.1108 111.027,71.1066 111.09,71.1009 C112.41,71.0697 113.724,70.7181 114.901,70.0382 L130.105,61.2602 C131.291,60.5756 131.999,59.349 131.999,57.9797 L131.999,37.088 C131.999,36.9981 131.992,36.9099 131.982,36.8226 C131.897,35.562 131.214,34.4472 130.106,33.8075 Z M94.269,57.586 L108.666,65.8983 L108.666,49.8951 C108.056,49.7182 107.461,49.4712 106.898,49.1464 L94.269,41.8548 L94.269,57.586 Z M109.132,45.2757 L94.9493,37.0873 L109.132,28.8989 C110.223,28.2693 111.578,28.2693 112.667,28.8989 L126.85,37.0873 L112.667,45.2757 C111.577,45.9055 110.222,45.9055 109.132,45.2757 Z M113.134,65.8983 L127.531,57.586 L127.531,57.586 L127.531,41.8548 L114.902,49.1464 C114.34,49.4712 113.745,49.7182 113.134,49.8948 L113.134,65.8983 Z M30.391,71.771 L51.5922,71.771 C52.5226,74.4759 55.0908,76.4262 58.1077,76.4262 C61.1245,76.4262 63.6927,74.4762 64.6232,71.771 L68.6307,71.771 C69.8647,71.771 70.8652,70.7705 70.8652,69.5365 C70.8652,68.3025 69.8647,67.302 68.6307,67.302 L64.6232,67.302 C63.6927,64.5968 61.1245,62.6468 58.1077,62.6468 C55.0908,62.6468 52.5223,64.5968 51.5922,67.302 L30.391,67.302 C29.1569,67.302 28.1565,68.3025 28.1565,69.5365 C28.1565,70.7705 29.1566,71.771 30.391,71.771 Z M60.5278,69.5365 C60.5278,68.2018 59.4422,67.1158 58.1074,67.1158 C56.7727,67.1158 55.6867,68.2018 55.6867,69.5365 C55.6867,70.8712 56.7727,71.9572 58.1074,71.9572 C59.4419,71.9572 60.5278,70.8712 60.5278,69.5365 Z" id="Shape"></path>
        </g>
    </g>
</svg>