<svg width="150" height="100" viewBox="0 0 150 100" fill="none" xmlns="http://www.w3.org/2000/svg">
<rect y="50" width="50" height="50" rx="1" fill="#534B78"/>
<rect x="1.42871" y="51.4286" width="47.1429" height="47.1429" rx="1" fill="#674C7C"/>
<path d="M48.293 52.4213L2.42146 98.2928C1.7915 98.9228 0.714355 98.4766 0.714355 97.5857V51.7142C0.714355 51.1619 1.16207 50.7142 1.71435 50.7142H47.5859C48.4768 50.7142 48.9229 51.7914 48.293 52.4213Z" fill="#534B78"/>
<rect x="50" y="50" width="50" height="50" rx="1" fill="#534B78"/>
<rect x="51.4287" y="51.4286" width="47.1429" height="47.1429" rx="1" fill="#674C7C"/>
<path d="M98.293 52.4213L52.4215 98.2928C51.7915 98.9228 50.7144 98.4766 50.7144 97.5857V51.7142C50.7144 51.1619 51.1621 50.7142 51.7144 50.7142H97.5859C98.4768 50.7142 98.9229 51.7914 98.293 52.4213Z" fill="#534B78"/>
<rect x="50" width="50" height="50" rx="1" fill="#534B78"/>
<rect x="51.4287" y="1.42859" width="47.1429" height="47.1429" rx="1" fill="#674C7C"/>
<path d="M98.293 2.42134L52.4215 48.2928C51.7915 48.9228 50.7144 48.4766 50.7144 47.5857V1.71423C50.7144 1.16195 51.1621 0.714233 51.7144 0.714233H97.5859C98.4768 0.714233 98.9229 1.79138 98.293 2.42134Z" fill="#534B78"/>
<rect x="100" width="50" height="50" rx="1" fill="#534B78"/>
<rect x="101.429" y="1.42859" width="47.1429" height="47.1429" rx="1" fill="#674C7C"/>
<path d="M148.293 2.42134L102.421 48.2928C101.791 48.9228 100.714 48.4766 100.714 47.5857V1.71423C100.714 1.16195 101.162 0.714233 101.714 0.714233H147.586C148.477 0.714233 148.923 1.79138 148.293 2.42134Z" fill="#534B78"/>
</svg>
