<svg width="150" height="100" viewBox="0 0 150 100" fill="none" xmlns="http://www.w3.org/2000/svg">
<rect width="50" height="50" rx="1" fill="#534B78"/>
<rect x="1.42871" y="1.42859" width="47.1429" height="47.1429" rx="1" fill="#674C7C"/>
<path d="M48.293 2.42141L2.42146 48.2929C1.7915 48.9229 0.714355 48.4767 0.714355 47.5858V1.71429C0.714355 1.16201 1.16207 0.714294 1.71435 0.714294H47.5859C48.4768 0.714294 48.9229 1.79144 48.293 2.42141Z" fill="#534B78"/>
<rect y="50" width="50" height="50" rx="1" fill="#534B78"/>
<rect x="1.42871" y="51.4286" width="47.1429" height="47.1429" rx="1" fill="#674C7C"/>
<path d="M48.293 52.4214L2.42146 98.2929C1.7915 98.9229 0.714355 98.4767 0.714355 97.5858V51.7143C0.714355 51.162 1.16207 50.7143 1.71435 50.7143H47.5859C48.4768 50.7143 48.9229 51.7914 48.293 52.4214Z" fill="#534B78"/>
<rect x="50" y="50" width="50" height="50" rx="1" fill="#534B78"/>
<rect x="51.4287" y="51.4286" width="47.1429" height="47.1429" rx="1" fill="#674C7C"/>
<path d="M98.293 52.4214L52.4215 98.2929C51.7915 98.9229 50.7144 98.4767 50.7144 97.5858V51.7143C50.7144 51.162 51.1621 50.7143 51.7144 50.7143H97.5859C98.4768 50.7143 98.9229 51.7914 98.293 52.4214Z" fill="#534B78"/>
<rect x="100" y="50" width="50" height="50" rx="1" fill="#534B78"/>
<rect x="101.429" y="51.4286" width="47.1429" height="47.1429" rx="1" fill="#674C7C"/>
<path d="M148.293 52.4214L102.421 98.2929C101.791 98.9229 100.714 98.4767 100.714 97.5858V51.7143C100.714 51.162 101.162 50.7143 101.714 50.7143H147.586C148.477 50.7143 148.923 51.7914 148.293 52.4214Z" fill="#534B78"/>
</svg>
