<?xml version="1.0" encoding="UTF-8"?>
<svg width="156px" height="140px" viewBox="0 0 156 140" version="1.1" xmlns="http://www.w3.org/2000/svg" xmlns:xlink="http://www.w3.org/1999/xlink">
    <title>Shape</title>
    <g id="Page-1" stroke="none" stroke-width="1" fill="none" fill-rule="evenodd">
        <g id="icon-greenfield-product-development" fill="#979797">
            <path d="M137.8,25.9256 C144.976,25.9341 150.791,31.7328 150.8,38.8886 L150.8,124.444 L156,124.444 L156,132.222 C156,136.518 152.508,140 148.2,140 L7.8,140 C3.49218,140 0,136.518 0,132.222 L0,124.444 L5.2,124.444 L5.2,38.8886 C5.2086,31.7328 11.0239,25.9341 18.2,25.9256 L41.249,25.9256 C46.7495,10.3892 61.4769,0 78,0 C94.5231,0 109.25,10.3892 114.751,25.9256 L137.8,25.9256 Z M66.1386,7.3134 C54,11.8484 45.5316,22.9064 44.3404,35.7774 L44.3404,35.7904 C43.5134,44.6076 46.2205,53.3928 51.87,60.2257 C59.7998,69.5063 64.408,81.1537 64.9688,93.3332 L91.013,93.3332 C91.4727,81.2229 96.0331,69.625 103.951,60.4305 C115.354,46.8195 114.207,26.7193 101.327,14.487 C91.9476,5.56523 78.2772,2.77837 66.1386,7.3134 Z M65,103.704 L65,98.5184 L91,98.5184 L91,103.704 L65,103.704 Z M83.2,114.074 C86.5046,114.07 89.4495,111.994 90.5554,108.889 L65.4446,108.889 C66.5505,111.994 69.4954,114.07 72.8,114.074 L83.2,114.074 Z M10.4,38.8886 C10.4,34.593 13.8922,31.1108 18.2,31.1108 L39.8008,31.1108 C39.5091,32.5039 39.2956,33.9121 39.1612,35.3289 C38.2123,45.5016 41.3379,55.6354 47.8556,63.5183 C55.4224,72.3248 59.6496,83.5003 59.8,95.0961 L59.8,106.296 C59.8086,113.452 65.6239,119.251 72.8,119.259 L83.2,119.259 C90.3761,119.251 96.1914,113.452 96.2,106.296 L96.2,94.4376 C96.397,83.1637 100.55,72.315 107.936,63.7775 C113.789,56.7965 116.997,47.9876 117,38.8886 C117,36.2765 116.739,33.671 116.22,31.1108 L137.8,31.1108 C142.108,31.1108 145.6,34.593 145.6,38.8886 L145.6,124.444 L10.4,124.444 L10.4,38.8886 Z M148.2,134.815 C149.636,134.815 150.8,133.654 150.8,132.222 L150.8,129.63 L5.2,129.63 L5.2,132.222 C5.2,133.654 6.36406,134.815 7.8,134.815 L148.2,134.815 Z" id="Shape"></path>
        </g>
    </g>
</svg>