<svg width="144" height="144" viewBox="0 0 144 144" fill="none" xmlns="http://www.w3.org/2000/svg">
<path fill-rule="evenodd" clip-rule="evenodd" d="M72 0C32.3001 0 0 32.3001 0 72C0 111.7 32.3001 144 72 144C111.7 144 144 111.7 144 72C144 32.3001 111.7 0 72 0ZM137.897 58.0645H125.977C120.926 38.506 105.494 23.0748 85.9359 18.0232V6.10371C111.912 11.5896 132.411 32.0887 137.897 58.0645ZM138.7 81.2906C139.121 78.2504 139.355 75.1544 139.355 72.0003C139.355 68.8462 139.121 65.7502 138.698 62.71H126.953C127.464 65.734 127.742 68.8346 127.742 72.0003C127.742 75.166 127.464 78.2666 126.953 81.2906H138.7ZM117.197 95.7972C115.499 96.3663 114.266 97.2605 113.265 98.0223L113.261 98.025C111.853 99.0966 110.836 99.8711 108.569 99.8711C106.302 99.8711 105.282 99.0976 103.875 98.0246L103.591 97.8109L100.793 101.518L101.062 101.722L101.063 101.723C102.7 102.968 104.737 104.516 108.569 104.516C109.793 104.516 110.819 104.347 111.723 104.091C109.802 106.465 107.672 108.657 105.363 110.652C104.866 110.36 104.383 110.025 103.875 109.638C102.237 108.39 100.2 106.839 96.3657 106.839C92.5334 106.839 90.4965 108.39 88.8614 109.638C87.4516 110.711 86.4343 111.484 84.1698 111.484C81.9076 111.484 80.8903 110.711 79.4852 109.638C77.8501 108.39 75.8155 106.839 71.9832 106.839C68.151 106.839 66.1164 108.39 64.4813 109.638C63.0738 110.711 62.0565 111.484 59.792 111.484C57.5298 111.484 56.5125 110.711 55.1074 109.638L54.8194 109.419L52.0183 113.126L52.2924 113.333C53.9275 114.58 55.9621 116.129 59.792 116.129C63.6243 116.129 65.6612 114.578 67.2963 113.33C68.7038 112.257 69.7211 111.484 71.9832 111.484C74.2454 111.484 75.2604 112.257 76.6679 113.33C78.303 114.578 80.3376 116.129 84.1698 116.129C88.0021 116.129 90.039 114.578 91.6741 113.33C93.0839 112.257 94.1012 111.484 96.3657 111.484C98.6325 111.484 99.6521 112.26 101.06 113.333L101.127 113.384L101.206 113.443C101.308 113.519 101.411 113.595 101.513 113.672C93.1721 119.597 82.99 123.097 71.9995 123.097C61.0044 123.097 50.8176 119.594 42.4725 113.663C42.5245 113.624 42.577 113.585 42.6293 113.546L42.6313 113.544C42.7282 113.472 42.8246 113.401 42.9162 113.33C44.3236 112.257 45.3386 111.484 47.6031 111.484C47.9283 111.484 48.2325 111.5 48.5159 111.533L49.0338 106.918C48.5879 106.867 48.1141 106.839 47.6031 106.839C43.7732 106.839 41.7363 108.39 40.1012 109.638C39.5972 110.023 39.1211 110.355 38.6287 110.646C36.3247 108.653 34.1972 106.465 32.2811 104.096C33.1799 104.349 34.1972 104.516 35.4142 104.516C39.2465 104.516 41.2811 102.965 42.9162 101.718C44.3236 100.644 45.3386 99.8711 47.6031 99.8711C49.8676 99.8711 50.8826 100.644 52.2901 101.718C53.9252 102.965 55.9598 104.516 59.792 104.516C63.6243 104.516 65.6612 102.965 67.2963 101.718C68.7038 100.644 69.7211 99.8711 71.9832 99.8711C74.2454 99.8711 75.2604 100.644 76.6679 101.718C78.303 102.965 80.3376 104.516 84.1698 104.516C88.0021 104.516 90.039 102.965 91.6741 101.718C93.0839 100.644 94.1012 99.8711 96.3657 99.8711C96.6955 99.8711 97.0044 99.8873 97.2924 99.9198L97.8057 95.3049C97.3574 95.2538 96.879 95.2259 96.3657 95.2259C92.5334 95.2259 90.4965 96.7774 88.8614 98.0246C88.7778 98.088 88.697 98.1478 88.6178 98.206L88.4837 98.304L88.4831 98.3045C88.4085 98.3589 88.3345 98.4129 88.2599 98.4682V90.7271C88.2599 89.517 88.5781 88.3209 89.1773 87.2687L96.0196 75.2958C97.0183 73.5423 97.5479 71.5495 97.5479 69.5335V46.4517C97.5479 42.6102 94.4217 39.484 90.5801 39.484C89.7626 39.484 88.9869 39.6512 88.2576 39.9113V37.1614C88.2576 33.3198 85.1314 30.1936 81.2898 30.1936C80.3724 30.1936 79.5014 30.3818 78.6978 30.7046C77.8965 27.7433 75.2116 25.5485 71.9995 25.5485C68.7874 25.5485 66.1048 27.7433 65.3012 30.7046C64.4976 30.3818 63.6266 30.1936 62.7092 30.1936C58.8676 30.1936 55.7414 33.3198 55.7414 37.1614V47.7431C54.3688 46.9441 52.7964 46.4517 51.0963 46.4517C48.5345 46.4517 46.4511 48.5351 46.4511 51.0969V69.1874C46.4511 71.4868 47.127 73.7142 48.4021 75.628L54.5709 84.8811C55.3373 86.0308 55.7414 87.3663 55.7414 88.7459V98.4891C55.6814 98.4451 55.6216 98.4016 55.5615 98.3581C55.4125 98.2499 55.2623 98.1408 55.1051 98.02L55.0895 98.0081C53.4547 96.7676 51.4232 95.2259 47.6031 95.2259C43.7732 95.2259 41.7363 96.7774 40.1035 98.0246L40.1013 98.0263C38.6926 99.0984 37.6775 99.8711 35.4142 99.8711C33.152 99.8711 32.1347 99.0976 30.7272 98.0246C29.7262 97.2628 28.4976 96.3663 26.8021 95.7972C23.0418 88.6855 20.9027 80.589 20.9027 72.0001C20.9027 43.8249 43.8243 20.9033 71.9995 20.9033C100.175 20.9033 123.096 43.8249 123.096 72.0001C123.096 80.589 120.957 88.6855 117.197 95.7972ZM55.7424 67.3546V58.0643V55.7417C55.7424 53.1799 53.6591 51.0966 51.0973 51.0966V69.1872C51.0973 70.5668 51.5014 71.9023 52.2678 73.0566L58.4366 82.3097C59.7117 84.2236 60.3876 86.4509 60.3876 88.7503V99.8174C62.2178 99.6827 63.2165 98.9905 64.4823 98.0243C66.1174 96.7771 68.152 95.2256 71.9842 95.2256C75.8133 95.2256 77.8477 96.7745 79.4821 98.0189L79.4862 98.022C80.7589 98.9952 81.76 99.6896 83.6134 99.8174V90.7245C83.6134 88.7085 84.1429 86.7157 85.144 84.9645L91.9863 72.9916C92.5855 71.9394 92.9037 70.7433 92.9037 69.5332V46.4514C92.9037 45.1717 91.8609 44.1288 90.5811 44.1288C89.3014 44.1288 88.2586 45.1717 88.2586 46.4514V55.7417V62.7095H83.6134V55.7417V46.4514V37.1611C83.6134 35.8814 82.5706 34.8385 81.2908 34.8385C80.0111 34.8385 78.9682 35.8814 78.9682 37.1611V51.0966V62.7095H74.3231V51.0966V37.1611V32.5159C74.3231 31.2362 73.2802 30.1934 72.0005 30.1934C70.7207 30.1934 69.6779 31.2362 69.6779 32.5159V37.1611V51.0966V62.7095H65.0328V51.0966V37.1611C65.0328 35.8814 63.9899 34.8385 62.7102 34.8385C61.4304 34.8385 60.3876 35.8814 60.3876 37.1611V55.7417V58.0643V67.3546H55.7424ZM81.29 5.30028V17.0479C78.266 16.5369 75.1654 16.2582 71.9997 16.2582C68.834 16.2582 65.7334 16.5369 62.7094 17.0479V5.30028C65.7496 4.87989 68.8456 4.64531 71.9997 4.64531C75.1538 4.64531 78.2498 4.87989 81.29 5.30028ZM58.0651 18.0232V6.10371C32.0893 11.5896 11.5902 32.0887 6.1043 58.0645H18.0238C23.0754 38.506 38.5066 23.0748 58.0651 18.0232ZM17.0479 81.2906H5.30028C4.87989 78.2504 4.64531 75.1544 4.64531 72.0003C4.64531 68.8462 4.87989 65.7502 5.30028 62.71H17.0479C16.5369 65.734 16.2582 68.8346 16.2582 72.0003C16.2582 75.166 16.5369 78.2666 17.0479 81.2906ZM18.0238 85.9353H6.1043C11.5902 111.911 32.0893 132.41 58.0651 137.896V125.977C38.5066 120.925 23.0754 105.494 18.0238 85.9353ZM62.7094 138.7V126.952C65.7334 127.463 68.834 127.742 71.9997 127.742C75.1654 127.742 78.266 127.463 81.29 126.952V138.697C78.2498 139.12 75.1538 139.355 71.9997 139.355C68.8456 139.355 65.7496 139.12 62.7094 138.7ZM85.9359 125.977V137.896C111.912 132.41 132.411 111.911 137.897 85.9353H125.977C120.926 105.494 105.494 120.925 85.9359 125.977Z" fill="#10293F"/>
</svg>
