<svg width="156" height="140" viewBox="0 0 156 140" fill="none" xmlns="http://www.w3.org/2000/svg">
<path fill-rule="evenodd" clip-rule="evenodd" d="M137.8 25.9256C144.976 25.9341 150.791 31.7328 150.8 38.8886V124.444H156V132.222C156 136.518 152.508 140 148.2 140H7.8C3.49218 140 0 136.518 0 132.222V124.444H5.2V38.8886C5.2086 31.7328 11.0239 25.9341 18.2 25.9256H41.249C46.7495 10.3892 61.4769 0 78 0C94.5231 0 109.25 10.3892 114.751 25.9256H137.8ZM66.1386 7.3134C54 11.8484 45.5316 22.9064 44.3404 35.7774V35.7904C43.5134 44.6076 46.2205 53.3928 51.87 60.2257C59.7998 69.5063 64.408 81.1537 64.9688 93.3332H91.013C91.4727 81.2229 96.0331 69.625 103.951 60.4305C115.354 46.8195 114.207 26.7193 101.327 14.487C91.9476 5.56523 78.2772 2.77837 66.1386 7.3134ZM65 103.704V98.5184H91V103.704H65ZM83.2 114.074C86.5046 114.07 89.4495 111.994 90.5554 108.889H65.4446C66.5505 111.994 69.4954 114.07 72.8 114.074H83.2ZM10.4 38.8886C10.4 34.593 13.8922 31.1108 18.2 31.1108H39.8008C39.5091 32.5039 39.2956 33.9121 39.1612 35.3289C38.2123 45.5016 41.3379 55.6354 47.8556 63.5183C55.4224 72.3248 59.6496 83.5003 59.8 95.0961V106.296C59.8086 113.452 65.6239 119.251 72.8 119.259H83.2C90.3761 119.251 96.1914 113.452 96.2 106.296V94.4376C96.397 83.1637 100.55 72.315 107.936 63.7775C113.789 56.7965 116.997 47.9876 117 38.8886C117 36.2765 116.739 33.671 116.22 31.1108H137.8C142.108 31.1108 145.6 34.593 145.6 38.8886V124.444H10.4V38.8886ZM148.2 134.815C149.636 134.815 150.8 133.654 150.8 132.222V129.63H5.2V132.222C5.2 133.654 6.36406 134.815 7.8 134.815H148.2Z" fill="#10293F"/>
</svg>
