<svg width="198" height="50" viewBox="0 0 198 50" fill="none" xmlns="http://www.w3.org/2000/svg">
<rect width="50" height="50" rx="1" fill="#4F3960"/>
<rect x="1.42871" y="1.42859" width="47.1429" height="47.1429" rx="1" fill="#674C7C"/>
<path d="M48.293 2.42134L2.42146 48.2928C1.7915 48.9228 0.714355 48.4766 0.714355 47.5857V1.71423C0.714355 1.16195 1.16207 0.714233 1.71435 0.714233H47.5859C48.4768 0.714233 48.9229 1.79138 48.293 2.42134Z" fill="#58406A"/>
<rect x="9.5" y="9.5" width="31" height="31" fill="#725589" stroke="#77588F"/>
<rect x="50" width="50" height="50" rx="1" fill="#4F3960"/>
<rect x="51.4287" y="1.42859" width="47.1429" height="47.1429" rx="1" fill="#674C7C"/>
<path d="M98.293 2.42134L52.4215 48.2928C51.7915 48.9228 50.7144 48.4766 50.7144 47.5857V1.71423C50.7144 1.16195 51.1621 0.714233 51.7144 0.714233H97.5859C98.4768 0.714233 98.9229 1.79138 98.293 2.42134Z" fill="#58406A"/>
<rect x="59.5" y="9.5" width="31" height="31" fill="#725589" stroke="#77588F"/>
<rect x="99" width="50" height="50" rx="1" fill="#4F3960"/>
<rect x="100.429" y="1.42859" width="47.1429" height="47.1429" rx="1" fill="#674C7C"/>
<path d="M147.293 2.42134L101.421 48.2928C100.791 48.9228 99.7144 48.4766 99.7144 47.5857V1.71423C99.7144 1.16195 100.162 0.714233 100.714 0.714233H146.586C147.477 0.714233 147.923 1.79138 147.293 2.42134Z" fill="#58406A"/>
<rect x="108.5" y="9.5" width="31" height="31" fill="#725589" stroke="#77588F"/>
<rect x="148" width="50" height="50" rx="1" fill="#4F3960"/>
<rect x="149.429" y="1.42859" width="47.1429" height="47.1429" rx="1" fill="#674C7C"/>
<path d="M196.293 2.42134L150.421 48.2928C149.791 48.9228 148.714 48.4766 148.714 47.5857V1.71423C148.714 1.16195 149.162 0.714233 149.714 0.714233H195.586C196.477 0.714233 196.923 1.79138 196.293 2.42134Z" fill="#58406A"/>
<rect x="157.5" y="9.5" width="31" height="31" fill="#725589" stroke="#77588F"/>
</svg>
