<svg id="Capa_1" enable-background="new 0 0 512 512" height="512" viewBox="0 0 512 512" width="512" xmlns="http://www.w3.org/2000/svg"><path d="m216.145 132.415c4.142 0 7.5-3.358 7.5-7.5v-8.7c0-4.142-3.358-7.5-7.5-7.5s-7.5 3.358-7.5 7.5v8.7c0 4.143 3.357 7.5 7.5 7.5zm-104.825 0c4.142 0 7.5-3.358 7.5-7.5v-8.7c0-4.142-3.358-7.5-7.5-7.5s-7.5 3.358-7.5 7.5v8.7c0 4.143 3.358 7.5 7.5 7.5zm-11.762 54.165h128.35c4.142 0 7.5-3.358 7.5-7.5s-3.358-7.5-7.5-7.5h-128.35c-4.142 0-7.5 3.358-7.5 7.5s3.357 7.5 7.5 7.5zm64.174-47.484c7.464 0 14.561-3.232 19.473-8.868 2.721-3.122 2.396-7.86-.727-10.581-3.122-2.721-7.86-2.396-10.581.727-2.061 2.365-5.037 3.722-8.164 3.722-3.126 0-6.102-1.357-8.164-3.722-2.721-3.123-7.459-3.448-10.581-.727-3.123 2.721-3.448 7.459-.727 10.581 4.91 5.636 12.008 8.868 19.471 8.868zm-64.174 88.247h128.35c4.142 0 7.5-3.358 7.5-7.5s-3.358-7.5-7.5-7.5h-128.35c-4.142 0-7.5 3.358-7.5 7.5s3.357 7.5 7.5 7.5zm345.664-200.134h-10.723c-4.142 0-7.5 3.358-7.5 7.5s3.358 7.5 7.5 7.5h10.723c28.55 0 51.778 23.227 51.778 51.778v202.033h-25.544v-194.557c0-18.587-15.122-33.709-33.709-33.709h-363.494c-18.587 0-33.709 15.122-33.709 33.709v194.557h-25.544v-202.033c0-28.55 23.228-51.778 51.778-51.778h332.378c4.142 0 7.5-3.358 7.5-7.5s-3.358-7.5-7.5-7.5h-332.378c-36.822 0-66.778 29.957-66.778 66.778v226.12c0 32.467 23.172 60.123 55.099 65.758.441.078.879.116 1.313.116 3.57 0 6.735-2.56 7.377-6.198.72-4.079-2.003-7.97-6.082-8.689-24.746-4.368-42.707-25.811-42.707-50.987v-9.087h482v9.087c0 28.55-23.228 51.778-51.778 51.778h-353.606c-4.142 0-7.5 3.358-7.5 7.5s3.358 7.5 7.5 7.5h89.71l-4.001 43.438h-3.264c-14.125 0-26.777 9.464-30.767 23.016l-1.733 5.888c-1.792 6.086-.639 12.49 3.161 17.57s9.618 7.993 15.962 7.993h190.631c6.344 0 12.162-2.913 15.962-7.993s4.953-11.484 3.161-17.57l-1.733-5.889c-3.989-13.551-16.641-23.015-30.767-23.015h-3.264l-4.001-43.438h114.548c36.821 0 66.778-29.957 66.778-66.778v-226.12c.001-36.821-29.956-66.778-66.777-66.778zm-177.111 268.811h-212.567v-194.557c0-10.316 8.393-18.709 18.709-18.709h193.858zm188.345 0h-173.345v-213.266h154.635c10.316 0 18.709 8.393 18.709 18.709v194.557zm-260.067 90.865h119.222l4.001 43.438h-127.224zm141.55 58.438c7.519 0 14.253 5.038 16.377 12.251l1.733 5.889c.607 2.063-.229 3.61-.782 4.349s-1.801 1.978-3.951 1.978h-190.631c-2.149 0-3.398-1.239-3.951-1.978-.94-1.257-1.226-2.842-.782-4.35l1.733-5.888c2.124-7.213 8.858-12.251 16.377-12.251h10.103.011.01 143.63.01s.007 0 .011 0zm-67.551-103.87c0-7.947-6.442-14.388-14.388-14.388s-14.388 6.442-14.388 14.388 6.442 14.388 14.388 14.388 14.388-6.442 14.388-14.388zm163.861-200.773-51.033-29.464c-8.285-4.783-18.581-4.785-26.866 0l-51.033 29.464c-3.72 2.147-6.011 5.889-6.299 10.12-.035.293-.058.589-.058.891v70.123c0 4.596 2.376 8.712 6.357 11.01l51.033 29.464c3.952 2.282 8.362 3.462 12.792 3.567.212.018.424.032.64.032.217 0 .43-.014.642-.033 4.43-.105 8.839-1.285 12.791-3.567l51.032-29.463c3.981-2.298 6.357-6.415 6.357-11.011v-70.122c0-.302-.023-.598-.058-.891-.286-4.231-2.577-7.973-6.297-10.12zm-71.965 107.713-48.323-27.9v-52.801l42.39 24.474c1.888 1.09 3.884 1.919 5.933 2.513zm1.567-69.218-47.604-27.484 47.604-27.484c3.661-2.113 8.208-2.113 11.866 0l47.604 27.484-47.604 27.484c-3.661 2.114-8.207 2.114-11.866 0zm61.755 41.318-48.322 27.9v-53.715c2.049-.593 4.045-1.422 5.933-2.512l42.39-24.474v52.801zm-326.048 47.613h71.161c3.123 9.079 11.743 15.625 21.869 15.625s18.746-6.545 21.869-15.625h13.451c4.142 0 7.5-3.358 7.5-7.5s-3.358-7.5-7.5-7.5h-13.451c-3.123-9.08-11.743-15.625-21.869-15.625s-18.747 6.545-21.869 15.625h-71.161c-4.142 0-7.5 3.358-7.5 7.5s3.357 7.5 7.5 7.5zm93.03-15.625c4.48 0 8.124 3.645 8.124 8.125s-3.645 8.125-8.124 8.125c-4.48 0-8.125-3.645-8.125-8.125s3.645-8.125 8.125-8.125z"/></svg>