<svg xmlns="http://www.w3.org/2000/svg" xmlns:xlink="http://www.w3.org/1999/xlink" version="1.1" id="Layer_1_1_" x="0px" y="0px" viewBox="0 0 64 64" style="enable-background:new 0 0 64 64;" xml:space="preserve" width="120" height="120">
                    <path d="M32,1C14.907,1,1,14.907,1,32s13.907,31,31,31s31-13.907,31-31S49.093,1,32,1z M60.372,26H55.24  C53.065,17.579,46.421,10.935,38,8.76V3.628C49.184,5.99,58.01,14.816,60.372,26z M61,32c0,1.358-0.101,2.691-0.282,4H55.66  C55.88,34.698,56,33.363,56,32s-0.12-2.698-0.34-4h5.057C60.899,29.309,61,30.642,61,32z M51.46,42.246  c-0.731,0.245-1.262,0.63-1.693,0.958C49.16,43.666,48.722,44,47.745,44c-0.976,0-1.415-0.333-2.021-0.795l-0.122-0.092  l-1.205,1.596l0.116,0.088C45.218,45.333,46.095,46,47.745,46c0.527,0,0.969-0.073,1.358-0.183  c-0.827,1.022-1.744,1.966-2.738,2.825c-0.214-0.126-0.422-0.27-0.641-0.437C45.019,47.668,44.142,47,42.491,47  c-1.65,0-2.527,0.668-3.231,1.205C38.653,48.667,38.215,49,37.24,49c-0.974,0-1.412-0.333-2.017-0.795  C34.519,47.668,33.643,47,31.993,47c-1.65,0-2.526,0.668-3.23,1.205C28.157,48.667,27.719,49,26.744,49  c-0.974,0-1.412-0.333-2.017-0.795l-0.124-0.094l-1.206,1.596l0.118,0.089C24.219,50.333,25.095,51,26.744,51  c1.65,0,2.527-0.668,3.231-1.205C30.581,49.333,31.019,49,31.993,49c0.974,0,1.411,0.333,2.017,0.795  C34.714,50.332,35.59,51,37.24,51c1.65,0,2.527-0.668,3.231-1.205C41.078,49.333,41.516,49,42.491,49  c0.976,0,1.415,0.334,2.021,0.796c0.063,0.048,0.13,0.097,0.195,0.146C41.116,52.493,36.732,54,32,54  c-4.734,0-9.12-1.508-12.713-4.062c0.064-0.048,0.13-0.096,0.191-0.143C20.084,49.333,20.521,49,21.496,49  c0.14,0,0.271,0.007,0.393,0.021l0.223-1.987C21.92,47.012,21.716,47,21.496,47c-1.649,0-2.526,0.668-3.23,1.205  c-0.217,0.166-0.422,0.309-0.634,0.434c-0.992-0.858-1.908-1.8-2.733-2.82C15.286,45.928,15.724,46,16.248,46  c1.65,0,2.526-0.668,3.23-1.205C20.084,44.333,20.521,44,21.496,44s1.412,0.333,2.018,0.795c0.704,0.537,1.58,1.205,3.23,1.205  s2.527-0.668,3.231-1.205C30.581,44.333,31.019,44,31.993,44c0.974,0,1.411,0.333,2.017,0.795C34.714,45.332,35.59,46,37.24,46  c1.65,0,2.527-0.668,3.231-1.205C41.078,44.333,41.516,44,42.491,44c0.142,0,0.275,0.007,0.399,0.021l0.221-1.987  C42.918,42.012,42.712,42,42.491,42c-1.65,0-2.527,0.668-3.231,1.205c-0.091,0.069-0.174,0.128-0.259,0.191v-3.333  c0-0.521,0.137-1.036,0.395-1.489l2.946-5.155C42.772,32.664,43,31.806,43,30.938V21c0-1.654-1.346-3-3-3  c-0.352,0-0.686,0.072-1,0.184V17c0-1.654-1.346-3-3-3c-0.395,0-0.77,0.081-1.116,0.22C34.539,12.945,33.383,12,32,12  s-2.538,0.945-2.884,2.22C28.77,14.081,28.395,14,28,14c-1.654,0-3,1.346-3,3v4.556C24.409,21.212,23.732,21,23,21  c-1.103,0-2,0.897-2,2v7.789c0,0.99,0.291,1.949,0.84,2.773l2.656,3.984c0.33,0.495,0.504,1.07,0.504,1.664v4.195  c-0.09-0.066-0.179-0.129-0.274-0.202C24.021,42.668,23.146,42,21.496,42c-1.649,0-2.526,0.668-3.229,1.205  C17.66,43.667,17.223,44,16.248,44c-0.974,0-1.412-0.333-2.018-0.795c-0.431-0.328-0.96-0.714-1.69-0.959  C10.921,39.184,10,35.698,10,32c0-12.131,9.869-22,22-22s22,9.869,22,22C54,35.698,53.079,39.184,51.46,42.246z M25,26v4h2v-4v-1v-8  c0-0.551,0.449-1,1-1s1,0.449,1,1v6v5h2v-5v-6v-2c0-0.551,0.449-1,1-1s1,0.449,1,1v2v6v5h2v-5v-6c0-0.551,0.449-1,1-1s1,0.449,1,1v4  v4v3h2v-3v-4c0-0.551,0.449-1,1-1s1,0.449,1,1v9.938c0,0.521-0.137,1.036-0.395,1.489l-2.946,5.155  C37.228,38.336,37,39.194,37,40.062v3.915c-0.798-0.055-1.229-0.354-1.777-0.773C34.519,42.668,33.643,42,31.993,42  c-1.65,0-2.526,0.668-3.23,1.205c-0.545,0.416-0.975,0.714-1.763,0.772v-4.765c0-0.99-0.291-1.949-0.84-2.773l-2.656-3.984  C23.174,31.958,23,31.383,23,30.789V23c1.103,0,2,0.897,2,2V26z M36,3.282V8.34C34.698,8.12,33.363,8,32,8s-2.698,0.12-4,0.34V3.282  C29.309,3.101,30.642,3,32,3S34.691,3.101,36,3.282z M26,3.628V8.76C17.579,10.935,10.935,17.579,8.76,26H3.628  C5.99,14.816,14.816,5.99,26,3.628z M8.34,36H3.282C3.101,34.691,3,33.358,3,32s0.101-2.691,0.282-4H8.34C8.12,29.302,8,30.637,8,32  S8.12,34.698,8.34,36z M3.628,38H8.76c2.175,8.421,8.819,15.065,17.24,17.24v5.132C14.816,58.01,5.99,49.184,3.628,38z M28,60.718  V55.66C29.302,55.88,30.637,56,32,56s2.698-0.12,4-0.34v5.057C34.691,60.899,33.358,61,32,61S29.309,60.899,28,60.718z M38,60.372  V55.24c8.421-2.175,15.065-8.819,17.24-17.24h5.132C58.01,49.184,49.184,58.01,38,60.372z"/>
                    </svg>     
