<svg width="154" height="137" viewBox="0 0 154 137" fill="none" xmlns="http://www.w3.org/2000/svg">
<path fill-rule="evenodd" clip-rule="evenodd" d="M133.376 0H130.181C128.947 0 127.947 1.00046 127.947 2.2345C127.947 3.46853 128.947 4.46899 130.181 4.46899H133.376C141.882 4.46899 148.802 11.3891 148.802 19.8954V80.0876H141.192V22.1227C141.192 16.585 136.686 12.0797 131.149 12.0797H22.8519C17.3142 12.0797 12.8089 16.585 12.8089 22.1227V80.0876H5.19848V19.8954C5.19848 11.3894 12.1189 4.46899 20.6248 4.46899H119.651C120.885 4.46899 121.886 3.46853 121.886 2.2345C121.886 1.00046 120.885 0 119.651 0H20.6248C9.65437 0 0.729492 8.92517 0.729492 19.8954V87.2639C0.729492 96.9369 7.63319 105.177 17.1453 106.855C17.2767 106.879 17.4072 106.89 17.5365 106.89C18.6001 106.89 19.5431 106.127 19.7343 105.043C19.9488 103.828 19.1376 102.669 17.9223 102.455C10.5497 101.153 5.19848 94.7647 5.19848 87.2639V84.5566H148.802V87.2639C148.802 95.7699 141.882 102.69 133.376 102.69H28.0249C26.7909 102.69 25.7904 103.691 25.7904 104.925C25.7904 106.159 26.7909 107.159 28.0249 107.159H54.7525L53.5604 120.101H52.588C48.3797 120.101 44.6102 122.921 43.4215 126.958L42.9052 128.712C42.3713 130.526 42.7148 132.434 43.8469 133.947C44.9791 135.461 46.7124 136.328 48.6025 136.328H105.398C107.288 136.328 109.021 135.461 110.153 133.947C111.286 132.434 111.629 130.526 111.095 128.712L110.579 126.958C109.39 122.921 105.621 120.101 101.412 120.101H100.44L99.2478 107.159H133.375C144.346 107.159 153.271 98.2341 153.271 87.2639V19.8954C153.271 8.92517 144.346 0 133.376 0ZM33.8954 31.344C35.1295 31.344 36.1299 30.3435 36.1299 29.1095V26.5175C36.1299 25.2834 35.1295 24.283 33.8954 24.283C32.6614 24.283 31.6609 25.2834 31.6609 26.5175V29.1095C31.6609 30.3438 32.6614 31.344 33.8954 31.344ZM65.1262 31.344C66.3603 31.344 67.3607 30.3435 67.3607 29.1095V26.5175C67.3607 25.2834 66.3603 24.283 65.1262 24.283C63.8922 24.283 62.8917 25.2834 62.8917 26.5175V29.1095C62.8917 30.3438 63.8919 31.344 65.1262 31.344ZM68.6307 47.482H30.391C29.1566 47.482 28.1565 46.4816 28.1565 45.2475C28.1565 44.0135 29.1569 43.013 30.391 43.013H68.6307C69.8647 43.013 70.8652 44.0135 70.8652 45.2475C70.8652 46.4816 69.8647 47.482 68.6307 47.482ZM49.5108 33.3348C51.7346 33.3348 53.849 32.3719 55.3125 30.6928C56.1232 29.7626 56.0263 28.351 55.0959 27.5403C54.1657 26.7297 52.7541 26.8265 51.9435 27.7569C51.3294 28.4616 50.4428 28.8659 49.5111 28.8659C48.5798 28.8659 47.6932 28.4616 47.0788 27.7569C46.2681 26.8265 44.8565 26.7297 43.9264 27.5403C42.9959 28.351 42.8991 29.7626 43.7098 30.6928C45.1726 32.3719 47.2874 33.3348 49.5108 33.3348ZM68.6307 59.6265H30.391C29.1566 59.6265 28.1565 58.626 28.1565 57.392C28.1565 56.158 29.1569 55.1575 30.391 55.1575H68.6307C69.8647 55.1575 70.8652 56.158 70.8652 57.392C70.8652 58.626 69.8647 59.6265 68.6307 59.6265ZM17.2782 80.0881H80.6089V16.5491H22.8522C19.7788 16.5491 17.2782 19.0497 17.2782 22.1232V80.0881ZM136.723 80.0881H85.0778V16.5491H131.149C134.222 16.5491 136.723 19.0497 136.723 22.1232V80.0881ZM94.76 107.159H59.2399L58.0478 120.101H95.952L94.76 107.159ZM101.412 124.57C103.652 124.57 105.658 126.071 106.291 128.22L106.808 129.974C106.988 130.589 106.739 131.05 106.575 131.27C106.41 131.49 106.038 131.859 105.397 131.859H48.6022C47.9619 131.859 47.5898 131.49 47.4251 131.27C47.145 130.895 47.0598 130.423 47.1921 129.974L47.7084 128.22C48.3412 126.071 50.3475 124.57 52.5876 124.57H55.5977H55.6009H55.6039H98.396H98.399H98.4023H101.412ZM77.0002 89.3366C79.3676 89.3366 81.2869 91.2556 81.2869 93.6233C81.2869 95.9906 79.3676 97.9099 77.0002 97.9099C74.6329 97.9099 72.7136 95.9906 72.7136 93.6233C72.7136 91.2559 74.6329 89.3366 77.0002 89.3366ZM130.106 33.8075L114.901 25.0292C112.433 23.6042 109.366 23.6036 106.897 25.0292L91.6927 33.8075C90.5844 34.4472 89.9019 35.562 89.8161 36.8226C89.8056 36.9099 89.7988 36.9981 89.7988 37.088V57.98C89.7988 59.3493 90.5067 60.5756 91.6927 61.2602L106.897 70.0385C108.075 70.7184 109.388 71.07 110.708 71.1012C110.771 71.1066 110.835 71.1108 110.899 71.1108C110.964 71.1108 111.027 71.1066 111.09 71.1009C112.41 71.0697 113.724 70.7181 114.901 70.0382L130.105 61.2602C131.291 60.5756 131.999 59.349 131.999 57.9797V37.088C131.999 36.9981 131.992 36.9099 131.982 36.8226C131.897 35.562 131.214 34.4472 130.106 33.8075ZM94.269 57.586L108.666 65.8983V49.8951C108.056 49.7182 107.461 49.4712 106.898 49.1464L94.269 41.8548V57.586ZM109.132 45.2757L94.9493 37.0873L109.132 28.8989C110.223 28.2693 111.578 28.2693 112.667 28.8989L126.85 37.0873L112.667 45.2757C111.577 45.9055 110.222 45.9055 109.132 45.2757ZM113.134 65.8983L127.531 57.586H127.531V41.8548L114.902 49.1464C114.34 49.4712 113.745 49.7182 113.134 49.8948V65.8983ZM30.391 71.771H51.5922C52.5226 74.4759 55.0908 76.4262 58.1077 76.4262C61.1245 76.4262 63.6927 74.4762 64.6232 71.771H68.6307C69.8647 71.771 70.8652 70.7705 70.8652 69.5365C70.8652 68.3025 69.8647 67.302 68.6307 67.302H64.6232C63.6927 64.5968 61.1245 62.6468 58.1077 62.6468C55.0908 62.6468 52.5223 64.5968 51.5922 67.302H30.391C29.1569 67.302 28.1565 68.3025 28.1565 69.5365C28.1565 70.7705 29.1566 71.771 30.391 71.771ZM60.5278 69.5365C60.5278 68.2018 59.4422 67.1158 58.1074 67.1158C56.7727 67.1158 55.6867 68.2018 55.6867 69.5365C55.6867 70.8712 56.7727 71.9572 58.1074 71.9572C59.4419 71.9572 60.5278 70.8712 60.5278 69.5365Z" fill="#10293F"/>
</svg>
