<?xml version="1.0" encoding="UTF-8"?>
<svg width="100px" height="100px" viewBox="0 0 100 100" version="1.1" xmlns="http://www.w3.org/2000/svg" xmlns:xlink="http://www.w3.org/1999/xlink">
    <title>Shape</title>
    <g id="Page-1" stroke="none" stroke-width="1" fill="none" fill-rule="evenodd">
        <g id="icon-project-rescue" fill="#979797">
            <path d="M50,0 C22.430625,0 0,22.430625 0,50 C0,77.5694444 22.430625,100 50,100 C77.5694444,100 100,77.5694444 100,50 C100,22.430625 77.5694444,0 50,0 Z M95.7618056,40.3225694 L87.4840278,40.3225694 C83.9763889,26.7402778 73.2597222,16.0241667 59.6777083,12.5161111 L59.6777083,4.2386875 C77.7166667,8.04833333 91.9520833,22.2838194 95.7618056,40.3225694 Z M96.3194444,56.4518056 C96.6118056,54.3405556 96.7743056,52.1905556 96.7743056,50.0002083 C96.7743056,47.8098611 96.6118056,45.6598611 96.3180556,43.5486111 L88.1618056,43.5486111 C88.5166667,45.6486111 88.7097222,47.8018056 88.7097222,50.0002083 C88.7097222,52.1986111 88.5166667,54.3518056 88.1618056,56.4518056 L96.3194444,56.4518056 Z M81.3868056,66.5258333 C80.2076389,66.9210417 79.3513889,67.5420139 78.65625,68.0710417 L78.6534722,68.0729167 C77.6756944,68.8170833 76.9694444,69.3549306 75.3951389,69.3549306 C73.8208333,69.3549306 73.1125,68.8177778 72.1354167,68.0726389 L71.9381944,67.9242361 L69.9951389,70.4986111 L70.1819444,70.6402778 L70.1826389,70.6409722 C71.3194444,71.5055556 72.7340278,72.5805556 75.3951389,72.5805556 C76.2451389,72.5805556 76.9576389,72.4631944 77.5854167,72.2854167 C76.2513889,73.9340278 74.7722222,75.45625 73.16875,76.8416667 C72.8236111,76.6388889 72.4881944,76.40625 72.1354167,76.1375 C70.9979167,75.2708333 69.5833333,74.19375 66.920625,74.19375 C64.2593056,74.19375 62.8447917,75.2708333 61.7093056,76.1375 C60.7302778,76.8826389 60.0238194,77.4194444 58.45125,77.4194444 C56.8802778,77.4194444 56.1738194,76.8826389 55.1980556,76.1375 C54.0625694,75.2708333 52.6496528,74.19375 49.9883333,74.19375 C47.3270833,74.19375 45.9141667,75.2708333 44.7786806,76.1375 C43.80125,76.8826389 43.0947917,77.4194444 41.5222222,77.4194444 C39.95125,77.4194444 39.2447917,76.8826389 38.2690278,76.1375 L38.0690278,75.9854167 L36.1238194,78.5597222 L36.3141667,78.7034722 C37.4496528,79.5694444 38.8625694,80.6451389 41.5222222,80.6451389 C44.1835417,80.6451389 45.5980556,79.5680556 46.7335417,78.7013889 C47.7109722,77.95625 48.4174306,77.4194444 49.9883333,77.4194444 C51.5593056,77.4194444 52.2641667,77.95625 53.2415972,78.7013889 C54.3770833,79.5680556 55.79,80.6451389 58.45125,80.6451389 C61.1125694,80.6451389 62.5270833,79.5680556 63.6625694,78.7013889 C64.6415972,77.95625 65.3480556,77.4194444 66.920625,77.4194444 C68.4947917,77.4194444 69.2028472,77.9583333 70.1805556,78.7034722 L70.2270833,78.7388889 L70.2819444,78.7798611 C70.3527778,78.8326389 70.4243056,78.8854167 70.4951389,78.9388889 C64.7028472,83.0534722 57.6319444,85.4840278 49.9996528,85.4840278 C42.3641667,85.4840278 35.29,83.0513889 29.4947917,78.9326389 C29.5309028,78.9055556 29.5673611,78.8784722 29.6036806,78.8513889 L29.6050694,78.85 C29.6723611,78.8 29.7393056,78.7506944 29.8029167,78.7013889 C30.7802778,77.95625 31.4851389,77.4194444 33.0577083,77.4194444 C33.2835417,77.4194444 33.4947917,77.4305556 33.6915972,77.4534722 L34.05125,74.2486111 C33.7415972,74.2131944 33.4125694,74.19375 33.0577083,74.19375 C30.3980556,74.19375 28.9835417,75.2708333 27.8480556,76.1375 C27.4980556,76.4048611 27.1674306,76.6354167 26.8254861,76.8375 C25.2254861,75.4534722 23.7480556,73.9340278 22.4174306,72.2888889 C23.0415972,72.4645833 23.7480556,72.5805556 24.5931944,72.5805556 C27.2545139,72.5805556 28.6674306,71.5034722 29.8029167,70.6375 C30.7802778,69.8916667 31.4851389,69.3549306 33.0577083,69.3549306 C34.6302778,69.3549306 35.3351389,69.8916667 36.3125694,70.6375 C37.4480556,71.5034722 38.8609722,72.5805556 41.5222222,72.5805556 C44.1835417,72.5805556 45.5980556,71.5034722 46.7335417,70.6375 C47.7109722,69.8916667 48.4174306,69.3549306 49.9883333,69.3549306 C51.5593056,69.3549306 52.2641667,69.8916667 53.2415972,70.6375 C54.3770833,71.5034722 55.79,72.5805556 58.45125,72.5805556 C61.1125694,72.5805556 62.5270833,71.5034722 63.6625694,70.6375 C64.6415972,69.8916667 65.3480556,69.3549306 66.920625,69.3549306 C67.1496528,69.3549306 67.3641667,69.3661806 67.5641667,69.38875 L67.920625,66.1839583 C67.6093056,66.1484722 67.2770833,66.1290972 66.920625,66.1290972 C64.2593056,66.1290972 62.8447917,67.2065278 61.7093056,68.0726389 C61.65125,68.1166667 61.5951389,68.1581944 61.5401389,68.1986111 L61.4470139,68.2666667 L61.4465972,68.2670139 C61.3947917,68.3047917 61.3434028,68.3422917 61.2915972,68.3806944 L61.2915972,63.0049306 C61.2915972,62.1645833 61.5125694,61.3339583 61.9286806,60.6032639 L66.6802778,52.28875 C67.3738194,51.0710417 67.7415972,49.6871528 67.7415972,48.2871528 L67.7415972,32.258125 C67.7415972,29.5904167 65.570625,27.4194444 62.9028472,27.4194444 C62.3351389,27.4194444 61.7964583,27.5355556 61.29,27.7161806 L61.29,25.8065278 C61.29,23.13875 59.1190278,20.9677778 56.45125,20.9677778 C55.8141667,20.9677778 55.2093056,21.0984722 54.65125,21.3226389 C54.0947917,19.2661806 52.2302778,17.7420139 49.9996528,17.7420139 C47.7690278,17.7420139 45.9061111,19.2661806 45.3480556,21.3226389 C44.79,21.0984722 44.1851389,20.9677778 43.5480556,20.9677778 C40.8802778,20.9677778 38.7093056,23.13875 38.7093056,25.8065278 L38.7093056,33.1549306 C37.7561111,32.6000694 36.6641667,32.258125 35.4835417,32.258125 C33.7045139,32.258125 32.2577083,33.7049306 32.2577083,35.4839583 L32.2577083,48.0468056 C32.2577083,49.6436111 32.7270833,51.1904167 33.6125694,52.5194444 L37.8964583,58.9452083 C38.4286806,59.7436111 38.7093056,60.6710417 38.7093056,61.6290972 L38.7093056,68.3952083 C38.6676389,68.3646528 38.6261111,68.3344444 38.584375,68.3042361 C38.4809028,68.2290972 38.3765972,68.1533333 38.2674306,68.0694444 L38.2565972,68.0611806 C37.1213194,67.1997222 35.7105556,66.1290972 33.0577083,66.1290972 C30.3980556,66.1290972 28.9835417,67.2065278 27.8496528,68.0726389 L27.848125,68.0738194 C26.8698611,68.8183333 26.1649306,69.3549306 24.5931944,69.3549306 C23.0222222,69.3549306 22.3157639,68.8177778 21.3383333,68.0726389 C20.6431944,67.5436111 19.79,66.9210417 18.6125694,66.5258333 C16.00125,61.5871528 14.5157639,55.9645833 14.5157639,50.0000694 C14.5157639,30.4339583 30.4335417,14.5161806 49.9996528,14.5161806 C69.5659722,14.5161806 85.4833333,30.4339583 85.4833333,50.0000694 C85.4833333,55.9645833 83.9979167,61.5871528 81.3868056,66.5258333 Z M38.71,46.7740278 L38.71,40.3224306 L38.71,38.7095139 C38.71,36.9304861 37.2632639,35.48375 35.4842361,35.48375 L35.4842361,48.0466667 C35.4842361,49.0047222 35.7648611,49.9321528 36.2970833,50.73375 L40.5809722,57.1595139 C41.4664583,58.4886111 41.9358333,60.0353472 41.9358333,61.6321528 L41.9358333,69.3176389 C43.2068056,69.2240972 43.9003472,68.7434028 44.779375,68.0724306 C45.9148611,67.2063194 47.3277778,66.1288889 49.9890278,66.1288889 C52.648125,66.1288889 54.0609028,67.2045139 55.1959028,68.0686806 L55.19875,68.0708333 C56.0825694,68.7466667 56.7777778,69.2288889 58.0648611,69.3176389 L58.0648611,63.003125 C58.0648611,61.603125 58.4325694,60.2192361 59.1277778,59.003125 L63.879375,50.6886111 C64.2954861,49.9579167 64.5164583,49.1272917 64.5164583,48.2869444 L64.5164583,32.2579167 C64.5164583,31.3692361 63.7922917,30.645 62.9035417,30.645 C62.0148611,30.645 61.2906944,31.3692361 61.2906944,32.2579167 L61.2906944,38.7095139 L61.2906944,43.5482639 L58.0648611,43.5482639 L58.0648611,38.7095139 L58.0648611,32.2579167 L58.0648611,25.8063194 C58.0648611,24.9176389 57.3406944,24.1934028 56.4519444,24.1934028 C55.5632639,24.1934028 54.8390278,24.9176389 54.8390278,25.8063194 L54.8390278,35.48375 L54.8390278,43.5482639 L51.6132639,43.5482639 L51.6132639,35.48375 L51.6132639,25.8063194 L51.6132639,22.5804861 C51.6132639,21.6918056 50.8890278,20.9676389 50.0003472,20.9676389 C49.1115972,20.9676389 48.3874306,21.6918056 48.3874306,22.5804861 L48.3874306,25.8063194 L48.3874306,35.48375 L48.3874306,43.5482639 L45.1616667,43.5482639 L45.1616667,35.48375 L45.1616667,25.8063194 C45.1616667,24.9176389 44.4374306,24.1934028 43.54875,24.1934028 C42.66,24.1934028 41.9358333,24.9176389 41.9358333,25.8063194 L41.9358333,38.7095139 L41.9358333,40.3224306 L41.9358333,46.7740278 L38.71,46.7740278 Z M56.4513889,3.68075 L56.4513889,11.8388194 C54.3513889,11.4839583 52.1981944,11.2904167 49.9997917,11.2904167 C47.8013889,11.2904167 45.6481944,11.4839583 43.5481944,11.8388194 L43.5481944,3.68075 C45.6594444,3.3888125 47.8094444,3.22590972 49.9997917,3.22590972 C52.1901389,3.22590972 54.3401389,3.3888125 56.4513889,3.68075 Z M40.3229861,12.5161111 L40.3229861,4.2386875 C22.2842361,8.04833333 8.04875,22.2838194 4.23909722,40.3225694 L12.5165278,40.3225694 C16.0245833,26.7402778 26.7406944,16.0241667 40.3229861,12.5161111 Z M11.8388194,56.4518056 L3.68075,56.4518056 C3.3888125,54.3405556 3.22590972,52.1905556 3.22590972,50.0002083 C3.22590972,47.8098611 3.3888125,45.6598611 3.68075,43.5486111 L11.8388194,43.5486111 C11.4839583,45.6486111 11.2904167,47.8018056 11.2904167,50.0002083 C11.2904167,52.1986111 11.4839583,54.3518056 11.8388194,56.4518056 Z M12.5165278,59.6772917 L4.23909722,59.6772917 C8.04875,77.7159722 22.2842361,91.9513889 40.3229861,95.7611111 L40.3229861,87.4840278 C26.7406944,83.9756944 16.0245833,73.2597222 12.5165278,59.6772917 Z M43.5481944,96.3194444 L43.5481944,88.1611111 C45.6481944,88.5159722 47.8013889,88.7097222 49.9997917,88.7097222 C52.1981944,88.7097222 54.3513889,88.5159722 56.4513889,88.1611111 L56.4513889,96.3173611 C54.3401389,96.6111111 52.1901389,96.7743056 49.9997917,96.7743056 C47.8094444,96.7743056 45.6594444,96.6111111 43.5481944,96.3194444 Z M59.6777083,87.4840278 L59.6777083,95.7611111 C77.7166667,91.9513889 91.9520833,77.7159722 95.7618056,59.6772917 L87.4840278,59.6772917 C83.9763889,73.2597222 73.2597222,83.9756944 59.6777083,87.4840278 Z" id="Shape"></path>
        </g>
    </g>
</svg>