<?xml version="1.0" encoding="UTF-8"?>
<svg width="248px" height="137px" viewBox="0 0 248 137" version="1.1" xmlns="http://www.w3.org/2000/svg" xmlns:xlink="http://www.w3.org/1999/xlink">
    <!-- Generator: Sketch 43.2 (39069) - http://www.bohemiancoding.com/sketch -->
    <title>Tablet Portrait</title>
    <desc>Created with Sketch.</desc>
    <defs></defs>
    <g id="Page-1" stroke="none" stroke-width="1" fill="none" fill-rule="evenodd">
        <g id="Tablet-Portrait" fill-rule="nonzero" fill="#000000">
            <g id="icon-project-rescue" transform="translate(56.000000, 4.000000)">
                <path d="M30,0 C13.4583871,0 0,13.4583871 0,30 C0,46.5416129 13.4583871,60 30,60 C46.5416129,60 60,46.5416129 60,30 C60,13.4583871 46.5416129,0 30,0 Z M57.4567742,24.1935484 L52.4903226,24.1935484 C50.3854839,16.0441935 43.9558065,9.61451613 35.8064516,7.50967742 L35.8064516,2.54322581 C46.6296774,4.82903226 55.1709677,13.3703226 57.4567742,24.1935484 Z M58.0645161,30 C58.0645161,31.3141935 57.9667742,32.6041935 57.7916129,33.8709677 L52.8967742,33.8709677 C53.1096774,32.6109677 53.2258065,31.3190323 53.2258065,30 C53.2258065,28.6809677 53.1096774,27.3890323 52.8967742,26.1290323 L57.7906452,26.1290323 C57.9667742,27.3958065 58.0645161,28.6858065 58.0645161,30 Z M48.8322581,39.9154839 C48.1248387,40.1525806 47.6109677,40.5251613 47.193871,40.8425806 C46.6064516,41.2896774 46.1825806,41.6129032 45.2370968,41.6129032 C44.2925806,41.6129032 43.8677419,41.2906452 43.2812903,40.8435484 L43.1632258,40.7545161 L41.9970968,42.2990323 L42.1093548,42.3841935 C42.7916129,42.9029032 43.6403226,43.5483871 45.2370968,43.5483871 C45.7470968,43.5483871 46.1748387,43.4777419 46.5512903,43.3712903 C45.7509677,44.3603226 44.8635484,45.273871 43.9016129,46.1051613 C43.6945161,45.9832258 43.4932258,45.843871 43.2812903,45.6822581 C42.5990323,45.1625806 41.7503226,44.516129 40.1525806,44.516129 C38.5558065,44.516129 37.7070968,45.1625806 37.0258065,45.6822581 C36.4383871,46.1293548 36.0145161,46.4516129 35.0709677,46.4516129 C34.1283871,46.4516129 33.7045161,46.1293548 33.1190323,45.6822581 C32.4377419,45.1625806 31.59,44.516129 29.9932258,44.516129 C28.3964516,44.516129 27.5487097,45.1625806 26.8674194,45.6822581 C26.2809677,46.1293548 25.8570968,46.4516129 24.9135484,46.4516129 C23.9709677,46.4516129 23.5470968,46.1293548 22.9616129,45.6822581 L22.8416129,45.5912903 L21.6745161,47.1358065 L21.7887097,47.2219355 C22.47,47.7416129 23.3177419,48.3870968 24.9135484,48.3870968 C26.5103226,48.3870968 27.3590323,47.7406452 28.0403226,47.2209677 C28.6267742,46.773871 29.0506452,46.4516129 29.9932258,46.4516129 C30.9358065,46.4516129 31.3587097,46.773871 31.9451613,47.2209677 C32.6264516,47.7406452 33.4741935,48.3870968 35.0709677,48.3870968 C36.6677419,48.3870968 37.5164516,47.7406452 38.1977419,47.2209677 C38.7851613,46.773871 39.2090323,46.4516129 40.1525806,46.4516129 C41.0970968,46.4516129 41.5219355,46.7748387 42.1083871,47.2219355 C42.1693548,47.2683871 42.2341935,47.3158065 42.2970968,47.3632258 C38.8219355,49.8319355 34.5793548,51.2903226 30,51.2903226 C25.4187097,51.2903226 21.1741935,49.8309677 17.6970968,47.3593548 C17.7590323,47.3129032 17.8229032,47.2664516 17.8819355,47.2209677 C18.4683871,46.773871 18.8912903,46.4516129 19.8348387,46.4516129 C19.9703226,46.4516129 20.0970968,46.4583871 20.2151613,46.4719355 L20.4309677,44.5490323 C20.2451613,44.5277419 20.0477419,44.516129 19.8348387,44.516129 C18.2390323,44.516129 17.3903226,45.1625806 16.7090323,45.6822581 C16.4990323,45.8429032 16.3006452,45.9812903 16.0954839,46.1022581 C15.1354839,45.2719355 14.2490323,44.3603226 13.4506452,43.3732258 C13.8251613,43.4787097 14.2490323,43.5483871 14.756129,43.5483871 C16.3529032,43.5483871 17.2006452,42.9019355 17.8819355,42.3822581 C18.4683871,41.9351613 18.8912903,41.6129032 19.8348387,41.6129032 C20.7783871,41.6129032 21.2012903,41.9351613 21.7877419,42.3822581 C22.4690323,42.9019355 23.3167742,43.5483871 24.9135484,43.5483871 C26.5103226,43.5483871 27.3590323,42.9019355 28.0403226,42.3822581 C28.6267742,41.9351613 29.0506452,41.6129032 29.9932258,41.6129032 C30.9358065,41.6129032 31.3587097,41.9351613 31.9451613,42.3822581 C32.6264516,42.9019355 33.4741935,43.5483871 35.0709677,43.5483871 C36.6677419,43.5483871 37.5164516,42.9019355 38.1977419,42.3822581 C38.7851613,41.9351613 39.2090323,41.6129032 40.1525806,41.6129032 C40.29,41.6129032 40.4187097,41.6196774 40.5387097,41.6332258 L40.7525806,39.7103226 C40.5658065,39.6890323 40.3664516,39.6774194 40.1525806,39.6774194 C38.5558065,39.6774194 37.7070968,40.323871 37.0258065,40.8435484 C36.9377419,40.9103226 36.8574194,40.9674194 36.7751613,41.0283871 L36.7751613,37.8029032 C36.7751613,37.2987097 36.9077419,36.8003226 37.1574194,36.3619355 L40.0083871,31.3732258 C40.4245161,30.6425806 40.6451613,29.8122581 40.6451613,28.9722581 L40.6451613,19.3548387 C40.6451613,17.7541935 39.3425806,16.4516129 37.7419355,16.4516129 C37.4012903,16.4516129 37.0780645,16.5212903 36.7741935,16.6296774 L36.7741935,15.483871 C36.7741935,13.8832258 35.4716129,12.5806452 33.8709677,12.5806452 C33.4887097,12.5806452 33.1258065,12.6590323 32.7909677,12.7935484 C32.4570968,11.5596774 31.3383871,10.6451613 30,10.6451613 C28.6616129,10.6451613 27.543871,11.5596774 27.2090323,12.7935484 C26.8741935,12.6590323 26.5112903,12.5806452 26.1290323,12.5806452 C24.5283871,12.5806452 23.2258065,13.8832258 23.2258065,15.483871 L23.2258065,19.8929032 C22.653871,19.56 21.9987097,19.3548387 21.2903226,19.3548387 C20.2229032,19.3548387 19.3548387,20.2229032 19.3548387,21.2903226 L19.3548387,28.8280645 C19.3548387,29.786129 19.6364516,30.7141935 20.1677419,31.5116129 L22.7380645,35.3670968 C23.0574194,35.846129 23.2258065,36.4025806 23.2258065,36.9774194 L23.2258065,41.0370968 C23.1387097,40.9732258 23.0525806,40.9122581 22.9606452,40.8416129 C22.2783871,40.323871 21.4316129,39.6774194 19.8348387,39.6774194 C18.2390323,39.6774194 17.3903226,40.323871 16.71,40.8435484 C16.1225806,41.2906452 15.6996774,41.6129032 14.756129,41.6129032 C13.8135484,41.6129032 13.3896774,41.2906452 12.8032258,40.8435484 C12.386129,40.526129 11.8741935,40.1525806 11.1677419,39.9154839 C9.60096774,36.9522581 8.70967742,33.5787097 8.70967742,30 C8.70967742,18.2603226 18.2603226,8.70967742 30,8.70967742 C41.7396774,8.70967742 51.2903226,18.2603226 51.2903226,30 C51.2903226,33.5787097 50.3990323,36.9522581 48.8322581,39.9154839 Z M23.2258065,24.1935484 L23.2258065,28.0645161 L25.1612903,28.0645161 L25.1612903,24.1935484 L25.1612903,23.2258065 L25.1612903,15.483871 C25.1612903,14.9506452 25.5958065,14.516129 26.1290323,14.516129 C26.6622581,14.516129 27.0967742,14.9506452 27.0967742,15.483871 L27.0967742,21.2903226 L27.0967742,26.1290323 L29.0322581,26.1290323 L29.0322581,21.2903226 L29.0322581,15.483871 L29.0322581,13.5483871 C29.0322581,13.0151613 29.4667742,12.5806452 30,12.5806452 C30.5332258,12.5806452 30.9677419,13.0151613 30.9677419,13.5483871 L30.9677419,15.483871 L30.9677419,21.2903226 L30.9677419,26.1290323 L32.9032258,26.1290323 L32.9032258,21.2903226 L32.9032258,15.483871 C32.9032258,14.9506452 33.3377419,14.516129 33.8709677,14.516129 C34.4041935,14.516129 34.8387097,14.9506452 34.8387097,15.483871 L34.8387097,19.3548387 L34.8387097,23.2258065 L34.8387097,26.1290323 L36.7741935,26.1290323 L36.7741935,23.2258065 L36.7741935,19.3548387 C36.7741935,18.8216129 37.2087097,18.3870968 37.7419355,18.3870968 C38.2751613,18.3870968 38.7096774,18.8216129 38.7096774,19.3548387 L38.7096774,28.9722581 C38.7096774,29.4764516 38.5770968,29.9748387 38.3274194,30.4132258 L35.4764516,35.4019355 C35.0593548,36.1316129 34.8387097,36.9619355 34.8387097,37.8019355 L34.8387097,41.5906452 C34.0664516,41.5374194 33.6493548,41.2480645 33.1190323,40.8425806 C32.4377419,40.323871 31.59,39.6774194 29.9932258,39.6774194 C28.3964516,39.6774194 27.5487097,40.323871 26.8674194,40.8435484 C26.34,41.246129 25.923871,41.5345161 25.1612903,41.5906452 L25.1612903,36.9793548 C25.1612903,36.0212903 24.8796774,35.0932258 24.3483871,34.2958065 L21.7780645,30.4403226 C21.4587097,29.9593548 21.2903226,29.4029032 21.2903226,28.8280645 L21.2903226,21.2903226 C22.3577419,21.2903226 23.2258065,22.1583871 23.2258065,23.2258065 L23.2258065,24.1935484 Z M33.8709677,2.2083871 L33.8709677,7.10322581 C32.6109677,6.89032258 31.3190323,6.77419355 30,6.77419355 C28.6809677,6.77419355 27.3890323,6.89032258 26.1290323,7.10322581 L26.1290323,2.2083871 C27.3958065,2.03322581 28.6858065,1.93548387 30,1.93548387 C31.3141935,1.93548387 32.6041935,2.03322581 33.8709677,2.2083871 Z M24.1935484,2.54322581 L24.1935484,7.50967742 C16.0441935,9.61451613 9.61451613,16.0441935 7.50967742,24.1935484 L2.54322581,24.1935484 C4.82903226,13.3703226 13.3703226,4.82903226 24.1935484,2.54322581 Z M7.10322581,33.8709677 L2.2083871,33.8709677 C2.03322581,32.6041935 1.93548387,31.3141935 1.93548387,30 C1.93548387,28.6858065 2.03322581,27.3958065 2.2083871,26.1290323 L7.10322581,26.1290323 C6.89032258,27.3890323 6.77419355,28.6809677 6.77419355,30 C6.77419355,31.3190323 6.89032258,32.6109677 7.10322581,33.8709677 Z M2.54322581,35.8064516 L7.50967742,35.8064516 C9.61451613,43.9558065 16.0441935,50.3854839 24.1935484,52.4903226 L24.1935484,57.4567742 C13.3703226,55.1709677 4.82903226,46.6296774 2.54322581,35.8064516 Z M26.1290323,57.7916129 L26.1290323,52.8967742 C27.3890323,53.1096774 28.6809677,53.2258065 30,53.2258065 C31.3190323,53.2258065 32.6109677,53.1096774 33.8709677,52.8967742 L33.8709677,57.7906452 C32.6041935,57.9667742 31.3141935,58.0645161 30,58.0645161 C28.6858065,58.0645161 27.3958065,57.9667742 26.1290323,57.7916129 Z M35.8064516,57.4567742 L35.8064516,52.4903226 C43.9558065,50.3854839 50.3854839,43.9558065 52.4903226,35.8064516 L57.4567742,35.8064516 C55.1709677,46.6296774 46.6296774,55.1709677 35.8064516,57.4567742 Z" id="Shape"></path>
            </g>
            <g id="icon-data-engineering" transform="translate(3.000000, 74.000000)">
                <path d="M10.5,6.125 C8.019,6.125 6,8.144 6,10.625 C6,13.106 8.019,15.125 10.5,15.125 C12.981,15.125 15,13.106 15,10.625 C15,8.144 12.981,6.125 10.5,6.125 Z M10.5,13.125 C9.122,13.125 8,12.004 8,10.625 C8,9.246 9.122,8.125 10.5,8.125 C11.878,8.125 13,9.246 13,10.625 C13,12.004 11.878,13.125 10.5,13.125 Z" id="Shape"></path>
                <circle id="Oval" cx="50" cy="9.125" r="1"></circle>
                <circle id="Oval" cx="46" cy="9.125" r="1"></circle>
                <circle id="Oval" cx="52" cy="12.125" r="1"></circle>
                <circle id="Oval" cx="48" cy="12.125" r="1"></circle>
                <circle id="Oval" cx="42" cy="9.125" r="1"></circle>
                <circle id="Oval" cx="44" cy="12.125" r="1"></circle>
                <circle id="Oval" cx="38" cy="9.125" r="1"></circle>
                <circle id="Oval" cx="40" cy="12.125" r="1"></circle>
                <circle id="Oval" cx="34" cy="9.125" r="1"></circle>
                <circle id="Oval" cx="36" cy="12.125" r="1"></circle>
                <path d="M10.5,25.125 C8.019,25.125 6,27.144 6,29.625 C6,32.106 8.019,34.125 10.5,34.125 C12.981,34.125 15,32.106 15,29.625 C15,27.144 12.981,25.125 10.5,25.125 Z M10.5,32.125 C9.122,32.125 8,31.004 8,29.625 C8,28.246 9.122,27.125 10.5,27.125 C11.878,27.125 13,28.246 13,29.625 C13,31.004 11.878,32.125 10.5,32.125 Z" id="Shape"></path>
                <path d="M10.5,44.125 C8.019,44.125 6,46.144 6,48.625 C6,51.106 8.019,53.125 10.5,53.125 C12.981,53.125 15,51.106 15,48.625 C15,46.144 12.981,44.125 10.5,44.125 Z M10.5,51.125 C9.122,51.125 8,50.004 8,48.625 C8,47.246 9.122,46.125 10.5,46.125 C11.878,46.125 13,47.246 13,48.625 C13,50.004 11.878,51.125 10.5,51.125 Z" id="Shape"></path>
                <path d="M60,16.517 L60,4.733 C60,2.192 57.933,0.125 55.392,0.125 L4.608,0.125 C2.067,0.125 0,2.192 0,4.733 L0,16.516 C0,17.985 0.703,19.28 1.777,20.124 C0.703,20.969 0,22.265 0,23.733 L0,35.516 C0,36.985 0.703,38.28 1.777,39.124 C0.703,39.969 0,41.265 0,42.733 L0,54.516 C0,57.057 2.067,59.124 4.608,59.124 L32.483,59.124 C35.165,59.618 38.105,59.874 41,59.874 C49.672,59.874 58.816,57.625 59.895,53.321 C59.962,53.188 60,53.036 60,52.875 L60,43.875 L60,43.5 L60,43.125 L60,34.875 L60,34.5 L60,34.125 L60,25.5 L60,25.125 C60,24.975 59.963,24.836 59.904,24.709 C59.557,23.245 58.256,22.012 56.342,21.024 C58.428,20.585 60,18.732 60,16.517 Z M2,35.517 L2,23.733 C2,22.295 3.17,21.125 4.608,21.125 L25.468,21.125 C23.659,22.096 22.431,23.294 22.096,24.709 C22.037,24.837 22,24.975 22,25.125 L22,25.5 L22,34.125 L22,34.5 L22,34.875 L22,38.125 L4.608,38.125 C3.17,38.125 2,36.955 2,35.517 Z M24.626,29.38 C24.671,29.409 24.719,29.438 24.765,29.467 C24.941,29.577 25.124,29.685 25.315,29.791 C25.37,29.821 25.423,29.852 25.478,29.881 C25.711,30.006 25.953,30.128 26.205,30.245 C26.245,30.264 26.288,30.282 26.328,30.3 C26.549,30.401 26.776,30.498 27.01,30.593 C27.079,30.621 27.147,30.649 27.216,30.676 C27.492,30.784 27.773,30.89 28.064,30.99 C28.08,30.995 28.096,31 28.112,31.006 C28.39,31.101 28.676,31.192 28.967,31.28 C29.045,31.304 29.124,31.327 29.203,31.35 C29.491,31.434 29.783,31.516 30.082,31.594 C30.106,31.6 30.129,31.607 30.153,31.613 C30.475,31.696 30.804,31.773 31.138,31.848 C31.222,31.867 31.307,31.885 31.391,31.903 C31.677,31.965 31.966,32.024 32.258,32.08 C32.316,32.091 32.374,32.103 32.432,32.114 C32.775,32.178 33.122,32.237 33.473,32.293 C33.556,32.306 33.641,32.319 33.724,32.332 C34.015,32.377 34.308,32.419 34.604,32.458 C34.685,32.469 34.765,32.48 34.847,32.49 C35.205,32.535 35.565,32.577 35.928,32.615 C36.001,32.623 36.075,32.629 36.148,32.636 C36.453,32.666 36.76,32.693 37.067,32.718 C37.16,32.725 37.252,32.733 37.345,32.74 C37.712,32.767 38.081,32.791 38.45,32.81 C38.502,32.813 38.555,32.814 38.608,32.817 C38.933,32.833 39.259,32.845 39.585,32.854 C39.683,32.857 39.781,32.86 39.88,32.862 C40.253,32.87 40.626,32.876 40.998,32.876 C41.37,32.876 41.743,32.87 42.116,32.862 C42.214,32.86 42.312,32.857 42.411,32.854 C42.737,32.845 43.062,32.833 43.388,32.817 C43.441,32.814 43.493,32.813 43.546,32.81 C43.915,32.791 44.284,32.767 44.651,32.74 C44.744,32.733 44.836,32.726 44.929,32.718 C45.237,32.694 45.543,32.666 45.848,32.636 C45.921,32.629 45.995,32.622 46.068,32.615 C46.431,32.577 46.791,32.536 47.149,32.49 C47.23,32.48 47.311,32.469 47.392,32.458 C47.687,32.419 47.981,32.377 48.272,32.332 C48.356,32.319 48.44,32.307 48.523,32.293 C48.874,32.237 49.221,32.178 49.564,32.114 C49.623,32.103 49.68,32.091 49.738,32.08 C50.031,32.024 50.32,31.965 50.605,31.903 C50.69,31.884 50.774,31.866 50.858,31.848 C51.191,31.773 51.521,31.696 51.843,31.613 C51.867,31.607 51.89,31.6 51.914,31.594 C52.213,31.517 52.505,31.435 52.793,31.35 C52.872,31.327 52.951,31.304 53.029,31.28 C53.32,31.192 53.606,31.101 53.884,31.006 C53.9,31.001 53.916,30.996 53.932,30.99 C54.223,30.889 54.505,30.784 54.78,30.676 C54.85,30.649 54.918,30.621 54.986,30.593 C55.22,30.498 55.447,30.401 55.668,30.3 C55.709,30.281 55.751,30.264 55.791,30.245 C56.043,30.128 56.284,30.006 56.518,29.881 C56.574,29.851 56.627,29.821 56.681,29.791 C56.871,29.686 57.054,29.578 57.231,29.467 C57.277,29.438 57.325,29.41 57.37,29.38 C57.577,29.246 57.773,29.108 57.959,28.966 C57.971,28.957 57.985,28.949 57.997,28.94 L57.997,33.928 C57.973,34.044 57.957,34.162 57.976,34.281 C57.99,34.354 58,34.426 58,34.5 C58,34.61 57.969,34.722 57.942,34.833 C57.921,34.919 57.894,35.006 57.858,35.092 C57.826,35.167 57.786,35.243 57.742,35.318 C57.699,35.393 57.652,35.469 57.598,35.544 C57.521,35.648 57.434,35.752 57.335,35.856 C57.298,35.896 57.261,35.936 57.221,35.976 C55.104,38.024 48.857,39.874 41.001,39.874 C33.15,39.874 26.906,38.026 24.785,35.979 C24.741,35.935 24.701,35.892 24.661,35.848 C24.567,35.748 24.482,35.648 24.408,35.548 C24.351,35.469 24.301,35.39 24.256,35.31 C24.215,35.239 24.177,35.168 24.146,35.096 C24.107,35.005 24.08,34.915 24.058,34.825 C24.031,34.717 24,34.608 24,34.5 C24,34.429 24.009,34.358 24.021,34.288 C24.042,34.158 24.029,34.028 24,33.903 L24,28.939 C24.012,28.948 24.026,28.956 24.038,28.965 C24.223,29.107 24.419,29.245 24.626,29.38 Z M57.857,44.092 C57.825,44.167 57.785,44.243 57.741,44.318 C57.698,44.393 57.651,44.469 57.597,44.544 C57.52,44.648 57.433,44.752 57.334,44.856 C57.297,44.896 57.26,44.936 57.22,44.976 C55.103,47.024 48.856,48.874 41,48.874 C33.149,48.874 26.905,47.026 24.784,44.979 C24.74,44.935 24.7,44.892 24.66,44.848 C24.566,44.748 24.481,44.648 24.407,44.548 C24.35,44.469 24.3,44.39 24.255,44.31 C24.214,44.239 24.176,44.168 24.145,44.096 C24.106,44.005 24.079,43.915 24.057,43.825 C24.034,43.731 24.01,43.636 24.007,43.542 L24.007,43.422 C24.011,43.377 24.013,43.332 24.02,43.287 C24.034,43.201 24.015,43.117 24.006,43.032 L24,38.125 L24,37.939 C24.04,37.97 24.087,37.999 24.129,38.029 C24.255,38.123 24.387,38.215 24.522,38.306 C24.632,38.379 24.746,38.451 24.862,38.523 C25.041,38.633 25.221,38.742 25.413,38.847 C25.415,38.848 25.417,38.849 25.418,38.85 C27.504,39.987 30.372,40.808 33.543,41.305 C33.567,41.309 33.591,41.312 33.615,41.316 C34.638,41.475 35.688,41.599 36.756,41.69 C36.983,41.709 37.209,41.729 37.438,41.745 C37.661,41.761 37.884,41.775 38.108,41.787 C38.41,41.804 38.712,41.819 39.014,41.831 C39.19,41.838 39.366,41.846 39.543,41.851 C40.03,41.865 40.516,41.875 41.001,41.875 C41.485,41.875 41.971,41.866 42.456,41.852 C42.634,41.847 42.811,41.839 42.989,41.832 C43.289,41.82 43.588,41.806 43.887,41.789 C44.113,41.776 44.338,41.762 44.563,41.746 C44.788,41.73 45.01,41.711 45.234,41.692 C46.312,41.601 47.372,41.475 48.404,41.315 C48.419,41.313 48.435,41.31 48.45,41.308 C51.915,40.766 55.014,39.835 57.131,38.529 C57.246,38.458 57.36,38.387 57.469,38.314 C57.604,38.224 57.736,38.132 57.861,38.038 C57.906,38.005 57.957,37.974 58.001,37.94 L58.001,42.928 C57.977,43.044 57.961,43.162 57.98,43.281 C57.99,43.354 58,43.426 58,43.5 C58,43.61 57.969,43.722 57.942,43.833 C57.92,43.919 57.894,44.006 57.857,44.092 Z M4.608,57.125 C3.17,57.125 2,55.955 2,54.517 L2,42.733 C2,41.295 3.17,40.125 4.608,40.125 L22,40.125 L22,43.125 L22,43.5 L22,43.875 L22,52.875 L22,53.875 L22.296,53.875 C22.312,53.912 22.335,53.948 22.353,53.985 C22.388,54.06 22.427,54.133 22.467,54.207 C22.549,54.355 22.642,54.501 22.745,54.645 C22.847,54.79 22.962,54.93 23.084,55.069 C23.146,55.139 23.208,55.208 23.275,55.277 C23.658,55.672 24.118,56.042 24.649,56.388 C24.667,56.4 24.686,56.412 24.705,56.424 C25.089,56.671 25.504,56.905 25.953,57.126 L4.608,57.126 L4.608,57.125 Z M58,52.619 C57.992,52.65 57.985,52.682 57.98,52.713 C57.571,55.206 50.65,57.875 41,57.875 C37.921,57.875 35.125,57.602 32.724,57.151 L32.725,57.143 C27.752,56.202 25,54.613 24.23,53.273 C24.229,53.272 24.228,53.271 24.228,53.269 C24.193,53.207 24.168,53.146 24.141,53.086 C24.089,52.961 24.04,52.837 24.02,52.713 L24.012,46.948 C24.048,46.976 24.091,47.002 24.128,47.03 C24.254,47.124 24.386,47.216 24.521,47.307 C24.631,47.38 24.745,47.452 24.861,47.524 C25.04,47.634 25.22,47.743 25.412,47.848 C25.414,47.849 25.416,47.85 25.417,47.851 C27.503,48.988 30.371,49.809 33.542,50.306 C33.566,50.31 33.59,50.313 33.614,50.317 C34.637,50.476 35.687,50.6 36.755,50.691 C36.982,50.71 37.208,50.73 37.437,50.746 C37.66,50.762 37.883,50.776 38.107,50.788 C38.409,50.805 38.711,50.82 39.013,50.832 C39.189,50.839 39.365,50.847 39.542,50.852 C40.029,50.866 40.515,50.876 41,50.876 C41.484,50.876 41.97,50.867 42.455,50.853 C42.633,50.848 42.81,50.84 42.988,50.833 C43.288,50.821 43.587,50.807 43.886,50.79 C44.112,50.777 44.337,50.763 44.562,50.747 C44.787,50.731 45.009,50.712 45.233,50.693 C46.311,50.602 47.371,50.476 48.403,50.316 C48.418,50.314 48.434,50.311 48.449,50.309 C51.914,49.767 55.013,48.836 57.13,47.53 C57.245,47.459 57.359,47.388 57.468,47.315 C57.603,47.225 57.735,47.133 57.86,47.039 C57.905,47.006 57.956,46.975 58,46.941 L58,52.619 L58,52.619 Z M58,25.5 C58,28.037 50.729,30.875 41,30.875 C31.27,30.875 24,28.037 24,25.5 C24,25.372 24.031,25.242 24.068,25.112 C24.108,24.983 24.162,24.851 24.242,24.715 C24.245,24.709 24.248,24.703 24.251,24.697 C24.584,24.141 25.255,23.543 26.288,22.966 C26.332,22.942 26.377,22.918 26.422,22.894 C26.599,22.798 26.786,22.703 26.983,22.609 C27.212,22.502 27.447,22.395 27.699,22.292 C27.748,22.271 27.799,22.251 27.85,22.231 C29.012,21.768 30.412,21.357 31.988,21.021 C32.481,20.917 32.983,20.819 33.499,20.733 C33.636,20.71 33.77,20.686 33.909,20.664 C38.386,19.974 43.609,19.974 48.086,20.664 C48.227,20.686 48.363,20.711 48.502,20.734 C49.015,20.819 49.514,20.916 50.003,21.02 C54.878,22.058 58,23.841 58,25.5 Z M58,16.517 C58,17.955 56.83,19.125 55.392,19.125 L50.762,19.125 C50.704,19.112 50.64,19.104 50.582,19.091 C49.926,18.949 49.251,18.822 48.561,18.712 C48.494,18.702 48.427,18.691 48.36,18.681 C45.999,18.314 43.479,18.125 41,18.125 C38.521,18.125 36.003,18.314 33.642,18.681 C33.573,18.691 33.505,18.702 33.436,18.712 C32.748,18.822 32.075,18.949 31.421,19.09 C31.362,19.103 31.296,19.111 31.237,19.124 L4.608,19.124 C3.17,19.125 2,17.955 2,16.517 L2,4.733 C2,3.295 3.17,2.125 4.608,2.125 L55.391,2.125 C56.83,2.125 58,3.295 58,4.733 L58,16.517 Z" id="Shape"></path>
            </g>
            <g id="icon-custom-software-development" transform="translate(184.000000, 4.000000)">
                <path d="M25.3294922,12.3533203 C25.8148828,12.3533203 26.2083984,11.9598047 26.2083984,11.4744141 L26.2083984,10.4548828 C26.2083984,9.96949219 25.8148828,9.57597656 25.3294922,9.57597656 C24.8441016,9.57597656 24.4505859,9.96949219 24.4505859,10.4548828 L24.4505859,11.4744141 C24.4505859,11.9599219 24.8439844,12.3533203 25.3294922,12.3533203 Z M13.0453125,12.3533203 C13.5307031,12.3533203 13.9242187,11.9598047 13.9242187,11.4744141 L13.9242187,10.4548828 C13.9242187,9.96949219 13.5307031,9.57597656 13.0453125,9.57597656 C12.5599219,9.57597656 12.1664062,9.96949219 12.1664062,10.4548828 L12.1664062,11.4744141 C12.1664062,11.9599219 12.5599219,12.3533203 13.0453125,12.3533203 Z M11.6669531,18.7007812 L26.7079687,18.7007812 C27.1933594,18.7007812 27.586875,18.3072656 27.586875,17.821875 C27.586875,17.3364844 27.1933594,16.9429687 26.7079687,16.9429687 L11.6669531,16.9429687 C11.1815625,16.9429687 10.7880469,17.3364844 10.7880469,17.821875 C10.7880469,18.3072656 11.1814453,18.7007812 11.6669531,18.7007812 L11.6669531,18.7007812 Z M19.1873437,13.13625 C20.0620312,13.13625 20.8937109,12.7575 21.4693359,12.0970312 C21.7882031,11.7311719 21.7501172,11.1759375 21.3841406,10.8570703 C21.0182812,10.5382031 20.4630469,10.5762891 20.1441797,10.9422656 C19.9026562,11.2194141 19.5539062,11.3784375 19.1874609,11.3784375 C18.8211328,11.3784375 18.4723828,11.2194141 18.2307422,10.9422656 C17.911875,10.5762891 17.3566406,10.5382031 16.9907812,10.8570703 C16.6248047,11.1759375 16.5867187,11.7311719 16.9055859,12.0970312 C17.4809766,12.7575 18.3127734,13.13625 19.1873437,13.13625 L19.1873437,13.13625 Z M11.6669531,23.4776953 L26.7079687,23.4776953 C27.1933594,23.4776953 27.586875,23.0841797 27.586875,22.5987891 C27.586875,22.1133984 27.1933594,21.7198828 26.7079687,21.7198828 L11.6669531,21.7198828 C11.1815625,21.7198828 10.7880469,22.1133984 10.7880469,22.5987891 C10.7880469,23.0841797 11.1814453,23.4776953 11.6669531,23.4776953 Z M52.1744531,0.0244921875 L50.9178516,0.0244921875 C50.4324609,0.0244921875 50.0389453,0.418007812 50.0389453,0.903398437 C50.0389453,1.38878906 50.4324609,1.78230469 50.9178516,1.78230469 L52.1744531,1.78230469 C55.5201562,1.78230469 58.2421875,4.50421875 58.2421875,7.85003906 L58.2421875,31.5257812 L55.24875,31.5257812 L55.24875,8.72613281 C55.24875,6.54796875 53.4766406,4.77585937 51.2984766,4.77585937 L8.70152344,4.77585937 C6.52335937,4.77585937 4.75125,6.54796875 4.75125,8.72613281 L4.75125,31.5257812 L1.7578125,31.5257812 L1.7578125,7.85003906 C1.7578125,4.50433594 4.47984375,1.78230469 7.82554687,1.78230469 L46.7760937,1.78230469 C47.2614844,1.78230469 47.655,1.38878906 47.655,0.903398437 C47.655,0.418007812 47.2614844,0.0244921875 46.7760937,0.0244921875 L7.82554687,0.0244921875 C3.51046875,0.0244921875 -2.84217094e-14,3.53507812 -2.84217094e-14,7.85003906 L-2.84217094e-14,34.3484766 C-2.84217094e-14,38.1532031 2.71546875,41.3941406 6.45691406,42.0544922 C6.50859375,42.0636328 6.55992187,42.0680859 6.61078125,42.0680859 C7.02914062,42.0680859 7.40003906,41.7680859 7.47527344,41.3417578 C7.55964844,40.86375 7.24054687,40.4077734 6.76253906,40.3235156 C3.86261719,39.8116406 1.7578125,37.2987891 1.7578125,34.3484766 L1.7578125,33.2835937 L58.2421875,33.2835937 L58.2421875,34.3484766 C58.2421875,37.6941797 55.5201562,40.4162109 52.1744531,40.4162109 L10.73625,40.4162109 C10.2508594,40.4162109 9.85734375,40.8097266 9.85734375,41.2951172 C9.85734375,41.7805078 10.2508594,42.1740234 10.73625,42.1740234 L21.2491406,42.1740234 L20.7802734,47.2644141 L20.3977734,47.2644141 C18.7425,47.2644141 17.2598437,48.3734766 16.7922656,49.9616016 L16.5891797,50.6516016 C16.3791797,51.3648047 16.5142969,52.1152734 16.9596094,52.7105859 C17.4049219,53.3058984 18.0867187,53.6472656 18.8301562,53.6472656 L41.1697266,53.6472656 C41.9131641,53.6472656 42.5949609,53.3058984 43.0402734,52.7105859 C43.4855859,52.1152734 43.6207031,51.3648047 43.4107031,50.6516016 L43.2076172,49.9614844 C42.7401562,48.3734766 41.2575,47.2644141 39.6021094,47.2644141 L39.2196094,47.2644141 L38.7507422,42.1740234 L52.1743359,42.1740234 C56.4892969,42.1740234 59.9998828,38.6634375 59.9998828,34.3484766 L59.9998828,7.85003906 C60,3.53507812 56.4894141,0.0244921875 52.1744531,0.0244921875 L52.1744531,0.0244921875 Z M31.4192578,31.5257812 L6.5090625,31.5257812 L6.5090625,8.72613281 C6.5090625,7.51722656 7.49261719,6.53367187 8.70152344,6.53367187 L31.4192578,6.53367187 L31.4192578,31.5257812 Z M53.4909375,31.5257812 L33.1770703,31.5257812 L33.1770703,6.53367187 L51.2983594,6.53367187 C52.5072656,6.53367187 53.4908203,7.51722656 53.4908203,8.72613281 L53.4908203,31.5257812 L53.4909375,31.5257812 Z M23.0143359,42.1740234 L36.9856641,42.1740234 L37.4545312,47.2644141 L22.5454687,47.2644141 L23.0143359,42.1740234 Z M39.6022266,49.0222266 C40.4833594,49.0222266 41.2725,49.6126172 41.5214062,50.4578906 L41.7244922,51.1480078 C41.795625,51.3897656 41.6976562,51.5710547 41.6328516,51.6576562 C41.5680469,51.7442578 41.4217969,51.8894531 41.1698437,51.8894531 L18.8302734,51.8894531 C18.5784375,51.8894531 18.4320703,51.7442578 18.3672656,51.6576562 C18.2571094,51.5103516 18.2235937,51.3246094 18.275625,51.1478906 L18.4787109,50.4578906 C18.7276172,49.6126172 19.5167578,49.0222266 20.3978906,49.0222266 L21.5818359,49.0222266 L21.583125,49.0222266 L21.5842969,49.0222266 L38.4159375,49.0222266 L38.4171094,49.0222266 L38.4183984,49.0222266 L39.6022266,49.0222266 Z M31.6860937,36.8499609 C31.6860937,35.9186719 30.9311719,35.1638672 30,35.1638672 C29.0688281,35.1638672 28.3139062,35.9187891 28.3139062,36.8499609 C28.3139062,37.7811328 29.0688281,38.5360547 30,38.5360547 C30.9311719,38.5360547 31.6860937,37.7811328 31.6860937,36.8499609 Z M50.8885547,13.321875 L44.908125,9.8690625 C43.9372266,9.30855469 42.7306641,9.30832031 41.7597656,9.8690625 L35.7793359,13.321875 C35.3433984,13.5734766 35.0749219,14.0119922 35.0411719,14.5078125 C35.0370703,14.5421484 35.034375,14.5768359 35.034375,14.6122266 L35.034375,22.8297656 C35.034375,23.3683594 35.3128125,23.8507031 35.7793359,24.12 L41.7597656,27.5728125 C42.2228906,27.8402344 42.7396875,27.9785156 43.2588281,27.9908203 C43.2836719,27.9929297 43.3085156,27.9945703 43.3338281,27.9945703 C43.3592578,27.9945703 43.3842187,27.9929297 43.4090625,27.9907031 C43.9282031,27.9783984 44.4448828,27.8401172 44.9080078,27.5726953 L50.8883203,24.12 C51.3548437,23.8507031 51.6332812,23.3682422 51.6332812,22.8296484 L51.6332812,14.6122266 C51.6332812,14.5768359 51.6305859,14.5421484 51.6264844,14.5078125 C51.5929687,14.0119922 51.3244922,13.5734766 50.8885547,13.321875 L50.8885547,13.321875 Z M42.4551562,25.9444922 L36.7923047,22.6749609 L36.7923047,16.4873437 L41.7598828,19.3553906 C41.9811328,19.483125 42.2150391,19.5802734 42.4551562,19.6498828 L42.4551562,25.9444922 Z M42.6387891,17.8330078 L37.0601953,14.6122266 L42.6387891,11.3914453 C43.0678125,11.1438281 43.6006641,11.1438281 44.0293359,11.3914453 L49.6079297,14.6122266 L44.0293359,17.8330078 C43.6003125,18.0807422 43.0675781,18.0807422 42.6387891,17.8330078 Z M49.8757031,22.6749609 L44.2129687,25.9444922 L44.2129687,19.6497656 C44.4530859,19.5802734 44.6869922,19.483125 44.9082422,19.3553906 L49.8758203,16.4873437 L49.8758203,22.6749609 L49.8757031,22.6749609 Z M11.6669531,28.2546094 L20.0061328,28.2546094 C20.3721094,29.3185547 21.3822656,30.0856641 22.5689062,30.0856641 C23.7555469,30.0856641 24.7657031,29.3186719 25.1316797,28.2546094 L26.7079687,28.2546094 C27.1933594,28.2546094 27.586875,27.8610937 27.586875,27.3757031 C27.586875,26.8903125 27.1933594,26.4967969 26.7079687,26.4967969 L25.1316797,26.4967969 C24.7657031,25.4327344 23.7555469,24.6657422 22.5689062,24.6657422 C21.3822656,24.6657422 20.3719922,25.4327344 20.0061328,26.4967969 L11.6669531,26.4967969 C11.1815625,26.4967969 10.7880469,26.8903125 10.7880469,27.3757031 C10.7880469,27.8610937 11.1814453,28.2546094 11.6669531,28.2546094 Z M22.5689062,26.4235547 C23.0939062,26.4235547 23.5209375,26.8507031 23.5209375,27.3757031 C23.5209375,27.9007031 23.0937891,28.3278516 22.5689062,28.3278516 C22.0439062,28.3278516 21.6167578,27.9007031 21.6167578,27.3757031 C21.6167578,26.8507031 22.0439062,26.4235547 22.5689062,26.4235547 Z" id="Shape"></path>
            </g>
            <g id="icon-systems-architecture" transform="translate(127.000000, 74.000000)">
                <path d="M46.16,42.4 L43.916,43.7 C43.3320532,43.2419201 42.6872026,42.8673278 42,42.587 L42,40 L36,40 L36,42.587 C35.3129676,42.8663961 34.6681255,43.2399737 34.084,43.697 L34,43.649 L34,38 C34,35.252 28.3,34 23,34 C17.7,34 12,35.252 12,38 L12,56 C12,58.748 17.7,60 23,60 C28.045,60 33.445,58.862 33.95,56.38 L34.084,56.303 C34.6681255,56.7600263 35.3129676,57.1336039 36,57.413 L36,60 L42,60 L42,57.413 C42.6870324,57.1336039 43.3318745,56.7600263 43.916,56.303 L46.16,57.603 L49.16,52.403 L46.919,51.109 C47.027,50.3749512 47.027,49.6290488 46.919,48.895 L49.16,47.6 L46.16,42.4 Z M31.84,42.4 L30.359,44.965 C27.9778606,45.7045713 25.4927626,46.0540857 23,46 C17.149,46 14.15,44.54 14,44 L14,40.433 C14.014,40.44 14.031,40.445 14.045,40.452 C14.2856667,40.5706667 14.5433333,40.6823333 14.818,40.787 C14.891,40.815 14.971,40.84 15.047,40.868 C15.259,40.944 15.477,41.017 15.704,41.085 C15.812,41.117 15.921,41.147 16.032,41.177 C16.2486667,41.237 16.471,41.2933333 16.699,41.346 C16.808,41.372 16.916,41.398 17.027,41.421 C17.3123333,41.4823333 17.6036667,41.5383333 17.901,41.589 L18.069,41.62 C18.425,41.678 18.7883333,41.7293333 19.159,41.774 L19.479,41.808 C19.75,41.838 20.022,41.865 20.298,41.887 C20.427,41.898 20.556,41.908 20.686,41.917 C20.955,41.935 21.225,41.951 21.496,41.963 L21.851,41.979 C22.235,41.992 22.618,42 23,42 C23.382,42 23.765,41.992 24.149,41.979 L24.504,41.963 C24.775,41.951 25.045,41.935 25.314,41.917 C25.444,41.908 25.573,41.898 25.702,41.887 C25.978,41.865 26.25,41.838 26.521,41.808 L26.841,41.774 C27.211,41.7286667 27.5743333,41.6773333 27.931,41.62 L28.099,41.589 C28.397,41.5376667 28.6883333,41.4816667 28.973,41.421 C29.084,41.398 29.192,41.372 29.301,41.346 C29.529,41.2933333 29.7513333,41.237 29.968,41.177 C30.079,41.147 30.188,41.117 30.296,41.085 C30.523,41.017 30.741,40.944 30.953,40.868 C31.029,40.84 31.109,40.815 31.182,40.787 C31.456,40.683 31.7136667,40.5713333 31.955,40.452 C31.969,40.445 31.986,40.44 32,40.433 L32,42.494 L31.84,42.4 Z M23,36 C23.364,36 23.717,36.006 24.06,36.016 C24.181,36.016 24.293,36.028 24.412,36.033 C24.627,36.042 24.844,36.05 25.05,36.063 C25.219,36.074 25.377,36.089 25.54,36.102 C25.685,36.114 25.84,36.124 25.975,36.137 C26.175,36.156 26.357,36.179 26.544,36.201 C26.639,36.213 26.744,36.222 26.831,36.234 C27.077,36.266 27.31,36.302 27.538,36.334 L27.618,36.345 C30.394,36.806 31.852,37.603 31.995,37.992 C31.9877195,38.0093516 31.9790235,38.0260747 31.969,38.042 C31.9580942,38.0636956 31.9453827,38.0844354 31.931,38.104 C31.916,38.122 31.894,38.141 31.876,38.16 C31.858,38.179 31.829,38.21 31.797,38.237 C31.765,38.264 31.746,38.275 31.721,38.294 C31.696,38.313 31.645,38.352 31.598,38.383 C31.569,38.402 31.532,38.422 31.498,38.442 C31.445,38.474 31.398,38.506 31.332,38.542 C31.295,38.562 31.25,38.582 31.211,38.602 C31.143,38.637 31.077,38.671 31,38.702 L30.859,38.762 C30.776,38.797 30.695,38.833 30.603,38.869 C30.552,38.889 30.493,38.909 30.439,38.929 C30.339,38.965 30.246,39.001 30.139,39.036 C30.077,39.057 30.007,39.077 29.939,39.098 C29.83,39.132 29.724,39.167 29.607,39.198 C29.532,39.22 29.449,39.24 29.371,39.261 C29.253,39.293 29.137,39.325 29.011,39.356 C28.922,39.378 28.824,39.398 28.731,39.419 C28.606,39.448 28.484,39.477 28.352,39.504 C28.245,39.526 28.129,39.545 28.017,39.566 C27.887,39.59 27.76,39.616 27.624,39.638 C27.488,39.66 27.362,39.677 27.231,39.697 C27.1,39.717 26.971,39.738 26.831,39.756 C26.691,39.774 26.531,39.791 26.377,39.808 C26.241,39.823 26.11,39.84 25.97,39.854 C25.8,39.87 25.619,39.882 25.442,39.896 C25.309,39.906 25.182,39.919 25.042,39.928 C24.819,39.942 24.585,39.951 24.351,39.96 C24.251,39.96 24.151,39.971 24.051,39.975 C23.708,39.985 23.351,39.991 22.991,39.991 C22.26,39.991 21.573,39.968 20.931,39.927 C16.451,39.641 14.14,38.472 13.994,37.996 C14.183,37.445 17.179,36 23,36 Z M14,46.427 C16.127,47.5 19.642,48 23,48 C24.9919896,48.0132987 26.9801834,47.8243298 28.934,47.436 L28.84,47.599 L31.081,48.893 C31.0275389,49.2595856 31.0004693,49.6295369 31,50 C31,50.225 31.029,50.456 31.05,50.685 C28.4822524,51.6596657 25.7444259,52.1069007 23,52 C17.149,52 14.15,50.54 14,50 L14,50 L14,46.427 Z M14,56 L14,52.433 C16.129,53.5 19.646,54 23,54 C25.1438346,54.0174473 27.2827638,53.7923498 29.376,53.329 L31.254,56.584 C30.023,57.22 27.277,58 23,58 C17.149,58 14.15,56.54 14,56 Z M44.831,48.611 C45.0563153,49.523294 45.0563153,50.476706 44.831,51.389 L44.66,52.113 L46.428,53.134 L45.428,54.866 L43.659,53.845 L43.117,54.355 C42.4365291,55.0000753 41.6146522,55.4771063 40.717,55.748 L40,55.96 L40,58 L38,58 L38,55.96 L37.285,55.748 C36.3873478,55.4771063 35.5654709,55.0000753 34.885,54.355 L34.343,53.845 L32.574,54.866 L31.574,53.134 L33.342,52.113 L33.171,51.389 C32.9456847,50.476706 32.9456847,49.523294 33.171,48.611 L33.342,47.887 L31.574,46.866 L32.574,45.134 L34.343,46.155 L34.885,45.645 C35.5654709,44.9999247 36.3873478,44.5228937 37.285,44.252 L38,44.04 L38,42 L40,42 L40,44.04 L40.715,44.252 C41.6126522,44.5228937 42.4345291,44.9999247 43.115,45.645 L43.657,46.155 L45.426,45.134 L46.426,46.866 L44.66,47.887 L44.831,48.611 Z" id="Shape"></path>
                <path d="M39,46 C36.790861,46 35,47.790861 35,50 C35,52.209139 36.790861,54 39,54 C41.209139,54 43,52.209139 43,50 C43,47.790861 41.209139,46 39,46 Z M39,52 C37.8954305,52 37,51.1045695 37,50 C37,48.8954305 37.8954305,48 39,48 C40.1045695,48 41,48.8954305 41,50 C41,51.1045695 40.1045695,52 39,52 Z" id="Shape"></path>
                <path d="M36,0 L24,0 L24,20 L36,20 L36,0 Z M34,2 L34,14 L26,14 L26,2 L34,2 Z M30,18 L26,18 L26,16 L34,16 L34,18 L30,18 Z" id="Shape"></path>
                <path d="M31,17 C30.9963165,16.735233 30.8927337,16.4816338 30.71,16.29 C30.4697551,16.0554356 30.1292984,15.954421 29.8,16.02 C29.7373375,16.0308873 29.6766624,16.0511123 29.62,16.08 C29.556027,16.102043 29.4951855,16.1322956 29.439,16.17 C29.3871202,16.2071714 29.3373748,16.2472348 29.29,16.29 C29.1068415,16.4813584 29.0031874,16.7351323 29,17 C29,17.3572656 29.1905989,17.6873926 29.5,17.8660255 C29.8094011,18.0446583 30.1905989,18.0446583 30.5,17.8660255 C30.8094011,17.6873926 31,17.3572656 31,17 Z" id="Shape"></path>
                <polygon id="Shape" points="11 22 9 22 9 28 29 28 29 32 31 32 31 28 51 28 51 22 49 22 49 26 31 26 31 22 29 22 29 26 11 26"></polygon>
                <path d="M6,18 L4,18 L4,20 L16,20 L16,18 L14,18 L14,16 L20,16 L20,0 L0,0 L0,16 L6,16 L6,18 Z M12,18 L8,18 L8,16 L12,16 L12,18 Z M2,2 L18,2 L18,10 L2,10 L2,2 Z M2,14 L2,12 L18,12 L18,14 L2,14 Z" id="Shape"></path>
                <path d="M40,20 L60,20 L60,0 L40,0 L40,20 Z M58,18 L42,18 L42,8 L58,8 L58,18 Z M42,2 L58,2 L58,6 L42,6 L42,2 Z" id="Shape"></path>
                <path d="M44.55,3.17 C44.4988621,3.13055328 44.4413713,3.10011693 44.38,3.08 C44.3200792,3.04960041 44.2555406,3.02932653 44.189,3.02 C43.862764,2.95467563 43.5254038,3.05588372 43.289,3.29 C43.1986032,3.38560709 43.127323,3.49761868 43.079,3.62 C42.9195634,3.99209621 43.0027306,4.42377375 43.289,4.71 C43.3862607,4.79825266 43.4978607,4.86927085 43.619,4.92 C43.8610922,5.02672854 44.1369078,5.02672854 44.379,4.92 C44.5000136,4.86903064 44.6115749,4.79803703 44.709,4.71 C44.8971199,4.52182153 45.0019395,4.26607604 45,4 C44.9963165,3.73523302 44.8927337,3.48163379 44.71,3.29 C44.6608107,3.24475377 44.6072094,3.20455276 44.55,3.17 L44.55,3.17 Z" id="Shape"></path>
                <path d="M47.71,3.29 C47.3089802,2.91998159 46.6910198,2.91998159 46.29,3.29 C46.1996032,3.38560709 46.128323,3.49761868 46.08,3.62 C46.028759,3.74022231 46.00158,3.86932274 46,4 C45.9965453,4.13118332 46.0239476,4.26134449 46.08,4.38 C46.1309694,4.50101357 46.201963,4.61257495 46.29,4.71 C46.5762262,4.99626938 47.0079038,5.07943662 47.38,4.92 C47.5010136,4.86903064 47.6125749,4.79803703 47.71,4.71 C47.798037,4.61257495 47.8690306,4.50101357 47.92,4.38 C48.0267285,4.13790777 48.0267285,3.86209223 47.92,3.62 C47.8692709,3.49886071 47.7982527,3.38726069 47.71,3.29 L47.71,3.29 Z" id="Shape"></path>
                <path d="M50.71,3.29 C50.6125749,3.20196297 50.5010136,3.13096936 50.38,3.08 C50.1977539,2.99962881 49.9948393,2.97863764 49.8,3.02 C49.7373375,3.03088731 49.6766624,3.05111232 49.62,3.08 C49.556027,3.10204296 49.4951855,3.13229565 49.439,3.17 C49.3871202,3.20717139 49.3373748,3.24723481 49.29,3.29 C49.197469,3.38392605 49.1258964,3.49639739 49.08,3.62 C48.9733951,3.86211827 48.9733951,4.13788173 49.08,4.38 C49.1309694,4.50101357 49.201963,4.61257495 49.29,4.71 C49.3872607,4.79825266 49.4988607,4.86927085 49.62,4.92 C49.7402223,4.97124097 49.8693227,4.99842001 50,5 C50.2651121,4.99802571 50.5193164,4.89419577 50.71,4.71 C50.798037,4.61257495 50.8690306,4.50101357 50.92,4.38 C51.0267285,4.13790777 51.0267285,3.86209223 50.92,3.62 C50.8741036,3.49639739 50.802531,3.38392605 50.71,3.29 L50.71,3.29 Z" id="Shape"></path>
            </g>
        </g>
    </g>
</svg>