<?xml version="1.0" encoding="UTF-8"?>
<svg width="257px" height="256px" viewBox="0 0 257 256" version="1.1" xmlns="http://www.w3.org/2000/svg" xmlns:xlink="http://www.w3.org/1999/xlink">
    <!-- Generator: Sketch 43.2 (39069) - http://www.bohemiancoding.com/sketch -->
    <title>Group 3</title>
    <desc>Created with Sketch.</desc>
    <defs></defs>
    <g id="Page-1" stroke="none" stroke-width="1" fill="none" fill-rule="evenodd">
        <g id="Desktop-HD" transform="translate(-16.000000, -8.000000)">
            <g id="Group-3" transform="translate(16.000000, 8.000000)">
                <circle id="Oval" stroke="#FFD700" stroke-width="2" stroke-dasharray="2,5" cx="135.5" cy="140.5" r="86.5"></circle>
                <g id="innovation(1)" transform="translate(96.000000, 44.000000)" fill-rule="nonzero">
                    <path d="M66.8852459,89.7790332 C66.8852459,96.5299274 64.1608197,105.768502 59.6960656,113.669485 C57.0081967,118.426039 51.147541,127.111286 51.147541,132.565728 L39.3442623,132.565728 L39.3442623,64.4292116 C54.5547541,64.4292116 66.8852459,75.4102116 66.8852459,89.7790332 L66.8852459,89.7790332 Z" id="Shape" fill="#DBE6FD"></path>
                    <path d="M11.8032787,89.8250892 C11.8032787,96.5759834 14.5277049,105.814558 18.992459,113.715541 C21.6803279,118.472095 27.5409836,127.157342 27.5409836,132.611784 L39.3442623,132.611784 L39.3442623,64.4752676 C24.1337705,64.4752676 11.8032787,75.4562676 11.8032787,89.8250892 L11.8032787,89.8250892 Z" id="Shape" fill="#FFD700"></path>
                    <g id="Group" transform="translate(43.114754, 63.327801)" fill="#0A9EC1">
                        <path d="M10.0909836,63.2989959 L7.65245902,62.3334585 C8.0057377,61.4546245 8.41491803,60.5992282 8.87754098,59.7725145 L11.1739344,61.0401203 C10.765082,61.7694772 10.4034426,62.5239108 10.0909836,63.2989959 L10.0909836,63.2989959 Z" id="Shape"></path>
                        <path d="M12.5077049,58.8315622 L10.3060656,57.4075954 C10.7978689,56.6469336 11.3121311,55.894139 11.827541,55.1539647 L13.9804918,56.6521784 C13.4816393,57.3692427 12.9840984,58.0964689 12.5077049,58.8315622 L12.5077049,58.8315622 Z" id="Shape"></path>
                        <path d="M15.5129508,54.4600104 L13.3586885,52.9644191 C13.8754098,52.2191639 14.3685246,51.4930851 14.8109836,50.7914274 L17.0304918,52.1872033 C16.5688525,52.9221328 16.0540984,53.6814834 15.5129508,54.4600104 Z" id="Shape"></path>
                        <path d="M18.4060656,49.7899959 L16.0931148,48.5530394 C16.5029508,47.7859855 16.8959016,47.0087697 17.2719672,46.2212282 L19.6388525,47.350666 C19.2462295,48.1727905 18.8354098,48.9859004 18.4060656,49.7899959 Z" id="Shape"></path>
                        <path d="M20.7619672,44.8641328 L18.3477049,43.8371328 C18.6909836,43.0317261 19.0155738,42.2199274 19.3204918,41.4094398 L21.7757377,42.3313797 C21.4581967,43.1777614 21.1201639,44.0220124 20.7619672,44.8641328 Z" id="Shape"></path>
                        <path d="M24.9711475,29.0246328 L22.3572131,28.8043506 C22.425082,28.0053361 22.4590164,27.2281203 22.4590164,26.4969606 L22.4577049,26.2561909 L25.0806557,26.2357033 L25.0819672,26.4969606 C25.0819672,27.3023672 25.0447541,28.1526826 24.9711475,29.0246328 Z" id="Shape"></path>
                        <path d="M22.2957377,23.7363859 C22.1963934,22.9004938 22.0506557,22.070666 21.8590164,21.251 L24.4127869,20.6542386 C24.6265574,21.568639 24.7895082,22.4940207 24.9008197,23.4264502 L22.2957377,23.7363859 Z" id="Shape"></path>
                        <path d="M21.1481967,18.8308465 C20.865082,18.0374046 20.5383607,17.2603527 20.1696721,16.5029689 L22.527541,15.355666 C22.9393443,16.2002448 23.3036066,17.067278 23.6186885,17.9525041 L21.1481967,18.8308465 Z" id="Shape"></path>
                        <path d="M18.9395082,14.3004751 C18.487541,13.5878361 17.9980328,12.8997822 17.4731148,12.2389357 L19.527377,10.6076349 C20.1106557,11.3422365 20.6544262,12.1073237 21.1565574,12.8996183 L18.9395082,14.3004751 Z" id="Shape"></path>
                        <path d="M15.7947541,10.3412967 C15.2013115,9.73830705 14.577377,9.1659668 13.9255738,8.62673444 L15.5968852,6.60617012 C16.3180328,7.20260373 17.0081967,7.83558714 17.6645902,8.50249793 L15.7947541,10.3412967 Z" id="Shape"></path>
                        <path d="M11.8885246,7.10426349 C11.1918033,6.6356722 10.4585246,6.19248548 9.70934426,5.78797925 L10.9567213,3.48058921 C11.7801639,3.92623444 12.5859016,4.41285477 13.3522951,4.92750207 L11.8885246,7.10426349 Z" id="Shape"></path>
                        <path d="M7.41163934,4.68673237 C6.64262295,4.36024274 5.83885246,4.06309129 5.02180328,3.80445643 L5.81590164,1.3049751 C6.7104918,1.58917842 7.59295082,1.91452075 8.43754098,2.27428216 L7.41163934,4.68673237 Z" id="Shape"></path>
                        <path d="M2.55508197,3.14246266 C1.73163934,2.95938589 0.884918033,2.81203942 0.0390163934,2.70320954 L0.374590164,0.101290456 C1.29803279,0.221593361 2.22262295,0.38303527 3.12245902,0.581518672 L2.55508197,3.14246266 Z" id="Shape"></path>
                    </g>
                    <path d="M50.1559016,136.545394 L28.532623,136.545394 C27.0839344,136.545394 25.9096721,135.371376 25.9096721,133.922988 L25.9096721,133.831039 C25.9255738,132.466077 27.045082,131.372369 28.4103279,131.388268 C28.4511475,131.388759 28.4919672,131.390234 28.532623,131.392693 L50.1559016,131.392693 C51.5186885,131.309268 52.6909836,132.346266 52.7744262,133.70877 C52.7768852,133.749581 52.7783607,133.790228 52.7788525,133.831039 L52.7788525,133.922988 C52.7788525,135.371376 51.6045902,136.545394 50.1559016,136.545394 Z" id="Shape" fill="#2D8AF9"></path>
                    <path d="M28.1967213,136.545394 L50.4918033,136.545394 C51.9404918,136.545394 53.1147541,137.719413 53.1147541,139.167801 L53.1147541,139.259585 C53.1147541,140.707973 51.9404918,141.881992 50.4918033,141.881992 L28.1967213,141.881992 C26.7480328,141.881992 25.5737705,140.707973 25.5737705,139.259585 L25.5737705,139.167801 C25.5737705,137.719413 26.7480328,136.545394 28.1967213,136.545394 Z" id="Shape" fill="#086AF9"></path>
                    <path d="M39.3442623,84.0972614 L39.3442623,76.2300415 C38.5963934,76.2346307 37.8495082,76.2844564 37.1077049,76.3796826 L36.5322951,79.1173112 C35.6831148,79.2720332 34.8483607,79.4969046 34.0363934,79.7897946 L32.1568852,77.6920332 C30.7863934,78.2825664 29.4932787,79.0383112 28.3062295,79.9425498 L29.1755738,82.5888859 C28.5162295,83.1481141 27.9039344,83.7604461 27.3445902,84.4196535 L24.697541,83.5503257 C23.7929508,84.7371286 23.0370492,86.030139 22.4463934,87.4003465 L24.5442623,89.2796286 C24.2513115,90.0914274 24.0263934,90.9261722 23.8716393,91.7751763 L21.1334426,92.3506307 L21.1334426,96.8228174 L23.8716393,97.3981079 C24.0262295,98.247112 24.2513115,99.0818568 24.5442623,99.8934917 L22.4463934,101.77261 C23.0370492,103.142817 23.7929508,104.435664 24.697377,105.622467 L27.3442623,104.753303 C27.9036066,105.41251 28.5160656,106.024678 29.1754098,106.583907 L28.3059016,109.230407 C29.4929508,110.134809 30.7862295,110.890718 32.1568852,111.481251 L34.0365574,109.383817 C34.8485246,109.676707 35.6834426,109.901743 36.532623,110.056465 L37.1081967,112.794093 C37.85,112.889156 38.5968852,112.939145 39.3447541,112.943734 L39.3447541,105.076515 C33.5503279,105.076515 28.8529508,100.380112 28.8529508,94.586888 C28.8529508,88.7936639 33.5498361,84.0972614 39.3442623,84.0972614 Z" id="Shape" fill="#F4393D"></path>
                    <path d="M61.6393443,94.586888 C59.977541,94.5919689 58.4986885,95.6422427 57.9465574,97.2092946 L51.147541,97.2092946 L51.147541,91.9644813 L57.704918,91.9644813 C58.4290164,91.9646452 59.0162295,91.3778817 59.0163934,90.6539336 L59.0163934,90.653278 L59.0163934,85.1668755 C61.065082,84.4427635 62.1388525,82.195361 61.4145902,80.1469336 C60.6903279,78.0985062 58.442459,77.0251224 56.3936066,77.7492344 C54.344918,78.4733465 53.2711475,80.720749 53.9954098,82.7691763 C54.3914754,83.8894357 55.2729508,84.7707282 56.3934426,85.1668755 L56.3934426,89.3422386 L51.147541,89.3422386 L51.147541,86.719832 L48.5245902,86.719832 L48.5245902,78.6108589 C50.5732787,77.8867469 51.6470492,75.6393444 50.9227869,73.590917 C50.1985246,71.5424896 47.9506557,70.4691058 45.9018033,71.1932178 C43.8531148,71.9173299 42.7793443,74.1647324 43.5036066,76.2131598 C43.8996721,77.3334191 44.7811475,78.2147116 45.9016393,78.6108589 L45.9016393,86.719832 L39.3442623,86.719832 L39.3442623,102.454272 L43.2786885,102.454272 L43.2786885,107.699085 C43.2785246,108.423033 43.8654098,109.010124 44.5895082,109.010288 L44.5901639,109.010288 L48.5245902,109.010288 L48.5245902,110.563081 C46.4759016,111.287193 45.4022951,113.534759 46.1267213,115.582859 C46.8509836,117.631122 49.0990164,118.704506 51.147541,117.98023 C53.1962295,117.256118 54.2698361,115.008552 53.5454098,112.960452 C53.1493443,111.840193 52.2678689,110.959064 51.147541,110.563081 L51.147541,107.698921 C51.1477049,106.974973 50.5608197,106.387882 49.8367213,106.387718 L49.8360656,106.387718 L45.9016393,106.387718 L45.9016393,102.454108 L51.147541,102.454108 L51.147541,99.8317012 L57.9467213,99.8317012 C58.674918,101.874556 60.9214754,102.9404 62.9647541,102.212355 C65.0080328,101.484309 66.0740984,99.2382178 65.3459016,97.1953631 C64.787541,95.6289668 63.302623,94.5839378 61.6393443,94.586888 Z" id="Shape" fill="#3ECCED"></path>
                    <g id="Group" transform="translate(0.000000, 63.000000)" fill="#FFD700">
                        <polygon id="Shape" points="2.62295082 70.9229876 5.24590164 70.9229876 5.24590164 73.5453942 2.62295082 73.5453942"></polygon>
                        <polygon id="Shape" points="2.62295082 76.1678008 5.24590164 76.1678008 5.24590164 78.7902075 2.62295082 78.7902075"></polygon>
                        <polygon id="Shape" points="5.24590164 73.5453942 7.86885246 73.5453942 7.86885246 76.1678008 5.24590164 76.1678008"></polygon>
                        <polygon id="Shape" points="0 73.5453942 2.62295082 73.5453942 2.62295082 76.1678008 0 76.1678008"></polygon>
                        <polygon id="Shape" points="74.7540984 0.118008299 77.3770492 0.118008299 77.3770492 2.74041494 74.7540984 2.74041494"></polygon>
                        <polygon id="Shape" points="74.7540984 5.36282158 77.3770492 5.36282158 77.3770492 7.98522822 74.7540984 7.98522822"></polygon>
                        <polygon id="Shape" points="77.3770492 2.74041494 80 2.74041494 80 5.36282158 77.3770492 5.36282158"></polygon>
                        <polygon id="Shape" points="72.1311475 2.74041494 74.7540984 2.74041494 74.7540984 5.36282158 72.1311475 5.36282158"></polygon>
                    </g>
                    <g id="Group-2" transform="translate(72.000000, 193.000000)" fill="#FFD700">
                        <polygon id="Shape" points="2.75409836 0.118008299 5.37704918 0.118008299 5.37704918 2.74041494 2.75409836 2.74041494"></polygon>
                        <polygon id="Shape" points="2.75409836 5.36282158 5.37704918 5.36282158 5.37704918 7.98522822 2.75409836 7.98522822"></polygon>
                        <polygon id="Shape" points="5.37704918 2.74041494 8 2.74041494 8 5.36282158 5.37704918 5.36282158"></polygon>
                        <polygon id="Shape" points="0.131147541 2.74041494 2.75409836 2.74041494 2.75409836 5.36282158 0.131147541 5.36282158"></polygon>
                    </g>
                    <g id="Group-2" transform="translate(146.000000, 118.000000)" fill="#FFD700">
                        <polygon id="Shape" points="2.75409836 0.118008299 5.37704918 0.118008299 5.37704918 2.74041494 2.75409836 2.74041494"></polygon>
                        <polygon id="Shape" points="2.75409836 5.36282158 5.37704918 5.36282158 5.37704918 7.98522822 2.75409836 7.98522822"></polygon>
                        <polygon id="Shape" points="5.37704918 2.74041494 8 2.74041494 8 5.36282158 5.37704918 5.36282158"></polygon>
                        <polygon id="Shape" points="0.131147541 2.74041494 2.75409836 2.74041494 2.75409836 5.36282158 0.131147541 5.36282158"></polygon>
                    </g>
                    <g id="Group-2" transform="translate(133.000000, 0.000000)" fill="#FFD700">
                        <polygon id="Shape" points="2.75409836 0.118008299 5.37704918 0.118008299 5.37704918 2.74041494 2.75409836 2.74041494"></polygon>
                        <polygon id="Shape" points="2.75409836 5.36282158 5.37704918 5.36282158 5.37704918 7.98522822 2.75409836 7.98522822"></polygon>
                        <polygon id="Shape" points="5.37704918 2.74041494 8 2.74041494 8 5.36282158 5.37704918 5.36282158"></polygon>
                        <polygon id="Shape" points="0.131147541 2.74041494 2.75409836 2.74041494 2.75409836 5.36282158 0.131147541 5.36282158"></polygon>
                    </g>
                </g>
                <g id="gears" transform="translate(35.000000, 186.000000)" fill-rule="nonzero">
                    <path d="M69.999466,34.8221588 C70.0945282,53.8746644 54.7953796,69.5930482 35.7466126,69.9919891 C33.1153107,70.0469971 30.5491637,69.8098755 28.0764771,69.3132018 C26.853485,69.0675355 25.9765625,67.9866029 25.9765625,66.7385101 C25.9765625,65.3686523 24.8657227,64.2578125 23.4953307,64.2578125 L16.5386963,64.2578125 C16.0409546,64.2578125 15.5549622,64.1066742 15.14534,63.8241577 C11.5270996,61.3274383 8.40179443,58.1679535 5.94566342,54.519806 C5.63323975,54.0562438 5.46875,53.5083008 5.46875,52.9486084 L5.46875,45.4264069 C5.46875,43.7457275 4.10583496,42.3828125 2.42515561,42.3828125 C1.45156867,42.3828125 0.624847344,41.6751862 0.466232266,40.7144165 C0.160217285,38.8548278 5.68434189e-14,36.946106 5.68434189e-14,35 C5.68434189e-14,15.6697845 15.6697845,0 35,0 C54.270401,0 69.9038696,15.5736541 69.999466,34.8221588 L69.999466,34.8221588 Z" id="Shape" fill="#025F80"></path>
                    <path d="M29.1483307,7.16545102 C29.2380524,6.87652588 29.3256379,6.60469059 29.3838501,6.43966668 C30.1950837,4.13574219 31.2952423,2.00698859 32.6309204,0.0817107812 C33.4138489,0.0293732031 34.2037201,0 35,0 C35.2638245,0 35.5271149,0.00427246094 35.7893372,0.0101471016 C34.0750122,2.11486816 32.6896667,4.53735352 31.7379761,7.2236634 C31.6835023,7.37747199 31.6017913,7.63275146 31.5163421,7.90618896 C31.3150024,8.55133057 30.6330109,8.91662598 29.9841309,8.72703549 C29.318161,8.53210449 28.9416504,7.82875064 29.1483307,7.16545102 L29.1483307,7.16545102 Z M69.9909211,34.2608643 C64.011612,39.1170501 55.8255768,41.0423278 47.8205872,38.6988831 C41.7681121,36.9274139 36.9300843,33.006897 33.8896942,28.0134583 L35.0859832,27.3581696 C35.48172,27.1408081 35.4592896,26.5645599 35.0469971,26.3792419 L31.1798859,24.6435547 C30.8487702,24.4950866 30.467453,24.7039032 30.4145814,25.0627899 L29.7961426,29.2562103 C29.7299194,29.7032165 30.2036286,30.0327301 30.5998993,29.8159027 L31.7118073,29.206543 C35.0614167,34.7607422 40.422287,39.1229248 47.1385955,41.0845184 C55.2119446,43.4429168 63.5021209,41.8263245 69.9177552,37.3851013 C69.9706268,36.5968323 70,35.8016204 70,35 C70,34.7527313 69.9957275,34.5065308 69.9909211,34.2608643 L69.9909211,34.2608643 Z M37.3648071,64.0890503 C36.7175293,63.8935853 36.0328675,64.252472 35.825119,64.8960114 C35.7369995,65.1683807 35.6526185,65.4231263 35.5970765,65.5764007 C35.0293732,67.1331787 34.314804,68.5991668 33.4763337,69.9647523 C33.9815521,69.9866486 34.4894409,70 35,70 C35.4475404,70 35.8929443,69.9887848 36.3362122,69.972229 C36.9514466,68.8309479 37.4903107,67.6330566 37.9442596,66.3822936 C38.0040741,66.2172699 38.0937957,65.9465026 38.1861878,65.6581116 C38.3987427,64.9974823 38.0291748,64.289856 37.3648071,64.0890503 L37.3648071,64.0890503 Z M37.085495,47.7500915 L37.7429199,43.5625457 C37.8128815,43.1160736 37.3423766,42.7822876 36.9445038,42.9959106 L35.8267212,43.5945892 C32.5283813,38.0099487 27.2086335,33.5986328 20.5104828,31.5745544 C13.3979035,29.4255065 6.08772281,30.3755951 0.0288391797,33.6472321 C0.0117492676,34.0958405 0,34.5465851 0,35 C0,35.4950714 0.0128173828,35.9869385 0.0331116406,36.4772034 C5.73471063,32.979126 12.8542328,31.848526 19.8065949,33.9537811 C25.84198,35.7813263 30.6436921,39.7456361 33.637619,44.7673797 L32.4354554,45.4119873 C32.0370483,45.6250763 32.0546722,46.2018586 32.4653626,46.3909149 L36.316452,48.1623841 C36.6459655,48.3140563 37.0288849,48.1084442 37.085495,47.7500915 L37.085495,47.7500915 Z M37.9367829,49.9707031 C37.3044587,49.7800446 36.6374206,50.1373291 36.446228,50.7696533 C36.2550355,51.4019775 36.612854,52.0695495 37.2451782,52.2602082 C37.8775024,52.4514007 38.5445404,52.0935822 38.7357331,51.461258 C38.9269256,50.8294678 38.5691071,50.1618958 37.9367829,49.9707031 Z M37.3781585,54.6661377 C37.1469116,55.2851105 37.4609375,55.9740448 38.0793763,56.2052917 C38.6978149,56.4365387 39.3872834,56.1230469 39.6185303,55.5040741 C39.8497772,54.8856354 39.5357513,54.196701 38.9173127,53.9654541 C38.2988739,53.7336732 37.6099396,54.0476989 37.3781585,54.6661377 L37.3781585,54.6661377 Z M39.0139771,57.3070526 C38.3955384,57.0758057 37.706604,57.3898315 37.4753571,58.0082702 C37.243576,58.626709 37.5576019,59.3161774 38.1760407,59.5474243 C38.7950134,59.7786712 39.4839478,59.4646454 39.7151947,58.8462067 C39.9464417,58.2277679 39.6329499,57.5388337 39.0139771,57.3070526 Z M38.6326598,60.7944489 C38.0142212,60.5626678 37.3247528,60.8766937 37.0935059,61.4951325 C36.8622589,62.1135711 37.1762848,62.8030396 37.7947235,63.0342865 C38.4131623,63.2655335 39.1026305,62.9515075 39.3338776,62.3330688 C39.5651245,61.7146302 39.2510986,61.0256958 38.6326598,60.7944489 L38.6326598,60.7944489 Z M29.5429993,22.8501891 C30.1769256,23.0349731 30.8407593,22.6712799 31.0260773,22.0373535 C31.2108612,21.4034271 30.847168,20.7390594 30.2132415,20.5542755 C29.5793151,20.3689575 28.9154816,20.7326507 28.7301636,21.3665771 C28.5448455,22.0005036 28.9085388,22.6648712 29.5429993,22.8501891 Z M30.0578307,18.1494141 C30.2832031,17.5288392 29.9627686,16.842575 29.3421937,16.6172028 C28.7216187,16.3912964 28.0353546,16.711731 27.8099823,17.332306 C27.5840759,17.9528809 27.9045104,18.6391449 28.5250854,18.8645172 C29.1456605,19.0904235 29.8319245,18.7705231 30.0578307,18.1494141 Z M28.3974456,15.5239868 C29.0180207,15.7493591 29.7042847,15.4294587 29.9301911,14.8083496 C30.1555633,14.1877747 29.8356628,13.5015106 29.2145539,13.2761383 C28.5939788,13.050766 27.9077148,13.3706665 27.6823425,13.9912415 C27.4564362,14.6123504 27.7768708,15.2980804 28.3974456,15.5239868 Z M28.7467194,12.0333862 C29.3678284,12.2592926 30.0535583,11.9388581 30.2794647,11.318283 C30.5048371,10.6977082 30.1849365,10.011444 29.5638275,9.78553775 C28.9432526,9.56016537 28.2569886,9.88059994 28.0316162,10.501175 C27.8057098,11.1217498 28.1261444,11.808014 28.7467194,12.0333862 Z" id="Shape" fill="#88B9D3"></path>
                    <path d="M28.2687378,69.3505859 C23.4114837,68.4042358 18.9141846,66.4543914 15.0000763,63.7237549 C17.0140075,63.0278778 18.677063,61.4096833 19.3403626,59.2141724 C20.4383851,55.5799103 18.3822632,51.7432404 14.7480011,50.6446839 C11.1997223,49.5728302 7.46078484,51.5071869 6.26289371,54.9806976 C3.32557682,50.7637787 1.29241943,45.8702087 0.444869961,40.580368 C0.867843594,40.6743621 1.27639777,40.8602142 1.63742059,41.1416626 L2.65159604,41.9304657 C3.56216438,41.3296509 4.52400211,40.8116149 5.5258942,40.3806305 L5.40199283,39.1725921 C5.24765008,37.6702881 6.23298648,36.2876129 7.70324707,35.9426117 C9.14253238,35.6056214 10.613327,36.3661195 11.1698151,37.735443 L11.651535,38.9215851 C12.7292633,38.855896 13.8219452,38.8858032 14.9188996,39.0171813 L15.413971,37.9122162 C16.0313415,36.5343475 17.5763703,35.8293914 19.0220641,36.2662506 C20.4373169,36.6940308 21.3302612,38.0879212 21.1273193,39.5517731 L20.9516144,40.8228302 C21.9406891,41.3152313 22.8704834,41.8893433 23.7351227,42.535553 L24.7145843,41.8273926 C25.9386444,40.9424591 27.6289368,41.1048127 28.6628724,42.2055054 C29.6743774,43.2832337 29.7507477,44.9372101 28.8433838,46.104126 L28.0540466,47.1183014 C28.6548615,48.0283356 29.1734313,48.9901733 29.6044159,49.9920654 L30.8124543,49.8681641 C32.3147583,49.7138214 33.6974334,50.6996917 34.0419007,52.1699525 C34.3794251,53.6087036 33.6189271,55.0794984 32.2490692,55.6359863 L31.0634613,56.1177064 C31.1286164,57.1954346 31.0987091,58.2881165 30.9673309,59.3850708 L32.0722962,59.8801422 C33.4501647,60.4980469 34.1551208,62.0430755 33.7182617,63.4882355 C33.2910156,64.9034881 31.8971253,65.7964325 30.4327393,65.5940247 L29.1622162,65.4177856 C28.6692809,66.4068604 28.0951691,67.3366546 27.4494935,68.2012939 L28.1576538,69.1812897 C28.1977082,69.2368317 28.2329559,69.2939759 28.2687378,69.3505859 L28.2687378,69.3505859 Z" id="Shape" fill="#FDBF43"></path>
                    <path d="M19.3403626,59.2141724 C20.4389191,55.5793763 18.3827972,51.7427064 14.7480011,50.6446839 C11.2002563,49.5728302 7.46078484,51.5071869 6.26289371,54.9806976 C5.11787418,53.3368683 4.11064145,51.5904998 3.25668328,49.7570801 C6.24206543,45.9609985 11.3524627,44.1777801 16.2545776,45.659256 C22.6429749,47.5893402 26.2564087,54.3328857 24.3263245,60.7207489 C23.5791779,63.1945037 22.1094513,65.2511597 20.2194214,66.7321014 C18.3876038,65.8776092 16.6428376,64.8698425 15.0006104,63.7237549 C17.0140075,63.0278778 18.677063,61.4096833 19.3403626,59.2141724 Z" id="Shape" fill="#FDA800"></path>
                    <path d="M5.31654361,53.5451507 C4.55604557,52.3301696 3.86657715,51.0660553 3.25668328,49.7570801 C5.50453189,46.8988037 8.95668033,45.1828766 12.6176452,45.140686 C9.30702213,46.4523315 6.60469059,49.2080688 5.49438477,52.8823853 C5.4276276,53.102951 5.36994938,53.3240509 5.31654361,53.5451507 Z" id="Shape" fill="#FC9302"></path>
                    <path d="M38.9846038,0.226974453 C38.3763122,1.24328613 38.411026,2.55546566 39.1437531,3.54988102 L39.8609925,4.52293393 C39.2227936,5.39344791 38.6572266,6.32911686 38.1739045,7.32246402 L36.9017791,7.15797428 C35.435791,6.96891781 34.0499115,7.87521355 33.6354828,9.29367059 C33.2125091,10.7436371 33.9313507,12.281723 35.3150941,12.8868102 L36.4248657,13.3717347 C36.3031006,14.4697571 36.2833405,15.562439 36.3586426,16.6396331 L35.1773071,17.1325684 C33.8133239,17.7018737 33.0661774,19.1790771 33.4170532,20.615158 C33.7748718,22.0822144 35.16716,23.0547332 36.667862,22.8870392 L37.8748322,22.7513885 C38.3143616,23.7495423 38.8420104,24.7065736 39.4513703,25.6112671 L38.6716462,26.6323853 C37.7749634,27.807312 37.8668213,29.4607544 38.8879395,30.5288696 C39.9320221,31.6204834 41.6239167,31.7668151 42.8394318,30.8706665 L43.8124847,30.1534271 C44.6829987,30.791626 45.6181335,31.357193 46.6114808,31.8405151 L46.4475251,33.1126403 C46.2584686,34.5791626 47.1642303,35.9645081 48.5832214,36.3789368 C50.0326538,36.8024445 51.5712738,36.0830688 52.176361,34.6993255 L52.6612855,33.5900879 C53.7593079,33.711319 54.8519897,33.7310791 55.9291839,33.655777 L56.4221191,34.8371125 C56.9908905,36.2010955 58.4686279,36.9482422 59.9047088,36.5979004 C61.3717651,36.2395477 62.344284,34.8477936 62.17659,33.3470916 L62.0409393,32.1401214 C63.0390931,31.7000579 63.9961243,31.172409 64.9008179,30.5635833 L65.921936,31.3433075 C67.0867157,32.2319793 68.7198639,32.1481323 69.7885132,31.1526489 C68.0159759,14.9429321 55.1756286,2.06253059 38.9846038,0.226974453 L38.9846038,0.226974453 Z M61.251068,17.2901154 C60.1866912,20.9350586 56.3692474,23.0264282 52.7243042,21.9620514 C49.079895,20.8971405 46.9879914,17.0796966 48.0529022,13.4347534 C49.117279,9.79034424 52.935257,7.69897461 56.5796662,8.76335141 C60.2240754,9.82826236 62.315979,13.6457062 61.251068,17.2901154 Z" id="Shape" fill="#F18BC3"></path>
                    <path d="M50.9752655,3.85108951 C47.281723,5.03456119 44.222641,7.97134406 43.0535889,11.97464 C41.182251,18.380661 44.8581696,25.0900269 51.2641907,26.9613647 C57.5708771,28.8033294 64.1718293,25.2689362 66.1601257,19.0460968 C62.8169251,12.5289917 57.4897004,7.19856266 50.9752655,3.85108951 L50.9752655,3.85108951 Z M59.6237946,16.814804 C58.82164,19.5603942 55.9457397,21.1363983 53.1996155,20.3342438 C50.4540252,19.5320892 48.8785553,16.656189 49.6807098,13.9100648 C50.4823304,11.1644745 53.3587646,9.58900455 56.1043548,10.391159 C58.849945,11.1927796 60.425415,14.0692139 59.6237946,16.814804 L59.6237946,16.814804 Z" id="Shape" fill="#E659A9"></path>
                    <path d="M56.161499,27.353363 C54.5662689,27.5552368 52.9053498,27.4409486 51.2641907,26.9613647 C44.8581696,25.0900269 41.182251,18.380127 43.0535889,11.97464 C44.222641,7.97134406 47.281723,5.03402703 50.9752655,3.85108951 C51.4115905,4.07485969 51.841507,4.30824283 52.2666169,4.5501709 C49.3608093,6.00067139 47.0435334,8.610611 46.0614014,11.97464 C44.1900635,18.380127 47.8659821,25.0900269 54.2720032,26.9608307 C54.900589,27.1450806 55.5318451,27.2743226 56.161499,27.353363 Z" id="Shape" fill="#DF3D9B"></path>
                    <path d="M23.8734437,16.248703 C23.8750457,15.6607056 23.8227082,15.0807191 23.7207031,14.5146179 L24.3177796,14.1861725 C25.0072479,13.8064575 25.3175355,12.9813385 25.0499725,12.2411346 C24.776001,11.484909 23.9829254,11.0501862 23.1983948,11.2253571 L22.5671387,11.3663483 C22.2771454,10.863266 21.9428254,10.3868866 21.5684509,9.94308465 L21.9225311,9.35722348 C22.3294831,8.68377686 22.1858216,7.81379703 21.5839386,7.30697625 C20.9687043,6.78947445 20.0645446,6.80923469 19.4722747,7.35290527 L18.9985657,7.78869629 C18.5008239,7.5008392 17.9731751,7.2551727 17.4193573,7.05650326 L17.4332428,6.37344367 C17.4492645,5.58624268 16.8901061,4.90478516 16.1151886,4.76699836 C15.3231812,4.62654117 14.5503997,5.09544369 14.3095397,5.86288445 L14.116745,6.47811883 C13.5282135,6.47705078 12.9487611,6.52885434 12.3826598,6.63085937 L12.0536804,6.03378289 C11.6739655,5.34431461 10.8488464,5.03402703 10.1091766,5.30159 C9.35295102,5.57556152 8.91769402,6.36863705 9.09339908,7.15316766 L9.23385613,7.78442383 C8.73130795,8.07441715 8.25492855,8.40873715 7.81112664,8.78311164 L7.22526547,8.42903141 C6.55181885,8.02207943 5.68183902,8.1657409 5.17501824,8.76762387 C4.65698242,9.38285824 4.67674252,10.2870179 5.22094727,10.8787536 L5.65673828,11.3529968 C5.36888119,11.8507386 5.12321469,12.3778534 4.92454525,12.9316712 L4.24148566,12.9177856 C3.45428467,12.902298 2.77282715,13.4614564 2.63504035,14.2363739 C2.49404914,15.0283813 2.96348568,15.8011628 3.73039242,16.0420228 L4.3456268,16.2348175 C4.34455875,16.823349 4.39689633,17.4028014 4.49890137,17.9689027 L3.90182488,18.297348 C3.2123566,18.677063 2.901535,19.502182 3.16963199,20.2423859 C3.44360352,20.9986115 4.23614502,21.4333343 5.02120965,21.2581634 L5.65246582,21.1171722 C5.94245914,21.6202546 6.27677914,22.0966339 6.65115363,22.5404359 L6.2970734,23.125763 C5.8895874,23.7997437 6.03378289,24.6691895 6.63566586,25.1760101 C7.25090023,25.6940461 8.15505988,25.6742858 8.74679559,25.1300812 L9.22103875,24.6948242 C9.71878059,24.9826813 10.2464294,25.2283478 10.7997132,25.4270172 L10.7858276,26.1100768 C10.77034,26.8967438 11.3294984,27.5787354 12.1044159,27.7165221 C12.8958893,27.8569793 13.6692047,27.3880768 13.9100648,26.6206361 L14.1028595,26.0054017 C14.6908569,26.0064697 15.2708434,25.9546662 15.8369446,25.8526611 L16.16539,26.4497376 C16.545105,27.1392059 17.370224,27.4494935 18.1104279,27.1813965 C18.8661195,26.907959 19.3013763,26.1148835 19.1262054,25.3303529 L18.9852142,24.6990967 C19.4877624,24.4085693 19.9646759,24.0747834 20.4084779,23.7004089 L20.993805,24.0539551 C21.6677856,24.4614411 22.5372314,24.3177796 23.0440521,23.7158966 C23.562088,23.1006623 23.5423278,22.1965026 22.9981232,21.6042328 L22.5628662,21.1305237 C22.8507233,20.6327819 23.0963898,20.1051331 23.2950592,19.5513153 L23.9781188,19.5652008 C24.7647858,19.5812225 25.4462433,19.0220641 25.5845641,18.2471466 C25.7250213,17.4551392 25.2561188,16.6823578 24.488678,16.4414977 L23.8734437,16.248703 Z M17.7141571,16.8831634 C17.3600768,18.8735962 15.4588317,20.2001953 13.4683991,19.8461151 C11.4779663,19.4920348 10.1513672,17.5913239 10.5054474,15.6003571 C10.8595277,13.6099243 12.7607728,12.2833252 14.7512054,12.6374054 C16.7416382,12.9914857 18.0682373,14.8927308 17.7141571,16.8831634 Z" id="Shape" fill="#0ED1B2"></path>
                    <path d="M15.3034211,9.53453061 C11.5991974,8.87550357 8.06159977,11.3439178 7.4025726,15.0481414 C6.74354557,18.7523651 9.2119598,22.2899627 12.9161834,22.9489899 C16.6204071,23.6080169 20.1580047,21.1396027 20.8170319,17.4353791 C21.4760589,13.7311554 19.0076447,10.1935578 15.3034211,9.53453061 Z M18.705902,17.0594025 C18.2540894,19.5983123 15.8305358,21.2896729 13.29216,20.83786 C10.7532502,20.3860474 9.06188965,17.9624938 9.51370246,15.424118 C9.96551514,12.8857422 12.3890687,11.1938477 14.9274445,11.6456605 C17.4663543,12.0974731 19.1577148,14.5210267 18.705902,17.0594025 Z" id="Shape" fill="#0AB59E"></path>
                    <path d="M15.1885986,22.96875 C14.4548034,23.0862427 13.6894989,23.0867767 12.9161834,22.9489899 C9.2119598,22.2899627 6.74354557,18.7523651 7.4025726,15.0481414 C8.05412289,11.3866424 11.5180207,8.93478387 15.1757812,9.51530453 C12.392807,9.96124268 10.0685882,12.1172332 9.54681396,15.0481414 C9.48326107,15.4080963 9.44961555,15.7659149 9.4426727,16.1199951 C9.44053646,16.2070465 9.44053646,16.294098 9.4426727,16.3800812 C9.50408936,19.5662689 11.8048096,22.3695374 15.0609588,22.9489899 C15.1036834,22.9564666 15.145874,22.9618073 15.1885986,22.96875 Z" id="Shape" fill="#01988C"></path>
                    <path d="M61.8337249,57.4688721 C61.1549378,56.3121032 59.9938965,55.447998 58.5700989,55.1948548 C55.9879303,54.7350311 53.5221862,56.4557648 53.0623626,59.0379333 C52.7307129,60.9023285 53.5355378,62.705307 54.9801636,63.7371063 C52.7371216,65.2997589 50.3034211,66.607132 47.7196502,67.6154328 C47.3709106,67.164154 47.0526123,66.6893768 46.7668914,66.1948395 L45.9481812,66.3774871 C44.9302673,66.6049958 43.9016724,66.0404968 43.5465241,65.0594329 C43.1988525,64.0997314 43.6015319,63.02948 44.4960785,62.5365448 L45.2704621,62.1103669 C45.1385498,61.3760376 45.0707245,60.6240845 45.0723267,59.8609162 L44.2739105,59.6109772 C43.2789612,59.2985534 42.6701354,58.2955933 42.8527832,57.2686004 C43.0316925,56.2635041 43.916092,55.5377197 44.9366761,55.558548 L45.8226776,55.5761719 C46.0806274,54.8583984 46.3994598,54.1737366 46.7722321,53.5280609 L46.2071991,52.9133607 C45.501709,52.1453857 45.4760742,50.9725952 46.1479186,50.1747132 C46.8053436,49.3933869 47.9338073,49.2070007 48.8075257,49.7351837 L49.5669556,50.1944733 C50.1426696,49.709015 50.7611084,49.27536 51.4131927,48.8988495 L51.2305451,48.0801392 C51.0035706,47.0622253 51.5675355,46.0336304 52.5485993,45.6784821 C53.5083008,45.3308105 54.5785522,45.7334899 55.0714875,46.6280365 L55.4976654,47.4024201 C56.2319946,47.2705078 56.9839478,47.2026825 57.7471161,47.2042847 L57.9975892,46.4058685 C58.3094788,45.4109193 59.312439,44.8020934 60.3394318,44.9847412 C61.3445282,45.1636505 62.0703125,46.04805 62.0494842,47.0686341 L62.0318604,47.9546356 C62.7501678,48.2125854 63.4342956,48.5314178 64.0799713,48.9047241 L64.6946716,48.3396911 C65.4524994,47.64328 66.6028595,47.6101685 67.4002075,48.2542419 C66.0218048,51.6204071 64.1349792,54.7238159 61.8337249,57.4688721 L61.8337249,57.4688721 Z" id="Shape" fill="#7ECD00"></path>
                    <path d="M64.0084076,54.5828247 C63.3322907,55.5825806 62.6070404,56.5460205 61.8342591,57.4688721 C61.1549378,56.3121032 59.9938965,55.447998 58.5700989,55.1943206 C55.9879303,54.7350311 53.5221862,56.4557648 53.0623626,59.0379333 C52.7307129,60.9023285 53.5355378,62.705307 54.9806976,63.7371063 C54.0145874,64.4100189 53.0116273,65.032196 51.9782257,65.6068421 C50.2863312,64.1045379 49.21875,61.9138337 49.21875,59.4726562 C49.21875,54.9422454 52.8914642,51.2695313 57.421875,51.2695313 C60.1199341,51.2695313 62.5130462,52.5726318 64.0084076,54.5828247 L64.0084076,54.5828247 Z" id="Shape" fill="#6BAE01"></path>
                    <path d="M53.4693146,64.7304535 C52.9801178,65.0337982 52.4829102,65.3264618 51.9782257,65.6068421 C50.2863312,64.1045379 49.21875,61.9138337 49.21875,59.4726562 C49.21875,54.9422454 52.8914642,51.2695313 57.421875,51.2695313 C57.8176117,51.2695313 58.2053376,51.3005065 58.5861206,51.3549805 C54.613266,51.925888 51.5595246,55.3417205 51.5595246,59.4726562 C51.5595246,61.4743042 52.2783661,63.3066559 53.4693146,64.7304535 L53.4693146,64.7304535 Z" id="Shape" fill="#5A9001"></path>
                </g>
                <g id="data-storage" transform="translate(187.000000, 71.000000)" fill-rule="nonzero">
                    <path d="M9.11938045,58.5049438 C3.54562622,52.3477936 0.12952306,44.19487 0.0692920858,35.2419281 C-0.061829922,15.8652497 15.6605598,5.68434189e-14 35,5.68434189e-14 C54.2925348,5.68434189e-14 69.9317739,15.6703187 69.9317739,35 C69.9317739,43.2757568 67.0641447,50.8802033 62.2712597,56.8717956 C61.3955135,57.9660797 59.9878168,58.4841156 58.6137001,58.2176208 C51.2644675,56.7900848 43.3081293,56.0092926 35,56.0092926 C25.9568408,56.0092926 17.3299677,56.9342804 9.44985072,58.6112213 C9.32885606,58.6373901 9.20253103,58.5968018 9.11938045,58.5049438 L9.11938045,58.5049438 Z" id="Shape" fill="#FD7D43"></path>
                    <path d="M61.4717349,21.875 L61.4717349,56.0546875 L57.3781676,56.0546875 L57.3781676,21.875 C57.3781676,21.1198425 56.7673307,20.5078125 56.0136452,20.5078125 L39.6393762,20.5078125 L39.6393762,16.40625 L56.0136452,16.40625 C59.027854,16.40625 61.4717349,18.8549041 61.4717349,21.875 Z" id="Shape" fill="#EE4424"></path>
                    <path d="M62.8362573,38.9648438 C62.8362573,40.8527375 61.3091649,42.3828125 59.4249513,42.3828125 C57.5407377,42.3828125 56.0136452,40.8527375 56.0136452,38.9648438 C56.0136452,37.07695 57.5407377,35.546875 59.4249513,35.546875 C61.3091649,35.546875 62.8362573,37.07695 62.8362573,38.9648438 Z" id="Shape" fill="#FDE5BD"></path>
                    <path d="M49.1910331,8.203125 L49.1910331,62.890625 C49.1910331,64.4009399 47.9693592,65.625 46.4619883,65.625 L20.815896,65.625 C16.5698861,63.7322998 12.770544,61.0166169 9.61988304,57.6792907 L9.61988304,8.203125 C9.61988304,6.69281006 10.841557,5.46875 12.3489279,5.46875 L46.4619883,5.46875 C47.9693592,5.46875 49.1910331,6.69281006 49.1910331,8.203125 Z" id="Shape" fill="#235967"></path>
                    <path d="M13.7134503,26.6601563 L13.7134503,32.1289063 C13.7134503,32.506485 14.0188688,32.8125 14.3957115,32.8125 L49.1910331,32.8125 L49.1910331,25.9765625 L14.3957115,25.9765625 C14.0188688,25.9765625 13.7134503,26.2825775 13.7134503,26.6601563 Z M34.1812865,27.6855469 C35.1231269,27.6855469 35.8869396,28.4508514 35.8869396,29.3945313 C35.8869396,30.3382111 35.1231269,31.1035156 34.1812865,31.1035156 C33.2394462,31.1035156 32.4756335,30.3382111 32.4756335,29.3945313 C32.4756335,28.4508514 33.2394462,27.6855469 34.1812865,27.6855469 Z M13.7134503,17.0898438 L13.7134503,22.5585938 C13.7134503,22.9361725 14.0188688,23.2421875 14.3957115,23.2421875 L49.1910331,23.2421875 L49.1910331,16.40625 L14.3957115,16.40625 C14.0188688,16.40625 13.7134503,16.712265 13.7134503,17.0898438 Z M34.1812865,18.2519531 C35.1231269,18.2519531 35.8869396,19.0172577 35.8869396,19.9609375 C35.8869396,20.9046173 35.1231269,21.6699219 34.1812865,21.6699219 C33.2394462,21.6699219 32.4756335,20.9046173 32.4756335,19.9609375 C32.4756335,19.0172577 33.2394462,18.2519531 34.1812865,18.2519531 Z M13.7134503,36.2304688 L13.7134503,41.6992188 C13.7134503,42.0767975 14.0188688,42.3828125 14.3957115,42.3828125 L49.1910331,42.3828125 L49.1910331,35.546875 L14.3957115,35.546875 C14.0188688,35.546875 13.7134503,35.85289 13.7134503,36.2304688 Z M34.1812865,37.2558594 C35.1231269,37.2558594 35.8869396,38.0211639 35.8869396,38.9648438 C35.8869396,39.9085236 35.1231269,40.6738281 34.1812865,40.6738281 C33.2394462,40.6738281 32.4756335,39.9085236 32.4756335,38.9648438 C32.4756335,38.0211639 33.2394462,37.2558594 34.1812865,37.2558594 Z M14.3957115,45.1171875 L49.1910331,45.1171875 L49.1910331,54.6875 C49.1910331,56.1978149 47.9693592,57.421875 46.4619883,57.421875 L16.4424951,57.421875 C14.9351243,57.421875 13.7134503,56.1978149 13.7134503,54.6875 L13.7134503,45.8007813 C13.7134503,45.4232025 14.0188688,45.1171875 14.3957115,45.1171875 Z M46.4619883,5.46875 L16.4424951,5.46875 C14.9351243,5.46875 13.7134503,6.69281006 13.7134503,8.203125 L13.7134503,12.9882813 C13.7134503,13.36586 14.0188688,13.671875 14.3957115,13.671875 L49.1910331,13.671875 L49.1910331,8.203125 C49.1910331,6.69281006 47.9693592,5.46875 46.4619883,5.46875 Z M34.1812865,11.2792969 C33.2394462,11.2792969 32.4756335,10.5139923 32.4756335,9.5703125 C32.4756335,8.62663266 33.2394462,7.86132813 34.1812865,7.86132813 C35.1231269,7.86132813 35.8869396,8.62663266 35.8869396,9.5703125 C35.8869396,10.5139923 35.1231269,11.2792969 34.1812865,11.2792969 Z" id="Shape" fill="#2B6C7E"></path>
                    <path d="M37.9337232,9.5703125 C37.9337232,8.62663266 38.6975359,7.86132813 39.6393762,7.86132813 C40.5812165,7.86132813 41.3450292,8.62663266 41.3450292,9.5703125 C41.3450292,10.5139923 40.5812165,11.2792969 39.6393762,11.2792969 C38.6975359,11.2792969 37.9337232,10.5139923 37.9337232,9.5703125 Z M39.6393762,18.2519531 C38.6975359,18.2519531 37.9337232,19.0172577 37.9337232,19.9609375 C37.9337232,20.9046173 38.6975359,21.6699219 39.6393762,21.6699219 C40.5812165,21.6699219 41.3450292,20.9046173 41.3450292,19.9609375 C41.3450292,19.0172577 40.5812165,18.2519531 39.6393762,18.2519531 Z M39.6393762,27.6855469 C38.6975359,27.6855469 37.9337232,28.4508514 37.9337232,29.3945312 C37.9337232,30.3382111 38.6975359,31.1035156 39.6393762,31.1035156 C40.5812165,31.1035156 41.3450292,30.3382111 41.3450292,29.3945312 C41.3450292,28.4508514 40.5812165,27.6855469 39.6393762,27.6855469 Z M39.6393762,37.2558594 C38.6975359,37.2558594 37.9337232,38.0211639 37.9337232,38.9648438 C37.9337232,39.9085236 38.6975359,40.6738281 39.6393762,40.6738281 C40.5812165,40.6738281 41.3450292,39.9085236 41.3450292,38.9648438 C41.3450292,38.0211639 40.5812165,37.2558594 39.6393762,37.2558594 Z" id="Shape" fill="#0ED1B2"></path>
                    <path d="M43.3918129,9.5703125 C43.3918129,8.62663266 44.1556256,7.86132813 45.0974659,7.86132813 C46.0393062,7.86132813 46.8031189,8.62663266 46.8031189,9.5703125 C46.8031189,10.5139923 46.0393062,11.2792969 45.0974659,11.2792969 C44.1556256,11.2792969 43.3918129,10.5139923 43.3918129,9.5703125 Z M45.0974659,18.2519531 C44.1556256,18.2519531 43.3918129,19.0172577 43.3918129,19.9609375 C43.3918129,20.9046173 44.1556256,21.6699219 45.0974659,21.6699219 C46.0393062,21.6699219 46.8031189,20.9046173 46.8031189,19.9609375 C46.8031189,19.0172577 46.0393062,18.2519531 45.0974659,18.2519531 Z M45.0974659,27.6855469 C44.1556256,27.6855469 43.3918129,28.4508514 43.3918129,29.3945312 C43.3918129,30.3382111 44.1556256,31.1035156 45.0974659,31.1035156 C46.0393062,31.1035156 46.8031189,30.3382111 46.8031189,29.3945312 C46.8031189,28.4508514 46.0393062,27.6855469 45.0974659,27.6855469 Z M45.0974659,37.2558594 C44.1556256,37.2558594 43.3918129,38.0211639 43.3918129,38.9648438 C43.3918129,39.9085236 44.1556256,40.6738281 45.0974659,40.6738281 C46.0393062,40.6738281 46.8031189,39.9085236 46.8031189,38.9648438 C46.8031189,38.0211639 46.0393062,37.2558594 45.0974659,37.2558594 Z" id="Shape" fill="#FDE5BD"></path>
                    <path d="M35,70 C24.7143793,70 15.4681408,65.5454254 9.07567316,58.4574128 C10.3788986,55.8079528 13.1004812,53.9841462 16.247411,53.9841462 L16.4504904,53.9841462 C18.2696759,50.4198455 21.967745,47.9786683 26.2377406,47.9786683 C27.9620492,47.9786683 29.5930799,48.3776092 31.04555,49.0868377 C33.4483887,44.8389435 38.0003502,41.9726562 43.2212476,41.9726562 C50.283717,41.9726562 56.1223806,47.2176361 57.0711501,54.0316772 C59.1664383,54.2570495 61.0181378,55.2941895 62.3096369,56.8221283 C55.908641,64.8532868 46.0547636,70 35,70 L35,70 Z" id="Shape" fill="#C7EEFD"></path>
                    <path d="M55.1458942,48.6638641 C52.7435885,46.9725036 49.8173276,45.9764862 46.6581384,45.9764862 C42.0001066,45.9764862 37.8457755,48.134613 35.1359193,51.507721 C34.2894889,52.5608825 32.9009808,53.0249787 31.5934911,52.6890563 C30.6697734,52.4519349 29.7018153,52.3258971 28.7040083,52.3258971 C24.7394311,52.3258971 21.2401772,54.3168639 19.1448892,57.3551178 C18.5836227,58.1684876 17.6982822,58.6918639 16.7196637,58.8179017 C16.4760752,58.849411 16.2522082,58.8857269 16.0875062,58.9268493 C14.4964516,59.3257904 13.0850237,60.1776123 11.9950049,61.3370514 C10.9668159,60.434494 9.99192854,59.4731903 9.07567316,58.4574128 C10.3788986,55.8079528 13.1004812,53.9846802 16.247411,53.9846802 L16.4504904,53.9846802 C18.2696759,50.4203796 21.967745,47.9786683 26.2377406,47.9786683 C27.9620492,47.9786683 29.5930799,48.3776092 31.04555,49.0868377 C33.4483887,44.8389435 38.0003502,41.9726563 43.2212476,41.9726563 C48.2667823,41.9726563 52.6860227,44.6504212 55.1458942,48.6638641 L55.1458942,48.6638641 Z" id="Shape" fill="#98E5FB"></path>
                </g>
                <g id="programming" transform="translate(176.000000, 170.000000)" fill-rule="nonzero">
                    <path d="M0,35.0682261 C0,15.8012762 15.5981969,0.177494483 34.8555525,0.136452242 C54.1288986,0.09541 69.7073739,15.5081171 69.8624818,34.7803972 C69.9461654,45.1816826 65.4826845,54.5419865 58.3418616,60.994152 C52.147143,55.3974781 43.9376218,51.9883041 34.9317739,51.9883041 C26.1796418,51.9883041 18.1795962,55.2077242 12.0504386,60.5261634 C11.7434211,60.7926719 11.2844938,60.7809454 10.9886696,60.5021777 C4.22415628,54.1315637 7.75641193e-15,45.0937347 7.75641193e-15,35.0682261 L0,35.0682261 Z" id="Shape" fill="#FD4FB6"></path>
                    <path d="M58.5476059,20.4774305 C58.8034539,20.7332784 58.9473684,21.0802723 58.9473684,21.4421905 L58.9473684,60.4334186 C52.6870888,66.3626949 44.234512,70 34.9317739,70 C25.6290357,70 17.1764589,66.3626949 10.9161793,60.4334186 L10.9161793,9.70303363 C12.5312196,8.17327614 11.7610106,6.79596133 13.6452242,5.59454191 L43.0997198,5.59454191 C43.4616381,5.59454191 43.8086319,5.73845645 44.0644798,5.99430441 L58.5476059,20.4774305 Z" id="Shape" fill="#98E5FB"></path>
                    <path d="M58.6579404,20.6042885 L44.619883,20.6042885 C44.2430403,20.6042885 43.9376218,20.29887 43.9376218,19.9220273 L43.9376218,5.88396994 C43.9818622,5.918083 44.0245036,5.95432813 44.0644798,5.99430441 L58.5476059,20.4774305 C58.5875822,20.5174068 58.6238273,20.5600481 58.6579404,20.6042885 L58.6579404,20.6042885 Z" id="Shape" fill="#C7EEFD"></path>
                    <path d="M16.1013645,5.59454191 C15.347679,5.59454191 14.7368421,6.20537883 14.7368421,6.95906433 L14.7368421,63.5739522 C13.3893762,62.6171875 12.1128015,61.5671449 10.9161793,60.4334186 L10.9161793,6.95906433 C10.9161793,6.20537883 11.5270163,5.59454191 12.2807018,5.59454191 L16.1013645,5.59454191 Z" id="Shape" fill="#62DAFA"></path>
                    <path d="M27.2904483,22.6510721 L27.2904483,24.0155945 C27.2904483,24.3924373 26.9850299,24.6978558 26.6081871,24.6978558 L18.5575049,24.6978558 C18.1806621,24.6978558 17.8752437,24.3924373 17.8752437,24.0155945 L17.8752437,22.6510721 C17.8752437,22.2742294 18.1806621,21.9688109 18.5575049,21.9688109 L26.6081871,21.9688109 C26.9850299,21.9688109 27.2904483,22.2742294 27.2904483,22.6510721 Z M22.5146199,28.791423 L18.5575049,28.791423 C18.1806621,28.791423 17.8752437,29.0968415 17.8752437,29.4736842 L17.8752437,30.8382066 C17.8752437,31.2150494 18.1806621,31.5204678 18.5575049,31.5204678 L22.5146199,31.5204678 C22.8914626,31.5204678 23.1968811,31.2150494 23.1968811,30.8382066 L23.1968811,29.4736842 C23.1968811,29.0968415 22.8914626,28.791423 22.5146199,28.791423 Z M22.5146199,34.2495127 L18.5575049,34.2495127 C18.1806621,34.2495127 17.8752437,34.5549311 17.8752437,34.9317739 L17.8752437,36.2962963 C17.8752437,36.673139 18.1806621,36.9785575 18.5575049,36.9785575 L22.5146199,36.9785575 C22.8914626,36.9785575 23.1968811,36.673139 23.1968811,36.2962963 L23.1968811,34.9317739 C23.1968811,34.5549311 22.8914626,34.2495127 22.5146199,34.2495127 Z M22.5146199,45.165692 L18.5575049,45.165692 C18.1806621,45.165692 17.8752437,45.4711105 17.8752437,45.8479532 L17.8752437,47.2124756 C17.8752437,47.5893184 18.1806621,47.8947368 18.5575049,47.8947368 L22.5146199,47.8947368 C22.8914626,47.8947368 23.1968811,47.5893184 23.1968811,47.2124756 L23.1968811,45.8479532 C23.1968811,45.4711105 22.8914626,45.165692 22.5146199,45.165692 Z M22.5146199,50.6237817 L18.5575049,50.6237817 C18.1806621,50.6237817 17.8752437,50.9292001 17.8752437,51.3060429 L17.8752437,52.6705653 C17.8752437,53.0474081 18.1806621,53.3528265 18.5575049,53.3528265 L22.5146199,53.3528265 C22.8914626,53.3528265 23.1968811,53.0474081 23.1968811,52.6705653 L23.1968811,51.3060429 C23.1968811,50.9292001 22.8914626,50.6237817 22.5146199,50.6237817 Z" id="Shape" fill="#028FCE"></path>
                    <path d="M38.3430799,30.8382066 L38.3430799,29.4736842 C38.3430799,29.0968415 38.6484984,28.791423 39.0253411,28.791423 L41.6179337,28.791423 C41.9947765,28.791423 42.3001949,29.0968415 42.3001949,29.4736842 L42.3001949,30.8382066 C42.3001949,31.2150494 41.9947765,31.5204678 41.6179337,31.5204678 L39.0253411,31.5204678 C38.6484984,31.5204678 38.3430799,31.2150494 38.3430799,30.8382066 Z M28.6549708,41.754386 L28.6549708,40.3898635 C28.6549708,40.0130208 28.3495523,39.7076023 27.9727096,39.7076023 L18.5575049,39.7076023 C18.1806621,39.7076023 17.8752437,40.0130208 17.8752437,40.3898635 L17.8752437,41.754386 C17.8752437,42.1312287 18.1806621,42.4366472 18.5575049,42.4366472 L27.9727096,42.4366472 C28.3495523,42.4366472 28.6549708,42.1312287 28.6549708,41.754386 Z M47.0760234,39.7076023 L32.0662768,39.7076023 C31.6894341,39.7076023 31.3840156,40.0130208 31.3840156,40.3898635 L31.3840156,41.754386 C31.3840156,42.1312287 31.6894341,42.4366472 32.0662768,42.4366472 L47.0760234,42.4366472 C47.4528661,42.4366472 47.7582846,42.1312287 47.7582846,41.754386 L47.7582846,40.3898635 C47.7582846,40.0130208 47.4528661,39.7076023 47.0760234,39.7076023 Z M26.6764133,31.5204678 L36.1598441,31.5204678 C36.5366868,31.5204678 36.8421053,31.2150494 36.8421053,30.8382066 L36.8421053,29.4736842 C36.8421053,29.0968415 36.5366868,28.791423 36.1598441,28.791423 L26.6764133,28.791423 C26.2995705,28.791423 25.994152,29.0968415 25.994152,29.4736842 L25.994152,30.8382066 C25.994152,31.2150494 26.2995705,31.5204678 26.6764133,31.5204678 Z M26.6764133,36.9785575 L30.7017544,36.9785575 C31.0785971,36.9785575 31.3840156,36.673139 31.3840156,36.2962963 L31.3840156,34.9317739 C31.3840156,34.5549311 31.0785971,34.2495127 30.7017544,34.2495127 L26.6764133,34.2495127 C26.2995705,34.2495127 25.994152,34.5549311 25.994152,34.9317739 L25.994152,36.2962963 C25.994152,36.673139 26.2995705,36.9785575 26.6764133,36.9785575 Z M36.1598441,45.165692 L26.6764133,45.165692 C26.2995705,45.165692 25.994152,45.4711105 25.994152,45.8479532 L25.994152,47.2124756 C25.994152,47.5893184 26.2995705,47.8947368 26.6764133,47.8947368 L36.1598441,47.8947368 C36.5366868,47.8947368 36.8421053,47.5893184 36.8421053,47.2124756 L36.8421053,45.8479532 C36.8421053,45.4711105 36.5366868,45.165692 36.1598441,45.165692 Z M51.1695906,34.2495127 L33.4649123,34.2495127 C33.0880695,34.2495127 32.7826511,34.5549311 32.7826511,34.9317739 L32.7826511,36.2962963 C32.7826511,36.673139 33.0880695,36.9785575 33.4649123,36.9785575 L51.1695906,36.9785575 C51.5464334,36.9785575 51.8518519,36.673139 51.8518519,36.2962963 L51.8518519,34.9317739 C51.8518519,34.5549311 51.5464334,34.2495127 51.1695906,34.2495127 Z" id="Shape" fill="#01BFF9"></path>
                    <path d="M64.1325536,65.6335283 L35.4775828,65.6335283 C34.7238973,65.6335283 34.1130604,65.0226913 34.1130604,64.2690058 L34.1130604,47.8947368 C34.1130604,47.1410513 34.7238973,46.5302144 35.4775828,46.5302144 L64.1325536,46.5302144 C64.8862391,46.5302144 65.497076,47.1410513 65.497076,47.8947368 L65.497076,64.2690058 C65.497076,65.0226913 64.8862391,65.6335283 64.1325536,65.6335283 Z" id="Shape" fill="#1F3595"></path>
                    <path d="M64.1325536,65.6335283 L38.2066277,65.6335283 C37.4529422,65.6335283 36.8421053,65.0226913 36.8421053,64.2690058 L36.8421053,47.8947368 C36.8421053,47.1410513 37.4529422,46.5302144 38.2066277,46.5302144 L64.1325536,46.5302144 C64.8862391,46.5302144 65.497076,47.1410513 65.497076,47.8947368 L65.497076,64.2690058 C65.497076,65.0226913 64.8862391,65.6335283 64.1325536,65.6335283 Z" id="Shape" fill="#314DC8"></path>
                    <path d="M61.6348379,57.0466313 L56.8451511,61.8363182 C56.5786428,62.1028265 56.1468993,62.1028265 55.8803912,61.8363182 L55.0632766,61.0192039 C54.7967684,60.7526956 54.7967684,60.3209521 55.0632766,60.0544438 L58.8428972,56.2748233 C58.9495005,56.16822 58.9495005,55.9955227 58.8428972,55.8889194 L55.0632766,52.1098319 C54.7967684,51.8433236 54.7967684,51.4110471 55.0632766,51.1445388 L55.8803912,50.3274245 C56.1468993,50.0609162 56.5786428,50.0609162 56.8451511,50.3274245 L61.6348379,55.1171114 C62.1678545,55.6495949 62.1678545,56.5136147 61.6348379,57.0466313 L61.6348379,57.0466313 Z M44.5468598,52.1092989 C44.8133681,51.8427906 44.8133681,51.4110471 44.5468598,51.1445388 L43.7297453,50.3274245 C43.4632372,50.0609162 43.0314937,50.0609162 42.7649854,50.3274245 L37.9752986,55.1171114 C37.442282,55.6495949 37.442282,56.5136147 37.9752986,57.0466313 L42.7649854,61.8363182 C43.0314937,62.1028265 43.4632372,62.1028265 43.7297453,61.8363182 L44.5468598,61.0192039 C44.8133681,60.7526956 44.8133681,60.3209521 44.5468598,60.0544438 L40.7672393,56.2748233 C40.660636,56.16822 40.660636,55.9955227 40.7672393,55.8889194 L44.5468598,52.1092989 Z M51.7020742,49.2592593 L50.3642026,49.2592593 C50.0390625,49.2592593 49.7592287,49.4889894 49.6952667,49.8077333 L47.2391264,62.088435 C47.1549098,62.5105842 47.4779178,62.9044834 47.9080622,62.9044834 L49.2459339,62.9044834 C49.5710739,62.9044834 49.8509077,62.6747533 49.9148697,62.3560094 L52.3710101,50.0753077 C52.4552266,49.6531585 52.1322186,49.2592593 51.7020742,49.2592593 Z" id="Shape" fill="#FFF5F5"></path>
                </g>
                <g id="web-programming" transform="translate(101.000000, 0.000000)" fill-rule="nonzero">
                    <circle id="Oval" fill="#91E0E8" cx="35.7669323" cy="37.2310757" r="34.1633466"></circle>
                    <rect id="Rectangle-path" fill="#445EA0" x="20.4338645" y="56.3848606" width="15.4766932" height="5.54073705"></rect>
                    <rect id="Rectangle-path" fill="#2E4C89" x="20.4338645" y="56.3848606" width="2.76695219" height="5.54073705"></rect>
                    <g id="Group" transform="translate(0.000000, 14.501992)" fill="#293D7C">
                        <path d="M44.2080677,47.2840239 L12.0172709,47.2840239 C13.4987052,48.7172112 15.1092629,50.0176494 16.8301195,51.1658167 L44.2082072,51.1658167 C44.5916733,51.1658167 44.9054183,50.8520717 44.9054183,50.4686056 L44.9054183,47.9812351 C44.9052789,47.5977689 44.5915339,47.2840239 44.2080677,47.2840239 Z" id="Shape"></path>
                        <path d="M42.2493227,22.5659363 C41.893745,22.5659363 41.6028685,22.2750598 41.6028685,21.9194821 L41.6028685,0.0348605578 L0.766932271,0.0348605578 C0.383466135,0.0348605578 0.0697211155,0.348605578 0.0697211155,0.732071713 L0.0697211155,41.3249602 C0.0697211155,41.7084263 0.383466135,42.0221713 0.766932271,42.0221713 L55.7071713,42.0221713 C56.0906375,42.0221713 56.4043825,41.7084263 56.4043825,41.3249602 L56.4043825,22.5659363 L42.2493227,22.5659363 Z" id="Shape"></path>
                    </g>
                    <path d="M2.83667331,55.8269522 L2.83667331,15.2340637 C2.83667331,14.8505976 3.15041833,14.5368526 3.53388446,14.5368526 L0.766932271,14.5368526 C0.383466135,14.5368526 0.0697211155,14.8505976 0.0697211155,15.2340637 L0.0697211155,55.8269522 C0.0697211155,56.2104183 0.383466135,56.5241633 0.766932271,56.5241633 L3.53388446,56.5241633 C3.15041833,56.5241633 2.83667331,56.2104183 2.83667331,55.8269522 Z" id="Shape" fill="#1A2B63"></path>
                    <path d="M42.2493227,37.0679283 C41.893745,37.0679283 41.6028685,36.7770518 41.6028685,36.4214741 L41.6028685,18.0229084 L3.97410359,18.0229084 C3.7440239,18.0229084 3.55577689,18.2111554 3.55577689,18.4412351 L3.55577689,51.7831275 C3.55577689,52.0132072 3.7440239,52.2014542 3.97410359,52.2014542 L52.5,52.2014542 C52.7300797,52.2014542 52.9183267,52.0132072 52.9183267,51.7831275 L52.9183267,37.0679283 L42.2493227,37.0679283 Z" id="Shape" fill="#52BBEF"></path>
                    <path d="M3.97410359,18.0229084 C3.7440239,18.0229084 3.55577689,18.2111554 3.55577689,18.4412351 L3.55577689,51.7831275 C3.55577689,52.0132072 3.7440239,52.2014542 3.97410359,52.2014542 L8.85458167,52.2014542 L8.85458167,18.0229084 L3.97410359,18.0229084 Z" id="Shape" fill="#AEC1ED"></path>
                    <g id="Group" transform="translate(3.486056, 17.988048)" fill="#FFFFFF">
                        <path d="M38.1169522,0.0348605578 L0.488047809,0.0348605578 C0.257968127,0.0348605578 0.0697211155,0.22310757 0.0697211155,0.453187251 L0.0697211155,3.60737052 L38.1169522,3.60737052 L38.1169522,0.0348605578 Z" id="Shape"></path>
                        <path d="M4.0438247,7.59960159 C4.0438247,7.75298805 3.91832669,7.87848606 3.76494024,7.87848606 L1.55129482,7.87848606 C1.39790837,7.87848606 1.27241036,7.75298805 1.27241036,7.59960159 L1.27241036,6.06573705 C1.27241036,5.9123506 1.39790837,5.78685259 1.55129482,5.78685259 L3.76494024,5.78685259 C3.91832669,5.78685259 4.0438247,5.9123506 4.0438247,6.06573705 L4.0438247,7.59960159 Z" id="Shape"></path>
                        <path d="M4.0438247,11.0637649 C4.0438247,11.2171514 3.91832669,11.3426494 3.76494024,11.3426494 L1.55129482,11.3426494 C1.39790837,11.3426494 1.27241036,11.2171514 1.27241036,11.0637649 L1.27241036,9.5299004 C1.27241036,9.37651394 1.39790837,9.25101594 1.55129482,9.25101594 L3.76494024,9.25101594 C3.91832669,9.25101594 4.0438247,9.37651394 4.0438247,9.5299004 L4.0438247,11.0637649 Z" id="Shape"></path>
                        <path d="M4.0438247,14.5279283 C4.0438247,14.6813147 3.91832669,14.8068127 3.76494024,14.8068127 L1.55129482,14.8068127 C1.39790837,14.8068127 1.27241036,14.6813147 1.27241036,14.5279283 L1.27241036,12.9940637 C1.27241036,12.8406773 1.39790837,12.7151793 1.55129482,12.7151793 L3.76494024,12.7151793 C3.91832669,12.7151793 4.0438247,12.8406773 4.0438247,12.9940637 L4.0438247,14.5279283 Z" id="Shape"></path>
                        <path d="M4.0438247,17.9920916 C4.0438247,18.1454781 3.91832669,18.2709761 3.76494024,18.2709761 L1.55129482,18.2709761 C1.39790837,18.2709761 1.27241036,18.1454781 1.27241036,17.9920916 L1.27241036,16.4582271 C1.27241036,16.3048406 1.39790837,16.1793426 1.55129482,16.1793426 L3.76494024,16.1793426 C3.91832669,16.1793426 4.0438247,16.3048406 4.0438247,16.4582271 L4.0438247,17.9920916 Z" id="Shape"></path>
                        <path d="M4.0438247,21.4561155 C4.0438247,21.609502 3.91832669,21.735 3.76494024,21.735 L1.55129482,21.735 C1.39790837,21.735 1.27241036,21.609502 1.27241036,21.4561155 L1.27241036,19.922251 C1.27241036,19.7688645 1.39790837,19.6433665 1.55129482,19.6433665 L3.76494024,19.6433665 C3.91832669,19.6433665 4.0438247,19.7688645 4.0438247,19.922251 L4.0438247,21.4561155 Z" id="Shape"></path>
                        <path d="M4.0438247,24.9202789 C4.0438247,25.0736653 3.91832669,25.1991633 3.76494024,25.1991633 L1.55129482,25.1991633 C1.39790837,25.1991633 1.27241036,25.0736653 1.27241036,24.9202789 L1.27241036,23.3864143 C1.27241036,23.2330279 1.39790837,23.1075299 1.55129482,23.1075299 L3.76494024,23.1075299 C3.91832669,23.1075299 4.0438247,23.2330279 4.0438247,23.3864143 L4.0438247,24.9202789 Z" id="Shape"></path>
                        <path d="M4.0438247,28.3844422 C4.0438247,28.5378287 3.91832669,28.6633267 3.76494024,28.6633267 L1.55129482,28.6633267 C1.39790837,28.6633267 1.27241036,28.5378287 1.27241036,28.3844422 L1.27241036,26.8505777 C1.27241036,26.6971912 1.39790837,26.5716932 1.55129482,26.5716932 L3.76494024,26.5716932 C3.91832669,26.5716932 4.0438247,26.6971912 4.0438247,26.8505777 L4.0438247,28.3844422 Z" id="Shape"></path>
                        <path d="M4.0438247,31.8484661 C4.0438247,32.0018526 3.91832669,32.1273506 3.76494024,32.1273506 L1.55129482,32.1273506 C1.39790837,32.1273506 1.27241036,32.0018526 1.27241036,31.8484661 L1.27241036,30.3146016 C1.27241036,30.1612151 1.39790837,30.0357171 1.55129482,30.0357171 L3.76494024,30.0357171 C3.91832669,30.0357171 4.0438247,30.1612151 4.0438247,30.3146016 L4.0438247,31.8484661 Z" id="Shape"></path>
                    </g>
                    <g id="Group" transform="translate(10.318725, 23.705179)" fill="#1E99D6">
                        <path d="M8.24452191,1.88247012 C8.24452191,2.03585657 8.1190239,2.16135458 7.96563745,2.16135458 L0.296314741,2.16135458 C0.142928287,2.16135458 0.0174302789,2.03585657 0.0174302789,1.88247012 L0.0174302789,0.348605578 C0.0174302789,0.195219124 0.142928287,0.0697211155 0.296314741,0.0697211155 L7.96563745,0.0697211155 C8.1190239,0.0697211155 8.24452191,0.195219124 8.24452191,0.348605578 L8.24452191,1.88247012 Z" id="Shape"></path>
                        <path d="M15.2920717,5.34663347 C15.2920717,5.50001992 15.1665737,5.62551793 15.0131873,5.62551793 L0.296314741,5.62551793 C0.142928287,5.62551793 0.0174302789,5.50001992 0.0174302789,5.34663347 L0.0174302789,3.81276892 C0.0174302789,3.65938247 0.142928287,3.53388446 0.296314741,3.53388446 L15.0131873,3.53388446 C15.1665737,3.53388446 15.2920717,3.65938247 15.2920717,3.81276892 L15.2920717,5.34663347 Z" id="Shape"></path>
                        <path d="M26.998247,5.34663347 C26.998247,5.50001992 26.872749,5.62551793 26.7193625,5.62551793 L18.9743227,5.62551793 C18.8209363,5.62551793 18.6954382,5.50001992 18.6954382,5.34663347 L18.6954382,3.81276892 C18.6954382,3.65938247 18.8209363,3.53388446 18.9743227,3.53388446 L26.7193625,3.53388446 C26.872749,3.53388446 26.998247,3.65938247 26.998247,3.81276892 L26.998247,5.34663347 Z" id="Shape"></path>
                        <path d="M31.2842829,6.99804781 L8.45968127,6.99804781 C8.30629482,6.99804781 8.18079681,7.12354582 8.18079681,7.27693227 L8.18079681,8.81079681 C8.18079681,8.96418327 8.30629482,9.08968127 8.45968127,9.08968127 L31.2842829,9.08968127 L31.2842829,6.99804781 Z" id="Shape"></path>
                        <path d="M5.0436255,12.2749602 C5.0436255,12.4283466 4.91812749,12.5538446 4.76474104,12.5538446 L0.296314741,12.5538446 C0.142928287,12.5538446 0.0174302789,12.4283466 0.0174302789,12.2749602 L0.0174302789,10.7410956 C0.0174302789,10.5877092 0.142928287,10.4622112 0.296314741,10.4622112 L4.76474104,10.4622112 C4.91812749,10.4622112 5.0436255,10.5877092 5.0436255,10.7410956 L5.0436255,12.2749602 Z" id="Shape"></path>
                        <path d="M16.059004,12.2749602 C16.059004,12.4283466 15.933506,12.5538446 15.7801195,12.5538446 L11.3116932,12.5538446 C11.1583068,12.5538446 11.0328088,12.4283466 11.0328088,12.2749602 L11.0328088,10.7410956 C11.0328088,10.5877092 11.1583068,10.4622112 11.3116932,10.4622112 L15.7801195,10.4622112 C15.933506,10.4622112 16.059004,10.5877092 16.059004,10.7410956 L16.059004,12.2749602 Z" id="Shape"></path>
                        <path d="M21.9152988,12.2749602 C21.9152988,12.4283466 21.7898008,12.5538446 21.6364143,12.5538446 L17.167988,12.5538446 C17.0146016,12.5538446 16.8891036,12.4283466 16.8891036,12.2749602 L16.8891036,10.7410956 C16.8891036,10.5877092 17.0146016,10.4622112 17.167988,10.4622112 L21.6364143,10.4622112 C21.7898008,10.4622112 21.9152988,10.5877092 21.9152988,10.7410956 L21.9152988,12.2749602 Z" id="Shape"></path>
                        <path d="M27.7715936,12.2749602 C27.7715936,12.4283466 27.6460956,12.5538446 27.4927092,12.5538446 L23.0242829,12.5538446 C22.8708964,12.5538446 22.7453984,12.4283466 22.7453984,12.2749602 L22.7453984,10.7410956 C22.7453984,10.5877092 22.8708964,10.4622112 23.0242829,10.4622112 L27.4927092,10.4622112 C27.6460956,10.4622112 27.7715936,10.5877092 27.7715936,10.7410956 L27.7715936,12.2749602 Z" id="Shape"></path>
                        <path d="M8.18079681,15.7389841 C8.18079681,15.8923705 8.0552988,16.0178685 7.90191235,16.0178685 L0.296314741,16.0178685 C0.142928287,16.0178685 0.0174302789,15.8923705 0.0174302789,15.7389841 L0.0174302789,14.2051195 C0.0174302789,14.0517331 0.142928287,13.9262351 0.296314741,13.9262351 L7.90191235,13.9262351 C8.0552988,13.9262351 8.18079681,14.0517331 8.18079681,14.2051195 L8.18079681,15.7389841 Z" id="Shape"></path>
                        <path d="M22.5426494,15.7389841 C22.5426494,15.8923705 22.4171514,16.0178685 22.2637649,16.0178685 L9.91727092,16.0178685 C9.76388446,16.0178685 9.63838645,15.8923705 9.63838645,15.7389841 L9.63838645,14.2051195 C9.63838645,14.0517331 9.76388446,13.9262351 9.91727092,13.9262351 L22.2637649,13.9262351 C22.4171514,13.9262351 22.5426494,14.0517331 22.5426494,14.2051195 L22.5426494,15.7389841 Z" id="Shape"></path>
                        <path d="M37.3879482,19.2031474 C37.3879482,19.3565339 37.2624502,19.4820319 37.1090637,19.4820319 L0.296314741,19.4820319 C0.142928287,19.4820319 0.0174302789,19.3565339 0.0174302789,19.2031474 L0.0174302789,17.6692829 C0.0174302789,17.5158964 0.142928287,17.3903984 0.296314741,17.3903984 L37.1090637,17.3903984 C37.2624502,17.3903984 37.3879482,17.5158964 37.3879482,17.6692829 L37.3879482,19.2031474 Z" id="Shape"></path>
                        <path d="M15.4955179,22.6673108 C15.4955179,22.8206972 15.3700199,22.9461952 15.2166335,22.9461952 L0.296314741,22.9461952 C0.142928287,22.9461952 0.0174302789,22.8206972 0.0174302789,22.6673108 L0.0174302789,21.1334462 C0.0174302789,20.9800598 0.142928287,20.8545618 0.296314741,20.8545618 L15.2166335,20.8545618 C15.3700199,20.8545618 15.4955179,20.9800598 15.4955179,21.1334462 L15.4955179,22.6673108 Z" id="Shape"></path>
                        <path d="M37.3879482,22.6673108 C37.3879482,22.8206972 37.2624502,22.9461952 37.1090637,22.9461952 L29.3002988,22.9461952 C29.1469124,22.9461952 29.0214143,22.8206972 29.0214143,22.6673108 L29.0214143,21.1334462 C29.0214143,20.9800598 29.1469124,20.8545618 29.3002988,20.8545618 L37.1090637,20.8545618 C37.2624502,20.8545618 37.3879482,20.9800598 37.3879482,21.1334462 L37.3879482,22.6673108 Z" id="Shape"></path>
                        <path d="M26.0931275,22.6673108 C26.0931275,22.8206972 25.9676295,22.9461952 25.814243,22.9461952 L18.0054781,22.9461952 C17.8520916,22.9461952 17.7265936,22.8206972 17.7265936,22.6673108 L17.7265936,21.1334462 C17.7265936,20.9800598 17.8520916,20.8545618 18.0054781,20.8545618 L25.814243,20.8545618 C25.9676295,20.8545618 26.0931275,20.9800598 26.0931275,21.1334462 L26.0931275,22.6673108 Z" id="Shape"></path>
                        <path d="M37.3879482,26.1313347 C37.3879482,26.2847211 37.2624502,26.4102191 37.1090637,26.4102191 L0.296314741,26.4102191 C0.142928287,26.4102191 0.0174302789,26.2847211 0.0174302789,26.1313347 L0.0174302789,24.5974701 C0.0174302789,24.4440837 0.142928287,24.3185857 0.296314741,24.3185857 L37.1090637,24.3185857 C37.2624502,24.3185857 37.3879482,24.4440837 37.3879482,24.5974701 L37.3879482,26.1313347 Z" id="Shape"></path>
                        <path d="M22.4676295,1.88247012 C22.4676295,2.03585657 22.3421315,2.16135458 22.188745,2.16135458 L10.7544821,2.16135458 C10.6010956,2.16135458 10.4755976,2.03585657 10.4755976,1.88247012 L10.4755976,0.348605578 C10.4755976,0.195219124 10.6010956,0.0697211155 10.7544821,0.0697211155 L22.188745,0.0697211155 C22.3421315,0.0697211155 22.4676295,0.195219124 22.4676295,0.348605578 L22.4676295,1.88247012 Z" id="Shape"></path>
                        <path d="M27.7664343,1.88247012 C27.7664343,2.03585657 27.6409363,2.16135458 27.4875498,2.16135458 L23.5831673,2.16135458 C23.4297809,2.16135458 23.3042829,2.03585657 23.3042829,1.88247012 L23.3042829,0.348605578 C23.3042829,0.195219124 23.4297809,0.0697211155 23.5831673,0.0697211155 L27.4875498,0.0697211155 C27.6409363,0.0697211155 27.7664343,0.195219124 27.7664343,0.348605578 L27.7664343,1.88247012 Z" id="Shape"></path>
                        <path d="M31.2842829,0.0697211155 L29.0214143,0.0697211155 C28.8680279,0.0697211155 28.7425299,0.195219124 28.7425299,0.348605578 L28.7425299,1.88247012 C28.7425299,2.03585657 28.8680279,2.16135458 29.0214143,2.16135458 L31.2842829,2.16135458 L31.2842829,0.0697211155 Z" id="Shape"></path>
                    </g>
                    <rect id="Rectangle-path" fill="#D9EAFC" x="41.4631474" y="5.17888446" width="24.8416335" height="19.0073705"></rect>
                    <rect id="Rectangle-path" fill="#AEC1ED" x="41.4631474" y="5.17888446" width="2.76695219" height="19.0073705"></rect>
                    <path d="M65.6583267,0 L42.1098805,0 C41.7543028,0 41.4634263,0.290876494 41.4634263,0.646454183 L41.4634263,5.31776892 L66.3047809,5.31776892 L66.3047809,0.646454183 C66.3047809,0.290876494 66.0139044,0 65.6583267,0 Z" id="Shape" fill="#293D7C"></path>
                    <path d="M44.8768327,0 L42.1098805,0 C41.7543028,0 41.4634263,0.290876494 41.4634263,0.646454183 L41.4634263,5.31776892 L44.2303785,5.31776892 L44.2303785,0.646454183 C44.2303785,0.290876494 44.521255,0 44.8768327,0 Z" id="Shape" fill="#1A2B63"></path>
                    <path d="M41.4635657,24.0465339 L41.4635657,36.5610558 C41.4635657,36.9166335 41.7544422,37.20751 42.1100199,37.20751 L65.6584661,37.20751 C66.0140438,37.20751 66.3049203,36.9166335 66.3049203,36.5610558 L66.3049203,24.0465339 L41.4635657,24.0465339 L41.4635657,24.0465339 Z" id="Shape" fill="#AEC1ED"></path>
                    <path d="M44.2303785,36.5609163 L44.2303785,24.0463944 L41.4634263,24.0463944 L41.4634263,36.5609163 C41.4634263,36.916494 41.7543028,37.2073705 42.1098805,37.2073705 L44.8768327,37.2073705 C44.521255,37.2073705 44.2303785,36.916494 44.2303785,36.5609163 Z" id="Shape" fill="#85A0DD"></path>
                    <path d="M54.1422112,13.5409562 C54.1422112,13.9244223 53.8284661,14.2381673 53.445,14.2381673 L44.2296813,14.2381673 C43.8462151,14.2381673 43.5324701,13.9244223 43.5324701,13.5409562 L43.5324701,7.54912351 C43.5324701,7.16565737 43.8462151,6.85191235 44.2296813,6.85191235 L53.4451394,6.85191235 C53.8286056,6.85191235 54.1423506,7.16565737 54.1423506,7.54912351 L54.1423506,13.5409562 L54.1422112,13.5409562 Z" id="Shape" fill="#5DC1D8"></path>
                    <path d="M46.2992829,13.5409562 L46.2992829,7.54912351 C46.2992829,7.16565737 46.6130279,6.85191235 46.996494,6.85191235 L44.2296813,6.85191235 C43.8462151,6.85191235 43.5324701,7.16565737 43.5324701,7.54912351 L43.5324701,13.5409562 C43.5324701,13.9244223 43.8462151,14.2381673 44.2296813,14.2381673 L46.9966335,14.2381673 C46.6130279,14.2381673 46.2992829,13.9244223 46.2992829,13.5409562 Z" id="Shape" fill="#28A5A5"></path>
                    <path d="M46.6165139,3.63149402 L44.4186255,3.63149402 C43.8409163,3.63149402 43.3728088,3.16324701 43.3728088,2.58567729 C43.3728088,2.00810757 43.8409163,1.53986056 44.4186255,1.53986056 L46.6165139,1.53986056 C47.1942231,1.53986056 47.6623307,2.00810757 47.6623307,2.58567729 C47.6623307,3.16324701 47.1940837,3.63149402 46.6165139,3.63149402 Z" id="Shape" fill="#D9EAFC"></path>
                    <g id="Group" transform="translate(55.219124, 6.693227)" fill="#5DC1D8">
                        <path d="M8.29848606,7.58231076 L1.17410359,7.58231076 C0.596394422,7.58231076 0.128286853,7.11406375 0.128286853,6.53649402 C0.128286853,5.9589243 0.596394422,5.49067729 1.17410359,5.49067729 L8.29848606,5.49067729 C8.87619522,5.49067729 9.34430279,5.9589243 9.34430279,6.53649402 C9.34430279,7.11406375 8.87605578,7.58231076 8.29848606,7.58231076 Z" id="Shape"></path>
                        <path d="M8.29848606,4.84938247 L1.17410359,4.84938247 C0.596394422,4.84938247 0.128286853,4.38113546 0.128286853,3.80356574 C0.128286853,3.22599602 0.596394422,2.757749 1.17410359,2.757749 L8.29848606,2.757749 C8.87619522,2.757749 9.34430279,3.22599602 9.34430279,3.80356574 C9.34430279,4.38113546 8.87605578,4.84938247 8.29848606,4.84938247 Z" id="Shape"></path>
                        <path d="M8.29848606,2.11645418 L1.17410359,2.11645418 C0.596394422,2.11645418 0.128286853,1.64820717 0.128286853,1.07063745 C0.128286853,0.493067729 0.596394422,0.0248207171 1.17410359,0.0248207171 L8.29848606,0.0248207171 C8.87619522,0.0248207171 9.34430279,0.493067729 9.34430279,1.07063745 C9.34430279,1.64820717 8.87605578,2.11645418 8.29848606,2.11645418 Z" id="Shape"></path>
                    </g>
                    <g id="Group" transform="translate(43.087649, 15.478088)" fill="#FFFFFF">
                        <path d="M15.0773307,6.10324701 C15.0773307,6.48671315 15.3910757,6.80045817 15.7745418,6.80045817 L20.2498008,6.80045817 C20.6332669,6.80045817 20.947012,6.48671315 20.947012,6.10324701 L20.947012,0.951693227 C20.947012,0.568227092 20.6332669,0.254482072 20.2498008,0.254482072 L15.7745418,0.254482072 C15.3910757,0.254482072 15.0773307,0.568227092 15.0773307,0.951693227 L15.0773307,6.10324701 Z" id="Shape"></path>
                        <path d="M13.2145219,7.20093625 L10.227251,7.20093625 C9.64954183,7.20093625 9.18143426,6.73268924 9.18143426,6.15511952 C9.18143426,5.5775498 9.64954183,5.10930279 10.227251,5.10930279 L13.2145219,5.10930279 C13.7922311,5.10930279 14.2603386,5.5775498 14.2603386,6.15511952 C14.2603386,6.73268924 13.7920916,7.20093625 13.2145219,7.20093625 Z" id="Shape"></path>
                        <path d="M13.2145219,4.70492032 L10.227251,4.70492032 C9.64954183,4.70492032 9.18143426,4.23667331 9.18143426,3.65910359 C9.18143426,3.08153386 9.64954183,2.61328685 10.227251,2.61328685 L13.2145219,2.61328685 C13.7922311,2.61328685 14.2603386,3.08153386 14.2603386,3.65910359 C14.2603386,4.23667331 13.7920916,4.70492032 13.2145219,4.70492032 Z" id="Shape"></path>
                        <path d="M13.2145219,2.20904382 L10.227251,2.20904382 C9.64954183,2.20904382 9.18143426,1.74079681 9.18143426,1.16322709 C9.18143426,0.585657371 9.64954183,0.117410359 10.227251,0.117410359 L13.2145219,0.117410359 C13.7922311,0.117410359 14.2603386,0.585657371 14.2603386,1.16322709 C14.2603386,1.74079681 13.7920916,2.20904382 13.2145219,2.20904382 Z" id="Shape"></path>
                        <path d="M7.52611554,7.20093625 L4.53870518,7.20093625 C3.96113546,7.20093625 3.49288845,6.73268924 3.49288845,6.15511952 C3.49288845,5.5775498 3.96113546,5.10930279 4.53870518,5.10930279 L7.52611554,5.10930279 C8.1038247,5.10930279 8.57193227,5.5775498 8.57193227,6.15511952 C8.57193227,6.73268924 8.10368526,7.20093625 7.52611554,7.20093625 Z" id="Shape"></path>
                        <path d="M7.52611554,4.70492032 L4.53870518,4.70492032 C3.96113546,4.70492032 3.49288845,4.23667331 3.49288845,3.65910359 C3.49288845,3.08153386 3.96113546,2.61328685 4.53870518,2.61328685 L7.52611554,2.61328685 C8.1038247,2.61328685 8.57193227,3.08153386 8.57193227,3.65910359 C8.57193227,4.23667331 8.10368526,4.70492032 7.52611554,4.70492032 Z" id="Shape"></path>
                        <path d="M7.52611554,2.20904382 L4.53870518,2.20904382 C3.96113546,2.20904382 3.49288845,1.74079681 3.49288845,1.16322709 C3.49288845,0.585657371 3.96113546,0.117410359 4.53870518,0.117410359 L7.52611554,0.117410359 C8.1038247,0.117410359 8.57193227,0.585657371 8.57193227,1.16322709 C8.57193227,1.74079681 8.10368526,2.20904382 7.52611554,2.20904382 Z" id="Shape"></path>
                        <path d="M1.83756972,7.20093625 L1.14816733,7.20093625 C0.570458167,7.20093625 0.102350598,6.73268924 0.102350598,6.15511952 C0.102350598,5.5775498 0.570458167,5.10930279 1.14816733,5.10930279 L1.83756972,5.10930279 C2.41527888,5.10930279 2.88338645,5.5775498 2.88338645,6.15511952 C2.88338645,6.73268924 2.41513944,7.20093625 1.83756972,7.20093625 Z" id="Shape"></path>
                        <path d="M1.83756972,4.70492032 L1.14816733,4.70492032 C0.570458167,4.70492032 0.102350598,4.23667331 0.102350598,3.65910359 C0.102350598,3.08153386 0.570458167,2.61328685 1.14816733,2.61328685 L1.83756972,2.61328685 C2.41527888,2.61328685 2.88338645,3.08153386 2.88338645,3.65910359 C2.88338645,4.23667331 2.41513944,4.70492032 1.83756972,4.70492032 Z" id="Shape"></path>
                        <path d="M1.83756972,2.20904382 L1.14816733,2.20904382 C0.570458167,2.20904382 0.102350598,1.74079681 0.102350598,1.16322709 C0.102350598,0.585657371 0.570458167,0.117410359 1.14816733,0.117410359 L1.83756972,0.117410359 C2.41527888,0.117410359 2.88338645,0.585657371 2.88338645,1.16322709 C2.88338645,1.74079681 2.41513944,2.20904382 1.83756972,2.20904382 Z" id="Shape"></path>
                    </g>
                    <g id="Group" transform="translate(43.645418, 25.936255)" fill="#445EA0">
                        <path d="M4.35826693,8.37810757 L1.11247012,8.37810757 C0.534760956,8.37810757 0.0666533865,7.90986056 0.0666533865,7.33229084 C0.0666533865,6.75472112 0.534760956,6.2864741 1.11247012,6.2864741 L4.35826693,6.2864741 C4.9359761,6.2864741 5.40408367,6.75472112 5.40408367,7.33229084 C5.40408367,7.90986056 4.93583665,8.37810757 4.35826693,8.37810757 Z" id="Shape"></path>
                        <path d="M4.35826693,5.257251 L1.11247012,5.257251 C0.534760956,5.257251 0.0666533865,4.78900398 0.0666533865,4.21143426 C0.0666533865,3.63386454 0.534760956,3.16561753 1.11247012,3.16561753 L4.35826693,3.16561753 C4.9359761,3.16561753 5.40408367,3.63386454 5.40408367,4.21143426 C5.40408367,4.78900398 4.93583665,5.257251 4.35826693,5.257251 Z" id="Shape"></path>
                        <path d="M4.35826693,2.13639442 L1.11247012,2.13639442 C0.534760956,2.13639442 0.0666533865,1.66814741 0.0666533865,1.09057769 C0.0666533865,0.513007968 0.534760956,0.0447609562 1.11247012,0.0447609562 L4.35826693,0.0447609562 C4.9359761,0.0447609562 5.40408367,0.513007968 5.40408367,1.09057769 C5.40408367,1.66814741 4.93583665,2.13639442 4.35826693,2.13639442 Z" id="Shape"></path>
                        <path d="M19.8721912,8.37810757 L16.6263944,8.37810757 C16.0486853,8.37810757 15.5805777,7.90986056 15.5805777,7.33229084 C15.5805777,6.75472112 16.0486853,6.2864741 16.6263944,6.2864741 L19.8721912,6.2864741 C20.4499004,6.2864741 20.918008,6.75472112 20.918008,7.33229084 C20.918008,7.90986056 20.449761,8.37810757 19.8721912,8.37810757 Z" id="Shape"></path>
                        <path d="M15.519502,5.257251 L14.1699801,5.257251 C13.5922709,5.257251 13.1241633,4.78900398 13.1241633,4.21143426 C13.1241633,3.63386454 13.5922709,3.16561753 14.1699801,3.16561753 L15.519502,3.16561753 C16.0972112,3.16561753 16.5653187,3.63386454 16.5653187,4.21143426 C16.5653187,4.78900398 16.0972112,5.257251 15.519502,5.257251 Z" id="Shape"></path>
                        <path d="M19.6566135,5.257251 L18.3069522,5.257251 C17.729243,5.257251 17.2611355,4.78900398 17.2611355,4.21143426 C17.2611355,3.63386454 17.729243,3.16561753 18.3069522,3.16561753 L19.6566135,3.16561753 C20.2343227,3.16561753 20.7024303,3.63386454 20.7024303,4.21143426 C20.7024303,4.78900398 20.2341833,5.257251 19.6566135,5.257251 Z" id="Shape"></path>
                        <path d="M19.8721912,2.13639442 L16.6263944,2.13639442 C16.0486853,2.13639442 15.5805777,1.66814741 15.5805777,1.09057769 C15.5805777,0.513007968 16.0486853,0.0447609562 16.6263944,0.0447609562 L19.8721912,0.0447609562 C20.4499004,0.0447609562 20.918008,0.513007968 20.918008,1.09057769 C20.918008,1.66814741 20.449761,2.13639442 19.8721912,2.13639442 Z" id="Shape"></path>
                        <path d="M13.7957171,2.13639442 L10.5499203,2.13639442 C9.97221116,2.13639442 9.50410359,1.66814741 9.50410359,1.09057769 C9.50410359,0.513007968 9.97221116,0.0447609562 10.5499203,0.0447609562 L13.7957171,0.0447609562 C14.3734263,0.0447609562 14.8415339,0.513007968 14.8415339,1.09057769 C14.8415339,1.66814741 14.3734263,2.13639442 13.7957171,2.13639442 Z" id="Shape"></path>
                        <path d="M13.99749,8.37810757 L6.93013944,8.37810757 C6.35243028,8.37810757 5.88432271,7.90986056 5.88432271,7.33229084 C5.88432271,6.75472112 6.35243028,6.2864741 6.93013944,6.2864741 L13.99749,6.2864741 C14.5751992,6.2864741 15.0433068,6.75472112 15.0433068,7.33229084 C15.0433068,7.90986056 14.5750598,8.37810757 13.99749,8.37810757 Z" id="Shape"></path>
                        <path d="M11.4119522,5.257251 L6.93013944,5.257251 C6.35243028,5.257251 5.88432271,4.78900398 5.88432271,4.21143426 C5.88432271,3.63386454 6.35243028,3.16561753 6.93013944,3.16561753 L11.4119522,3.16561753 C11.9896614,3.16561753 12.4577689,3.63386454 12.4577689,4.21143426 C12.4577689,4.78900398 11.9895219,5.257251 11.4119522,5.257251 Z" id="Shape"></path>
                        <path d="M8.05055777,2.13639442 L6.93013944,2.13639442 C6.35243028,2.13639442 5.88432271,1.66814741 5.88432271,1.09057769 C5.88432271,0.513007968 6.35243028,0.0447609562 6.93013944,0.0447609562 L8.05055777,0.0447609562 C8.62826693,0.0447609562 9.0963745,0.513007968 9.0963745,1.09057769 C9.0963745,1.66814741 8.62826693,2.13639442 8.05055777,2.13639442 Z" id="Shape"></path>
                    </g>
                </g>
                <g id="thinking" transform="translate(0.000000, 71.000000)" fill-rule="nonzero">
                    <path d="M53.6621094,64.1558075 C53.6621094,64.4399261 53.5163117,64.7053529 53.2743835,64.8538208 C47.8814697,68.1623078 41.5240479,70.0518036 34.721222,69.998932 C15.442276,69.8483276 0,54.27948 0,35 C0,15.6697845 15.6697845,0 35,0 C54.1892243,0 69.7238922,15.3044891 69.9962616,34.4915771 C70.0929261,41.2895965 68.2493591,47.6496888 64.9862671,53.0570221 C64.8874665,53.2209779 64.7090912,53.3203125 64.5173646,53.3203125 L64.4976043,53.3203125 C58.5134888,53.3203125 53.6621094,58.1716919 53.6621094,64.1558075 L53.6621094,64.1558075 Z" id="Shape" fill="#7ECD00"></path>
                    <path d="M54.140625,21.0546875 L54.140625,53.3203125 C54.140625,54.07547 53.528595,54.6875 52.7734375,54.6875 C52.01828,54.6875 51.40625,54.07547 51.40625,53.3203125 L51.40625,21.0546875 C51.40625,16.9841003 48.0940247,13.671875 44.0234375,13.671875 C39.9528503,13.671875 36.640625,16.9841003 36.640625,21.0546875 L36.640625,50.0390625 C36.640625,55.6178284 32.1022034,60.15625 26.5234375,60.15625 C20.9446716,60.15625 16.40625,55.6178284 16.40625,50.0390625 L16.40625,24.609375 C16.40625,23.8542175 17.01828,23.2421875 17.7734375,23.2421875 C18.528595,23.2421875 19.140625,23.8542175 19.140625,24.609375 L19.140625,50.0390625 C19.140625,54.1096497 22.4523162,57.421875 26.5234375,57.421875 C30.5945588,57.421875 33.90625,54.1096497 33.90625,50.0390625 L33.90625,21.0546875 C33.90625,15.4759216 38.4446716,10.9375 44.0234375,10.9375 C49.6022034,10.9375 54.140625,15.4759216 54.140625,21.0546875 Z" id="Shape" fill="#5A9001"></path>
                    <path d="M26.8257142,27.9653931 C24.367981,30.1491546 23.0018616,33.3091735 23.0018616,36.5968323 L23.0018616,36.8206024 L12.5450134,36.8206024 L12.5450134,36.556778 C12.5450134,33.2408141 11.0966491,30.1128387 8.63677979,27.889557 C5.86341861,25.3837585 4.12506104,21.7532349 4.14161686,17.7168275 C4.17205811,10.2010345 10.2571107,4.14161686 17.7734375,4.14161686 C25.3020477,4.14161686 31.4052581,10.2448273 31.4052581,17.7734375 C31.4052581,21.8280029 29.6353913,25.4681396 26.8257142,27.9653931 L26.8257142,27.9653931 Z" id="Shape" fill="#FDED32"></path>
                    <path d="M23.0018616,36.5968323 L23.0018616,36.8206024 L16.0927581,36.8206024 L16.0927581,36.556778 C16.0927581,33.2408141 14.644928,30.1128387 12.1845246,27.889557 C9.4111634,25.3837585 7.67333984,21.7532349 7.68936164,17.7168275 C7.71766666,10.8029175 12.8697204,5.12161262 19.5459748,4.25643914 C26.2371826,5.12535092 31.4052581,10.8456421 31.4052581,17.7734375 C31.4052581,21.8280029 29.6353913,25.4681396 26.8257142,27.9653931 C24.367981,30.1491546 23.0018616,33.3091735 23.0018616,36.5968323 L23.0018616,36.5968323 Z" id="Shape" fill="#FDF385"></path>
                    <path d="M20.9169007,7.40951531 C21.4231872,6.74461361 24.6478271,7.78175357 26.6436004,10.0237274 C28.3531188,11.9447327 29.1483307,14.7362518 28.5106659,15.1902008 C27.7256012,15.7493591 24.7711945,12.7639771 24.1538239,12.1401978 C23.7815856,11.7647552 20.2883148,8.23463443 20.9169007,7.40951531 Z" id="Shape" fill="#FDF7BD"></path>
                    <path d="M21.2186432,16.6214753 L14.3282318,16.6214753 C12.2171021,16.6214753 10.5001068,18.3384704 10.5001068,20.4496003 C10.5001068,22.1382904 11.873703,23.5118866 13.5623932,23.5118866 C13.9848327,23.5118866 14.3282318,23.8552856 14.3282318,24.2777253 L14.3282318,34.230957 C14.3282318,35.9191131 15.701828,37.2932435 17.3905182,37.2932435 L18.1563568,37.2932435 C19.845047,37.2932435 21.2186432,35.9191131 21.2186432,34.230957 L21.2186432,24.2777253 C21.2186432,23.8552856 21.5620423,23.5118866 21.9844818,23.5118866 C23.673172,23.5118866 25.0467682,22.1382904 25.0467682,20.4496003 C25.0467682,18.3384704 23.3297729,16.6214753 21.2186432,16.6214753 Z M21.9844818,21.2149048 C20.2957917,21.2149048 18.9216614,22.589035 18.9216614,24.2777253 L18.9216614,34.230957 C18.9216614,34.6528626 18.5782624,34.9962616 18.1563568,34.9962616 L17.3905182,34.9962616 C16.9686126,34.9962616 16.6252136,34.6528626 16.6252136,34.230957 L16.6252136,24.2777253 C16.6252136,22.589035 15.2510833,21.2149048 13.5623932,21.2149048 C13.1404876,21.2149048 12.7970886,20.8715057 12.7970886,20.4496003 C12.7970886,19.6052552 13.4838867,18.918457 14.3282318,18.918457 L21.2186432,18.918457 C22.0629883,18.918457 22.7497864,19.6052552 22.7497864,20.4496003 C22.7497864,20.8715057 22.4063874,21.2149048 21.9844818,21.2149048 Z" id="Shape" fill="#E8CE00"></path>
                    <path d="M24.776001,35.8870697 C24.776001,36.723404 24.2264557,37.4304962 23.469162,37.6686859 L23.469162,37.7541351 C23.469162,40.3325653 21.3788605,42.4228669 18.8004303,42.4228669 L16.7464447,42.4228669 C14.1685485,42.4228669 12.0782471,40.3325653 12.0782471,37.7541351 L12.0782471,37.6686859 C11.3204193,37.4304962 10.770874,36.7228698 10.770874,35.8870697 C10.770874,34.8558044 11.6072083,34.0200042 12.6384735,34.0200042 L22.9089355,34.0200042 C23.9402008,34.0194702 24.776001,34.8558044 24.776001,35.8870697 Z" id="Shape" fill="#88B9D3"></path>
                    <path d="M24.776001,35.8870697 C24.776001,36.723404 24.2264557,37.4304962 23.469162,37.6686859 L23.469162,37.7541351 C23.469162,39.996109 21.8883514,41.868515 19.7809601,42.3187256 C18.3763885,42.0185853 17.2062682,41.0871888 16.5819549,39.8358918 C16.4254761,39.5229339 16.647644,39.1549683 16.9969177,39.1549683 L21.1817933,39.1549683 C21.5753937,39.1549683 21.8936921,38.8297272 21.8814087,38.4329224 C21.8701935,38.0500031 21.5358734,37.7546693 21.1524201,37.7546693 L15.3461457,37.7546693 C14.3148804,37.7546693 13.4785462,36.918335 13.4785462,35.8870697 C13.4785462,34.8558044 14.3148804,34.0200042 15.3461457,34.0200042 L22.9089355,34.0200042 C23.9402008,34.0194702 24.776001,34.8558044 24.776001,35.8870697 L24.776001,35.8870697 Z" id="Shape" fill="#B3D1E1"></path>
                    <path d="M53.1344604,64.9414063 L48.5351562,64.9414063 C44.0047454,64.9414063 40.3320313,61.2686921 40.3320313,56.7382813 L40.3320313,36.2304688 C40.3320313,31.7000579 44.0047454,28.0273438 48.5351562,28.0273438 L56.7382812,28.0273438 C61.2686921,28.0273438 64.9414062,31.7000579 64.9414062,36.2304688 L64.9414062,53.1344604 C62.0147705,57.9559326 57.9559326,62.0147705 53.1344604,64.9414063 Z" id="Shape" fill="#ADE8F0"></path>
                    <path d="M64.9414062,36.2304688 L64.9414062,53.1344604 C62.0147705,57.9559326 57.9559326,62.0147705 53.1344604,64.9414063 L51.8164062,64.9414063 C47.2859954,64.9414063 43.6132813,61.2686921 43.6132813,56.7382813 L43.6132813,36.2304688 C43.6132813,32.1182251 46.6392516,28.7130737 50.5859375,28.1197357 L50.5859375,38.9648438 L54.6875,38.9648438 L54.6875,28.0273438 L56.7382812,28.0273438 C61.2686921,28.0273438 64.9414062,31.7000579 64.9414062,36.2304688 Z" id="Shape" fill="#D3F1F5"></path>
                    <path d="M52.6367187,41.6992188 C51.5039826,41.6992188 50.5859375,40.7811737 50.5859375,39.6484375 L50.5859375,32.8125 C50.5859375,32.4349212 50.8919525,32.1289062 51.2695312,32.1289062 L54.0039062,32.1289062 C54.381485,32.1289062 54.6875,32.4349212 54.6875,32.8125 L54.6875,39.6484375 C54.6875,40.7811737 53.7694549,41.6992188 52.6367187,41.6992188 Z" id="Shape" fill="#3691BB"></path>
                    <path d="M52.6367187,38.9648438 C51.5039826,38.9648438 50.5859375,38.0467987 50.5859375,36.9140625 L50.5859375,32.8125 C50.5859375,32.4349212 50.8919525,32.1289062 51.2695312,32.1289062 L54.0039062,32.1289062 C54.381485,32.1289062 54.6875,32.4349212 54.6875,32.8125 L54.6875,36.9140625 C54.6875,38.0467987 53.7694549,38.9648438 52.6367187,38.9648438 Z" id="Shape" fill="#6CAAC9"></path>
                </g>
            </g>
        </g>
    </g>
</svg>