<?xml version="1.0" encoding="UTF-8"?>
<svg width="100px" height="96px" viewBox="0 0 100 96" version="1.1" xmlns="http://www.w3.org/2000/svg" xmlns:xlink="http://www.w3.org/1999/xlink">
    <title>cv</title>
    <g id="Page-1" stroke="none" stroke-width="1" fill="none" fill-rule="evenodd">
        <g id="cv" fill="#979797" fill-rule="nonzero">
            <path d="M27.6687286,35.1423295 C28.0387843,36.1304167 28.9887213,36.7797311 30.0431896,36.7659969 C31.0976577,36.752263 32.0308088,36.0777697 32.3741597,35.0805264 L36.5943217,22.2865149 C36.8827364,21.4121151 36.4073863,20.469045 35.5329863,20.1813933 C34.6585865,19.8929789 33.7155165,20.3683288 33.427865,21.2427286 L30.0027505,31.5989501 L26.5852661,21.2358617 C26.2976145,20.3614619 25.3545446,19.8861117 24.4801446,20.1745264 C23.6057446,20.4629411 23.1303947,21.4052481 23.4188094,22.2796479 L27.6687286,35.1423295 Z" id="Path"></path>
            <path d="M15.0013752,36.7659969 C17.7626782,36.7659969 20.0013251,34.5273503 20.0013251,31.7652843 C20.0013251,30.8451043 19.2551094,30.0988887 18.3349295,30.0988887 C17.4139865,30.0988887 16.6677708,30.8451043 16.6677708,31.7652843 C16.6677708,32.6862274 15.9215553,33.4324429 15.0013752,33.4324429 L11.6678211,33.4324429 C10.7468781,33.4324429 10.0006625,32.6862274 10.0006625,31.7652843 L10.0006625,25.0981761 C10.0006625,24.1779961 10.7468781,23.4317804 11.6678211,23.4317804 L15.0013752,23.4317804 C15.9215553,23.4317804 16.6677708,24.1779961 16.6677708,25.0981761 C16.6677708,26.019119 17.4139865,26.7653347 18.3349295,26.7653347 C19.2551094,26.7653347 20.0013251,26.019119 20.0013251,25.0981761 C20.0013251,22.336873 17.7626782,20.0974632 15.0013752,20.0974632 L11.6678211,20.0974632 C8.90575513,20.0974632 6.66710827,22.336873 6.66710827,25.0981761 L6.66710827,31.7652843 C6.66710827,34.5273503 8.90575513,36.7659969 11.6678211,36.7659969 L15.0013752,36.7659969 Z" id="Path"></path>
            <path d="M51.6712341,48.4338182 L28.335592,48.4338182 C27.4154119,48.4338182 26.6691963,49.1800337 26.6691963,50.1002139 C26.6691963,51.0211567 27.4154119,51.7673724 28.335592,51.7673724 L51.6712341,51.7673724 C52.5914141,51.7673724 53.3376295,51.0211567 53.3376295,50.1002139 C53.3376295,49.1800337 52.5914141,48.4338182 51.6712341,48.4338182 L51.6712341,48.4338182 Z" id="Path"></path>
            <path d="M51.6712341,61.7680347 L28.335592,61.7680347 C27.4154119,61.7680347 26.6691963,62.5142505 26.6691963,63.4344303 C26.6691963,64.3553734 27.4154119,65.1015891 28.335592,65.1015891 L51.6712341,65.1015891 C52.5914141,65.1015891 53.3376295,64.3553734 53.3376295,63.4344303 C53.3376295,62.5142505 52.5914141,61.7680347 51.6712341,61.7680347 Z" id="Path"></path>
            <path d="M51.6712341,75.1022513 L28.335592,75.1022513 C27.4154119,75.1022513 26.6691963,75.8484673 26.6691963,76.76941 C26.6691963,77.68959 27.4154119,78.435806 28.335592,78.435806 L51.6712341,78.435806 C52.5914141,78.435806 53.3376295,77.68959 53.3376295,76.76941 C53.3376295,75.8484673 52.5914141,75.1022513 51.6712341,75.1022513 L51.6712341,75.1022513 Z" id="Path"></path>
            <path d="M51.6712341,41.7659468 L40.0034129,41.7659468 C39.0824701,41.7659468 38.3362544,42.5121624 38.3362544,43.4331055 C38.3362544,44.3532853 39.0824701,45.099501 40.0034129,45.099501 L51.6712341,45.099501 C52.5914141,45.099501 53.3376295,44.3532853 53.3376295,43.4331055 C53.3376295,42.5121624 52.5914141,41.7659468 51.6712341,41.7659468 Z" id="Path"></path>
            <path d="M51.6712341,55.1009264 L40.0034129,55.1009264 C39.0824701,55.1009264 38.3362544,55.8471421 38.3362544,56.7673221 C38.3362544,57.6882651 39.0824701,58.4344806 40.0034129,58.4344806 L51.6712341,58.4344806 C52.5914141,58.4344806 53.3376295,57.6882651 53.3376295,56.7673221 C53.3376295,55.8471421 52.5914141,55.1009264 51.6712341,55.1009264 Z" id="Path"></path>
            <path d="M51.6712341,68.4351433 L40.0034129,68.4351433 C39.0824701,68.4351433 38.3362544,69.1813587 38.3362544,70.1015387 C38.3362544,71.022482 39.0824701,71.7686973 40.0034129,71.7686973 L51.6712341,71.7686973 C52.5914141,71.7686973 53.3376295,71.022482 53.3376295,70.1015387 C53.3376295,69.1813587 52.5914141,68.4351433 51.6712341,68.4351433 Z" id="Path"></path>
            <path d="M21.6684835,75.1022513 L10.0006625,75.1022513 C9.08048247,75.1022513 8.334267,75.8484673 8.334267,76.76941 C8.334267,77.68959 9.08048247,78.435806 10.0006625,78.435806 L21.6684835,78.435806 C22.5886636,78.435806 23.3348793,77.68959 23.3348793,76.76941 C23.3348793,75.8484673 22.5886636,75.1022513 21.6684835,75.1022513 L21.6684835,75.1022513 Z" id="Path"></path>
            <path d="M21.3236069,56.5254507 C23.2646832,54.6324435 23.8659284,51.7513491 22.8435063,49.2403109 C21.8210839,46.7285096 19.3794787,45.0857669 16.6677708,45.0857669 C13.9560631,45.0857669 11.5144578,46.7285096 10.4927986,49.2403109 C9.47037633,51.7513491 10.0716217,54.6324435 12.0126978,56.5254507 C9.71377393,58.0735808 8.33502993,60.6632084 8.334267,63.4344303 L8.334267,68.4351433 C8.334267,70.276266 9.8266982,71.7686973 11.6678211,71.7686973 L21.6684835,71.7686973 C23.5096065,71.7686973 25.0020378,70.276266 25.0020378,68.4351433 L25.0020378,63.4344303 C25.0005119,60.6632084 23.6217679,58.0735808 21.3236069,56.5254507 L21.3236069,56.5254507 Z M13.3342167,51.7673724 C13.3342167,49.9262493 14.8266479,48.4338182 16.6677708,48.4338182 C18.5088937,48.4338182 20.0013251,49.9262493 20.0013251,51.7673724 C20.0013251,53.6084953 18.5088937,55.1009264 16.6677708,55.1009264 C14.8266479,55.1009264 13.3342167,53.6084953 13.3342167,51.7673724 L13.3342167,51.7673724 Z M21.6684835,68.4351433 L11.6678211,68.4351433 L11.6678211,63.4344303 C11.6678211,60.6731276 13.9064678,58.4344806 16.6677708,58.4344806 C19.4298367,58.4344806 21.6684835,60.6731276 21.6684835,63.4344303 L21.6684835,68.4351433 Z" id="Shape"></path>
            <path d="M28.335592,58.4344806 L33.3363047,58.4344806 C34.2564845,58.4344806 35.0027004,57.6882651 35.0027004,56.7673221 C35.0027004,55.8471421 34.2564845,55.1009264 33.3363047,55.1009264 L28.335592,55.1009264 C27.4154119,55.1009264 26.6691963,55.8471421 26.6691963,56.7673221 C26.6691963,57.6882651 27.4154119,58.4344806 28.335592,58.4344806 L28.335592,58.4344806 Z" id="Path"></path>
            <path d="M28.335592,41.7659468 C27.4154119,41.7659468 26.6691963,42.5121624 26.6691963,43.4331055 C26.6691963,44.3532853 27.4154119,45.099501 28.335592,45.099501 L33.3363047,45.099501 C34.2564845,45.099501 35.0027004,44.3532853 35.0027004,43.4331055 C35.0027004,42.5121624 34.2564845,41.7659468 33.3363047,41.7659468 L28.335592,41.7659468 Z" id="Path"></path>
            <path d="M28.335592,71.7686973 L33.3363047,71.7686973 C34.2564845,71.7686973 35.0027004,71.022482 35.0027004,70.1015387 C35.0027004,69.1813587 34.2564845,68.4351433 33.3363047,68.4351433 L28.335592,68.4351433 C27.4154119,68.4351433 26.6691963,69.1813587 26.6691963,70.1015387 C26.6691963,71.022482 27.4154119,71.7686973 28.335592,71.7686973 L28.335592,71.7686973 Z" id="Path"></path>
            <path d="M87.1538627,0.096138304 C84.9533653,0.265524571 82.855874,1.09872236 81.1383573,2.48433335 C81.0284853,2.43779029 80.930058,2.37827607 80.8163707,2.33936293 C78.2023273,1.44894017 75.361672,2.84599603 74.4712493,5.46003975 L70.637166,16.7074469 L54.5179931,0.58598526 C54.2036366,0.274680591 53.7801707,0.0984271627 53.3376295,0.096138304 L16.6677708,0.096138304 C13.9064678,0.096138304 11.6678211,2.33478503 11.6678211,5.09685096 L11.6678211,11.7639592 L5.00071266,11.7639592 C2.23864691,11.7639592 -1.89478063e-14,14.0026061 -1.89478063e-14,16.7639091 L-1.89478063e-14,83.4365187 C-1.89478063e-14,86.1978213 2.23864691,88.436468 5.00071266,88.436468 L55.7311657,88.436468 L57.6516411,93.4371813 C57.9164023,94.1269347 58.4039605,94.7091047 59.0364891,95.0921313 C59.3416896,95.4087773 59.7636295,95.5865567 60.2031186,95.5823052 C60.3076497,95.5766373 60.411418,95.5598513 60.5128971,95.5339093 C60.6014053,95.5339093 60.6799945,95.5774007 60.7768957,95.5774007 C61.385008,95.5804527 61.9832014,95.4164073 62.5050943,95.1035767 L71.25596,89.760276 C72.2211573,89.170476 72.7453393,88.0641233 72.588924,86.943274 C72.1250193,83.4815353 72.3516307,79.961046 73.2557873,76.5870527 C74.7833167,75.3227593 76.0491367,73.7731027 76.9845767,72.025066 L77.79641,70.3121273 C78.0329407,69.811598 78.2648933,69.327092 78.4716667,68.853268 C79.9145027,65.7379323 81.335212,62.5928397 82.738372,59.3943368 C82.7635513,59.3477937 82.7818633,59.2989617 82.8032273,59.2493663 C88.280816,46.7720006 93.3578287,33.7971577 97.8892953,20.6948935 C98.43942,19.1276881 98.971232,17.5696388 99.498466,16.0276125 L99.6228353,15.6606086 C100.646783,12.594105 99.6228353,5.99337795 96.0931893,3.14280381 C93.5623133,1.11169334 90.3981453,0.0335720722 87.1538627,0.096138304 L87.1538627,0.096138304 Z M80.2067327,56.8123391 C75.5257173,56.3064691 71.0148513,54.7697839 66.999174,52.3121554 C68.2871207,47.1535014 69.6322927,42.1115865 71.0125627,37.2825493 C72.9917893,37.1238448 74.6902307,35.8091929 75.3395453,33.932209 L81.9669773,14.4672741 C86.8120373,14.4939791 91.3847067,16.7127879 94.4046667,20.5026172 C90.1143087,32.8388276 85.3402073,45.0384609 80.2067327,56.8123391 Z M75.8179467,66.6016501 C71.6450913,67.2448607 67.421114,65.8081284 64.5049217,62.7545961 C65.0252889,60.4213368 65.5838061,58.072818 66.1636873,55.7075129 C70.0603367,57.9362405 74.3476427,59.3966258 78.7944167,60.0093161 C77.81167,62.2159168 76.8266353,64.4164135 75.8179467,66.6016501 Z M43.3369673,17.4544255 L55.9814303,30.0988887 L43.3369673,30.0988887 L43.3369673,17.4544255 Z M77.6262607,6.535109 C77.8185373,5.97125075 78.2969393,5.55312605 78.8813987,5.43791274 C79.465858,5.32269945 80.0671033,5.52794683 80.459286,5.9765918 C80.850706,6.42447381 80.9735493,7.04784613 80.7812727,7.61170433 L79.2064373,12.2385463 L72.1860593,32.8556137 C72.003702,33.430917 71.523774,33.8635389 70.9324473,33.984856 C70.3411213,34.1069362 69.7299567,33.898637 69.3354853,33.4415988 C68.94025,32.9845611 68.824274,32.3497437 69.0302847,31.7820705 L72.7842527,20.7643268 L72.7972233,20.7277027 L77.6262607,6.535109 Z M55.0047883,5.78660444 L67.6484887,18.4310676 L55.0047883,18.4310676 L55.0047883,5.78660444 Z M15.0013752,5.09685096 C15.0013752,4.17590793 15.7475909,3.42969243 16.6677708,3.42969243 L51.6712341,3.42969243 L51.6712341,18.4310676 C51.6712341,20.2721906 53.1636653,21.7646217 55.0047883,21.7646217 L68.918886,21.7646217 L65.8737468,30.707001 C65.1626291,32.8273826 65.9462319,35.1621675 67.7919327,36.4241722 C66.3101835,41.6125833 64.8650585,47.0367622 63.4931816,52.5921771 C63.4588464,52.6913671 63.4336673,52.7936096 63.4184073,52.8973777 C62.8034282,55.340509 62.2250728,57.7775362 61.6718967,60.1878585 L61.6718967,31.7652843 C61.6703705,31.5470657 61.6268795,31.3303734 61.5437123,31.1289411 C61.4605452,30.9252196 61.3369389,30.740573 61.1812865,30.5856839 L42.8471201,12.2507543 C42.5335264,11.9409756 42.1108237,11.7662483 41.6698086,11.7639592 L15.0013752,11.7639592 L15.0013752,5.09685096 Z M5.00071266,85.102914 C4.07976983,85.102914 3.33355413,84.3566987 3.33355413,83.4365187 L3.33355413,16.7639091 C3.33355413,15.843729 4.07976983,15.0975135 5.00071266,15.0975135 L40.0034129,15.0975135 L40.0034129,30.0988887 C40.0034129,31.9400115 41.4958442,33.4324429 43.3369673,33.4324429 L58.3383425,33.4324429 L58.3383425,76.2337827 C57.2815851,77.8940747 56.0455227,79.4315227 54.6507554,80.8194227 C54.3325837,81.1314907 54.0899493,81.5129913 53.9426898,81.934168 C53.7275235,82.5697487 53.7427835,83.2602647 53.9861812,83.8844007 L54.454664,85.102914 L5.00071266,85.102914 Z M69.2439247,87.0752733 L62.9903634,90.8902813 L65.0054507,84.993042 C65.3022583,84.121694 64.8360644,83.174046 63.9647165,82.877238 C63.0926055,82.5804307 62.1449577,83.0458613 61.8481501,83.9179727 L59.8384037,89.81979 L57.2129151,82.9764287 C58.8342935,81.326056 60.2588176,79.493326 61.4582561,77.5156253 C61.4925912,77.4622153 61.5238742,77.4065167 61.5513425,77.3492913 C61.8000808,76.9372707 62.0518716,76.5290647 62.2800088,76.1055987 C62.4272681,76.283378 62.5874986,76.4504753 62.7584109,76.6053647 C64.4637197,77.945196 66.5741822,78.66318 68.7426327,78.6425793 L68.7624707,78.6425793 C68.9867933,78.6242673 69.20959,78.589932 69.4293347,78.539574 C68.9593253,81.361154 68.897522,84.2353813 69.2439247,87.0752733 L69.2439247,87.0752733 Z M68.7258467,75.317418 L68.7121127,75.317418 C67.299034,75.3349673 65.9233417,74.8672467 64.8139372,73.992084 C63.735053,73.1321813 63.0552186,69.4133113 63.5465916,66.9602613 C63.5801636,66.7931633 63.6221288,66.6268291 63.657227,66.474992 C66.518483,68.83343 70.1167987,70.112984 73.824224,70.090094 C73.949356,70.090094 74.0813553,70.0748333 74.2095393,70.073308 L73.9760613,70.5639173 C72.8895467,72.7689927 70.079412,75.2937647 68.7258467,75.317418 Z M96.456378,14.5840133 L96.334298,14.9388092 C96.1115013,15.6056725 95.8764973,16.2725361 95.6491227,16.9393994 C92.3460887,13.4974989 87.8672687,11.4274755 83.105376,11.142113 L83.9385733,8.69211467 C84.3689067,7.43621387 84.2796353,6.06052207 83.6898347,4.87176542 C83.67839,4.84506051 83.658552,4.82293333 83.644818,4.79622841 C84.688604,4.02559665 85.922378,3.55329859 87.2141393,3.42969243 C89.6847387,3.33965814 92.1026913,4.16064791 94.007906,5.73700939 C96.2709693,7.56516133 97.1346867,12.5521401 96.456378,14.5840133 Z" id="Shape"></path>
        </g>
    </g>
</svg>