<?xml version="1.0" encoding="UTF-8"?>
<svg width="100px" height="116px" viewBox="0 0 100 116" version="1.1" xmlns="http://www.w3.org/2000/svg" xmlns:xlink="http://www.w3.org/1999/xlink">
    <title>peruse</title>
    <g id="Page-1" stroke="none" stroke-width="1" fill="none" fill-rule="evenodd">
        <g id="peruse" fill="#979797" fill-rule="nonzero">
            <path d="M90.259812,19.1787116 L78.7525847,19.1787116 L78.7525847,23.0144539 L90.259812,23.0144539 C93.437222,23.0144539 96.0134253,25.5906569 96.0134253,28.7680675 L96.0134253,72.879104 L3.95560928,72.879104 L3.95560928,28.7680675 C3.95560928,25.5906569 6.53181225,23.0144539 9.70922273,23.0144539 L21.2164497,23.0144539 L21.2164497,19.1787116 L9.70922273,19.1787116 C4.41541146,19.1852669 0.126422231,23.4742561 0.119866947,28.7680675 L0.119866947,82.46846 C0.126422231,87.7622713 4.41541146,92.0512607 9.70922273,92.057816 L34.3868306,92.057816 L32.9484273,103.565043 L28.8879345,103.565043 C26.7696605,103.565043 25.0521921,105.282511 25.0521921,107.400785 L25.0521921,111.236527 C25.0521921,113.354801 26.7696605,115.07227 28.8879345,115.07227 L71.0811,115.07227 C73.199374,115.07227 74.9168427,113.354801 74.9168427,111.236527 L74.9168427,107.400785 C74.9168427,105.282511 73.199374,103.565043 71.0811,103.565043 L67.0206073,103.565043 L65.5822038,92.057816 L90.259812,92.057816 C95.5536227,92.0512607 99.842612,87.7622713 99.8491673,82.46846 L99.8491673,28.7680675 C99.842612,23.4742561 95.5536227,19.1852669 90.259812,19.1787116 Z M71.0811,111.236527 L28.8879345,111.236527 L28.8879345,107.400785 L71.0811,107.400785 L71.0811,111.236527 Z M63.1548981,103.565043 L36.8141363,103.565043 L38.2525397,92.057816 L61.7164947,92.057816 L63.1548981,103.565043 Z M90.259812,88.2220733 L9.70922273,88.2220733 C6.53181225,88.2220733 3.95560928,85.6458707 3.95560928,82.46846 L3.95560928,76.7148467 L96.0134253,76.7148467 L96.0134253,82.46846 C96.0134253,85.6458707 93.437222,88.2220733 90.259812,88.2220733 Z" id="Shape"></path>
            <polygon id="Path" points="84.506198 80.5505887 88.3419407 80.5505887 88.3419407 84.3863313 84.506198 84.3863313"></polygon>
            <path d="M65.3274866,30.6859385 C62.1500761,30.6859385 59.5738729,33.2621416 59.5738729,36.4395521 C59.5738729,39.6169627 62.1500761,42.1931655 65.3274866,42.1931655 C68.5048967,42.1931655 71.0811,39.6169627 71.0811,36.4395521 C71.0811,33.2621416 68.5048967,30.6859385 65.3274866,30.6859385 Z M65.3274866,38.3574232 C64.2683495,38.3574232 63.4096153,37.498689 63.4096153,36.4395521 C63.4096153,35.3804151 64.2683495,34.5216809 65.3274866,34.5216809 C66.3866235,34.5216809 67.2453573,35.3804151 67.2453573,36.4395521 C67.2453573,37.498689 66.3866235,38.3574232 65.3274866,38.3574232 Z" id="Shape"></path>
            <path d="M34.6415479,30.6859385 C31.4641373,30.6859385 28.8879345,33.2621416 28.8879345,36.4395521 C28.8879345,39.6169627 31.4641373,42.1931655 34.6415479,42.1931655 C37.8189584,42.1931655 40.3951615,39.6169627 40.3951615,36.4395521 C40.3951615,33.2621416 37.8189584,30.6859385 34.6415479,30.6859385 Z M34.6415479,38.3574232 C33.582411,38.3574232 32.7236768,37.498689 32.7236768,36.4395521 C32.7236768,35.3804151 33.582411,34.5216809 34.6415479,34.5216809 C35.7006847,34.5216809 36.5594191,35.3804151 36.5594191,36.4395521 C36.5594191,37.498689 35.7006847,38.3574232 34.6415479,38.3574232 Z" id="Shape"></path>
            <path d="M21.2164189,36.4395521 C21.2436071,43.5360497 26.7883899,49.3861189 33.8727139,49.7916062 C40.9579741,50.1980301 47.1348677,45.0203399 47.973,37.9734747 C49.2662519,38.4866548 50.7065282,38.4866548 51.9997801,37.9734747 C52.609416,43.3656141 56.4048907,47.8606247 61.6181665,49.3645801 C66.831442,50.8694723 72.4380313,49.0873878 75.8261453,44.8489677 C79.2142593,40.6105474 79.7180753,34.7501773 77.103478,29.9957672 L71.3760853,12.3509779 C71.032404,10.9940466 70.3094567,9.76353733 69.291524,8.802729 C68.665032,8.23897987 67.978606,7.74359207 67.2453573,7.3278036 L67.2453573,5.75361349 C67.2453573,2.57620297 64.6691548,0 61.4917443,0 L59.5738729,0 C56.3964625,0 53.8202596,2.57620297 53.8202596,5.75361349 L53.8202596,8.6819256 C53.7266134,8.76620693 53.644205,8.86078967 53.5514952,8.9469438 C51.4772352,7.24633147 48.4917993,7.24633147 46.417539,8.9469438 C46.3248294,8.86078967 46.2424208,8.76620693 46.1487749,8.6819256 L46.1487749,5.75361349 C46.1487749,2.57620297 43.5725718,0 40.3951615,0 L38.4772902,0 C35.2998797,0 32.7236768,2.57620297 32.7236768,5.75361349 L32.7236768,7.3296766 C31.9894916,7.74452867 31.3030663,8.23897987 30.6775105,8.802729 C29.6820529,9.73825313 28.9703428,10.9341131 28.622916,12.255459 L22.8693025,29.9957672 C21.7830083,31.9688895 21.2136403,34.186428 21.2164189,36.4395521 Z M34.6415479,46.0289079 C29.3458637,46.0289079 25.0521921,41.7352363 25.0521921,36.4395521 C25.0521921,31.1438677 29.3458637,26.8501962 34.6415479,26.8501962 C39.9372323,26.8501962 44.2309036,31.1438677 44.2309036,36.4395521 C44.2243483,41.7333634 39.9353591,46.0223526 34.6415479,46.0289079 Z M49.9845172,34.5216809 C48.9253804,34.5216809 48.0666459,33.6629467 48.0666459,32.6038098 C48.0666459,31.5446729 48.9253804,30.6859385 49.9845172,30.6859385 C51.0436541,30.6859385 51.9023883,31.5446729 51.9023883,32.6038098 C51.9023883,33.6629467 51.0436541,34.5216809 49.9845172,34.5216809 Z M65.3274866,46.0289079 C60.0318021,46.0289079 55.7381306,41.7352363 55.7381306,36.4395521 C55.7381306,31.1438677 60.0318021,26.8501962 65.3274866,26.8501962 C70.6231707,26.8501962 74.9168427,31.1438677 74.9168427,36.4395521 C74.9102873,41.7333634 70.621298,46.0223526 65.3274866,46.0289079 Z M71.2552813,24.4125895 C66.0579256,21.825149 59.7827038,22.8964598 55.7381306,27.0627729 L55.7381306,13.4250981 C55.7362579,13.0533234 55.6987995,12.6834214 55.6266919,12.3182017 C56.9761313,10.7177907 58.9220964,9.73825313 61.0113399,9.60714867 C63.1015199,9.47604413 65.1542414,10.2046103 66.692846,11.6242845 C67.193852,12.1206087 67.5422153,12.7499102 67.6957953,13.4382087 L71.2552813,24.4125895 Z M57.6560019,5.75361349 C57.6560019,4.69447658 58.5147361,3.83574232 59.5738729,3.83574232 L61.4917443,3.83574232 C62.5508811,3.83574232 63.4096153,4.69447658 63.4096153,5.75361349 L63.4096153,5.9315411 C62.7765679,5.81916584 62.1350926,5.76016878 61.4917443,5.75361349 C60.1844452,5.75829574 58.8874476,5.98491931 57.6560019,6.42505562 L57.6560019,5.75361349 Z M49.9845172,11.507227 C51.0436541,11.507227 51.9023883,12.3659612 51.9023883,13.4250981 L51.9023883,27.2032419 C50.6671969,26.7322021 49.3018375,26.7322021 48.0666459,27.2032419 L48.0666459,13.4250981 C48.0666459,12.3659612 48.9253804,11.507227 49.9845172,11.507227 Z M36.5594191,5.75361349 C36.5594191,4.69447658 37.4181533,3.83574232 38.4772902,3.83574232 L40.3951615,3.83574232 C41.4542983,3.83574232 42.3130325,4.69447658 42.3130325,5.75361349 L42.3130325,6.42505562 C41.0815869,5.98491931 39.784589,5.75829574 38.4772902,5.75361349 C37.8339419,5.76016878 37.1924663,5.81916584 36.5594191,5.9315411 L36.5594191,5.75361349 Z M32.2994601,13.3408168 C32.4567857,12.6881037 32.7948476,12.0934511 33.2761885,11.6261575 C34.8147931,10.2064834 36.8675146,9.47698053 38.9567579,9.608085 C41.0469378,9.73918947 42.9919663,10.7177907 44.3423426,12.3182017 C44.2702349,12.6834214 44.2327765,13.0533234 44.2309036,13.4250981 L44.2309036,27.0627729 C40.1863306,22.8955234 33.9092357,21.8242125 28.7118799,24.4144625 L32.2994601,13.3408168 Z" id="Shape"></path>
            <polygon id="Path" points="51.9023883 57.5361349 55.7381306 57.5361349 55.7381306 61.3718773 51.9023883 61.3718773"></polygon>
            <polygon id="Path" points="59.5738729 57.5361349 63.4096153 57.5361349 63.4096153 61.3718773 59.5738729 61.3718773"></polygon>
            <polygon id="Path" points="44.2309036 57.5361349 48.0666459 57.5361349 48.0666459 61.3718773 44.2309036 61.3718773"></polygon>
            <polygon id="Path" points="36.5594191 57.5361349 40.3951615 57.5361349 40.3951615 61.3718773 36.5594191 61.3718773"></polygon>
        </g>
    </g>
</svg>