<?xml version="1.0" encoding="UTF-8"?>
<svg width="100px" height="90px" viewBox="0 0 100 90" version="1.1" xmlns="http://www.w3.org/2000/svg" xmlns:xlink="http://www.w3.org/1999/xlink">
    <title>read</title>
    <g id="Page-1" stroke="none" stroke-width="1" fill="none" fill-rule="evenodd">
        <g id="read" fill="#979797" fill-rule="nonzero">
            <path d="M13.3333333,20.0463867 L10,20.0463867 L10,68.3333333 C10,69.2537433 10.7462565,70 11.6666667,70 L43.3333333,70 L43.3333333,66.6666667 L13.3333333,66.6666667 L13.3333333,20.0463867 Z" id="Path"></path>
            <polygon id="Path" points="21.6666667 25 25 25 25 28.3333333 21.6666667 28.3333333"></polygon>
            <polygon id="Path" points="28.3333333 25 41.6666667 25 41.6666667 28.3333333 28.3333333 28.3333333"></polygon>
            <polygon id="Path" points="21.6666667 31.6666667 41.6666667 31.6666667 41.6666667 35 21.6666667 35"></polygon>
            <polygon id="Path" points="21.6666667 38.3333333 41.6666667 38.3333333 41.6666667 41.6666667 21.6666667 41.6666667"></polygon>
            <polygon id="Path" points="21.6666667 45 41.6666667 45 41.6666667 48.3333333 21.6666667 48.3333333"></polygon>
            <path d="M83.3333333,65 C84.2537433,65 85,64.2537435 85,63.3333333 L85,16.6666667 C85,15.7462565 84.2537433,15 83.3333333,15 L53.3333333,15 C52.4129231,15 51.6666667,15.7462565 51.6666667,16.6666667 L51.6666667,18.3333333 L48.3333333,18.3333333 L48.3333333,16.6666667 C48.3333333,15.7462565 47.5870769,15 46.6666667,15 L16.6666667,15 C15.7462565,15 15,15.7462565 15,16.6666667 L15,63.3333333 C15,64.2537435 15.7462565,65 16.6666667,65 L45,65 L45,66.6666667 C45,69.4278973 47.2387696,71.6666667 50,71.6666667 C52.7612304,71.6666667 55,69.4278973 55,66.6666667 L55,65 L83.3333333,65 Z M55,18.3333333 L81.6666667,18.3333333 L81.6666667,61.6666667 L55,61.6666667 L55,18.3333333 Z M18.3333333,61.6666667 L18.3333333,18.3333333 L45,18.3333333 L45,61.6666667 L18.3333333,61.6666667 Z M51.6666667,66.6666667 C51.6666667,67.5870767 50.9204102,68.3333333 50,68.3333333 C49.0795898,68.3333333 48.3333333,67.5870767 48.3333333,66.6666667 L48.3333333,21.6666667 L51.6666667,21.6666667 L51.6666667,66.6666667 Z" id="Shape"></path>
            <path d="M90,68.3333333 L90,20.0463867 L86.6666667,20.0463867 L86.6666667,66.6666667 L56.6666667,66.6666667 L56.6666667,70 L88.3333333,70 C89.2537433,70 90,69.2537433 90,68.3333333 Z" id="Path"></path>
            <polygon id="Path" points="68.3333333 25 78.3333333 25 78.3333333 28.3333333 68.3333333 28.3333333"></polygon>
            <polygon id="Path" points="58.3333333 25 65 25 65 28.3333333 58.3333333 28.3333333"></polygon>
            <polygon id="Path" points="58.3333333 31.6666667 78.3333333 31.6666667 78.3333333 35 58.3333333 35"></polygon>
            <polygon id="Path" points="58.3333333 38.3333333 78.3333333 38.3333333 78.3333333 41.6666667 58.3333333 41.6666667"></polygon>
            <polygon id="Path" points="58.3333333 45 78.3333333 45 78.3333333 48.3333333 58.3333333 48.3333333"></polygon>
            <polygon id="Path" points="21.6666667 51.6666667 41.6666667 51.6666667 41.6666667 55 21.6666667 55"></polygon>
            <polygon id="Path" points="58.3333333 51.6666667 78.3333333 51.6666667 78.3333333 55 58.3333333 55"></polygon>
            <path d="M84.0234373,6.66666667 L86.6666667,6.66666667 L86.6666667,3.33333333 L83.3333333,3.33333333 C82.8914387,3.33333333 82.467448,3.50911459 82.154948,3.82161459 L75.4882813,10.4882813 L77.845052,12.8450521 L84.0234373,6.66666667 Z" id="Path"></path>
            <path d="M95,10 C97.7612307,10 100,7.7612304 100,5 C100,2.23876958 97.7612307,0 95,0 C92.2387693,0 90,2.23876958 90,5 C90,7.7612304 92.2387693,10 95,10 Z M95,3.33333333 C95.92041,3.33333333 96.6666667,4.07958979 96.6666667,5 C96.6666667,5.92041021 95.92041,6.66666667 95,6.66666667 C94.07959,6.66666667 93.3333333,5.92041021 93.3333333,5 C93.3333333,4.07958979 94.07959,3.33333333 95,3.33333333 Z" id="Shape"></path>
            <path d="M1.66666667,10 L8.33333333,10 C9.25374353,10 10,9.25374353 10,8.33333333 L10,1.66666667 C10,0.74625646 9.25374353,0 8.33333333,0 L1.66666667,0 C0.74625646,0 0,0.74625646 0,1.66666667 L0,8.33333333 C0,9.25374353 0.74625646,10 1.66666667,10 Z M3.33333333,3.33333333 L6.66666667,3.33333333 L6.66666667,6.66666667 L3.33333333,6.66666667 L3.33333333,3.33333333 Z" id="Shape"></path>
            <path d="M28.3333333,11.6666667 L31.6666667,11.6666667 L31.6666667,5 C31.6666667,4.07958979 30.9204102,3.33333333 30,3.33333333 L13.3333333,3.33333333 L13.3333333,6.66666667 L28.3333333,6.66666667 L28.3333333,11.6666667 Z" id="Path"></path>
            <path d="M24.3098959,81.6666667 L20,81.6666667 L20,85 L25,85 C25.4418946,85 25.8658854,84.8242187 26.1783854,84.5117187 L34.5117187,76.1783853 L32.1549479,73.8216147 L24.3098959,81.6666667 Z" id="Path"></path>
            <polygon id="Path" points="6.66666667 81.6666667 16.6666667 81.6666667 16.6666667 85 6.66666667 85"></polygon>
            <polygon id="Path" points="6.66666667 86.6666667 16.6666667 86.6666667 16.6666667 90 6.66666667 90"></polygon>
            <path d="M73.3333333,73.3333333 L70,73.3333333 L70,80 C70,80.4418947 70.1757813,80.8658853 70.4882813,81.1783853 L75.4882813,86.1783853 L77.845052,83.8216147 L73.3333333,79.309896 L73.3333333,73.3333333 Z" id="Path"></path>
            <polygon id="Path" points="81.6666667 81.6666667 91.6666667 81.6666667 91.6666667 85 81.6666667 85"></polygon>
            <polygon id="Path" points="81.6666667 86.6666667 91.6666667 86.6666667 91.6666667 90 81.6666667 90"></polygon>
            <polygon id="Path" points="93.3333333 41.6666667 100 41.6666667 100 45 93.3333333 45"></polygon>
            <polygon id="Path" points="92.154948 33.8216146 97.1557613 28.8216146 99.5125327 31.1783854 94.5125327 36.1783854"></polygon>
            <polygon id="Path" points="92.1557613 52.8450521 94.513346 50.4882813 99.513346 55.4882813 97.1565753 57.8458658"></polygon>
            <polygon id="Path" points="0 41.6666667 6.66666667 41.6666667 6.66666667 45 0 45"></polygon>
            <polygon id="Path" points="0.489095 31.1791991 2.84586583 28.8224283 7.8466796 33.8224283 5.489095 36.1800129"></polygon>
            <polygon id="Path" points="0.4874675 55.4874675 5.48828125 50.4866537 7.84505207 52.8434246 2.84505208 57.8442383"></polygon>
        </g>
    </g>
</svg>