<?xml version="1.0" encoding="UTF-8"?>
<svg width="100px" height="100px" viewBox="0 0 100 100" version="1.1" xmlns="http://www.w3.org/2000/svg" xmlns:xlink="http://www.w3.org/1999/xlink">
    <title>solution</title>
    <g id="Page-1" stroke="none" stroke-width="1" fill="none" fill-rule="evenodd">
        <g id="solution" fill="#979797" fill-rule="nonzero">
            <polygon id="Path" points="54.8387097 70.967742 58.0645161 70.967742 58.0645161 74.1935487 54.8387097 74.1935487"></polygon>
            <polygon id="Path" points="41.9354839 70.967742 45.1612903 70.967742 45.1612903 74.1935487 41.9354839 74.1935487"></polygon>
            <polygon id="Path" points="48.3870968 70.967742 51.6129032 70.967742 51.6129032 74.1935487 48.3870968 74.1935487"></polygon>
            <path d="M50,29.0322581 C41.1064516,29.0322581 33.8709677,36.2677419 33.8709677,45.1612903 C33.8709677,54.0548387 41.1064516,61.2903226 50,61.2903226 C58.8935484,61.2903226 66.1290323,54.0548387 66.1290323,45.1612903 C66.1290323,36.2677419 58.8935484,29.0322581 50,29.0322581 Z M50,58.0645161 C49.4951613,58.0645161 48.4145161,56.4145161 47.6419355,53.2258065 L52.3580645,53.2258065 C51.5854839,56.4145161 50.5048387,58.0645161 50,58.0645161 Z M47.066129,50 C46.9419355,49.0096774 46.85,47.9403226 46.8064516,46.7741935 L53.1967742,46.7741935 C53.1532258,47.9403226 53.0596774,49.0096774 52.9370968,50 L47.066129,50 Z M50,32.2580645 C50.5048387,32.2580645 51.5854839,33.9080645 52.3580645,37.0967742 L47.6419355,37.0967742 C48.4145161,33.9080645 49.4951613,32.2580645 50,32.2580645 L50,32.2580645 Z M52.933871,40.3225807 C53.0580645,41.3129032 53.15,42.3822581 53.1935484,43.5483871 L46.8032258,43.5483871 C46.8467742,42.3822581 46.9403226,41.3129032 47.0629032,40.3225807 L52.933871,40.3225807 Z M43.5790323,43.5483871 L37.2080645,43.5483871 C37.35,42.4225807 37.6322581,41.3403226 38.0467742,40.3225807 L43.8193549,40.3225807 C43.7,41.3822581 43.6177419,42.4629032 43.5790323,43.5483871 Z M37.2080645,46.7741935 L43.5790323,46.7741935 C43.6177419,47.8596774 43.7,48.9403226 43.8193549,50 L38.0467742,50 C37.633871,48.9822581 37.35,47.9 37.2080645,46.7741935 Z M56.4209677,46.7741935 L62.7919355,46.7741935 C62.65,47.9 62.3677419,48.9822581 61.9532258,50 L56.1806451,50 C56.3,48.9403226 56.3822581,47.8596774 56.4209677,46.7741935 Z M56.4209677,43.5483871 C56.3822581,42.4629032 56.3,41.3822581 56.1806451,40.3225807 L61.9532258,40.3225807 C62.366129,41.3403226 62.65,42.4225807 62.7919355,43.5483871 L56.4209677,43.5483871 Z M60.0564516,37.0967742 L55.6709677,37.0967742 C55.3612903,35.6145161 54.9612903,34.2403226 54.4580645,33.0677419 C56.6725807,33.8870968 58.6032258,35.2887097 60.0564516,37.0967742 Z M45.5419355,33.0677419 C45.0387097,34.2403226 44.6387097,35.6145161 44.3290323,37.0967742 L39.9435484,37.0967742 C41.3967742,35.2887097 43.3274193,33.8870968 45.5419355,33.0677419 Z M39.9435484,53.2258065 L44.3290323,53.2258065 C44.6387097,54.7080645 45.0387097,56.0822581 45.5419355,57.2548387 C43.3274193,56.4354839 41.3967742,55.033871 39.9435484,53.2258065 Z M54.4580645,57.2548387 C54.9612903,56.0822581 55.3612903,54.7080645 55.6709677,53.2258065 L60.0564516,53.2258065 C58.6032258,55.033871 56.6725807,56.4354839 54.4580645,57.2548387 Z" id="Shape"></path>
            <path d="M100,23.8129032 L100,14.8983871 L95.7661293,13.7403226 C95.6274193,13.3709677 95.4741933,13.0032258 95.3048387,12.6370968 L97.482258,8.81935487 L91.179032,2.51774193 L87.364516,4.69677419 C87,4.52903226 86.6306453,4.37419355 86.2596773,4.23548387 L85.1016127,0 L76.18871,0 L75.0306453,4.23387097 C74.6596773,4.37258065 74.2903227,4.52741935 73.9258067,4.69516129 L70.11129,2.51612903 L63.8080645,8.81774193 L65.9854839,12.6354839 C65.8177419,13.0016129 65.6629032,13.3693549 65.5241935,13.7387097 L61.2903226,14.8967742 L61.2903226,16.1290323 L38.7096774,16.1290323 L38.7096774,0 L-1.89478063e-14,0 L-1.89478063e-14,32.2580645 L6.4516129,32.2580645 L6.4516129,50.8419355 C2.56451613,53.4483871 -1.89478063e-14,57.8806451 -1.89478063e-14,62.9032258 L-1.89478063e-14,63.2145161 C-1.89478063e-14,66.4983871 1.12903226,69.717742 3.18064516,72.2838707 L6.4516129,76.3725807 L6.4516129,79.032258 C6.4516129,83.479032 10.0693549,87.096774 14.516129,87.096774 C18.4096774,87.096774 21.6677419,84.320968 22.4177419,80.6451613 L33.4177419,80.6451613 L30.9983871,90.3225807 L25.8064516,90.3225807 C23.1387097,90.3225807 20.9677419,92.4935487 20.9677419,95.16129 L20.9677419,100 L79.032258,100 L79.032258,95.16129 C79.032258,92.4935487 76.86129,90.3225807 74.1935487,90.3225807 L69.0016127,90.3225807 L66.5822581,80.6451613 L85.4838707,80.6451613 C89.3774193,80.6451613 92.635484,77.8693547 93.385484,74.1935487 L95.16129,74.1935487 C97.829032,74.1935487 100,72.0225807 100,69.3548387 L100,56.4516129 C100,53.783871 97.829032,51.6129032 95.16129,51.6129032 L93.5483873,51.6129032 L93.5483873,33.8241935 L97.482258,29.8903226 L95.3048387,26.0725807 C95.4725807,25.7064516 95.6274193,25.3387097 95.7661293,24.9693549 L100,23.8129032 Z M83.870968,49.3322581 L80.8403227,46.3 C80.114516,45.5774193 79.11129,45.1612903 78.0870967,45.1612903 C75.9403227,45.1612903 74.1935487,46.9080645 74.1935487,49.0548387 L74.1935487,51.6129032 L72.5806453,51.6129032 C69.9129033,51.6129032 67.7419353,53.783871 67.7419353,56.4516129 L67.7419353,64.516129 L28.9709677,64.516129 C29.0096774,64.083871 29.0322581,63.65 29.0322581,63.2145161 L29.0322581,62.9032258 C29.0322581,55.4435484 23.3758065,49.2870968 16.1290323,48.4822581 L16.1290323,32.2580645 L38.7096774,32.2580645 L38.7096774,25.8064516 L65.8741935,25.8064516 C65.9129032,25.8951613 65.9451613,25.983871 65.9854839,26.0725807 L63.8080645,29.8903226 L70.11129,36.1919355 L73.9258067,34.0129032 C74.2903227,34.1806451 74.6596773,34.3354839 75.0306453,34.4741935 L76.18871,38.7096774 L83.870968,38.7096774 L83.870968,49.3322581 Z M35.483871,27.4774193 L25.2387097,20.0258065 C25.4387097,19.8129032 25.6290323,19.5903226 25.8064516,19.3548387 L35.483871,6.4516129 L35.483871,27.4774193 Z M23.2258065,17.4193549 C22.3177419,18.6322581 20.8693549,19.3548387 19.3548387,19.3548387 C17.8403226,19.3548387 16.3919355,18.6322581 15.483871,17.4209677 L4.83709677,3.22580645 L33.8709677,3.22580645 L23.2258065,17.4193549 Z M12.9032258,19.3564516 C13.0806451,19.5919355 13.2709677,19.8145161 13.4709677,20.0274193 L3.22580645,27.4774193 L3.22580645,6.4516129 L12.9032258,19.3564516 Z M16.2967742,21.9612903 C17.2580645,22.3564516 18.2951613,22.5806451 19.3548387,22.5806451 C20.4145161,22.5806451 21.45,22.3564516 22.4129032,21.9612903 L32.1370968,29.0322581 L6.57258065,29.0322581 L16.2967742,21.9612903 Z M61.2903226,19.3548387 L61.2903226,22.5806451 L38.7096774,22.5806451 L38.7096774,19.3548387 L61.2903226,19.3548387 Z M9.67741933,32.2580645 L12.9032258,32.2580645 L12.9032258,48.4822581 C11.783871,48.6064516 10.7064516,48.8693549 9.67741933,49.233871 L9.67741933,32.2580645 Z M5.7,70.267742 C4.10483871,68.2741933 3.22580645,65.7677419 3.22580645,63.2145161 L3.22580645,62.9032258 C3.22580645,56.6790323 8.2903226,51.6129032 14.516129,51.6129032 C20.7419355,51.6129032 25.8064516,56.6790323 25.8064516,62.9032258 L25.8064516,63.2145161 C25.8064516,65.7677419 24.9274193,68.2741933 23.3322581,70.267742 L20.1935484,74.1935487 L16.1290323,74.1935487 L16.1290323,67.4451613 C18.0016129,66.7774193 19.3548387,65.0032258 19.3548387,62.9032258 C19.3548387,60.2354839 17.183871,58.0645161 14.516129,58.0645161 C11.8483871,58.0645161 9.67741933,60.2354839 9.67741933,62.9032258 C9.67741933,65.0032258 11.0306451,66.7774193 12.9032258,67.4451613 L12.9032258,74.1935487 L8.83870967,74.1935487 L5.7,70.267742 Z M12.9032258,62.9032258 C12.9032258,62.0129032 13.6274193,61.2903226 14.516129,61.2903226 C15.4048387,61.2903226 16.1290323,62.0129032 16.1290323,62.9032258 C16.1290323,63.7935484 15.4048387,64.516129 14.516129,64.516129 C13.6274193,64.516129 12.9032258,63.7935484 12.9032258,62.9032258 Z M14.516129,83.870968 C11.8483871,83.870968 9.67741933,81.7 9.67741933,79.032258 L9.67741933,77.4193547 L19.3548387,77.4193547 L19.3548387,79.032258 C19.3548387,81.7 17.183871,83.870968 14.516129,83.870968 Z M75.8064513,95.16129 L75.8064513,96.7741933 L24.1935484,96.7741933 L24.1935484,95.16129 C24.1935484,94.270968 24.9177419,93.5483873 25.8064516,93.5483873 L74.1935484,93.5483873 C75.082258,93.5483873 75.8064513,94.270968 75.8064513,95.16129 Z M65.6758065,90.3225807 L34.3241935,90.3225807 L36.7435484,80.6451613 L63.2564516,80.6451613 L65.6758065,90.3225807 Z M85.4838707,77.4193547 L22.5806451,77.4193547 L22.5806451,76.3725807 L25.8516129,72.285484 C26.9387097,70.9258067 27.7580645,69.3806453 28.2951613,67.7435487 L67.7419353,67.7435487 L67.7419353,69.3564513 C67.7419353,72.0241933 69.9129033,74.1951613 72.5806451,74.1951613 L90.0258067,74.1951613 C89.3580647,76.0661293 87.5838707,77.4193547 85.4838707,77.4193547 Z M96.7741933,56.4516129 L96.7741933,69.3548387 C96.7741933,70.2451613 96.05,70.967742 95.16129,70.967742 L72.5806453,70.967742 C71.6919353,70.967742 70.967742,70.2451613 70.967742,69.3548387 L70.967742,56.4516129 C70.967742,55.5612903 71.6919353,54.8387097 72.5806453,54.8387097 L77.4193547,54.8387097 L77.4193547,49.0548387 C77.4193547,48.5112903 78.1725807,48.1983871 78.5596773,48.5822581 L84.8161293,54.8387097 L95.16129,54.8387097 C96.05,54.8387097 96.7741933,55.5612903 96.7741933,56.4516129 Z M87.096774,51.6129032 L87.096774,34.1258065 C87.185484,34.0870968 87.2758067,34.0548387 87.364516,34.0145161 L90.3225807,35.7032258 L90.3225807,51.6129032 L87.096774,51.6129032 Z M93.2370967,22.3177419 L92.9758067,23.1629032 C92.746774,23.9032258 92.4370967,24.6483871 92.053226,25.3741935 L91.6403227,26.1564516 L93.46129,29.3483871 L90.63871,32.1693549 L87.446774,30.3467742 L86.6629033,30.7629032 C85.9451613,31.1435484 85.2016127,31.4548387 84.4548387,31.6854839 L83.6080647,31.9451613 L82.6403227,35.483871 L78.65,35.483871 L77.682258,31.9467742 L76.835484,31.6870968 C76.08871,31.4548387 75.3451613,31.1451613 74.6274193,30.7645161 L73.8435487,30.3483871 L70.6516127,32.1709677 L67.829032,29.35 L69.65,26.1580645 L69.2370967,25.3758065 C68.853226,24.65 68.5435487,23.9048387 68.314516,23.1645161 L68.053226,22.3193549 L64.516129,21.3483871 L64.516129,17.3596774 L68.053226,16.3903226 L68.314516,15.5451613 C68.5435487,14.8048387 68.853226,14.0596774 69.2370967,13.333871 L69.65,12.5516129 L67.829032,9.3596774 L70.6516127,6.53870968 L73.8435487,8.36129033 L74.6274193,7.94516127 C75.3451613,7.56451613 76.08871,7.2532258 76.835484,7.02258067 L77.682258,6.7629032 L78.65,3.22580645 L82.6403227,3.22580645 L83.6080647,6.7629032 L84.4548387,7.02258067 C85.2016127,7.25483873 85.9451613,7.56451613 86.6629033,7.94516127 L87.446774,8.36129033 L90.63871,6.53870968 L93.46129,9.3596774 L91.6403227,12.5516129 L92.053226,13.333871 C92.4370967,14.0596774 92.746774,14.8048387 92.9758067,15.5451613 L93.2370967,16.3903226 L96.7741933,17.3612903 L96.7741933,21.35 L93.2370967,22.3177419 Z" id="Shape"></path>
            <path d="M80.6451613,9.67741933 C75.3080647,9.67741933 70.967742,14.0177419 70.967742,19.3548387 C70.967742,24.6919355 75.3080647,29.0322581 80.6451613,29.0322581 C85.982258,29.0322581 90.3225807,24.6919355 90.3225807,19.3548387 C90.3225807,14.0177419 85.982258,9.67741933 80.6451613,9.67741933 Z M80.6451613,25.8064516 C77.0870967,25.8064516 74.1935487,22.9129032 74.1935487,19.3548387 C74.1935487,15.7967742 77.0870967,12.9032258 80.6451613,12.9032258 C84.203226,12.9032258 87.096774,15.7967742 87.096774,19.3548387 C87.096774,22.9129032 84.203226,25.8064516 80.6451613,25.8064516 Z" id="Shape"></path>
            <polygon id="Path" points="74.1935487 64.516129 87.096774 64.516129 87.096774 67.7419353 74.1935487 67.7419353"></polygon>
            <polygon id="Path" points="90.3225807 64.516129 93.5483873 64.516129 93.5483873 67.7419353 90.3225807 67.7419353"></polygon>
            <polygon id="Path" points="74.1935487 58.0645161 93.5483873 58.0645161 93.5483873 61.2903226 74.1935487 61.2903226"></polygon>
        </g>
    </g>
</svg>