<?xml version="1.0" encoding="UTF-8"?>
<svg width="100px" height="100px" viewBox="0 0 100 100" version="1.1" xmlns="http://www.w3.org/2000/svg" xmlns:xlink="http://www.w3.org/1999/xlink">
    <title>talk</title>
    <g id="Page-1" stroke="none" stroke-width="1" fill="none" fill-rule="evenodd">
        <g id="talk" fill="#979797" fill-rule="nonzero">
            <path d="M1.66666667,16.6666667 L26.6666667,16.6666667 L26.6666667,20 C26.6666667,20.6730144 27.0735677,21.2817383 27.6953125,21.5397135 C27.9020183,21.6251627 28.1184896,21.6666667 28.3333333,21.6666667 C28.7662761,21.6666667 29.1935221,21.4965821 29.5117187,21.1783854 L34.0234375,16.6666667 L38.3333333,16.6666667 C39.2529296,16.6666667 40,15.9195963 40,15 L40,1.66666667 C40,0.747070413 39.2529296,0 38.3333333,0 L1.66666667,0 C0.74707042,0 0,0.747070413 0,1.66666667 L0,15 C0,15.9195963 0.74707042,16.6666667 1.66666667,16.6666667 Z M3.33333333,3.33333333 L36.6666667,3.33333333 L36.6666667,13.3333333 L33.3333333,13.3333333 C32.8914387,13.3333333 32.4666342,13.5083008 32.1549479,13.8216146 L30,15.9765625 L30,15 C30,14.0804037 29.2529296,13.3333333 28.3333333,13.3333333 L3.33333333,13.3333333 L3.33333333,3.33333333 Z" id="Shape"></path>
            <path d="M65,13.3333333 L72.6432293,13.3333333 L77.154948,17.8450521 C77.4731447,18.1632487 77.9003907,18.3333333 78.3333333,18.3333333 C78.5481773,18.3333333 78.7646487,18.2918294 78.971354,18.2063802 C79.5930987,17.948405 80,17.3396811 80,16.6666667 L80,13.3333333 L88.3333333,13.3333333 C89.2529293,13.3333333 90,12.5862629 90,11.6666667 L90,1.66666667 C90,0.74707042 89.2529293,0 88.3333333,0 L65,0 C64.0804037,0 63.3333333,0.74707042 63.3333333,1.66666667 L63.3333333,11.6666667 C63.3333333,12.5862629 64.0804037,13.3333333 65,13.3333333 Z M66.6666667,3.33333333 L86.6666667,3.33333333 L86.6666667,10 L78.3333333,10 C77.4137373,10 76.6666667,10.7470704 76.6666667,11.6666667 L76.6666667,12.6432292 L74.5117187,10.4882813 C74.2000327,10.1749675 73.775228,10 73.3333333,10 L66.6666667,10 L66.6666667,3.33333333 Z" id="Shape"></path>
            <path d="M8.33333333,78.3333333 L8.33333333,100 L11.6666667,100 L11.6666667,78.3333333 L25,78.3333333 L25,98.3333333 C25,99.2529293 25.7470704,100 26.6666667,100 L36.6666667,100 C37.5862629,100 38.3333333,99.2529293 38.3333333,98.3333333 L38.3333333,73.3333333 C38.3333333,71.4501953 37.6814779,69.729818 36.6235352,68.3333333 L48.3333333,68.3333333 L48.3333333,96.6666667 L41.6666667,96.6666667 L41.6666667,100 L58.3333333,100 L58.3333333,96.6666667 L51.6666667,96.6666667 L51.6666667,68.3333333 L63.3365885,68.3333333 C62.2900391,69.7265627 61.6666667,71.4583333 61.6666667,73.3333333 L61.6666667,98.3333333 C61.6666667,99.2529293 62.4137371,100 63.3333333,100 L73.3333333,100 C74.2529293,100 75,99.2529293 75,98.3333333 L75,78.3333333 L88.3333333,78.3333333 L88.3333333,100 L91.6666667,100 L91.6666667,78.3333333 C96.2613933,78.3333333 100,74.5947267 100,70 L100,48.3333333 C100,44.6647135 97.6017253,41.5763346 94.301758,40.4679363 C96.7667647,38.3268229 98.3333333,35.1798502 98.3333333,31.6666667 C98.3333333,25.2335613 93.099772,20 86.6666667,20 C80.2335613,20 75,25.2335613 75,31.6666667 C75,35.1798502 76.5665687,38.3268229 79.0315753,40.4679363 C75.731608,41.5763346 73.3333333,44.6647135 73.3333333,48.3333333 L73.3333333,55 L60,55 C59.0804037,55 58.3333333,55.7470704 58.3333333,56.6666667 L58.3333333,65 L42.3136394,65 L46.5820313,52.1931967 L43.4195963,51.1385091 L38.7980144,65 L23.7451171,65 L26.3387044,53.3333333 L35,53.3333333 C35.4418946,53.3333333 35.8666992,53.1583659 36.1783854,52.8450521 L45.6901041,43.3333333 L46.8815104,43.3333333 C46.7399087,43.8736979 46.6666667,44.4335937 46.6666667,45 C46.6666667,48.6767579 49.6565754,51.6666667 53.3333333,51.6666667 C57.0100913,51.6666667 60,48.6767579 60,45 C60,44.4335937 59.9267579,43.8736979 59.7851563,43.3333333 L63.3333333,43.3333333 C64.2529296,43.3333333 65,42.5862629 65,41.6666667 L65,33.7003581 C65,33.0403646 64.6118165,32.4430337 64.0079752,32.1769206 C63.4082031,31.9116211 62.7034504,32.0231121 62.2135417,32.4650065 C61.5966796,33.0249023 60.8097331,33.3333333 60,33.3333333 C58.1616211,33.3333333 56.6666667,31.8383789 56.6666667,30 C56.6666667,28.1616211 58.1616211,26.6666667 60,26.6666667 C60.8097331,26.6666667 61.5966796,26.9750977 62.2151691,27.5349935 C62.7034504,27.9785156 63.4065754,28.0883789 64.0096029,27.8230794 C64.6118165,27.5569663 65,26.9580079 65,26.2996419 L65,18.3333333 C65,17.4137371 64.2529296,16.6666667 63.3333333,16.6666667 L59.7851563,16.6666667 C59.9267579,16.1263021 60,15.5664063 60,15 C60,11.3232421 57.0100913,8.33333333 53.3333333,8.33333333 C49.6565754,8.33333333 46.6666667,11.3232421 46.6666667,15 C46.6666667,15.5664063 46.7399087,16.1263021 46.8815104,16.6666667 L43.3333333,16.6666667 C42.4137371,16.6666667 41.6666667,17.4137371 41.6666667,18.3333333 L41.6666667,29.3098959 L30.9765625,40 L26.4835613,40 C28.6499023,37.8800456 30,34.9300129 30,31.6666667 C30,25.2335613 24.7664387,20 18.3333333,20 C11.9002279,20 6.66666667,25.2335613 6.66666667,31.6666667 C6.66666667,35.2482096 8.2918294,38.4529623 10.8398437,40.5965169 C8.2299804,41.6284179 6.229655,43.9282227 5.69824209,46.8131511 L3.33333333,58.9119467 L3.33333333,45 L0,45 L0,70 C0,74.5947267 3.73860667,78.3333333 8.33333333,78.3333333 Z M78.3333333,31.6666667 C78.3333333,27.07194 82.07194,23.3333333 86.6666667,23.3333333 C91.2613933,23.3333333 95,27.07194 95,31.6666667 C95,36.2613933 91.2613933,40 86.6666667,40 C82.07194,40 78.3333333,36.2613933 78.3333333,31.6666667 Z M61.6666667,58.3333333 L75,58.3333333 C75.919596,58.3333333 76.6666667,57.5862629 76.6666667,56.6666667 L76.6666667,48.3333333 C76.6666667,45.5769856 78.9103187,43.3333333 81.6666667,43.3333333 L91.6666667,43.3333333 C94.4230147,43.3333333 96.6666667,45.5769856 96.6666667,48.3333333 L96.6666667,70 C96.6666667,72.756348 94.4230147,75 91.6666667,75 L73.3333333,75 C72.4137373,75 71.6666667,75.7470707 71.6666667,76.6666667 L71.6666667,96.6666667 L65,96.6666667 L65,73.3333333 C65,70.5769853 67.243652,68.3333333 70,68.3333333 L85,68.3333333 C85.919596,68.3333333 86.6666667,67.5862627 86.6666667,66.6666667 L86.6666667,51.6666667 L83.3333333,51.6666667 L83.3333333,65 L61.6666667,65 L61.6666667,58.3333333 Z M45,20 L49.6329752,20 C50.2929687,20 50.8902996,19.6118165 51.1564127,19.0079752 C51.4249675,18.4065754 51.3118489,17.7018229 50.8683269,17.2135417 C50.3084311,16.5966796 50,15.8097331 50,15 C50,13.1616211 51.4949544,11.6666667 53.3333333,11.6666667 C55.1717123,11.6666667 56.6666667,13.1616211 56.6666667,15 C56.6666667,15.8097331 56.3582356,16.5966796 55.7983398,17.2151692 C55.3548177,17.7034504 55.2433269,18.4065754 55.5102539,19.0096029 C55.7763671,19.6118165 56.3736979,20 57.0336915,20 L61.6666667,20 L61.6666667,23.5481771 C61.1263021,23.4065754 60.5664063,23.3333333 60,23.3333333 C56.3232421,23.3333333 53.3333333,26.3232421 53.3333333,30 C53.3333333,33.6767579 56.3232421,36.6666667 60,36.6666667 C60.5664063,36.6666667 61.1263021,36.5934246 61.6666667,36.4518229 L61.6666667,40 L57.0336915,40 C56.3736979,40 55.7763671,40.3881835 55.5102539,40.9920248 C55.2416991,41.5950521 55.3564454,42.2981771 55.7983398,42.7864583 C56.3582356,43.4033204 56.6666667,44.1902669 56.6666667,45 C56.6666667,46.8383789 55.1717123,48.3333333 53.3333333,48.3333333 C51.4949544,48.3333333 50,46.8383789 50,45 C50,44.1902669 50.3084311,43.4033204 50.8683269,42.7864583 C51.3118489,42.2981771 51.4249675,41.5950521 51.1564127,40.9920248 C50.8902996,40.3881835 50.2929687,40 49.6329752,40 L49.0234375,40 L51.1783854,37.8450521 C51.8302409,37.1931967 51.8302409,36.1401367 51.1783854,35.4882813 L45,29.3098959 L45,20 Z M10,31.6666667 C10,27.07194 13.7386067,23.3333333 18.3333333,23.3333333 C22.92806,23.3333333 26.6666667,27.07194 26.6666667,31.6666667 C26.6666667,36.2613933 22.92806,40 18.3333333,40 C13.7386067,40 10,36.2613933 10,31.6666667 Z M4.73470041,69.12028 L8.97135413,47.4348959 C9.40999353,45.0585937 11.4835613,43.3333333 13.8997396,43.3333333 L31.6666667,43.3333333 C32.1085613,43.3333333 32.5333659,43.1583659 32.8450521,42.8450521 L43.3333333,32.3567708 L47.6432292,36.6666667 L34.3098959,50 L25,50 C24.2179363,50 23.5416667,50.5436198 23.3732096,51.3053385 L20.0398763,66.3053385 C19.9300129,66.7985027 20.0496419,67.3152667 20.3670248,67.7083333 C20.6835937,68.1030273 21.1612956,68.3333333 21.6666667,68.3333333 L30,68.3333333 C32.7563477,68.3333333 35,70.5769853 35,73.3333333 L35,96.6666667 L28.3333333,96.6666667 L28.3333333,76.6666667 C28.3333333,75.7470707 27.5862629,75 26.6666667,75 L9.650065,75 C8.16650393,75 6.76839187,74.3448893 5.818685,73.2031253 C4.86328125,72.0597333 4.4718425,70.5647787 4.73470041,69.12028 Z" id="Shape"></path>
            <polygon id="Path" points="6.66666667 6.66666667 13.3333333 6.66666667 13.3333333 10 6.66666667 10"></polygon>
            <polygon id="Path" points="16.6666667 6.66666667 20 6.66666667 20 10 16.6666667 10"></polygon>
            <polygon id="Path" points="23.3333333 6.66666667 26.6666667 6.66666667 26.6666667 10 23.3333333 10"></polygon>
            <polygon id="Path" points="30 6.66666667 33.3333333 6.66666667 33.3333333 10 30 10"></polygon>
        </g>
    </g>
</svg>