<?xml version="1.0" encoding="UTF-8"?>
<svg width="100px" height="116px" viewBox="0 0 100 116" version="1.1" xmlns="http://www.w3.org/2000/svg" xmlns:xlink="http://www.w3.org/1999/xlink">
    <title>team-profiles</title>
    <g id="Page-1" stroke="none" stroke-width="1" fill="none" fill-rule="evenodd">
        <g id="team-profiles" fill="#979797" fill-rule="nonzero">
            <path d="M36.5594191,26.8501962 L28.8879345,26.8501962 L28.8879345,24.1054304 C32.3781227,22.5893007 34.6378021,19.1487449 34.6415479,15.3429693 L34.6415479,13.3848303 C37.0435691,11.5812074 38.4632433,8.75777887 38.4772902,5.75361349 L38.4772902,1.91787116 C38.4772902,0.858734247 37.618556,0 36.5594191,0 L21.2164497,0 C15.9226384,0.00655523569 11.6336492,4.2955445 11.6270939,9.5893558 L11.6270939,15.3429693 C11.6289667,19.1459355 13.890519,22.5836821 17.3807074,24.0923201 L17.3807074,26.8501962 L9.70922273,26.8501962 C4.41541146,26.8567517 0.126422231,31.1457407 0.119866947,36.4395521 L0.119866947,51.7825213 C0.119866947,52.8416584 0.978601193,53.7003926 2.03773811,53.7003926 L44.2309036,53.7003926 C45.2900407,53.7003926 46.1487749,52.8416584 46.1487749,51.7825213 L46.1487749,36.4395521 C46.1422196,31.1457407 41.8532304,26.8567517 36.5594191,26.8501962 Z M15.4628363,15.3429693 L15.4628363,9.5893558 C15.4628363,6.41194531 18.0390393,3.83574232 21.2164497,3.83574232 L34.6415497,3.83574232 L34.6415497,5.75361349 C34.6424842,7.80071607 33.544016,9.69142993 31.7647411,10.703744 C31.1728981,11.045552 30.8067419,11.6767263 30.8058055,12.3603426 L30.8058055,15.3429693 C30.8011232,17.6232507 29.4451285,19.6834639 27.3540119,20.5899577 C25.9586859,21.1958475 25.0550015,22.5715082 25.0521921,24.0923201 L25.0521921,26.8501962 L21.2164497,26.8501962 L21.2164497,24.0923201 C21.2117675,22.5715082 20.3090195,21.1967841 18.9146299,20.5880847 C16.8235133,19.6825273 15.4675185,17.6223141 15.4628363,15.3429693 Z M23.8666331,30.6859385 L23.1343209,32.1514993 L22.4020087,30.6859385 L23.8666331,30.6859385 Z M42.3130325,49.8646503 L38.4772902,49.8646503 L38.4772902,34.5216809 L34.6415479,34.5216809 L34.6415479,49.8646503 L11.6270939,49.8646503 L11.6270939,34.5216809 L7.7913516,34.5216809 L7.7913516,49.8646503 L3.95560928,49.8646503 L3.95560928,36.4395521 C3.95560928,33.2621416 6.53181225,30.6859385 9.70922273,30.6859385 L18.1130197,30.6859385 L21.4177888,37.2964137 C21.7418041,37.9481899 22.4066911,38.3592962 23.1343209,38.3592962 C23.8619507,38.3592962 24.5268378,37.9481899 24.8508531,37.2964137 L28.1556223,30.6859385 L36.5594191,30.6859385 C39.7368297,30.6859385 42.3130325,33.2621416 42.3130325,36.4395521 L42.3130325,49.8646503 Z" id="Shape"></path>
            <path d="M36.5594191,88.2220733 L28.8879345,88.2220733 L28.8879345,85.4773073 C32.3781227,83.961178 34.6378021,80.520622 34.6415479,76.7148467 L34.6415479,74.7567073 C37.0435691,72.9530847 38.4632433,70.129656 38.4772902,67.1254907 L38.4772902,63.2897483 C38.4772902,62.2306115 37.618556,61.3718773 36.5594191,61.3718773 L21.2164497,61.3718773 C15.9226384,61.3784325 11.6336492,65.6674218 11.6270939,70.9612333 L11.6270939,76.7148467 C11.6289667,80.5178127 13.890519,83.9555593 17.3807074,85.4641973 L17.3807074,88.2220733 L9.70922273,88.2220733 C4.41541146,88.2286287 0.126422231,92.517618 0.119866947,97.8114293 L0.119866947,113.154399 C0.119866947,114.213535 0.978601193,115.07227 2.03773811,115.07227 L44.2309036,115.07227 C45.2900407,115.07227 46.1487749,114.213535 46.1487749,113.154399 L46.1487749,97.8114293 C46.1422196,92.517618 41.8532304,88.2286287 36.5594191,88.2220733 Z M15.4628363,76.7148467 L15.4628363,70.9612333 C15.4628363,67.7838227 18.0390393,65.2076196 21.2164497,65.2076196 L34.6415497,65.2076196 L34.6415497,67.1254907 C34.6424842,69.1725933 33.544016,71.0633073 31.7647411,72.0756213 C31.1728981,72.4174293 30.8067419,73.0486033 30.8058055,73.73222 L30.8058055,76.7148467 C30.8011232,78.995128 29.4451285,81.0553413 27.3540119,81.9618347 C25.9586859,82.5677247 25.0550015,83.9433853 25.0521921,85.4641973 L25.0521921,88.2220733 L21.2164497,88.2220733 L21.2164497,85.4641973 C21.2117675,83.9433853 20.3090195,82.5686613 18.9146299,81.959962 C16.8235133,81.0544047 15.4675185,78.9941913 15.4628363,76.7148467 Z M23.8666331,92.057816 L23.1343209,93.5233767 L22.4020087,92.057816 L23.8666331,92.057816 Z M42.3130325,111.236527 L38.4772902,111.236527 L38.4772902,95.893558 L34.6415479,95.893558 L34.6415479,111.236527 L11.6270939,111.236527 L11.6270939,95.893558 L7.7913516,95.893558 L7.7913516,111.236527 L3.95560928,111.236527 L3.95560928,97.8114293 C3.95560928,94.6340187 6.53181225,92.057816 9.70922273,92.057816 L18.1130197,92.057816 L21.4177888,98.6682907 C21.7418041,99.3200673 22.4066911,99.7311733 23.1343209,99.7311733 C23.8619507,99.7311733 24.5268378,99.3200673 24.8508531,98.6682907 L28.1556223,92.057816 L36.5594191,92.057816 C39.7368297,92.057816 42.3130325,94.6340187 42.3130325,97.8114293 L42.3130325,111.236527 Z" id="Shape"></path>
            <polygon id="Path" points="53.8202596 49.8646503 69.1632287 49.8646503 69.1632287 53.7003926 53.8202596 53.7003926"></polygon>
            <polygon id="Path" points="72.9989713 49.8646503 80.670456 49.8646503 80.670456 53.7003926 72.9989713 53.7003926"></polygon>
            <polygon id="Path" points="84.506198 49.8646503 99.8491673 49.8646503 99.8491673 53.7003926 84.506198 53.7003926"></polygon>
            <polygon id="Path" points="53.8202596 38.3574232 99.8491673 38.3574232 99.8491673 42.1931655 53.8202596 42.1931655"></polygon>
            <polygon id="Path" points="53.8202596 26.8501962 61.4917443 26.8501962 61.4917443 30.6859385 53.8202596 30.6859385"></polygon>
            <polygon id="Path" points="65.3274866 26.8501962 72.9989713 26.8501962 72.9989713 30.6859385 65.3274866 30.6859385"></polygon>
            <polygon id="Path" points="76.8347133 26.8501962 92.1776827 26.8501962 92.1776827 30.6859385 76.8347133 30.6859385"></polygon>
            <polygon id="Path" points="96.0134253 26.8501962 99.8491673 26.8501962 99.8491673 30.6859385 96.0134253 30.6859385"></polygon>
            <polygon id="Path" points="53.8202596 111.236527 84.506198 111.236527 84.506198 115.07227 53.8202596 115.07227"></polygon>
            <polygon id="Path" points="88.3419407 111.236527 99.8491673 111.236527 99.8491673 115.07227 88.3419407 115.07227"></polygon>
            <polygon id="Path" points="53.8202596 99.7293007 69.1632287 99.7293007 69.1632287 103.565043 53.8202596 103.565043"></polygon>
            <polygon id="Path" points="72.9989713 99.7293007 76.8347133 99.7293007 76.8347133 103.565043 72.9989713 103.565043"></polygon>
            <polygon id="Path" points="80.670456 99.7293007 92.1776827 99.7293007 92.1776827 103.565043 80.670456 103.565043"></polygon>
            <polygon id="Path" points="96.0134253 99.7293007 99.8491673 99.7293007 99.8491673 103.565043 96.0134253 103.565043"></polygon>
            <polygon id="Path" points="53.8202596 88.2220733 80.670456 88.2220733 80.670456 92.057816 53.8202596 92.057816"></polygon>
            <polygon id="Path" points="84.506198 88.2220733 99.8491673 88.2220733 99.8491673 92.057816 84.506198 92.057816"></polygon>
        </g>
    </g>
</svg>