<?xml version="1.0" encoding="UTF-8"?>
<svg width="42px" height="30px" viewBox="0 0 42 30" version="1.1" xmlns="http://www.w3.org/2000/svg" xmlns:xlink="http://www.w3.org/1999/xlink">
    <!-- Generator: Sketch 43.2 (39069) - http://www.bohemiancoding.com/sketch -->
    <title>Artboard</title>
    <desc>Created with Sketch.</desc>
    <defs></defs>
    <g id="Page-1" stroke="none" stroke-width="1" fill="none" fill-rule="evenodd">
        <g id="Artboard" fill-rule="nonzero" fill="#979797">
            <g id="blog" transform="translate(7.000000, 1.000000)">
                <path d="M27.453125,6.8359375 C27.7551094,6.8359375 28,6.59110156 28,6.2890625 L28,0.546875 C28,0.244835937 27.7551094,0 27.453125,0 L0.546875,0 C0.244890625,0 0,0.244835937 0,0.546875 L0,27.453125 C0,27.7551094 0.244890625,28 0.546875,28 L26.2636719,28 C27.2210859,28 28,27.2210859 28,26.2636719 L28,11.0676016 C28,10.9844766 27.9810234,10.9025 27.9446016,10.8278516 L25.7571016,6.34347656 C25.6654453,6.15557031 25.4746953,6.03635156 25.265625,6.03635156 C25.0565547,6.03635156 24.86575,6.15557031 24.7741484,6.34347656 L22.5866484,10.8278516 C22.5502266,10.9025547 22.53125,10.9845312 22.53125,11.0676016 L22.53125,26.2636719 C22.53125,26.490625 22.5754922,26.7073516 22.6550078,26.90625 L1.09375,26.90625 L1.09375,5.02846094 C1.11179687,5.03026562 1.13011719,5.03125 1.14865625,5.03125 L26.90625,5.03125 L26.90625,6.2890625 C26.90625,6.59110156 27.1511406,6.8359375 27.453125,6.8359375 Z M25.265625,7.83059375 L26.5779062,10.5207266 L23.9533984,10.5207266 L25.265625,7.83059375 Z M23.625,11.6144766 L26.90625,11.6144766 L26.90625,23.8368594 L25.5755391,23.8368594 L25.5755391,19.1090156 C25.5755391,18.8069766 25.3306484,18.5621406 25.0286641,18.5621406 C24.7266797,18.5621406 24.4817891,18.8070312 24.4817891,19.1090156 L24.4817891,23.8368594 L23.625,23.8368594 L23.625,11.6144766 Z M23.625,24.9306094 L26.90625,24.9306094 L26.90625,26.2636719 C26.90625,26.6179922 26.6179922,26.90625 26.2636719,26.90625 L24.2675781,26.90625 C23.9132578,26.90625 23.625,26.6179922 23.625,26.2636719 L23.625,24.9306094 Z M1.14865625,3.9375 C1.13011719,3.9375 1.11179687,3.93848437 1.09375,3.94028906 L1.09375,1.09375 L26.90625,1.09375 L26.90625,3.9375 L1.14865625,3.9375 Z" id="Shape"></path>
                <path d="M24.5,1.96875 L12.1441797,1.96875 C11.8421953,1.96875 11.5973047,2.21358594 11.5973047,2.515625 C11.5973047,2.81766406 11.8421953,3.0625 12.1441797,3.0625 L24.5,3.0625 C24.8019844,3.0625 25.046875,2.81766406 25.046875,2.515625 C25.046875,2.21358594 24.8019844,1.96875 24.5,1.96875 Z" id="Shape"></path>
                <path d="M6.07408594,2.12898437 C5.97242188,2.02726562 5.83132812,1.96875 5.6875,1.96875 C5.54307031,1.96875 5.40257812,2.02726562 5.30085937,2.12898437 C5.19908594,2.23070312 5.140625,2.37179687 5.140625,2.515625 C5.140625,2.65945313 5.19908594,2.80054688 5.30085937,2.90226563 C5.40263281,3.00398438 5.54367187,3.0625 5.6875,3.0625 C5.83132812,3.0625 5.97242188,3.00398438 6.07408594,2.90226563 C6.17585938,2.80054688 6.234375,2.65945313 6.234375,2.515625 C6.234375,2.37179687 6.17585938,2.23070312 6.07408594,2.12898437 Z" id="Shape"></path>
                <path d="M3.88658594,2.12898437 C3.78492187,2.02726562 3.64382812,1.96875 3.5,1.96875 C3.35617187,1.96875 3.21507812,2.02726562 3.11335937,2.12898437 C3.01158594,2.23070312 2.953125,2.37179687 2.953125,2.515625 C2.953125,2.65945313 3.01158594,2.80054688 3.11335937,2.90226563 C3.21513281,3.00398438 3.35617187,3.0625 3.5,3.0625 C3.64382812,3.0625 3.78492187,3.00398438 3.88658594,2.90226563 C3.98835937,2.80054688 4.046875,2.65945313 4.046875,2.515625 C4.046875,2.37179687 3.98835937,2.23070312 3.88658594,2.12898437 Z" id="Shape"></path>
                <path d="M8.26158594,2.12898437 C8.15992187,2.02726562 8.01882812,1.96875 7.875,1.96875 C7.73117187,1.96875 7.59007812,2.02726562 7.48835938,2.12898437 C7.38664063,2.23070312 7.328125,2.37179687 7.328125,2.515625 C7.328125,2.65945313 7.38658594,2.80054688 7.48835938,2.90226563 C7.59013281,3.00398438 7.73117187,3.0625 7.875,3.0625 C8.01882812,3.0625 8.15992187,3.00398438 8.26158594,2.90226563 C8.36335937,2.80054688 8.421875,2.65945313 8.421875,2.515625 C8.421875,2.37179687 8.36335937,2.23070312 8.26158594,2.12898437 Z" id="Shape"></path>
                <path d="M11.15625,6.5625 L3.5,6.5625 C3.19801563,6.5625 2.953125,6.80733594 2.953125,7.109375 L2.953125,14.984375 C2.953125,15.2863594 3.19801563,15.53125 3.5,15.53125 L11.15625,15.53125 C11.4582344,15.53125 11.703125,15.2863594 11.703125,14.984375 L11.703125,7.109375 C11.703125,6.80733594 11.4582344,6.5625 11.15625,6.5625 Z M10.609375,14.4375 L4.046875,14.4375 L4.046875,7.65625 L10.609375,7.65625 L10.609375,14.4375 Z" id="Shape"></path>
                <path d="M25.0286641,16.8623437 C24.7266797,16.8623437 24.4817891,17.1072344 24.4817891,17.4092187 L24.4817891,17.4157812 C24.4817891,17.7177656 24.7266797,17.9626562 25.0286641,17.9626562 C25.3306484,17.9626562 25.5755391,17.7177656 25.5755391,17.4157812 L25.5755391,17.4092187 C25.5755391,17.1072344 25.3306484,16.8623437 25.0286641,16.8623437 Z" id="Shape"></path>
                <path d="M20.7424766,6.5625 L13.7265625,6.5625 C13.4245781,6.5625 13.1796875,6.80733594 13.1796875,7.109375 C13.1796875,7.41141406 13.4245781,7.65625 13.7265625,7.65625 L20.7424766,7.65625 C21.0444609,7.65625 21.2893516,7.41141406 21.2893516,7.109375 C21.2893516,6.80733594 21.0444609,6.5625 20.7424766,6.5625 Z" id="Shape"></path>
                <path d="M20.7424766,9.1875 L13.7265625,9.1875 C13.4245781,9.1875 13.1796875,9.43233594 13.1796875,9.734375 C13.1796875,10.0364141 13.4245781,10.28125 13.7265625,10.28125 L20.7424766,10.28125 C21.0444609,10.28125 21.2893516,10.0364141 21.2893516,9.734375 C21.2893516,9.43233594 21.0444609,9.1875 20.7424766,9.1875 Z" id="Shape"></path>
                <path d="M20.7424766,11.8125 L13.7265625,11.8125 C13.4245781,11.8125 13.1796875,12.0573359 13.1796875,12.359375 C13.1796875,12.6614141 13.4245781,12.90625 13.7265625,12.90625 L20.7424766,12.90625 C21.0444609,12.90625 21.2893516,12.6614141 21.2893516,12.359375 C21.2893516,12.0573359 21.0444609,11.8125 20.7424766,11.8125 Z" id="Shape"></path>
                <path d="M16.4186094,14.4375 L13.7265625,14.4375 C13.4245781,14.4375 13.1796875,14.6823906 13.1796875,14.984375 C13.1796875,15.2863594 13.4245781,15.53125 13.7265625,15.53125 L16.4186094,15.53125 C16.7205937,15.53125 16.9654844,15.2863594 16.9654844,14.984375 C16.9654844,14.6823906 16.7205937,14.4375 16.4186094,14.4375 Z" id="Shape"></path>
                <path d="M20.7424766,18.15625 L14.1367734,18.15625 C13.8347891,18.15625 13.5898984,18.4011406 13.5898984,18.703125 C13.5898984,19.0051094 13.8347891,19.25 14.1367734,19.25 L20.7424766,19.25 C21.0444609,19.25 21.2893516,19.0051094 21.2893516,18.703125 C21.2893516,18.4011406 21.0444609,18.15625 20.7424766,18.15625 Z" id="Shape"></path>
                <path d="M11.1561406,18.15625 L6.07315625,18.15625 C5.77117187,18.15625 5.52628125,18.4011406 5.52628125,18.703125 C5.52628125,19.0051094 5.77117187,19.25 6.07315625,19.25 L11.1561406,19.25 C11.458125,19.25 11.7030156,19.0051094 11.7030156,18.703125 C11.7030156,18.4011406 11.4581797,18.15625 11.1561406,18.15625 Z" id="Shape"></path>
                <path d="M3.88658594,18.3164844 C3.78492187,18.2147109 3.64382812,18.15625 3.5,18.15625 C3.35617187,18.15625 3.21507812,18.2147109 3.11335937,18.3164844 C3.01164063,18.4182578 2.953125,18.5592969 2.953125,18.703125 C2.953125,18.8469531 3.01158594,18.9880469 3.11335937,19.0897109 C3.21507812,19.1914844 3.35617187,19.25 3.5,19.25 C3.64382812,19.25 3.78492187,19.1914844 3.88658594,19.0897109 C3.98835937,18.9880469 4.046875,18.8469531 4.046875,18.703125 C4.046875,18.5592969 3.98835937,18.4182031 3.88658594,18.3164844 Z" id="Shape"></path>
                <path d="M20.7424766,20.78125 L14.1367734,20.78125 C13.8347891,20.78125 13.5898984,21.0261406 13.5898984,21.328125 C13.5898984,21.6301094 13.8347891,21.875 14.1367734,21.875 L20.7424766,21.875 C21.0444609,21.875 21.2893516,21.6301094 21.2893516,21.328125 C21.2893516,21.0261406 21.0444609,20.78125 20.7424766,20.78125 Z" id="Shape"></path>
                <path d="M11.1561406,20.78125 L3.5,20.78125 C3.19801563,20.78125 2.953125,21.0261406 2.953125,21.328125 C2.953125,21.6301094 3.19801563,21.875 3.5,21.875 L11.1561406,21.875 C11.458125,21.875 11.7030156,21.6301094 11.7030156,21.328125 C11.7030156,21.0261406 11.4581797,20.78125 11.1561406,20.78125 Z" id="Shape"></path>
                <path d="M20.7424766,23.40625 L14.1367734,23.40625 C13.8347891,23.40625 13.5898984,23.6511406 13.5898984,23.953125 C13.5898984,24.2551094 13.8347891,24.5 14.1367734,24.5 L20.7424766,24.5 C21.0444609,24.5 21.2893516,24.2551094 21.2893516,23.953125 C21.2893516,23.6511406 21.0444609,23.40625 20.7424766,23.40625 Z" id="Shape"></path>
                <path d="M11.1561406,23.40625 L3.5,23.40625 C3.19801563,23.40625 2.953125,23.6511406 2.953125,23.953125 C2.953125,24.2551094 3.19801563,24.5 3.5,24.5 L11.1561406,24.5 C11.458125,24.5 11.7030156,24.2551094 11.7030156,23.953125 C11.7030156,23.6511406 11.4581797,23.40625 11.1561406,23.40625 Z" id="Shape"></path>
                <path d="M9.41729687,12.7117266 L7.83196094,8.9565 C7.74648437,8.7539375 7.54796875,8.62230469 7.328125,8.62230469 C7.10828125,8.62230469 6.90982031,8.7539375 6.82428906,8.9565 L5.23895312,12.7117266 C5.12148437,12.9900312 5.25180469,13.3108281 5.53005469,13.4282969 C5.80846875,13.5456562 6.12910156,13.4153906 6.246625,13.1371406 L6.44492187,12.667375 L8.21132812,12.667375 L8.409625,13.1371406 C8.49778125,13.3459922 8.70039844,13.4714453 8.91367969,13.4714453 C8.98460937,13.4714453 9.05674219,13.4575547 9.12619531,13.4282422 C9.40444531,13.3107734 9.53476562,12.9899766 9.41729687,12.7117266 Z M6.90670312,11.573625 L7.328125,10.5753594 L7.74960156,11.573625 L6.90670312,11.573625 L6.90670312,11.573625 Z" id="Shape"></path>
            </g>
        </g>
    </g>
</svg>