<?xml version="1.0" encoding="UTF-8"?>
<svg width="42px" height="30px" viewBox="0 0 42 30" version="1.1" xmlns="http://www.w3.org/2000/svg" xmlns:xlink="http://www.w3.org/1999/xlink">
    <!-- Generator: Sketch 43.2 (39069) - http://www.bohemiancoding.com/sketch -->
    <title>Artboard</title>
    <desc>Created with Sketch.</desc>
    <defs></defs>
    <g id="Page-1" stroke="none" stroke-width="1" fill="none" fill-rule="evenodd">
        <g id="Artboard" stroke="#979797">
            <g id="Group-3" transform="translate(10.000000, 1.000000)">
                <path d="M8.52896043,13.9285185 L14.0558349,13.9285185 C16.6343537,13.9285185 19.2065097,11.700535 18.7436171,9.07748971 L17.6428552,2.83962963 C17.3732322,1.31041152 16.4108609,0.01 14.9084482,0.01 L7.67555184,0.01 C6.17393448,0.01 5.21076784,1.30794239 4.94114481,2.83962963 L3.84038293,9.07748971 C3.37828564,11.7021811 5.95044164,13.9285185 8.52896043,13.9285185 Z" id="Path"></path>
                <path d="M5.40483279,15.7622634 L17.1791672,15.7622634 C17.8027202,15.7622634 18.3133337,16.2898354 18.3133337,16.9359259 L18.3133337,17.6577366 C18.3133337,18.3038272 17.8027202,18.8313992 17.1791672,18.8313992 L5.40483279,18.8313992 C4.78127982,18.8313992 4.27066629,18.3038272 4.27066629,17.6577366 L4.27066629,16.9359259 C4.27066629,16.2898354 4.78127982,15.7622634 5.40483279,15.7622634 Z" id="Path"></path>
                <path d="M4.70969849,25.7861317 C5.30302823,25.7861317 5.78421387,26.2840741 5.78421387,26.8980658 C5.78421387,27.5120576 5.30302823,28.01 4.70969849,28.01 C4.11636875,28.01 3.6351831,27.5120576 3.6351831,26.8980658 C3.6351831,26.2840741 4.11636875,25.7861317 4.70969849,25.7861317 Z" id="Path"></path>
                <path d="M11.292,25.7861317 C11.8853297,25.7861317 12.3665154,26.2840741 12.3665154,26.8980658 C12.3665154,27.5120576 11.8853297,28.01 11.292,28.01 C10.6986703,28.01 10.2174846,27.5120576 10.2174846,26.8980658 C10.2174846,26.2840741 10.6986703,25.7861317 11.292,25.7861317 Z" id="Path"></path>
                <path d="M17.8743015,25.7861317 C18.4676313,25.7861317 18.9488169,26.2840741 18.9488169,26.8980658 C18.9488169,27.5120576 18.4676313,28.01 17.8743015,28.01 C17.2809718,28.01 16.7997861,27.5120576 16.7997861,26.8980658 C16.7997861,26.2840741 17.2809718,25.7861317 17.8743015,25.7861317 Z" id="Path"></path>
                <path d="M5.17497717,25.301358 C5.5106141,24.7565021 5.99736719,24.2659671 6.59785506,23.8544444 C7.19834293,23.4420988 7.91336094,23.1087654 8.70791377,22.8791358 C9.50167125,22.6486831 10.3757589,22.5211111 11.292,22.5211111 C12.2090364,22.5211111 13.0823287,22.6486831 13.8760862,22.8791358 C14.6706391,23.1087654 15.3864524,23.4420988 15.9861449,23.8544444 C16.5874282,24.2659671 17.0733859,24.7565021 17.4090228,25.301358 L5.17497717,25.301358 Z" id="Path"></path>
                <path d="M11.292,18.8313992 L11.292,22.5211111 L11.292,18.8313992 Z" id="Path" fill="#D8D8D8"></path>
                <path d="M11.292,14.1359259 L11.292,15.7622634 L11.292,14.1359259 Z" id="Path" fill="#D8D8D8"></path>
                <path d="M0,12.0329471 C0,12.0329471 1.66666667,11.7364235 1.66666667,12.9225176 L1.66666667,16.1842763 C1.66666667,16.1842763 1.66666667,17.3703704 4,17.3703704" id="Path-2"></path>
                <path d="M18,12.0329471 C18,12.0329471 19.6666667,11.7364235 19.6666667,12.9225176 L19.6666667,16.1842763 C19.6666667,16.1842763 19.6666667,17.3703704 22,17.3703704" id="Path-2" transform="translate(20.000000, 14.685185) scale(-1, 1) translate(-20.000000, -14.685185) "></path>
            </g>
        </g>
    </g>
</svg>