<?xml version="1.0" encoding="UTF-8"?>
<svg width="42px" height="30px" viewBox="0 0 42 30" version="1.1" xmlns="http://www.w3.org/2000/svg" xmlns:xlink="http://www.w3.org/1999/xlink">
    <!-- Generator: Sketch 43.2 (39069) - http://www.bohemiancoding.com/sketch -->
    <title>Artboard</title>
    <desc>Created with Sketch.</desc>
    <defs></defs>
    <g id="Page-1" stroke="none" stroke-width="1" fill="none" fill-rule="evenodd">
        <g id="Artboard">
            <g id="deployment" transform="translate(6.000000, 0.000000)">
                <path d="M27.0666667,9.35483871 C27.0666667,8.5798585 26.4398653,7.9516129 25.6666667,7.9516129 L21.4666667,7.9516129 C21.4659878,7.67858208 21.450409,7.40579286 21.42,7.13446774 C21.4092667,7.03437097 21.3892,6.9366129 21.3733333,6.83698387 C21.3486,6.67233871 21.3234,6.50956452 21.2879333,6.34632258 C21.2613333,6.22517742 21.2277333,6.10637097 21.1946,5.98662903 C21.1582,5.85285484 21.1208667,5.72001613 21.077,5.58951613 C21.0331333,5.45901613 20.9878667,5.33646774 20.937,5.21158065 C20.8861333,5.08669355 20.8399333,4.97770968 20.7872,4.85983871 C20.7312,4.7358871 20.6738,4.61287097 20.6103333,4.49219355 C20.5468667,4.37151613 20.4801333,4.25832258 20.412,4.14372581 C20.3480667,4.03614516 20.2874,3.92762903 20.2178667,3.82332258 C20.0960667,3.63996774 19.9649333,3.46316129 19.8282,3.2915 C19.8048667,3.2625 19.7852667,3.23116129 19.7614667,3.20216129 C19.5859793,2.9894097 19.3990345,2.78641946 19.2014667,2.59409677 C19.1762667,2.57024194 19.1496667,2.54732258 19.124,2.52393548 C18.9454222,2.35398925 18.7587556,2.19324194 18.564,2.04169355 C18.5486,2.03 18.2466667,1.79612903 18.2466667,1.79612903 C16.4612044,0.561960318 14.2323809,0.161532726 12.1350645,0.703509837 C10.0377481,1.24548695 8.27992486,2.67612215 7.32013333,4.62222581 L7.21886667,4.82101613 C7.10717778,5.07079032 7.01991111,5.29000538 6.94306667,5.51420968 C6.9328,5.54320968 6.92113333,5.57174194 6.91133333,5.60074194 C6.8404,5.8145 6.78066667,6.03246774 6.72933333,6.25558065 C6.71953333,6.29627419 6.70693333,6.3365 6.69806667,6.37719355 C6.6514,6.58580645 6.6206,6.79816129 6.59353333,7.01285484 C6.58746667,7.06290323 6.57626667,7.11201613 6.57066667,7.16253226 C6.54460115,7.42473395 6.53213992,7.68811558 6.53333333,7.9516129 L2.33333333,7.9516129 C1.56013468,7.9516129 0.933333333,8.5798585 0.933333333,9.35483871 L0.933333333,25.7258065 L0,25.7258065 L0,27.1290323 C0,27.9040125 0.62680135,28.5322581 1.4,28.5322581 L26.6,28.5322581 C27.3731986,28.5322581 28,27.9040125 28,27.1290323 L28,25.7258065 L27.0666667,25.7258065 L27.0666667,9.35483871 Z M7.4998,7.29677419 C7.56494985,6.64987439 7.72682808,6.01647968 7.98,5.41785484 C9.09582864,5.19191102 10.2402872,5.64167348 10.9055333,6.56756452 L11.1253333,6.87580645 C11.4780359,7.36815503 11.6674056,7.95917185 11.6666667,8.56529032 C11.6675152,10.0833633 12.5593617,11.4588499 13.9430667,12.0761613 L13.9430667,12.0761613 C14.860689,12.4873929 15.5683219,13.2599501 15.8988667,14.2114032 C15.7556,14.2581774 15.6114,14.2937258 15.4667333,14.3274032 C15.4522667,14.3306774 15.4387333,14.3353548 15.4242667,14.338629 C15.3216,14.3620161 15.2175333,14.3793226 15.1139333,14.3975645 C15.0103333,14.4158065 14.9114,14.4317097 14.8092,14.4443387 C14.7317333,14.4541613 14.6547333,14.4635161 14.5758667,14.4705323 C14.385,14.487371 14.1932,14.5 13.9981333,14.5 C10.3922012,14.4951023 7.47052272,11.5658548 7.46666667,7.9516129 C7.46666667,7.73083871 7.47833333,7.51240323 7.4998,7.29677419 Z M14,15.4354839 C14.2356667,15.4354839 14.4704,15.4223871 14.7042,15.3999355 C14.8381333,15.3873065 14.9683333,15.3643871 15.0999333,15.3452097 C15.1932667,15.3311774 15.2833333,15.3204194 15.3743333,15.3026452 C15.5498,15.2699032 15.7210667,15.2278065 15.8918667,15.1829032 C15.9348,15.1712097 15.9786667,15.1613871 16.0216,15.1492258 C16.2082667,15.096371 16.3949333,15.034629 16.5736667,14.9677419 C16.5932667,14.9602581 16.6133333,14.9555806 16.6334,14.9480968 L16.8522667,14.8653065 C16.8709333,14.8573548 16.8900667,14.8517419 16.9087333,14.8437903 L17.0118667,14.8049677 L17.0095333,14.7951452 C18.6350051,14.0713492 19.9510322,12.7922412 20.7228,11.1860484 L20.7326,11.181371 L20.8007333,11.0298226 C20.8054,11.02 20.8082,11.0097097 20.8124,10.9998871 C20.8483333,10.9199032 20.8838,10.8394516 20.9169333,10.7580645 L24.2666667,10.7580645 L24.2666667,23.8548387 L3.73333333,23.8548387 L3.73333333,10.7580645 L7.08306667,10.7580645 C8.22513025,13.5820192 10.9598702,15.4313251 14,15.4354839 L14,15.4354839 Z M20.0162667,10.4947258 L19.3722667,10.817 C18.9408593,11.0338667 18.4297355,11.019641 18.011,10.7791129 L17.8028667,10.6603065 C17.4123046,10.4364106 17.148151,10.0428742 17.0884048,9.59590025 C17.0286586,9.14892626 17.180145,8.69957573 17.4981333,8.38053226 C18.2549624,7.62043713 18.411789,6.44717538 17.8812667,5.51420968 L17.5933333,5.01185484 C17.2241271,4.36751256 17.4034665,3.54749257 18.0077333,3.11703226 L18.2214667,2.96408065 C18.3908159,3.10894615 18.5527978,3.26224686 18.7068,3.42340323 C18.7469333,3.46503226 18.7847333,3.509 18.8234667,3.55203226 C18.9308,3.66896774 19.0333111,3.78917742 19.131,3.91266129 C19.1876222,3.98500538 19.2423778,4.05859677 19.2952667,4.13343548 C19.3676,4.23259677 19.4352667,4.33409677 19.5024667,4.43746774 C19.5617333,4.53101613 19.6191333,4.62456452 19.6737333,4.7181129 C19.7283333,4.81166129 19.775,4.90520968 19.8230667,4.99875806 C19.8767333,5.10493548 19.9299333,5.2111129 19.9775333,5.32009677 C20.0190667,5.41364516 20.055,5.50719355 20.0914,5.60541935 C20.1343333,5.71674194 20.1782,5.82853226 20.2150667,5.94266129 C20.2486667,6.04790323 20.2757333,6.15548387 20.3042,6.26259677 C20.3326667,6.36970968 20.3644,6.47775806 20.3877333,6.59001613 C20.4157333,6.72285484 20.4344,6.85803226 20.454,6.99320968 C20.4670667,7.08208065 20.4852667,7.16908065 20.4946,7.25935484 C20.5194948,7.4892769 20.5324234,7.72034265 20.5333333,7.9516129 C20.5333333,8.17332258 20.5216667,8.39222581 20.5002,8.60645161 C20.4342346,9.25663145 20.2710996,9.89317291 20.0162667,10.4947258 L20.0162667,10.4947258 Z M14,1.40322581 C15.2124427,1.40368026 16.4004544,1.7449592 17.4290667,2.38829032 C16.4642935,3.10463698 16.1873088,4.43143719 16.7846,5.4753871 L17.0711333,5.97774194 C17.3925639,6.54450472 17.2970983,7.2565971 16.8378,7.71820968 C16.3142155,8.24326937 16.0647114,8.98292997 16.162982,9.7187231 C16.2612527,10.4545162 16.6960681,11.1023592 17.339,11.4709032 L17.5471333,11.5901774 C18.0585426,11.8855235 18.6620477,11.9773514 19.2378667,11.8474355 C18.5935435,12.7161168 17.7452546,13.4119605 16.7682667,13.8732258 C16.3482885,12.6915209 15.4644715,11.733339 14.322,11.221129 L14.322,11.221129 C13.2753754,10.7540467 12.6007754,9.71361176 12.6,8.56529032 C12.6014765,7.76433336 12.3517026,6.98317794 11.886,6.33229032 L11.6666667,6.02358065 C10.9329222,5.00678977 9.74932976,4.4140667 8.49753333,4.43653226 C9.69403197,2.5494174 11.7692037,1.40545193 14,1.40322581 Z M1.86666667,9.35483871 C1.86666667,9.09651197 2.07560045,8.88709677 2.33333333,8.88709677 L6.5982,8.88709677 C6.63833824,9.20251647 6.69882044,9.51499872 6.77926667,9.82258065 L2.8,9.82258065 L2.8,24.7903226 L25.2,24.7903226 L25.2,9.82258065 L21.2207333,9.82258065 C21.2403333,9.74727419 21.2618,9.67243548 21.2790667,9.59619355 C21.2856,9.56719355 21.2949333,9.53912903 21.3014667,9.51012903 C21.3448667,9.30572581 21.3756667,9.0971129 21.4018,8.88709677 L25.6666667,8.88709677 C25.9243995,8.88709677 26.1333333,9.09651197 26.1333333,9.35483871 L26.1333333,25.7258065 L1.86666667,25.7258065 L1.86666667,9.35483871 Z M27.0666667,27.1290323 C27.0666667,27.387359 26.8577329,27.5967742 26.6,27.5967742 L1.4,27.5967742 C1.14226712,27.5967742 0.933333333,27.387359 0.933333333,27.1290323 L0.933333333,26.6612903 L27.0666667,26.6612903 L27.0666667,27.1290323 Z" id="Shape" fill="#979797" fill-rule="nonzero"></path>
                <path d="M13.0739557,22.7027903 L14.8767776,22.7027903 L14.8767776,21.7993024 L15.8173999,21.7993024 L13.9753666,19.6451613 L12.1333333,21.7993024 L13.0739557,21.7993024 L13.0739557,22.7027903 Z M13.9753666,20.3394918 L14.8375662,21.3475584 L14.4260721,21.3475584 L14.4260721,22.2510464 L13.5246611,22.2510464 L13.5246611,21.3475584 L13.113167,21.3475584 L13.9753666,20.3394918 Z" id="Shape" fill="#979797" fill-rule="nonzero"></path>
                <g id="arrow" transform="translate(8.400000, 15.903226)">
                    <path d="M0.940622324,3.05762903 L2.74344422,3.05762903 L2.74344422,2.1541411 L3.68406654,2.1541411 L1.84203327,0 L0,2.1541411 L0.940622324,2.1541411 L0.940622324,3.05762903 Z M1.84203327,0.694330475 L2.70423284,1.70239713 L2.29273875,1.70239713 L2.29273875,2.60588507 L1.3913278,2.60588507 L1.3913278,1.70239713 L0.9798337,1.70239713 L1.84203327,0.694330475 Z" id="Shape" fill="#979797" fill-rule="nonzero"></path>
                    <path d="M1.16666667,3.50806452 L2.56666667,3.50806452" id="Line" stroke="#979797" stroke-width="0.5" stroke-linecap="square"></path>
                    <path d="M1.16666667,4.20967742 L2.56666667,4.20967742" id="Line" stroke="#979797" stroke-width="0.5" stroke-linecap="square"></path>
                </g>
                <g id="arrow" transform="translate(16.333333, 15.903226)">
                    <path d="M0.940622324,3.05762903 L2.74344422,3.05762903 L2.74344422,2.1541411 L3.68406654,2.1541411 L1.84203327,0 L0,2.1541411 L0.940622324,2.1541411 L0.940622324,3.05762903 Z M1.84203327,0.694330475 L2.70423284,1.70239713 L2.29273875,1.70239713 L2.29273875,2.60588507 L1.3913278,2.60588507 L1.3913278,1.70239713 L0.9798337,1.70239713 L1.84203327,0.694330475 Z" id="Shape" fill="#979797" fill-rule="nonzero"></path>
                    <path d="M1.16666667,3.50806452 L2.56666667,3.50806452" id="Line" stroke="#979797" stroke-width="0.5" stroke-linecap="square"></path>
                    <path d="M1.16666667,4.20967742 L2.56666667,4.20967742" id="Line" stroke="#979797" stroke-width="0.5" stroke-linecap="square"></path>
                </g>
            </g>
        </g>
    </g>
</svg>