<?xml version="1.0" encoding="UTF-8"?>
<svg width="42px" height="30px" viewBox="0 0 42 30" version="1.1" xmlns="http://www.w3.org/2000/svg" xmlns:xlink="http://www.w3.org/1999/xlink">
    <!-- Generator: Sketch 43.2 (39069) - http://www.bohemiancoding.com/sketch -->
    <title>Artboard</title>
    <desc>Created with Sketch.</desc>
    <defs></defs>
    <g id="Page-1" stroke="none" stroke-width="1" fill="none" fill-rule="evenodd">
        <g id="Artboard" fill-rule="nonzero" fill="#979797">
            <g id="problem-solving" transform="translate(7.000000, 1.000000)">
                <ellipse id="Oval" cx="14.1505376" cy="24.6521739" rx="1" ry="1"></ellipse>
                <ellipse id="Oval" cx="12.9462366" cy="24.6521739" rx="1" ry="1"></ellipse>
                <ellipse id="Oval" cx="11.7419355" cy="24.6521739" rx="1" ry="1"></ellipse>
                <path d="M21.0084301,14.2151739 C21.1261505,14.0961739 21.1261505,13.9038261 21.0084301,13.7848261 C20.8907097,13.6658261 20.7004301,13.6658261 20.5827097,13.7848261 C19.5259355,14.853087 17.8070968,14.853087 16.7503226,13.7848261 C16.6326022,13.6658261 16.4423226,13.6658261 16.3246022,13.7848261 C16.2068817,13.9038261 16.2068817,14.0961739 16.3246022,14.2151739 C16.9704086,14.868 17.8182366,15.1942609 18.6663656,15.1942609 C19.5144946,15.1942609 20.3629247,14.868 21.0084301,14.2151739 Z" id="Shape"></path>
                <path d="M27.9193118,9.95521739 C27.8100215,9.5906087 27.7209032,9.2686087 27.6471398,8.97095652 C26.335957,3.69021739 21.6533333,0.0012173913 16.2604731,0 C16.1803871,0 16.1018065,0.0343913043 16.0452043,0.0916086957 C15.9886022,0.148826087 15.9569892,0.225826087 15.9569892,0.306782609 L15.9569892,3.92456522 C15.7769462,3.8773913 15.6255054,3.78608696 15.5186237,3.70543478 C15.1148817,3.40230435 14.6172043,3.28634783 14.115914,3.37917391 C13.4056774,3.51095652 12.8303226,4.07613043 12.6849032,4.78617391 C12.572,5.33643478 12.7050753,5.89765217 13.0501075,6.32617391 C13.3951398,6.75469565 13.9057634,7 14.4516129,7 C14.8430108,7 15.2157419,6.87369565 15.5300645,6.63417391 C15.6646452,6.531 15.8094624,6.45978261 15.9569892,6.42204348 L15.9569892,10.0434783 C15.9569892,10.2117826 16.0915699,10.3478261 16.2580645,10.3478261 L27.6311828,10.3478261 C27.7263226,10.3478261 27.816043,10.3021739 27.8729462,10.2248696 C27.9301505,10.1475652 27.9470108,10.0474348 27.9193118,9.95521739 L27.9193118,9.95521739 Z M16.5591398,9.73913043 L16.5591398,6.08695652 C16.5591398,5.91865217 16.4245591,5.7826087 16.2580645,5.7826087 L16.1987527,5.7826087 C15.8368602,5.7826087 15.480086,5.90921739 15.1669677,6.14813043 C14.9586237,6.30730435 14.7111398,6.39130435 14.4516129,6.39130435 C14.0876129,6.39130435 13.7470968,6.22756522 13.5170753,5.94147826 C13.2837419,5.65173913 13.1976344,5.28530435 13.2747097,4.90943478 C13.3707527,4.43921739 13.7528172,4.06486957 14.2246022,3.97752174 C14.5587957,3.91604348 14.8911828,3.99243478 15.1591398,4.19391304 C15.4824946,4.43678261 15.8422796,4.56521739 16.1996559,4.56521739 L16.2580645,4.56521739 C16.4245591,4.56521739 16.5591398,4.42917391 16.5591398,4.26086957 L16.5591398,0.612956522 C21.5488602,0.747173913 25.8433978,4.20730435 27.0633548,9.11886957 C27.111828,9.31456522 27.1666237,9.5193913 27.2286452,9.73913043 L16.5591398,9.73913043 Z" id="Shape"></path>
                <path d="M25.8987957,16.407087 C24.8296774,14.8938696 23.9902796,13.132913 23.4034839,11.1726087 C23.3646452,11.0441739 23.247828,10.9565217 23.1150538,10.9565217 L15.0537634,10.9565217 C14.8872688,10.9565217 14.7526882,11.0925652 14.7526882,11.2608696 C14.7526882,11.4291739 14.8872688,11.5652174 15.0537634,11.5652174 L22.8928602,11.5652174 C23.4953118,13.5023913 24.3410323,15.2496522 25.4086452,16.7607391 L25.7786667,17.2842174 C25.9186667,17.4820435 25.9304086,17.7401304 25.8096774,17.9568261 C25.7052043,18.1443043 25.4911398,18.2608696 25.2511828,18.2608696 L23.1827957,18.2608696 C23.0163011,18.2608696 22.8817204,18.396913 22.8817204,18.5652174 L22.8817204,20.6956522 L20.7741935,20.6956522 C20.2762151,20.6956522 19.8709677,20.286 19.8709677,19.7826087 L19.8709677,19.4782609 C19.8709677,19.3099565 19.7363871,19.173913 19.5698925,19.173913 C19.4033978,19.173913 19.2688172,19.3099565 19.2688172,19.4782609 L19.2688172,19.7826087 C19.2688172,20.6216957 19.944129,21.3043478 20.7741935,21.3043478 L22.8817204,21.3043478 L22.8817204,23.4347826 C22.8817204,23.9381739 22.4764731,24.3478261 21.9784946,24.3478261 L15.3548387,24.3478261 C15.1883441,24.3478261 15.0537634,24.4838696 15.0537634,24.6521739 C15.0537634,24.8204783 15.1883441,24.9565217 15.3548387,24.9565217 L16.2580645,24.9565217 L16.2580645,27.3913043 L6.02090323,27.3913043 C5.992,24.906913 5.04060215,22.4541739 3.3344086,20.4728696 C1.48068817,18.3186957 0.512430108,15.5561304 0.608473118,12.6940435 C0.807182796,6.80613043 5.63703226,1.99591304 11.4408602,1.83247826 L11.4408602,5.14317391 C11.2933333,5.10543478 11.1485161,5.03391304 11.0136344,4.93073913 C10.6996129,4.69152174 10.3268817,4.56521739 9.93548387,4.56521739 C9.38963441,4.56521739 8.87870968,4.81113043 8.53397849,5.23934783 C8.18924731,5.66756522 8.05587097,6.22908696 8.16877419,6.77934783 C8.31419355,7.4893913 8.88954839,8.05456522 9.59978495,8.18634783 C10.100172,8.27886957 10.5984516,8.16352174 11.0024946,7.86008696 C11.1093763,7.77943478 11.2608172,7.68843478 11.4408602,7.64095652 L11.4408602,11.2608696 C11.4408602,11.4291739 11.5754409,11.5652174 11.7419355,11.5652174 L12.6451613,11.5652174 C12.8116559,11.5652174 12.9462366,11.4291739 12.9462366,11.2608696 C12.9462366,11.0925652 12.8116559,10.9565217 12.6451613,10.9565217 L12.0430108,10.9565217 L12.0430108,7.30434783 C12.0430108,7.13604348 11.9084301,7 11.7419355,7 L11.683828,7 C11.3261505,7 10.9666667,7.12843478 10.6433118,7.37130435 C10.3750538,7.57308696 10.0432688,7.65008696 9.70877419,7.58769565 C9.23698925,7.50034783 8.85492473,7.12569565 8.75888172,6.65578261 C8.68180645,6.28021739 8.7676129,5.91378261 9.00124731,5.62373913 C9.23096774,5.33765217 9.57148387,5.17391304 9.93548387,5.17391304 C10.1950108,5.17391304 10.4424946,5.25791304 10.6505376,5.41678261 C10.963957,5.656 11.3207312,5.7826087 11.6826237,5.7826087 L11.7419355,5.7826087 C11.9084301,5.7826087 12.0430108,5.64656522 12.0430108,5.47826087 L12.0430108,1.52417391 C12.0430108,1.44321739 12.0113978,1.36591304 11.9547957,1.309 C11.8981935,1.25208696 11.8217204,1.21982609 11.7419355,1.21982609 C5.48378495,1.22165217 0.219483871,6.35965217 0.00692473118,12.6733478 C-0.0942365591,15.6900435 0.925806452,18.6017391 2.8803871,20.8721739 C4.51763441,22.7740435 5.41935484,25.1306087 5.41935484,27.5078696 L5.41935484,27.6956522 C5.41935484,27.8639565 5.55393548,28 5.72043011,28 L16.5591398,28 C16.7256344,28 16.8602151,27.8639565 16.8602151,27.6956522 L16.8602151,24.9565217 L21.9784946,24.9565217 C22.8085591,24.9565217 23.483871,24.2738696 23.483871,23.4347826 L23.483871,18.8695652 L25.2511828,18.8695652 C25.7082151,18.8695652 26.1230968,18.6346087 26.3341505,18.2556957 C26.5710968,17.8305217 26.5458065,17.3228696 26.2685161,16.9305652 L25.8987957,16.407087 Z" id="Shape"></path>
                <path d="M3.91397849,10.9565217 C3.91397849,11.1248261 4.04855914,11.2608696 4.21505376,11.2608696 C4.38154839,11.2608696 4.51612903,11.1248261 4.51612903,10.9565217 L4.51612903,8.52173913 C4.51612903,8.35343478 4.38154839,8.2173913 4.21505376,8.2173913 C4.04855914,8.2173913 3.91397849,8.35343478 3.91397849,8.52173913 L3.91397849,10.9565217 Z" id="Shape"></path>
                <path d="M5.41935484,10.3478261 C5.41935484,10.5161304 5.55393548,10.6521739 5.72043011,10.6521739 C5.88692473,10.6521739 6.02150538,10.5161304 6.02150538,10.3478261 L6.02150538,7.91304348 C6.02150538,7.74473913 5.88692473,7.60869565 5.72043011,7.60869565 C5.55393548,7.60869565 5.41935484,7.74473913 5.41935484,7.91304348 L5.41935484,10.3478261 Z" id="Shape"></path>
                <path d="M6.92473118,9.73913043 C6.92473118,9.90743478 7.05931183,10.0434783 7.22580645,10.0434783 C7.39230108,10.0434783 7.52688172,9.90743478 7.52688172,9.73913043 L7.52688172,7.30434783 C7.52688172,7.13604348 7.39230108,7 7.22580645,7 C7.05931183,7 6.92473118,7.13604348 6.92473118,7.30434783 L6.92473118,9.73913043 Z" id="Shape"></path>
                <path d="M13.8494624,17.9565217 C13.8494624,18.1248261 13.984043,18.2608696 14.1505376,18.2608696 L16.5591398,18.2608696 C16.7256344,18.2608696 16.8602151,18.1248261 16.8602151,17.9565217 C16.8602151,17.7882174 16.7256344,17.6521739 16.5591398,17.6521739 L14.1505376,17.6521739 C13.984043,17.6521739 13.8494624,17.7882174 13.8494624,17.9565217 Z" id="Shape"></path>
                <path d="M12.9462366,19.4782609 C12.9462366,19.6465652 13.0808172,19.7826087 13.2473118,19.7826087 L15.655914,19.7826087 C15.8224086,19.7826087 15.9569892,19.6465652 15.9569892,19.4782609 C15.9569892,19.3099565 15.8224086,19.173913 15.655914,19.173913 L13.2473118,19.173913 C13.0808172,19.173913 12.9462366,19.3099565 12.9462366,19.4782609 Z" id="Shape"></path>
                <path d="M15.0537634,21 C15.0537634,20.8316957 14.9191828,20.6956522 14.7526882,20.6956522 L12.344086,20.6956522 C12.1775914,20.6956522 12.0430108,20.8316957 12.0430108,21 C12.0430108,21.1683043 12.1775914,21.3043478 12.344086,21.3043478 L14.7526882,21.3043478 C14.9191828,21.3043478 15.0537634,21.1683043 15.0537634,21 Z" id="Shape"></path>
                <ellipse id="Oval" cx="7.22580645" cy="6.08695652" rx="1" ry="1"></ellipse>
                <ellipse id="Oval" cx="5.72043011" cy="6.69565217" rx="1" ry="1"></ellipse>
                <ellipse id="Oval" cx="4.21505376" cy="7.30434783" rx="1" ry="1"></ellipse>
                <ellipse id="Oval" cx="17.7634409" cy="17.9565217" rx="1" ry="1"></ellipse>
                <ellipse id="Oval" cx="16.8602151" cy="19.4782609" rx="1" ry="1"></ellipse>
                <ellipse id="Oval" cx="15.9569892" cy="21" rx="1" ry="1"></ellipse>
                <path d="M19.8709677,2.43478261 C18.5429247,2.43478261 17.4623656,3.52708696 17.4623656,4.86956522 C17.4623656,5.73726087 17.9293333,6.54347826 18.6666667,6.97565217 L18.6666667,7.60869565 C18.6666667,7.777 18.8012473,7.91304348 18.9677419,7.91304348 L20.7741935,7.91304348 C20.9406882,7.91304348 21.0752688,7.777 21.0752688,7.60869565 L21.0752688,6.97565217 C21.8126022,6.54347826 22.2795699,5.73726087 22.2795699,4.86956522 C22.2795699,3.52708696 21.1990108,2.43478261 19.8709677,2.43478261 Z M20.6447312,6.51730435 C20.539957,6.56782609 20.4731183,6.67495652 20.4731183,6.79213043 L20.4731183,7.30434783 L19.2688172,7.30434783 L19.2688172,6.79213043 C19.2688172,6.67465217 19.2019785,6.56782609 19.0972043,6.51730435 C18.4697634,6.216 18.0645161,5.56895652 18.0645161,4.86956522 C18.0645161,3.86247826 18.8747097,3.04347826 19.8709677,3.04347826 C20.8672258,3.04347826 21.6774194,3.86247826 21.6774194,4.86956522 C21.6774194,5.56895652 21.272172,6.216 20.6447312,6.51730435 Z" id="Shape"></path>
                <path d="M20.7741935,8.52173913 L18.9677419,8.52173913 C18.8012473,8.52173913 18.6666667,8.65778261 18.6666667,8.82608696 C18.6666667,8.9943913 18.8012473,9.13043478 18.9677419,9.13043478 L20.7741935,9.13043478 C20.9406882,9.13043478 21.0752688,8.9943913 21.0752688,8.82608696 C21.0752688,8.65778261 20.9406882,8.52173913 20.7741935,8.52173913 Z" id="Shape"></path>
                <path d="M20.2602581,4.04569565 L19.8709677,4.43921739 L19.4816774,4.04569565 C19.363957,3.92669565 19.1736774,3.92669565 19.055957,4.04569565 C18.9382366,4.16469565 18.9382366,4.35704348 19.055957,4.47604348 L19.5698925,4.99556522 L19.5698925,6.08695652 C19.5698925,6.25526087 19.7044731,6.39130435 19.8709677,6.39130435 C20.0374624,6.39130435 20.172043,6.25526087 20.172043,6.08695652 L20.172043,4.99556522 L20.6859785,4.47604348 C20.8036989,4.35704348 20.8036989,4.16469565 20.6859785,4.04569565 C20.5682581,3.92669565 20.3779785,3.92669565 20.2602581,4.04569565 L20.2602581,4.04569565 Z" id="Shape"></path>
                <g id="Group" transform="translate(17.000000, 2.000000)">
                    <path d="M2.87096774,0.434782609 C1.54292473,0.434782609 0.462365591,1.52708696 0.462365591,2.86956522 C0.462365591,3.73726087 0.929333333,4.54347826 1.66666667,4.97565217 L1.66666667,5.60869565 C1.66666667,5.777 1.80124731,5.91304348 1.96774194,5.91304348 L3.77419355,5.91304348 C3.94068817,5.91304348 4.07526882,5.777 4.07526882,5.60869565 L4.07526882,4.97565217 C4.81260215,4.54347826 5.27956989,3.73726087 5.27956989,2.86956522 C5.27956989,1.52708696 4.19901075,0.434782609 2.87096774,0.434782609 Z M3.64473118,4.51730435 C3.53995699,4.56782609 3.47311828,4.67495652 3.47311828,4.79213043 L3.47311828,5.30434783 L2.2688172,5.30434783 L2.2688172,4.79213043 C2.2688172,4.67465217 2.20197849,4.56782609 2.0972043,4.51730435 C1.46976344,4.216 1.06451613,3.56895652 1.06451613,2.86956522 C1.06451613,1.86247826 1.87470968,1.04347826 2.87096774,1.04347826 C3.86722581,1.04347826 4.67741935,1.86247826 4.67741935,2.86956522 C4.67741935,3.56895652 4.27217204,4.216 3.64473118,4.51730435 Z" id="Shape"></path>
                    <path d="M3.77419355,6.52173913 L1.96774194,6.52173913 C1.80124731,6.52173913 1.66666667,6.65778261 1.66666667,6.82608696 C1.66666667,6.9943913 1.80124731,7.13043478 1.96774194,7.13043478 L3.77419355,7.13043478 C3.94068817,7.13043478 4.07526882,6.9943913 4.07526882,6.82608696 C4.07526882,6.65778261 3.94068817,6.52173913 3.77419355,6.52173913 Z" id="Shape"></path>
                    <path d="M3.26025806,2.04569565 L2.87096774,2.43921739 L2.48167742,2.04569565 C2.36395699,1.92669565 2.17367742,1.92669565 2.05595699,2.04569565 C1.93823656,2.16469565 1.93823656,2.35704348 2.05595699,2.47604348 L2.56989247,2.99556522 L2.56989247,4.08695652 C2.56989247,4.25526087 2.70447312,4.39130435 2.87096774,4.39130435 C3.03746237,4.39130435 3.17204301,4.25526087 3.17204301,4.08695652 L3.17204301,2.99556522 L3.68597849,2.47604348 C3.80369892,2.35704348 3.80369892,2.16469565 3.68597849,2.04569565 C3.56825806,1.92669565 3.37797849,1.92669565 3.26025806,2.04569565 L3.26025806,2.04569565 Z" id="Shape"></path>
                </g>
                <g id="Group" transform="translate(5.000000, 12.000000)">
                    <path d="M2.87096774,0.434782609 C1.54292473,0.434782609 0.462365591,1.52708696 0.462365591,2.86956522 C0.462365591,3.73726087 0.929333333,4.54347826 1.66666667,4.97565217 L1.66666667,5.60869565 C1.66666667,5.777 1.80124731,5.91304348 1.96774194,5.91304348 L3.77419355,5.91304348 C3.94068817,5.91304348 4.07526882,5.777 4.07526882,5.60869565 L4.07526882,4.97565217 C4.81260215,4.54347826 5.27956989,3.73726087 5.27956989,2.86956522 C5.27956989,1.52708696 4.19901075,0.434782609 2.87096774,0.434782609 Z M3.64473118,4.51730435 C3.53995699,4.56782609 3.47311828,4.67495652 3.47311828,4.79213043 L3.47311828,5.30434783 L2.2688172,5.30434783 L2.2688172,4.79213043 C2.2688172,4.67465217 2.20197849,4.56782609 2.0972043,4.51730435 C1.46976344,4.216 1.06451613,3.56895652 1.06451613,2.86956522 C1.06451613,1.86247826 1.87470968,1.04347826 2.87096774,1.04347826 C3.86722581,1.04347826 4.67741935,1.86247826 4.67741935,2.86956522 C4.67741935,3.56895652 4.27217204,4.216 3.64473118,4.51730435 Z" id="Shape"></path>
                    <path d="M3.77419355,6.52173913 L1.96774194,6.52173913 C1.80124731,6.52173913 1.66666667,6.65778261 1.66666667,6.82608696 C1.66666667,6.9943913 1.80124731,7.13043478 1.96774194,7.13043478 L3.77419355,7.13043478 C3.94068817,7.13043478 4.07526882,6.9943913 4.07526882,6.82608696 C4.07526882,6.65778261 3.94068817,6.52173913 3.77419355,6.52173913 Z" id="Shape"></path>
                    <path d="M3.26025806,2.04569565 L2.87096774,2.43921739 L2.48167742,2.04569565 C2.36395699,1.92669565 2.17367742,1.92669565 2.05595699,2.04569565 C1.93823656,2.16469565 1.93823656,2.35704348 2.05595699,2.47604348 L2.56989247,2.99556522 L2.56989247,4.08695652 C2.56989247,4.25526087 2.70447312,4.39130435 2.87096774,4.39130435 C3.03746237,4.39130435 3.17204301,4.25526087 3.17204301,4.08695652 L3.17204301,2.99556522 L3.68597849,2.47604348 C3.80369892,2.35704348 3.80369892,2.16469565 3.68597849,2.04569565 C3.56825806,1.92669565 3.37797849,1.92669565 3.26025806,2.04569565 L3.26025806,2.04569565 Z" id="Shape"></path>
                </g>
                <ellipse id="Oval" cx="13.8494624" cy="11.2608696" rx="1" ry="1"></ellipse>
            </g>
        </g>
    </g>
</svg>