<?xml version="1.0" encoding="UTF-8"?>
<svg width="42px" height="30px" viewBox="0 0 42 30" version="1.1" xmlns="http://www.w3.org/2000/svg" xmlns:xlink="http://www.w3.org/1999/xlink">
    <!-- Generator: Sketch 43.2 (39069) - http://www.bohemiancoding.com/sketch -->
    <title>Artboard</title>
    <desc>Created with Sketch.</desc>
    <defs></defs>
    <g id="Page-1" stroke="none" stroke-width="1" fill="none" fill-rule="evenodd">
        <g id="Artboard" stroke="#979797">
            <g id="plant" transform="translate(7.000000, 2.000000)">
                <path d="M0.5,15.5152551 C0.5,13.0292226 2.51145749,11.0157895 4.99643081,11.0157895 L23.7822744,11.0157895 C26.2662116,11.0157895 28.2787052,13.0289694 28.2787052,15.5152551 L28.2787052,18.6809128 C28.2787052,22.9135817 24.8437778,26.3460361 20.6088624,26.3460361 L8.16984279,26.3460361 C3.93709622,26.3460361 0.5,22.9082589 0.5,18.6809128 L0.5,15.5152551 Z" id="Rectangle"></path>
                <path d="M15.2833451,10.5157895 C15.8702545,7.86301826 17.5409622,5.40327593 21.3454467,4.23023382 C26.3403155,2.69015884 25.4533936,6.31551026 23.1697642,10.5157895 L15.2833451,10.5157895 Z" id="Combined-Shape"></path>
                <path d="M13.4835255,10.5157895 C12.8966161,7.86301826 11.2259084,5.40327593 7.42142391,4.23023382 C2.42655516,2.69015884 3.31347705,6.31551026 5.5971064,10.5157895 L13.4835255,10.5157895 Z" id="Combined-Shape"></path>
                <path d="M17.8423043,5.44639694 C16.3388282,6.61836141 15.3745171,8.1682089 14.8898277,10.0157895 L14.0732993,10.0157895 C13.6277288,8.4068375 12.8110974,7.02728982 11.5815491,5.9320892 C11.9261634,4.14605649 12.5340034,2.46135893 13.2440333,1.4312548 L13.3572769,1.26696219 L13.3283181,1.08275422 C13.3258336,1.03380189 13.3437323,0.957990745 13.4044973,0.879272275 C13.5743581,0.65922498 13.9931515,0.5 14.7843137,0.5 C15.575476,0.5 15.9942694,0.65922498 16.1641301,0.879272275 C16.2248952,0.957990745 16.2427938,1.03380189 16.2403093,1.08275422 L16.2142644,1.24842693 L16.3068873,1.40367295 C16.9089726,2.41283371 17.4725891,3.90828649 17.8423043,5.44639694 Z" id="Combined-Shape"></path>
            </g>
        </g>
    </g>
</svg>