<?xml version="1.0" encoding="UTF-8"?>
<svg width="512px" height="458px" viewBox="0 0 512 458" version="1.1" xmlns="http://www.w3.org/2000/svg" xmlns:xlink="http://www.w3.org/1999/xlink">
    <!-- Generator: Sketch 43.2 (39069) - http://www.bohemiancoding.com/sketch -->
    <title>Shape</title>
    <desc>Created with Sketch.</desc>
    <defs></defs>
    <g id="Page-1" stroke="none" stroke-width="1" fill="none" fill-rule="evenodd">
        <path d="M216.145,105.415 C220.287,105.415 223.645,102.057 223.645,97.915 L223.645,89.215 C223.645,85.073 220.287,81.715 216.145,81.715 C212.003,81.715 208.645,85.073 208.645,89.215 L208.645,97.915 C208.645,102.058 212.002,105.415 216.145,105.415 Z M111.32,105.415 C115.462,105.415 118.82,102.057 118.82,97.915 L118.82,89.215 C118.82,85.073 115.462,81.715 111.32,81.715 C107.178,81.715 103.82,85.073 103.82,89.215 L103.82,97.915 C103.82,102.058 107.178,105.415 111.32,105.415 Z M99.558,159.58 L227.908,159.58 C232.05,159.58 235.408,156.222 235.408,152.08 C235.408,147.938 232.05,144.58 227.908,144.58 L99.558,144.58 C95.416,144.58 92.058,147.938 92.058,152.08 C92.058,156.222 95.415,159.58 99.558,159.58 L99.558,159.58 Z M163.732,112.096 C171.196,112.096 178.293,108.864 183.205,103.228 C185.926,100.106 185.601,95.368 182.478,92.647 C179.356,89.926 174.618,90.251 171.897,93.374 C169.836,95.739 166.86,97.096 163.733,97.096 C160.607,97.096 157.631,95.739 155.569,93.374 C152.848,90.251 148.11,89.926 144.988,92.647 C141.865,95.368 141.54,100.106 144.261,103.228 C149.171,108.864 156.269,112.096 163.732,112.096 L163.732,112.096 Z M99.558,200.343 L227.908,200.343 C232.05,200.343 235.408,196.985 235.408,192.843 C235.408,188.701 232.05,185.343 227.908,185.343 L99.558,185.343 C95.416,185.343 92.058,188.701 92.058,192.843 C92.058,196.985 95.415,200.343 99.558,200.343 Z M445.222,0.209 L434.499,0.209 C430.357,0.209 426.999,3.567 426.999,7.709 C426.999,11.851 430.357,15.209 434.499,15.209 L445.222,15.209 C473.772,15.209 497,38.436 497,66.987 L497,269.02 L471.456,269.02 L471.456,74.463 C471.456,55.876 456.334,40.754 437.747,40.754 L74.253,40.754 C55.666,40.754 40.544,55.876 40.544,74.463 L40.544,269.02 L15,269.02 L15,66.987 C15,38.437 38.228,15.209 66.778,15.209 L399.156,15.209 C403.298,15.209 406.656,11.851 406.656,7.709 C406.656,3.567 403.298,0.209 399.156,0.209 L66.778,0.209 C29.956,0.209 -2.84217094e-14,30.166 -2.84217094e-14,66.987 L-2.84217094e-14,293.107 C-2.84217094e-14,325.574 23.172,353.23 55.099,358.865 C55.54,358.943 55.978,358.981 56.412,358.981 C59.982,358.981 63.147,356.421 63.789,352.783 C64.509,348.704 61.786,344.813 57.707,344.094 C32.961,339.726 15,318.283 15,293.107 L15,284.02 L497,284.02 L497,293.107 C497,321.657 473.772,344.885 445.222,344.885 L91.616,344.885 C87.474,344.885 84.116,348.243 84.116,352.385 C84.116,356.527 87.474,359.885 91.616,359.885 L181.326,359.885 L177.325,403.323 L174.061,403.323 C159.936,403.323 147.284,412.787 143.294,426.339 L141.561,432.227 C139.769,438.313 140.922,444.717 144.722,449.797 C148.522,454.877 154.34,457.79 160.684,457.79 L351.315,457.79 C357.659,457.79 363.477,454.877 367.277,449.797 C371.077,444.717 372.23,438.313 370.438,432.227 L368.705,426.338 C364.716,412.787 352.064,403.323 337.938,403.323 L334.674,403.323 L330.673,359.885 L445.221,359.885 C482.042,359.885 511.999,329.928 511.999,293.107 L511.999,66.987 C512,30.166 482.043,0.209 445.222,0.209 L445.222,0.209 Z M268.111,269.02 L55.544,269.02 L55.544,74.463 C55.544,64.147 63.937,55.754 74.253,55.754 L268.111,55.754 L268.111,269.02 Z M456.456,269.02 L283.111,269.02 L283.111,55.754 L437.746,55.754 C448.062,55.754 456.455,64.147 456.455,74.463 L456.455,269.02 L456.456,269.02 Z M196.389,359.885 L315.611,359.885 L319.612,403.323 L192.388,403.323 L196.389,359.885 Z M337.939,418.323 C345.458,418.323 352.192,423.361 354.316,430.574 L356.049,436.463 C356.656,438.526 355.82,440.073 355.267,440.812 C354.714,441.551 353.466,442.79 351.316,442.79 L160.685,442.79 C158.536,442.79 157.287,441.551 156.734,440.812 C155.794,439.555 155.508,437.97 155.952,436.462 L157.685,430.574 C159.809,423.361 166.543,418.323 174.062,418.323 L184.165,418.323 L184.176,418.323 L184.186,418.323 L327.816,418.323 L327.826,418.323 L327.837,418.323 L337.939,418.323 Z M270.388,314.453 C270.388,306.506 263.946,300.065 256,300.065 C248.054,300.065 241.612,306.507 241.612,314.453 C241.612,322.399 248.054,328.841 256,328.841 C263.946,328.841 270.388,322.399 270.388,314.453 Z M434.249,113.68 L383.216,84.216 C374.931,79.433 364.635,79.431 356.35,84.216 L305.317,113.68 C301.597,115.827 299.306,119.569 299.018,123.8 C298.983,124.093 298.96,124.389 298.96,124.691 L298.96,194.814 C298.96,199.41 301.336,203.526 305.317,205.824 L356.35,235.288 C360.302,237.57 364.712,238.75 369.142,238.855 C369.354,238.873 369.566,238.887 369.782,238.887 C369.999,238.887 370.212,238.873 370.424,238.854 C374.854,238.749 379.263,237.569 383.215,235.287 L434.247,205.824 C438.228,203.526 440.604,199.409 440.604,194.813 L440.604,124.691 C440.604,124.389 440.581,124.093 440.546,123.8 C440.26,119.569 437.969,115.827 434.249,113.68 L434.249,113.68 Z M362.284,221.393 L313.961,193.493 L313.961,140.692 L356.351,165.166 C358.239,166.256 360.235,167.085 362.284,167.679 L362.284,221.393 Z M363.851,152.175 L316.247,124.691 L363.851,97.207 C367.512,95.094 372.059,95.094 375.717,97.207 L423.321,124.691 L375.717,152.175 C372.056,154.289 367.51,154.289 363.851,152.175 Z M425.606,193.493 L377.284,221.393 L377.284,167.678 C379.333,167.085 381.329,166.256 383.217,165.166 L425.607,140.692 L425.607,193.493 L425.606,193.493 Z M99.558,241.106 L170.719,241.106 C173.842,250.185 182.462,256.731 192.588,256.731 C202.714,256.731 211.334,250.186 214.457,241.106 L227.908,241.106 C232.05,241.106 235.408,237.748 235.408,233.606 C235.408,229.464 232.05,226.106 227.908,226.106 L214.457,226.106 C211.334,217.026 202.714,210.481 192.588,210.481 C182.462,210.481 173.841,217.026 170.719,226.106 L99.558,226.106 C95.416,226.106 92.058,229.464 92.058,233.606 C92.058,237.748 95.415,241.106 99.558,241.106 Z M192.588,225.481 C197.068,225.481 200.712,229.126 200.712,233.606 C200.712,238.086 197.067,241.731 192.588,241.731 C188.108,241.731 184.463,238.086 184.463,233.606 C184.463,229.126 188.108,225.481 192.588,225.481 Z" id="Shape" fill="#000000" fill-rule="nonzero"></path>
    </g>
</svg>