<?xml version="1.0" encoding="UTF-8"?>
<svg width="42px" height="30px" viewBox="0 0 42 30" version="1.1" xmlns="http://www.w3.org/2000/svg" xmlns:xlink="http://www.w3.org/1999/xlink">
    <!-- Generator: Sketch 43.2 (39069) - http://www.bohemiancoding.com/sketch -->
    <title>Artboard</title>
    <desc>Created with Sketch.</desc>
    <defs></defs>
    <g id="Page-1" stroke="none" stroke-width="1" fill="none" fill-rule="evenodd">
        <g id="Artboard" fill-rule="nonzero" fill="#979797">
            <g id="Group" transform="translate(7.000000, 1.000000)">
                <path d="M27.9698447,20.8882816 L27.4494931,18.2545896 C27.2404228,17.196266 26.7253212,16.2341685 25.9599697,15.4723829 L25.0462509,14.5630652 L25.0462509,11.4638527 C25.6172978,11.2385974 26.0225322,10.6825818 26.0225322,10.0335057 C26.0225322,9.85830107 25.9926181,9.68997358 25.9382587,9.53294434 C26.5852665,9.35064415 27.0609384,8.75653109 27.0609384,8.05325623 C27.0609384,7.86751744 27.0277431,7.68936539 26.9669853,7.52436734 C27.5675087,7.31428547 27.9994853,6.74320555 27.9994853,6.0730613 C27.9994853,5.40286247 27.5675087,4.83183713 26.9669853,4.62175526 C27.0277431,4.45675721 27.0609384,4.27860516 27.0609384,4.09286637 C27.0609384,3.24495214 26.3697431,2.55521335 25.5202822,2.55521335 L22.4325712,2.55521335 C22.7160165,2.21348235 22.8523525,1.75500282 22.7700478,1.28926403 C22.6965478,0.873139274 22.4637431,0.512468709 22.1145087,0.273622705 C21.765329,0.0347767008 21.3441806,-0.0517340205 20.9289931,0.0300281628 L18.2901025,0.549365395 C17.2296572,0.758082744 16.2657353,1.27218021 15.5025165,2.03603986 L14.5914228,2.94797748 L11.4861572,2.94797748 C11.2604618,2.37804376 10.7033603,1.97359931 10.0530712,1.97359931 C9.87752434,1.97359931 9.70886809,2.00345506 9.55153215,2.05770847 C9.3688759,1.41196189 8.77360246,0.937217247 8.06900871,0.937217247 C7.88290715,0.937217247 7.70440715,0.970347851 7.53908684,1.03098723 C7.32859465,0.431634401 6.75639934,0.000499897675 6.08494621,0.000499897675 C5.4134384,0.000499897675 4.84129778,0.431688981 4.63080559,1.03104181 C4.46548528,0.970402432 4.28698528,0.937271827 4.10088371,0.937271827 C3.25136809,0.937271827 2.56022746,1.6270652 2.56022746,2.47492485 L2.56022746,5.55661686 C2.21788371,5.27377865 1.75861809,5.13776306 1.29180559,5.21985272 C0.874868089,5.29320945 0.513493089,5.52556033 0.274180589,5.87411393 C0.0348680889,6.22261296 -0.0518115986,6.64288586 0.0300555889,7.05737319 L0.550516526,9.6910652 C0.759641526,10.7494434 1.27474309,11.7114863 2.04003996,12.4732172 L2.95370403,13.382535 L2.95370403,16.4816929 C2.38260246,16.7069482 1.9773134,17.2630184 1.9773134,17.9120399 C1.9773134,18.0872991 2.00722746,18.255572 2.06158684,18.4126558 C1.41457903,18.594956 0.938907151,19.1890145 0.938907151,19.8922894 C0.938907151,20.0780827 0.972102464,20.2562348 1.03286028,20.4212328 C0.432282151,20.6313147 0.0003602764,21.2023946 0.0003602764,21.8725389 C0.0003602764,22.5427377 0.432336839,23.1137631 1.03286028,23.3237903 C0.972102464,23.4887884 0.938907151,23.666995 0.938907151,23.8527338 C0.938907151,24.7005935 1.63010246,25.3903868 2.4795634,25.3903868 L5.56727434,25.3903868 C5.28388371,25.7321178 5.14754778,26.1905428 5.22985246,26.6562816 C5.30335246,27.0724063 5.53615715,27.4330769 5.88533684,27.6718683 C6.14871184,27.8520399 6.45299309,27.9455369 6.7648759,27.9455369 C6.86643059,27.9455369 6.96886028,27.9355486 7.07096184,27.9155174 L9.70985246,27.3961256 C10.7701884,27.1874629 11.734165,26.6733654 12.4974384,25.9095057 L13.4085322,24.9975681 L16.5137978,24.9975681 C16.7394931,25.5675564 17.2965947,25.9720555 17.9469384,25.9720555 C18.1224853,25.9720555 18.2911415,25.9421997 18.4484775,25.8879463 C18.6311884,26.5336929 19.2264618,27.0083829 19.9310009,27.0083829 C20.1171025,27.0083829 20.2956572,26.9752523 20.4609775,26.914613 C20.671415,27.5140204 21.2436103,27.9451003 21.9150634,27.9451003 C22.5865712,27.9451003 23.1587665,27.5139658 23.369204,26.914613 C23.5345243,26.9752523 23.713079,27.0083829 23.8991806,27.0083829 C24.7486962,27.0083829 25.4397822,26.318535 25.4397822,25.4707299 L25.4397822,22.3891471 C25.7821806,22.6719307 26.2413368,22.8080555 26.708204,22.7258566 C27.1251415,22.6524999 27.4865165,22.420149 27.7257743,22.07165 C27.9650322,21.723151 28.0517665,21.3028235 27.9698447,20.8882816 Z M11.5938915,7.19513538 L11.5938915,5.70736929 L11.5938915,4.03954083 L14.8184853,4.03954083 C14.96379,4.03954083 15.1031337,3.98179424 15.2057275,3.87912758 L16.2770556,2.80688586 C16.8862197,2.19727183 17.6553993,1.78693265 18.5017431,1.62040633 L21.1406337,1.1010691 C21.2653212,1.07661686 21.3915947,1.1024882 21.4963759,1.17415292 C21.6011572,1.24581764 21.6709931,1.35405155 21.6930322,1.47887807 C21.7357978,1.72083518 21.5820165,1.95613343 21.3430322,2.01464415 L20.2463837,2.28301842 C19.9004853,2.36761881 19.6803681,2.68517046 19.723079,3.03803596 C19.76579,3.39090146 20.0552509,3.64704961 20.4114306,3.64704961 L25.5204462,3.64704961 C25.7669228,3.64704961 25.9674072,3.84719775 25.9674072,4.09313927 C25.9674072,4.3210691 25.7951962,4.50926403 25.5738212,4.53568118 L22.5470868,4.53917436 C22.2451025,4.53917436 22.0002118,4.78353304 22.0002118,5.08498333 C22.0002118,5.38643362 22.2451025,5.6307923 22.5470868,5.6307923 L26.4590478,5.62729912 C26.7055243,5.62729912 26.9060087,5.82744727 26.9060087,6.07338879 C26.9060087,6.31933031 26.7055243,6.51947846 26.4590478,6.51947846 L22.5470868,6.51947846 C22.2451025,6.51947846 22.0002118,6.76383713 22.0002118,7.06528742 C22.0002118,7.36673771 22.2451025,7.61109639 22.5470868,7.61109639 L25.57404,7.61109639 C25.7953056,7.6376227 25.9674072,7.82581764 25.9674072,8.0536383 C25.9674072,8.29957982 25.7669228,8.49972797 25.5204462,8.49972797 L22.5470868,8.49972797 C22.2451025,8.49972797 22.0002118,8.74408664 22.0002118,9.04553693 C22.0002118,9.34698723 22.2451025,9.5913459 22.5470868,9.5913459 L24.5354697,9.5913459 C24.7567353,9.61781764 24.9290009,9.80601257 24.9290009,10.0339424 C24.9290009,10.2798839 24.7285165,10.4799775 24.4820947,10.4799775 L18.9593134,10.4799775 C17.8023447,10.4799775 16.7152118,10.0296851 15.89829,9.21200867 L15.2058368,8.51894044 C15.1032431,8.41627378 14.9638993,8.35852719 14.8185947,8.35852719 L11.5938915,8.35852719 L11.5938915,7.19513538 Z M2.81228215,11.7000788 C2.20142278,11.0921568 1.79033684,10.3244219 1.62353996,9.47972797 L1.10313371,6.84603596 C1.07852434,6.7216461 1.10455559,6.59556423 1.17636028,6.49098723 C1.24816496,6.38641023 1.35661028,6.31671042 1.48168059,6.29471432 C1.72438371,6.25214122 1.9598134,6.40551354 2.0184384,6.64408664 L2.28728215,7.7384882 C2.37199309,8.08376695 2.69038371,8.303073 3.04371965,8.26082738 C3.39732903,8.21825428 3.65397746,7.92930302 3.65397746,7.57387222 L3.65397746,2.47481569 C3.65397746,2.22887417 3.85446184,2.02872602 4.1009384,2.02872602 C4.32925871,2.02872602 4.51776653,2.20054668 4.54434465,2.42138099 L4.54784465,5.44237904 C4.54784465,5.74382933 4.79273528,5.98818801 5.09471965,5.98818801 C5.39670403,5.98818801 5.64159465,5.74382933 5.64159465,5.44237904 L5.64159465,2.47481569 C5.64159465,2.44157592 5.64017278,2.40871822 5.63809465,2.37596968 L5.63809465,1.53804376 C5.63809465,1.29210224 5.83857903,1.09200867 6.08505559,1.09200867 C6.33153215,1.09200867 6.53201653,1.29210224 6.53201653,1.53804376 L6.53201653,2.37602426 C6.5299384,2.40871822 6.52851653,2.4416305 6.52851653,2.47487027 L6.53201653,5.44243362 C6.53201653,5.74388391 6.77690715,5.98824259 7.07889153,5.98824259 C7.3808759,5.98824259 7.62576653,5.74388391 7.62576653,5.44243362 L7.62576653,2.42138099 C7.65234465,2.20054668 7.84090715,2.02872602 8.06917278,2.02872602 C8.31564934,2.02872602 8.51613371,2.22887417 8.51613371,2.47481569 C8.51613371,2.47481569 8.51394621,5.13006715 8.51613371,5.1499346 L8.51613371,5.44243362 C8.51613371,5.74388391 8.76102434,5.98824259 9.06300871,5.98824259 C9.36499309,5.98824259 9.60988371,5.74388391 9.60988371,5.44243362 L9.60988371,3.45776306 C9.63646184,3.23692875 9.82502434,3.06510808 10.05329,3.06510808 C10.2997665,3.06510808 10.5002509,3.26525623 10.5002509,3.51119775 L10.5002509,9.02315877 C10.5002509,10.1611159 10.0371572,11.2746753 9.22986028,12.0782153 L8.5354384,12.7693186 C8.43251653,12.8717124 8.37471184,13.0107845 8.37471184,13.1558059 L8.37471184,16.3741685 L7.28101653,16.3741685 L7.28101653,14.9249911 C7.28101653,14.6235954 7.0361259,14.3791822 6.73414153,14.3791822 C6.43215715,14.3791822 6.18726653,14.6235954 6.18726653,14.9249911 L6.18726653,16.3741685 L4.04739934,16.3741685 L4.04739934,13.1558059 C4.04739934,13.0107845 3.98953996,12.8717124 3.88667278,12.7693186 L2.81228215,11.7000788 Z M16.4062275,23.905841 L13.1814697,23.905841 L13.1814697,23.9058956 C13.036165,23.9058956 12.8968212,23.9636422 12.7942275,24.0662543 L11.7228993,25.138496 C11.1137353,25.7482192 10.3445009,26.1585038 9.49821184,26.324921 L6.85932121,26.8443128 C6.73463371,26.8689287 6.60836028,26.8429482 6.50357903,26.7712289 C6.39879778,26.6995096 6.32896184,26.5913303 6.30692278,26.4665038 C6.26415715,26.2246013 6.4179384,25.989303 6.65692278,25.9308469 L7.75368059,25.6624726 C8.09952434,25.5778176 8.31958684,25.2603206 8.27682121,24.9074551 C8.23416496,24.5545896 7.94464934,24.298496 7.58852434,24.298496 L2.47961809,24.298496 C2.23314153,24.298496 2.03265715,24.0984024 2.03265715,23.8524063 C2.03265715,23.6244219 2.20497746,23.4361724 2.42640715,23.4098098 L5.45303215,23.4063712 C5.75501653,23.4063712 5.99990715,23.161958 5.99990715,22.8605623 C5.99990715,22.5591666 5.75501653,22.3147533 5.45303215,22.3147533 L1.54107121,22.3181919 C1.29459465,22.3181919 1.09411028,22.1180983 1.09411028,21.8721022 C1.09411028,21.6261607 1.29459465,21.4260671 1.54107121,21.4260671 L5.45303215,21.4260671 C5.75501653,21.4260671 5.99990715,21.1816539 5.99990715,20.8802582 C5.99990715,20.5788625 5.75501653,20.3344492 5.45303215,20.3344492 L2.42640715,20.3344492 C2.20497746,20.3080866 2.03265715,20.1198371 2.03265715,19.8918527 C2.03265715,19.6459112 2.23314153,19.4458176 2.47961809,19.4458176 L5.45303215,19.4458176 C5.75501653,19.4458176 5.99990715,19.2014044 5.99990715,18.9000087 C5.99990715,18.598613 5.75501653,18.3541997 5.45303215,18.3541997 L3.4648134,18.3541997 C3.2434384,18.3278371 3.07111809,18.1395876 3.07111809,17.9116032 C3.07111809,17.6656071 3.27160246,17.4655135 3.51802434,17.4655135 L9.0407509,17.4655135 C10.197665,17.4655135 11.2847978,17.9158605 12.1017743,18.7334824 L12.7942275,19.4265506 C12.8968212,19.5292718 13.036165,19.5869638 13.1814697,19.5869638 L16.4062275,19.5869638 L16.4062275,23.905841 Z M16.4229072,18.495728 L13.4084228,18.495728 L12.8762587,17.963073 C11.9538447,17.0398371 10.7566806,16.4905896 9.46824309,16.3909248 L9.46824309,13.3823167 L10.0019384,12.85119 C10.9124306,11.9450379 11.4731962,10.7242816 11.5763368,9.44976306 L14.5915868,9.44976306 L15.1237509,9.98241803 C16.046165,10.9056539 17.2433837,11.4548469 18.5318212,11.5545662 L18.5318212,14.5632289 L17.9981259,15.0943556 C17.0730868,16.0148625 16.5227665,17.209802 16.4229072,18.495728 Z M26.82354,21.4544492 C26.7517353,21.5590262 26.64329,21.628726 26.518165,21.6507767 C26.2755165,21.6936773 26.0400322,21.5399775 25.9815165,21.3014044 L25.7126181,20.2068391 C25.6277978,19.8615603 25.309079,19.6423089 24.9560712,19.6846636 C24.6025165,19.7272913 24.3459228,20.016188 24.3459228,20.3716188 L24.3459228,25.4706753 C24.3459228,25.7166714 24.1454384,25.916765 23.8990165,25.916765 C23.6705868,25.916765 23.4819697,25.7447806 23.4555556,25.5237825 L23.4521103,22.503112 C23.4521103,22.2017163 23.2072197,21.957303 22.9052353,21.957303 C22.6032509,21.957303 22.3583603,22.2017163 22.3583603,22.503112 L22.3618056,26.4075018 C22.3618056,26.6534434 22.1613212,26.8535369 21.9148447,26.8535369 C21.6684228,26.8535369 21.4679384,26.6534434 21.4679384,26.4075018 L21.4679384,22.503112 C21.4679384,22.2017163 21.2230478,21.957303 20.9210634,21.957303 C20.619079,21.957303 20.3741884,22.2017163 20.3741884,22.503112 L20.3741884,25.5237825 C20.3477743,25.7447806 20.1591572,25.916765 19.9307275,25.916765 C19.6842509,25.916765 19.4837665,25.7166714 19.4837665,25.4706753 L19.4837665,22.503112 C19.4837665,22.2017163 19.2388759,21.957303 18.9368915,21.957303 C18.6349072,21.957303 18.3900165,22.2017163 18.3900165,22.503112 L18.3900165,24.4877825 C18.3634384,24.7086169 18.1748759,24.8804375 17.9466103,24.8804375 C17.7001337,24.8804375 17.4996493,24.680344 17.4996493,24.4343479 L17.4996493,22.2383401 L17.4996493,20.750574 L17.4996493,18.9223868 C17.4996493,17.767728 17.9508759,16.6827143 18.7700947,15.8672757 L19.4645165,15.1761724 C19.5674384,15.0737787 19.6252431,14.9347065 19.6252431,14.7896851 L19.6252431,11.5712679 L20.7906337,11.5712679 L21.73454,11.5712679 L21.73454,13.2268703 C21.73454,13.5283206 21.9794306,13.7726792 22.281415,13.7726792 C22.5833993,13.7726792 22.82829,13.5283206 22.82829,13.2268703 L22.82829,11.5712679 L23.9523368,11.5712679 L23.9523368,14.7896851 C23.9523368,14.9347065 24.0101962,15.0737787 24.1130087,15.1761724 L25.1873447,16.2454122 C25.7982587,16.8533888 26.2093447,17.6211237 26.3760868,18.4658176 L26.8964931,21.0995096 C26.9213759,21.2238449 26.8953993,21.3499268 26.82354,21.4544492 Z" id="Shape"></path>
            </g>
        </g>
    </g>
</svg>