<?xml version="1.0" encoding="UTF-8"?>
<svg width="42px" height="30px" viewBox="0 0 42 30" version="1.1" xmlns="http://www.w3.org/2000/svg" xmlns:xlink="http://www.w3.org/1999/xlink">
    <!-- Generator: Sketch 43.2 (39069) - http://www.bohemiancoding.com/sketch -->
    <title>Artboard</title>
    <desc>Created with Sketch.</desc>
    <defs></defs>
    <g id="Page-1" stroke="none" stroke-width="1" fill="none" fill-rule="evenodd">
        <g id="Artboard">
            <g id="async" transform="translate(7.000000, 1.000000)">
                <g id="async-communication" fill-rule="nonzero" fill="#979797">
                    <path d="M26.5808848,6.32258065 C27.3260507,6.32258065 27.9324553,5.71470968 27.9324553,4.96774194 L27.9324553,1.35483871 C27.9324553,0.607870968 27.3260507,-2.34937517e-15 26.5808848,-2.34937517e-15 L20.2735562,-2.34937517e-15 C19.5283904,-2.34937517e-15 18.9219858,0.607870968 18.9219858,1.35483871 L18.9219858,4.96774194 C18.9219858,5.59774194 19.3553894,6.12432258 19.9374657,6.27516129 L18.3290969,8.83580645 C17.2586532,7.92535484 15.9025775,7.34774194 14.4163006,7.24883871 L14.4163006,4.47051613 C15.4430436,4.26051613 16.2183945,3.34870968 16.2183945,2.25806452 C16.2183945,1.01296774 15.2078703,-3.55271368e-15 13.9657771,-3.55271368e-15 C12.7236839,-3.55271368e-15 11.7131597,1.01296774 11.7131597,2.25806452 C11.7131597,3.34825806 12.4885106,4.26051613 13.5152536,4.47051613 L13.5152536,7.24883871 C12.0289767,7.34774194 10.6733516,7.92535484 9.60245728,8.83580645 L7.99408848,6.27516129 C8.57706586,6.12432258 9.01046944,5.59774194 9.01046944,4.96774194 L9.01046944,1.35483871 C9.01046944,0.607870968 8.40406484,-3.15160084e-15 7.65889902,-3.15160084e-15 L1.35157042,-3.15160084e-15 C0.606404593,-3.15160084e-15 -9.45770536e-15,0.607870968 -9.45770536e-15,1.35483871 L-9.45770536e-15,4.96774194 C-9.45770536e-15,5.71470968 0.606404593,6.32258065 1.35157042,6.32258065 L2.70314083,6.32258065 L2.70314083,7.22580645 L1.80209389,7.22580645 L1.80209389,8.12903226 L7.20837555,8.12903226 L7.20837555,7.22580645 L6.30732861,7.22580645 L6.30732861,6.32258065 L6.95968659,6.32258065 L8.94469301,9.48251613 C7.96345289,10.5776774 7.33452212,11.9903226 7.23135225,13.5483871 L4.45973185,13.5483871 C4.25023843,12.5191613 3.34018102,11.7419355 2.25261736,11.7419355 C1.01052415,11.7419355 -1.0658141e-14,12.7549032 -1.0658141e-14,14 C-1.0658141e-14,15.2450968 1.01052415,16.2580645 2.25261736,16.2580645 C3.34018102,16.2580645 4.25023843,15.4808387 4.45973185,14.4516129 L7.23135225,14.4516129 C7.33272003,15.9794194 7.93822357,17.3676774 8.88657548,18.4533548 L7.4723823,19.8709677 L1.35157042,19.8709677 C0.606404593,19.8709677 -1.02579958e-14,20.4788387 -1.02579958e-14,21.2258065 L-1.02579958e-14,24.8387097 C-1.02579958e-14,25.5856774 0.606404593,26.1935484 1.35157042,26.1935484 L2.70314083,26.1935484 L2.70314083,27.0967742 L1.80209389,27.0967742 L1.80209389,28 L7.20837555,28 L7.20837555,27.0967742 L6.30732861,27.0967742 L6.30732861,26.1935484 L7.65889902,26.1935484 C8.40406484,26.1935484 9.01046944,25.5856774 9.01046944,24.8387097 L9.01046944,21.2258065 C9.01046944,20.7845806 8.79602026,20.3961935 8.46939075,20.1487097 L9.52361567,19.0919355 C10.6066741,20.0425806 11.9915832,20.6495484 13.5157042,20.7511613 L13.5157042,23.5294839 C12.4889612,23.7394839 11.7136103,24.6512903 11.7136103,25.7419355 C11.7136103,26.9870323 12.7241344,28 13.9662276,28 C15.2083208,28 16.218845,26.9870323 16.218845,25.7419355 C16.218845,24.6517419 15.4434941,23.7394839 14.4167511,23.5294839 L14.4167511,20.7511613 C15.940872,20.6495484 17.3257812,20.0425806 18.4088396,19.0919355 L19.4630645,20.1487097 C19.136435,20.3961935 18.9219858,20.7845806 18.9219858,21.2258065 L18.9219858,24.8387097 C18.9219858,25.5856774 19.5283904,26.1935484 20.2735562,26.1935484 L21.6251266,26.1935484 L21.6251266,27.0967742 L20.7240797,27.0967742 L20.7240797,28 L26.1303614,28 L26.1303614,27.0967742 L25.2293144,27.0967742 L25.2293144,26.1935484 L26.5808848,26.1935484 C27.3260507,26.1935484 27.9324553,25.5856774 27.9324553,24.8387097 L27.9324553,21.2258065 C27.9324553,20.4788387 27.3260507,19.8709677 26.5808848,19.8709677 L20.4600729,19.8709677 L19.0458798,18.4533548 C19.9942317,17.3676774 20.5997352,15.9794194 20.701103,14.4516129 L23.4727234,14.4516129 C23.6822168,15.4808387 23.6822168,12.5191613 23.4727234,13.5483871 L20.701103,13.5483871 C20.5979331,11.9903226 19.9690024,10.5776774 18.9877622,9.48251613 L20.9727687,6.32258065 L21.6251266,6.32258065 L21.6251266,7.22580645 L20.7240797,7.22580645 L20.7240797,8.12903226 L26.1303614,8.12903226 L26.1303614,7.22580645 L25.2293144,7.22580645 L25.2293144,6.32258065 L26.5808848,6.32258065 Z M2.25261736,15.3548387 C1.50745154,15.3548387 0.901046944,14.7469677 0.901046944,14 C0.901046944,13.2530323 1.50745154,12.6451613 2.25261736,12.6451613 C2.99778318,12.6451613 3.60418777,13.2530323 3.60418777,14 C3.60418777,14.7469677 2.99778318,15.3548387 2.25261736,15.3548387 Z M20.2735562,0.903225806 L26.5808848,0.903225806 C26.8295738,0.903225806 27.0314083,1.106 27.0314083,1.35483871 L27.0314083,3.61290323 L19.8230328,3.61290323 L19.8230328,1.35483871 C19.8230328,1.106 20.0248673,0.903225806 20.2735562,0.903225806 Z M19.8230328,4.51612903 L27.0314083,4.51612903 L27.0314083,4.96774194 C27.0314083,5.21658065 26.8295738,5.41935484 26.5808848,5.41935484 L20.2735562,5.41935484 C20.0248673,5.41935484 19.8230328,5.21658065 19.8230328,4.96774194 L19.8230328,4.51612903 Z M13.9662276,19.8709677 C13.3350442,19.8709677 12.6637643,19.0210323 12.2190976,17.6129032 L15.7133576,17.6129032 C15.268691,19.0210323 14.597411,19.8709677 13.9662276,19.8709677 Z M11.9834738,16.7096774 C11.8411084,16.0372258 11.7483006,15.2785161 11.7230713,14.4516129 L16.2089335,14.4516129 C16.1837042,15.2785161 16.0908963,16.0372258 15.9485309,16.7096774 L11.9834738,16.7096774 Z M8.13239919,14.4516129 L10.8224748,14.4516129 C10.845001,15.2563871 10.9242931,16.0169032 11.0571976,16.7096774 L8.77574671,16.7096774 C8.41848159,16.0245806 8.19412091,15.2609032 8.13239919,14.4516129 Z M15.7133576,10.3870968 L12.2190976,10.3870968 C12.6637643,8.97896774 13.3350442,8.12903226 13.9662276,8.12903226 C14.597411,8.12903226 15.268691,8.97896774 15.7133576,10.3870968 Z M15.9489814,11.2903226 C16.0913468,11.9627742 16.1841547,12.7214839 16.209384,13.5483871 L11.7235218,13.5483871 C11.7487511,12.7214839 11.8415589,11.9627742 11.9839243,11.2903226 L15.9489814,11.2903226 Z M11.2734488,10.3870968 L9.35962513,10.3870968 C10.0642438,9.48612903 11.0229578,8.79696774 12.1294434,8.42935484 C11.7829909,8.94509677 11.4928538,9.60987097 11.2734488,10.3870968 Z M11.0571976,11.2903226 C10.9238426,11.9830968 10.845001,12.7436129 10.8224748,13.5483871 L8.13239919,13.5483871 C8.19412091,12.7390968 8.41848159,11.9754194 8.77574671,11.2903226 L11.0571976,11.2903226 Z M17.1099804,14.4516129 L19.8000561,14.4516129 C19.7383343,15.2609032 19.5139737,16.0245806 19.1567085,16.7096774 L16.8752577,16.7096774 C17.0081621,16.0169032 17.0874542,15.2563871 17.1099804,14.4516129 Z M17.1099804,13.5483871 C17.0874542,12.7436129 17.0081621,11.9830968 16.8752577,11.2903226 L19.1567085,11.2903226 C19.5139737,11.9754194 19.7383343,12.7390968 19.8000561,13.5483871 L17.1099804,13.5483871 Z M16.6590064,10.3870968 C16.439151,9.60987097 16.1494644,8.94509677 15.8034623,8.42935484 C16.909948,8.79696774 17.8686619,9.48658065 18.5732806,10.3870968 L16.6590064,10.3870968 Z M12.6146572,2.25806452 C12.6146572,1.51109677 13.2210618,0.903225806 13.9662276,0.903225806 C14.7113934,0.903225806 15.317798,1.51109677 15.317798,2.25806452 C15.317798,3.00503226 14.7113934,3.61290323 13.9662276,3.61290323 C13.2210618,3.61290323 12.6146572,3.00503226 12.6146572,2.25806452 L12.6146572,2.25806452 Z M1.35157042,0.903225806 L7.65889902,0.903225806 C7.90758798,0.903225806 8.10942249,1.106 8.10942249,1.35483871 L8.10942249,3.61290323 L0.901046944,3.61290323 L0.901046944,1.35483871 C0.901046944,1.106 1.10288146,0.903225806 1.35157042,0.903225806 Z M0.901046944,4.96774194 L0.901046944,4.51612903 L8.10942249,4.51612903 L8.10942249,4.96774194 C8.10942249,5.21658065 7.90758798,5.41935484 7.65889902,5.41935484 L1.35157042,5.41935484 C1.10288146,5.41935484 0.901046944,5.21658065 0.901046944,4.96774194 Z M5.40628166,7.22580645 L3.60418777,7.22580645 L3.60418777,6.32258065 L5.40628166,6.32258065 L5.40628166,7.22580645 Z M1.35157042,20.7741935 L7.65889902,20.7741935 C7.90758798,20.7741935 8.10942249,20.9765161 8.10942249,21.2258065 L8.10942249,23.483871 L0.901046944,23.483871 L0.901046944,21.2258065 C0.901046944,20.9765161 1.10288146,20.7741935 1.35157042,20.7741935 Z M5.40628166,27.0967742 L3.60418777,27.0967742 L3.60418777,26.1935484 L5.40628166,26.1935484 L5.40628166,27.0967742 Z M7.65889902,25.2903226 L1.35157042,25.2903226 C1.10288146,25.2903226 0.901046944,25.088 0.901046944,24.8387097 L0.901046944,24.3870968 L8.10942249,24.3870968 L8.10942249,24.8387097 C8.10942249,25.088 7.90758798,25.2903226 7.65889902,25.2903226 Z M9.35962513,17.6129032 L11.2734488,17.6129032 C11.4928538,18.390129 11.7829909,19.0549032 12.1289929,19.5706452 C11.0225073,19.2030323 10.0637933,18.5134194 9.35962513,17.6129032 L9.35962513,17.6129032 Z M15.317798,25.7419355 C15.317798,26.4889032 14.7113934,27.0967742 13.9662276,27.0967742 C13.2210618,27.0967742 12.6146572,26.4889032 12.6146572,25.7419355 C12.6146572,24.9949677 13.2210618,24.3870968 13.9662276,24.3870968 C14.7113934,24.3870968 15.317798,24.9949677 15.317798,25.7419355 Z M15.8034623,19.5706452 C16.1494644,19.0549032 16.439151,18.390129 16.6590064,17.6129032 L18.5728301,17.6129032 C17.8686619,18.5134194 16.909948,19.2030323 15.8034623,19.5706452 Z M24.3282675,27.0967742 L22.5261736,27.0967742 L22.5261736,26.1935484 L24.3282675,26.1935484 L24.3282675,27.0967742 Z M26.5808848,25.2903226 L20.2735562,25.2903226 C20.0248673,25.2903226 19.8230328,25.088 19.8230328,24.8387097 L19.8230328,24.3870968 L27.0314083,24.3870968 L27.0314083,24.8387097 C27.0314083,25.088 26.8295738,25.2903226 26.5808848,25.2903226 Z M27.0314083,21.2258065 L27.0314083,23.483871 L19.8230328,23.483871 L19.8230328,21.2258065 C19.8230328,20.9765161 20.0248673,20.7741935 20.2735562,20.7741935 L26.5808848,20.7741935 C26.8295738,20.7741935 27.0314083,20.9765161 27.0314083,21.2258065 Z M24.3282675,7.22580645 L22.5261736,7.22580645 L22.5261736,6.32258065 L24.3282675,6.32258065 L24.3282675,7.22580645 Z" id="Shape"></path>
                </g>
                <g id="checkmark" transform="translate(23.427221, 11.741935)" fill-rule="nonzero" fill="#979797">
                    <path d="M2.96168891,3.0483871 C2.84504776,3.16463087 2.68965202,3.22858935 2.52455819,3.22858935 C2.35950211,3.22858935 2.20410636,3.16463087 2.08746522,3.0483871 L1.21158114,2.1772156 C1.09475132,2.06115948 1.03044963,1.9066307 1.03044963,1.74241807 C1.03044963,1.57820543 1.09475132,1.42367664 1.21158114,1.30765808 C1.32822229,1.1914143 1.48361803,1.12745582 1.64871186,1.12745582 C1.81376795,1.12745582 1.9691637,1.1914143 2.08580484,1.30765808 L2.52455819,1.74384437 L3.73576198,0.539142931 C3.3400651,0.203586136 2.82772707,3.75343171e-05 2.26697409,3.75343171e-05 C1.01497798,3.75343171e-05 -5.68434189e-14,1.00959806 -5.68434189e-14,2.2548741 C-5.68434189e-14,3.50018767 1.01497798,4.5097482 2.26697409,4.5097482 C3.51893246,4.5097482 4.53391044,3.50018767 4.53391044,2.2548741 C4.53391044,2.02182352 4.49828791,1.7971431 4.43232585,1.58559969 L2.96168891,3.0483871 Z" id="Shape"></path>
                    <path d="M2.52455819,2.81860201 C2.47180364,2.81860201 2.41904909,2.79852115 2.37886053,2.75854711 L1.5030142,1.88733807 C1.42241068,1.8072023 1.42241068,1.67763384 1.5030142,1.59749807 C1.58357998,1.51732477 1.713806,1.51732477 1.79440952,1.59749807 L2.52455819,2.32374958 L4.59432536,0.265067352 C4.67489114,0.184931583 4.80511715,0.184931583 4.88572067,0.265067352 C4.96628646,0.345240653 4.96628646,0.474771574 4.88572067,0.554944876 L2.67025585,2.75854711 C2.63010503,2.79852115 2.57731275,2.81860201 2.52455819,2.81860201 L2.52455819,2.81860201 Z" id="Shape"></path>
                </g>
                <ellipse id="Oval" fill="#979797" cx="13.9662276" cy="25.7419355" rx="2.25261736" ry="2.25806452"></ellipse>
                <ellipse id="Oval" fill="#979797" cx="13.9662276" cy="2.25806452" rx="2.25261736" ry="2.25806452"></ellipse>
                <path d="M13.8126801,25.8837261 C13.7334861,25.8837261 13.6641924,25.8572646 13.6047969,25.804341 C13.5454014,25.7514173 13.5157042,25.6786484 13.5157042,25.586032 C13.5157042,25.5040003 13.5444115,25.4342083 13.6018272,25.3766539 C13.6592428,25.3190994 13.7295264,25.2903226 13.8126801,25.2903226 C13.8958337,25.2903226 13.9667773,25.3190994 14.0255128,25.3766539 C14.0842484,25.4342083 14.1136157,25.5040003 14.1136157,25.586032 C14.1136157,25.6799715 14.0832584,25.7530712 14.0225431,25.8053333 C13.9618277,25.8575954 13.8918741,25.8837261 13.8126801,25.8837261 Z M12.9096533,25.8837261 C12.8304593,25.8837261 12.7614956,25.8575954 12.7027601,25.8053333 C12.6440245,25.7530712 12.6146572,25.6799715 12.6146572,25.586032 C12.6146572,25.5026773 12.6430346,25.4325545 12.6997903,25.3756615 C12.756546,25.3187686 12.8264996,25.2903226 12.9096533,25.2903226 C12.992807,25.2903226 13.0637505,25.3190994 13.122486,25.3766539 C13.1812216,25.4342083 13.2105889,25.5040003 13.2105889,25.586032 C13.2105889,25.6799715 13.1802317,25.7530712 13.1195163,25.8053333 C13.0588009,25.8575954 12.9888473,25.8837261 12.9096533,25.8837261 Z M14.713727,25.8837261 C14.6358529,25.8837261 14.5668892,25.8572646 14.5068338,25.804341 C14.4467784,25.7514173 14.4167511,25.6786484 14.4167511,25.586032 C14.4167511,25.5040003 14.4454585,25.4342083 14.5028741,25.3766539 C14.5602897,25.3190994 14.6305733,25.2903226 14.713727,25.2903226 C14.7968807,25.2903226 14.8678242,25.3190994 14.9265598,25.3766539 C14.9852953,25.4342083 15.0146626,25.5040003 15.0146626,25.586032 C15.0146626,25.6786484 14.9846354,25.7514173 14.9245799,25.804341 C14.8645245,25.8572646 14.7942409,25.8837261 14.713727,25.8837261 Z" id="…" fill="#FFFFFF"></path>
                <g id="Group" transform="translate(13.065181, 1.354839)" fill="#FFFFFF">
                    <path d="M0.75526352,1.15764321 L0.316156822,1.64975162 L0.786000989,1.64975162 C0.824057093,1.64975162 0.85274511,1.65870162 0.872065902,1.6766019 C0.891386693,1.69450218 0.901046944,1.71753743 0.901046944,1.74570836 C0.901046944,1.77270549 0.89153306,1.7947137 0.872505008,1.81173364 C0.853476956,1.82875357 0.824642571,1.83726341 0.786000989,1.83726341 L0.136123076,1.83726341 C0.0904557514,1.83726341 0.0563521389,1.82728636 0.0338112157,1.80733195 C0.0112702925,1.78737754 0,1.76008737 0,1.7254606 C0,1.7049193 0.00790384152,1.68423159 0.0237117617,1.66339684 C0.0395196818,1.6425621 0.0723059874,1.60426782 0.122071662,1.54851286 C0.174764729,1.48982343 0.222626881,1.43671029 0.265659552,1.38917185 C0.308692224,1.34163342 0.348650534,1.29717684 0.385535681,1.25580079 C0.422420828,1.21442474 0.453011622,1.17935834 0.47730898,1.15060052 C0.501606339,1.1218427 0.521073208,1.0971935 0.535710171,1.0766522 L0.179155533,1.0766522 C0.129975337,1.0766522 0.092798008,1.07225056 0.0676224314,1.06344715 C0.0424468549,1.05464373 0.0298592554,1.03146176 0.0298592554,0.993900522 C0.0298592554,0.96631649 0.0393731388,0.944308284 0.0584011908,0.927875244 C0.0774292428,0.911442203 0.104507218,0.903225806 0.13963593,0.903225806 L0.690275729,0.903225806 C0.74121236,0.903225806 0.780292466,0.910708596 0.807517217,0.925674401 C0.834741968,0.940640206 0.84835414,0.967490217 0.84835414,1.00622524 C0.84835414,1.01913692 0.845719526,1.03248856 0.840450219,1.04628058 C0.835180913,1.06007259 0.829326215,1.07137014 0.822885951,1.08017355 C0.816445688,1.08897697 0.807663642,1.09968763 0.79653955,1.11230585 C0.785415458,1.12492408 0.771656919,1.14003638 0.75526352,1.15764321 Z" id="z"></path>
                    <path d="M1.98411334,0.364840794 L1.35442357,1.07053631 L2.02819162,1.07053631 C2.08276501,1.07053631 2.12390433,1.08337083 2.15161082,1.10904027 C2.1793173,1.1347097 2.19317034,1.16774282 2.19317034,1.20814062 C2.19317034,1.24685518 2.1795272,1.27841549 2.15224051,1.30282249 C2.12495381,1.32722949 2.0836046,1.33943281 2.02819162,1.33943281 L1.09625077,1.33943281 C1.03076271,1.33943281 0.981857292,1.32512547 0.949533055,1.29651037 C0.917208819,1.26789526 0.901046944,1.22876048 0.901046944,1.17910485 C0.901046944,1.14964812 0.912381246,1.11998143 0.935050191,1.0901039 C0.957719136,1.06022636 1.0047355,1.00531142 1.0761007,0.925357447 C1.15166385,0.841195366 1.22029935,0.765029826 1.28200925,0.696858541 C1.34371916,0.628687256 1.40102035,0.564935436 1.45391456,0.50560117 C1.50680876,0.446266903 1.55067671,0.395980814 1.58551972,0.354741395 C1.62036273,0.313501976 1.64827869,0.278154432 1.66926846,0.248697704 L1.15796037,0.248697704 C1.08743476,0.248697704 1.03412156,0.242385643 0.998019167,0.229761331 C0.961916774,0.217137018 0.943865848,0.183893495 0.943865848,0.130029764 C0.943865848,0.0904735862 0.957508989,0.0589132795 0.984795682,0.035347897 C1.01208238,0.0117825145 1.05091286,0 1.10128829,0 L1.89091925,0 C1.96396363,0 2.02000546,0.0107305043 2.05904642,0.0321918348 C2.09808738,0.0536531653 2.11760757,0.0921567395 2.11760757,0.147703712 C2.11760757,0.16621937 2.11382947,0.185365956 2.10627315,0.205144045 C2.09871684,0.224922134 2.09032106,0.241123091 2.08108556,0.253747403 C2.07185007,0.266371716 2.0592564,0.281731065 2.04330418,0.299825912 C2.02735196,0.317920759 2.00762187,0.33959217 1.98411334,0.364840794 Z" id="z"></path>
                </g>
            </g>
        </g>
    </g>
</svg>