<?xml version="1.0" encoding="UTF-8"?>
<svg width="511px" height="489px" viewBox="0 0 511 489" version="1.1" xmlns="http://www.w3.org/2000/svg" xmlns:xlink="http://www.w3.org/1999/xlink">
    <!-- Generator: Sketch 61.2 (89653) - https://sketch.com -->
    <title>cv</title>
    <desc>Created with Sketch.</desc>
    <g id="Page-1" stroke="none" stroke-width="1" fill="none" fill-rule="evenodd">
        <g id="cv" fill="#979797" fill-rule="nonzero">
            <path d="M141.387203,179.577304 C143.278188,184.626429 148.132366,187.944426 153.520699,187.874244 C158.909031,187.804064 163.677433,184.357403 165.431956,179.26149 L186.996984,113.884091 C188.470783,109.415908 186.041744,104.59682 181.57356,103.12692 C177.105377,101.653122 172.286289,104.08216 170.81639,108.550343 L153.314055,161.470635 L135.85071,108.515253 C134.38081,104.04707 129.561723,101.618031 125.093539,103.09183 C120.625355,104.565629 118.196317,109.380818 119.670116,113.849001 L141.387203,179.577304 Z" id="Path"></path>
            <path d="M76.6570273,187.874244 C90.7672856,187.874244 102.206771,176.43476 102.206771,162.320603 C102.206771,157.618483 98.3936091,153.805321 93.6914899,153.805321 C88.985471,153.805321 85.1723088,157.618483 85.1723088,162.320603 C85.1723088,167.026622 81.3591475,170.839783 76.6570273,170.839783 L59.6225658,170.839783 C54.9165469,170.839783 51.1033857,167.026622 51.1033857,162.320603 L51.1033857,128.25168 C51.1033857,123.54956 54.9165469,119.736398 59.6225658,119.736398 L76.6570273,119.736398 C81.3591475,119.736398 85.1723088,123.54956 85.1723088,128.25168 C85.1723088,132.957698 88.985471,136.77086 93.6914899,136.77086 C98.3936091,136.77086 102.206771,132.957698 102.206771,128.25168 C102.206771,114.141421 90.7672856,102.698037 76.6570273,102.698037 L59.6225658,102.698037 C45.5084088,102.698037 34.0689231,114.141421 34.0689231,128.25168 L34.0689231,162.320603 C34.0689231,176.43476 45.5084088,187.874244 59.6225658,187.874244 L76.6570273,187.874244 Z" id="Path"></path>
            <path d="M264.040006,247.496811 L144.794875,247.496811 C140.092755,247.496811 136.279593,251.309972 136.279593,256.012093 C136.279593,260.718111 140.092755,264.531273 144.794875,264.531273 L264.040006,264.531273 C268.742126,264.531273 272.555287,260.718111 272.555287,256.012093 C272.555287,251.309972 268.742126,247.496811 264.040006,247.496811 L264.040006,247.496811 Z" id="Path"></path>
            <path d="M264.040006,315.634657 L144.794875,315.634657 C140.092755,315.634657 136.279593,319.44782 136.279593,324.149939 C136.279593,328.855958 140.092755,332.66912 144.794875,332.66912 L264.040006,332.66912 C268.742126,332.66912 272.555287,328.855958 272.555287,324.149939 C272.555287,319.44782 268.742126,315.634657 264.040006,315.634657 Z" id="Path"></path>
            <path d="M264.040006,383.772506 L144.794875,383.772506 C140.092755,383.772506 136.279593,387.585667 136.279593,392.291686 C136.279593,396.993805 140.092755,400.806967 144.794875,400.806967 L264.040006,400.806967 C268.742126,400.806967 272.555287,396.993805 272.555287,392.291686 C272.555287,387.585667 268.742126,383.772506 264.040006,383.772506 L264.040006,383.772506 Z" id="Path"></path>
            <path d="M264.040006,213.423988 L204.41744,213.423988 C199.711422,213.423988 195.89826,217.23715 195.89826,221.943169 C195.89826,226.645288 199.711422,230.45845 204.41744,230.45845 L264.040006,230.45845 C268.742126,230.45845 272.555287,226.645288 272.555287,221.943169 C272.555287,217.23715 268.742126,213.423988 264.040006,213.423988 Z" id="Path"></path>
            <path d="M264.040006,281.565734 L204.41744,281.565734 C199.711422,281.565734 195.89826,285.378896 195.89826,290.081016 C195.89826,294.787035 199.711422,298.600196 204.41744,298.600196 L264.040006,298.600196 C268.742126,298.600196 272.555287,294.787035 272.555287,290.081016 C272.555287,285.378896 268.742126,281.565734 264.040006,281.565734 Z" id="Path"></path>
            <path d="M264.040006,349.703582 L204.41744,349.703582 C199.711422,349.703582 195.89826,353.516744 195.89826,358.218863 C195.89826,362.924882 199.711422,366.738043 204.41744,366.738043 L264.040006,366.738043 C268.742126,366.738043 272.555287,362.924882 272.555287,358.218863 C272.555287,353.516744 268.742126,349.703582 264.040006,349.703582 Z" id="Path"></path>
            <path d="M110.725951,383.772506 L51.1033857,383.772506 C46.4012655,383.772506 42.5881042,387.585667 42.5881042,392.291686 C42.5881042,396.993805 46.4012655,400.806967 51.1033857,400.806967 L110.725951,400.806967 C115.428071,400.806967 119.241233,396.993805 119.241233,392.291686 C119.241233,387.585667 115.428071,383.772506 110.725951,383.772506 L110.725951,383.772506 Z" id="Path"></path>
            <path d="M108.963631,288.845053 C118.882531,279.171786 121.954894,264.449394 116.730317,251.617989 C111.505739,238.782684 99.0291363,230.388269 85.1723088,230.388269 C71.3154822,230.388269 58.8388794,238.782684 53.6182007,251.617989 C48.3936232,264.449394 51.4659867,279.171786 61.3848859,288.845053 C49.6373848,296.755998 42.5920029,309.988995 42.5881042,324.149939 L42.5881042,349.703582 C42.5881042,359.11172 50.2144277,366.738043 59.6225658,366.738043 L110.725951,366.738043 C120.134089,366.738043 127.760413,359.11172 127.760413,349.703582 L127.760413,324.149939 C127.752616,309.988995 120.707234,296.755998 108.963631,288.845053 L108.963631,288.845053 Z M68.1378472,264.531273 C68.1378472,255.123134 75.7641707,247.496811 85.1723088,247.496811 C94.5804468,247.496811 102.206771,255.123134 102.206771,264.531273 C102.206771,273.939411 94.5804468,281.565734 85.1723088,281.565734 C75.7641707,281.565734 68.1378472,273.939411 68.1378472,264.531273 L68.1378472,264.531273 Z M110.725951,349.703582 L59.6225658,349.703582 L59.6225658,324.149939 C59.6225658,310.039682 71.0620505,298.600196 85.1723088,298.600196 C99.2864657,298.600196 110.725951,310.039682 110.725951,324.149939 L110.725951,349.703582 Z" id="Shape"></path>
            <path d="M144.794875,298.600196 L170.348517,298.600196 C175.050636,298.600196 178.863799,294.787035 178.863799,290.081016 C178.863799,285.378896 175.050636,281.565734 170.348517,281.565734 L144.794875,281.565734 C140.092755,281.565734 136.279593,285.378896 136.279593,290.081016 C136.279593,294.787035 140.092755,298.600196 144.794875,298.600196 L144.794875,298.600196 Z" id="Path"></path>
            <path d="M144.794875,213.423988 C140.092755,213.423988 136.279593,217.23715 136.279593,221.943169 C136.279593,226.645288 140.092755,230.45845 144.794875,230.45845 L170.348517,230.45845 C175.050636,230.45845 178.863799,226.645288 178.863799,221.943169 C178.863799,217.23715 175.050636,213.423988 170.348517,213.423988 L144.794875,213.423988 Z" id="Path"></path>
            <path d="M144.794875,366.738043 L170.348517,366.738043 C175.050636,366.738043 178.863799,362.924882 178.863799,358.218863 C178.863799,353.516744 175.050636,349.703582 170.348517,349.703582 L144.794875,349.703582 C140.092755,349.703582 136.279593,353.516744 136.279593,358.218863 C136.279593,362.924882 140.092755,366.738043 144.794875,366.738043 L144.794875,366.738043 Z" id="Path"></path>
            <path d="M445.356237,0.491266735 C434.111698,1.35683056 423.393517,5.61447127 414.617006,12.6949434 C414.055559,12.4571084 413.552597,12.1529907 412.971655,11.9541446 C399.613892,7.40408424 385.098144,14.5430397 380.548083,27.9008031 L360.955917,85.3750535 L278.586945,2.99438468 C276.980583,1.40361782 274.816672,0.502962802 272.555287,0.491266735 L85.1723088,0.491266735 C71.0620505,0.491266735 59.6225658,11.9307515 59.6225658,26.0449084 L59.6225658,60.1138315 L25.5536417,60.1138315 C11.4394857,60.1138315 -8.51055313e-14,71.5533172 -8.51055313e-14,85.6635755 L-8.51055313e-14,426.360609 C-8.51055313e-14,440.470867 11.4394857,451.910352 25.5536417,451.910352 L284.786257,451.910352 L294.599886,477.463995 C295.952816,480.988635 298.444238,483.963525 301.676459,485.920792 C303.236034,487.538851 305.392147,488.447304 307.637936,488.424351 C308.17209,488.396618 308.702346,488.310841 309.220904,488.178277 C309.673181,488.178277 310.074772,488.400516 310.569937,488.400516 C313.677391,488.416112 316.734159,487.577841 319.401032,485.979276 L364.117957,458.67501 C369.050114,455.661131 371.728684,450.00767 370.929402,444.28013 C368.558848,426.590646 369.716832,408.600945 374.337074,391.359839 C382.142749,384.899299 388.611088,376.980554 393.391186,368.048086 L397.539656,359.29497 C398.748328,356.737266 399.933605,354.26144 400.990218,351.8402 C408.363109,335.920834 415.622933,319.849411 422.793081,303.505061 C422.921746,303.267226 423.01532,303.017694 423.124491,302.764262 C451.114969,239.004923 477.058505,172.703476 500.2143,105.750906 C503.025435,97.7424861 505.742994,89.7808544 508.437161,81.9011002 L509.072688,80.0257101 C514.305063,64.3558765 509.072688,30.6261613 491.036199,16.0597275 C478.10342,5.68075298 461.934523,0.171553289 445.356237,0.491266735 L445.356237,0.491266735 Z M409.856403,290.311053 C385.936416,287.726057 362.885892,279.873596 342.365779,267.315114 C348.947187,240.954392 355.821016,215.190207 362.874196,190.513827 C372.988042,189.702847 381.667078,182.984976 384.985075,173.393588 L418.851254,73.9277705 C443.609512,74.0642335 466.97585,85.4023464 482.407848,104.768374 C460.484118,167.806409 436.08846,230.146535 409.856403,290.311053 Z M387.429709,340.334432 C366.106416,343.621238 344.521893,336.279536 329.62015,320.675986 C332.279226,308.753031 335.133249,296.7521 338.096442,284.665391 C358.008321,296.054189 379.916455,303.516758 402.639468,306.647605 C397.617635,317.923335 392.584105,329.167873 387.429709,340.334432 Z M221.451903,89.1921145 L286.065109,153.805321 L221.451903,153.805321 L221.451903,89.1921145 Z M396.670193,33.394407 C397.652726,30.5130913 400.09736,28.3764741 403.083947,27.7877341 C406.070534,27.1989942 409.142897,28.2478083 411.146952,30.5403841 C413.147107,32.8290612 413.774836,36.0144936 412.792303,38.8958093 L404.744894,62.5389717 L368.870763,167.892186 C367.938916,170.831986 365.486484,173.042684 362.464807,173.662614 C359.44313,174.286444 356.32008,173.222035 354.304329,170.88657 C352.284678,168.551107 351.69204,165.30719 352.744753,162.40638 L371.92753,106.10571 L371.993812,105.918561 L396.670193,33.394407 Z M281.074468,29.5695487 L345.683776,94.1827556 L281.074468,94.1827556 L281.074468,29.5695487 Z M76.6570273,26.0449084 C76.6570273,21.3388895 80.4701896,17.5257283 85.1723088,17.5257283 L264.040006,17.5257283 L264.040006,94.1827556 C264.040006,103.590894 271.66633,111.217217 281.074468,111.217217 L352.175509,111.217217 L336.614846,156.912775 C332.981035,167.747925 336.985245,179.678676 346.416776,186.12752 C338.845038,212.640301 331.460449,240.357855 324.450158,268.746025 C324.274705,269.252886 324.14604,269.775345 324.068061,270.3056 C320.925518,282.790001 317.970122,295.24321 315.143392,307.559957 L315.143392,162.320603 C315.135593,161.205506 314.913354,160.098208 314.48837,159.068889 C314.063386,158.027872 313.431758,157.084328 312.636374,156.292845 L218.948784,62.6013547 C217.34632,61.0183852 215.186309,60.1255286 212.932722,60.1138315 L76.6570273,60.1138315 L76.6570273,26.0449084 Z M25.5536417,434.87589 C20.8476238,434.87589 17.0344616,431.062729 17.0344616,426.360609 L17.0344616,85.6635755 C17.0344616,80.9614553 20.8476238,77.1482941 25.5536417,77.1482941 L204.41744,77.1482941 L204.41744,153.805321 C204.41744,163.213459 212.043764,170.839783 221.451903,170.839783 L298.10893,170.839783 L298.10893,389.554631 C292.7089,398.03872 286.392621,405.895082 279.26536,412.987251 C277.639503,414.581916 276.399641,416.531385 275.647145,418.683599 C274.547645,421.931415 274.625624,425.459954 275.869386,428.649286 L278.263333,434.87589 L25.5536417,434.87589 Z M353.836456,444.954646 L321.880757,464.449338 L332.177853,434.314443 C333.69454,429.861856 331.312289,425.019374 326.859701,423.502687 C322.403214,421.986001 317.560734,424.364352 316.044047,428.820839 L305.774243,458.979128 L292.357996,424.00955 C300.64324,415.576146 307.922558,406.210895 314.051689,396.104847 C314.227141,395.831922 314.386997,395.547299 314.52736,395.254879 C315.798413,393.149452 317.085064,391.06352 318.250845,388.899609 C319.00334,389.808061 319.822118,390.661929 320.69548,391.453414 C329.409608,398.29995 340.194071,401.96885 351.274854,401.86358 L351.376226,401.86358 C352.522514,401.770005 353.661004,401.594552 354.783899,401.337223 C352.382152,415.755496 352.066338,430.442798 353.836456,444.954646 L353.836456,444.954646 Z M351.189077,384.872006 L351.118896,384.872006 C343.898063,384.961682 336.868276,382.571632 331.199219,378.09955 C325.686121,373.705446 322.212167,354.702021 324.723083,342.166934 C324.894636,341.313066 325.109078,340.463097 325.28843,339.687209 C339.909448,351.738828 358.296842,358.277347 377.241784,358.160379 C377.88121,358.160379 378.555726,358.0824 379.210747,358.074603 L378.017672,360.581619 C372.465583,371.849552 358.105794,384.751138 351.189077,384.872006 Z M492.892093,74.5243078 L492.268263,76.3373149 C491.129773,79.7449865 489.9289,83.1526592 488.767017,86.5603308 C471.888513,68.9722195 449.001744,58.3943999 424.66847,56.9361975 L428.926111,44.4167061 C431.125112,37.999053 430.668936,30.9692678 427.655056,24.8947213 C427.596573,24.7582592 427.4952,24.6451893 427.425019,24.5087272 C432.758767,20.5707989 439.063351,18.1573558 445.664253,17.5257283 C458.289016,17.0656531 470.644752,21.2609108 480.3804,29.316118 C491.944652,38.6579743 496.358249,64.1414356 492.892093,74.5243078 Z" id="Shape"></path>
        </g>
    </g>
</svg>