<?xml version="1.0" encoding="UTF-8"?>
<svg width="418px" height="481px" viewBox="0 0 418 481" version="1.1" xmlns="http://www.w3.org/2000/svg" xmlns:xlink="http://www.w3.org/1999/xlink">
    <!-- Generator: Sketch 61.2 (89653) - https://sketch.com -->
    <title>peruse</title>
    <desc>Created with Sketch.</desc>
    <g id="Page-1" stroke="none" stroke-width="1" fill="none" fill-rule="evenodd">
        <g id="peruse" fill="#979797" fill-rule="nonzero">
            <path d="M377.286013,80.1670146 L329.185804,80.1670146 L329.185804,96.2004175 L377.286013,96.2004175 C390.567588,96.2004175 401.336117,106.968946 401.336117,120.250522 L401.336117,304.634656 L16.5344468,304.634656 L16.5344468,120.250522 C16.5344468,106.968946 27.3029752,96.2004175 40.5845511,96.2004175 L88.6847599,96.2004175 L88.6847599,80.1670146 L40.5845511,80.1670146 C18.4564199,80.1944157 0.528444927,98.1223906 0.501043841,120.250522 L0.501043841,344.718163 C0.528444927,366.846294 18.4564199,384.774269 40.5845511,384.80167 L143.736952,384.80167 L137.724426,432.901879 L120.751566,432.901879 C111.897181,432.901879 104.718163,440.080897 104.718163,448.935282 L104.718163,464.968685 C104.718163,473.823069 111.897181,481.002088 120.751566,481.002088 L297.118998,481.002088 C305.973383,481.002088 313.152401,473.823069 313.152401,464.968685 L313.152401,448.935282 C313.152401,440.080897 305.973383,432.901879 297.118998,432.901879 L280.146138,432.901879 L274.133612,384.80167 L377.286013,384.80167 C399.414144,384.774269 417.342119,366.846294 417.36952,344.718163 L417.36952,120.250522 C417.342119,98.1223906 399.414144,80.1944157 377.286013,80.1670146 Z M297.118998,464.968685 L120.751566,464.968685 L120.751566,448.935282 L297.118998,448.935282 L297.118998,464.968685 Z M263.987474,432.901879 L153.88309,432.901879 L159.895616,384.80167 L257.974948,384.80167 L263.987474,432.901879 Z M377.286013,368.768267 L40.5845511,368.768267 C27.3029752,368.768267 16.5344468,357.999739 16.5344468,344.718163 L16.5344468,320.668058 L401.336117,320.668058 L401.336117,344.718163 C401.336117,357.999739 390.567588,368.768267 377.286013,368.768267 Z" id="Shape"></path>
            <polygon id="Path" points="353.235908 336.701461 369.269311 336.701461 369.269311 352.734864 353.235908 352.734864"></polygon>
            <path d="M273.068894,128.267223 C259.787318,128.267223 249.018789,139.035752 249.018789,152.317328 C249.018789,165.598904 259.787318,176.367432 273.068894,176.367432 C286.350469,176.367432 297.118998,165.598904 297.118998,152.317328 C297.118998,139.035752 286.350469,128.267223 273.068894,128.267223 Z M273.068894,160.334029 C268.641701,160.334029 265.052192,156.74452 265.052192,152.317328 C265.052192,147.890135 268.641701,144.300626 273.068894,144.300626 C277.496086,144.300626 281.085595,147.890135 281.085595,152.317328 C281.085595,156.74452 277.496086,160.334029 273.068894,160.334029 Z" id="Shape"></path>
            <path d="M144.80167,128.267223 C131.520094,128.267223 120.751566,139.035752 120.751566,152.317328 C120.751566,165.598904 131.520094,176.367432 144.80167,176.367432 C158.083246,176.367432 168.851775,165.598904 168.851775,152.317328 C168.851775,139.035752 158.083246,128.267223 144.80167,128.267223 Z M144.80167,160.334029 C140.374478,160.334029 136.784969,156.74452 136.784969,152.317328 C136.784969,147.890135 140.374478,144.300626 144.80167,144.300626 C149.228862,144.300626 152.818372,147.890135 152.818372,152.317328 C152.818372,156.74452 149.228862,160.334029 144.80167,160.334029 Z" id="Shape"></path>
            <path d="M88.6847167,152.317328 C88.7982774,181.980688 111.97547,206.433977 141.587944,208.128914 C171.204332,209.827766 197.023747,188.185021 200.52714,158.729124 C205.932933,160.874217 211.953288,160.874217 217.359081,158.729124 C219.907359,181.268267 235.772443,200.057411 257.563936,206.343945 C279.355428,212.634394 302.790971,205.185281 316.953288,187.468685 C331.115605,169.752088 333.221556,145.255741 322.292537,125.382307 L298.352036,51.6270874 C296.915449,45.9551148 293.893528,40.8115861 289.63857,36.7954071 C287.019833,34.4389358 284.150574,32.3682148 281.085595,30.630219 L281.085595,24.0501044 C281.085595,10.7685284 270.317067,0 257.035491,0 L249.018789,0 C235.737213,0 224.968685,10.7685284 224.968685,24.0501044 L224.968685,36.2904491 C224.577244,36.6427451 224.232777,37.0381007 223.84525,37.398225 C215.174843,30.2896655 202.695721,30.2896655 194.025313,37.398225 C193.637787,37.0381007 193.293319,36.6427451 192.901879,36.2904491 L192.901879,24.0501044 C192.901879,10.7685284 182.13335,0 168.851775,0 L160.835073,0 C147.553497,0 136.784969,10.7685284 136.784969,24.0501044 L136.784969,30.6380483 C133.716075,32.3721299 130.846817,34.4389358 128.231994,36.7954071 C124.070981,40.705898 121.096033,45.7045929 119.643789,51.2278186 L95.5936845,125.382307 C91.0529747,133.629958 88.6730165,142.899269 88.6847167,152.317328 Z M144.80167,192.400835 C122.66571,192.400835 104.718163,174.453288 104.718163,152.317328 C104.718163,130.181367 122.66571,112.23382 144.80167,112.23382 C166.937631,112.23382 184.885177,130.181367 184.885177,152.317328 C184.857776,174.445459 166.929801,192.373434 144.80167,192.400835 Z M208.935282,144.300626 C204.50809,144.300626 200.91858,140.711117 200.91858,136.283925 C200.91858,131.856733 204.50809,128.267223 208.935282,128.267223 C213.362474,128.267223 216.951983,131.856733 216.951983,136.283925 C216.951983,140.711117 213.362474,144.300626 208.935282,144.300626 Z M273.068894,192.400835 C250.932933,192.400835 232.985386,174.453288 232.985386,152.317328 C232.985386,130.181367 250.932933,112.23382 273.068894,112.23382 C295.204854,112.23382 313.152401,130.181367 313.152401,152.317328 C313.125,174.445459 295.197025,192.373434 273.068894,192.400835 Z M297.847077,102.044624 C276.122129,91.2291227 249.891702,95.707202 232.985386,113.122391 L232.985386,56.1169102 C232.977558,54.5628917 232.820982,53.0167015 232.519572,51.490083 C238.160229,44.8003651 246.294363,40.705898 255.027401,40.1578813 C263.764353,39.6098646 272.344729,42.6552711 278.776096,48.5895091 C280.870302,50.6641443 282.326461,53.2946245 282.968424,56.1717124 L297.847077,102.044624 Z M241.002088,24.0501044 C241.002088,19.6229121 244.591597,16.0334029 249.018789,16.0334029 L257.035491,16.0334029 C261.462683,16.0334029 265.052192,19.6229121 265.052192,24.0501044 L265.052192,24.7938418 C262.406054,24.3241132 259.724687,24.0775055 257.035491,24.0501044 C251.570981,24.0696762 246.149531,25.0169627 241.002088,26.8567325 L241.002088,24.0501044 Z M208.935282,48.1002088 C213.362474,48.1002088 216.951983,51.6897179 216.951983,56.1169102 L216.951983,113.709551 C211.788883,111.740605 206.081681,111.740605 200.91858,113.709551 L200.91858,56.1169102 C200.91858,51.6897179 204.50809,48.1002088 208.935282,48.1002088 Z M152.818372,24.0501044 C152.818372,19.6229121 156.407881,16.0334029 160.835073,16.0334029 L168.851775,16.0334029 C173.278967,16.0334029 176.868476,19.6229121 176.868476,24.0501044 L176.868476,26.8567325 C171.721033,25.0169627 166.299582,24.0696762 160.835073,24.0501044 C158.145877,24.0775055 155.464509,24.3241132 152.818372,24.7938418 L152.818372,24.0501044 Z M135.011743,55.7646143 C135.669364,53.0362732 137.082463,50.5506258 139.094468,48.5973385 C145.525835,42.6631005 154.106211,39.6137787 162.839248,40.1617954 C171.5762,40.7098121 179.706419,44.8003651 185.350992,51.490083 C185.049582,53.0167015 184.893006,54.5628917 184.885177,56.1169102 L184.885177,113.122391 C167.978862,95.7032878 141.740605,91.2252085 120.015658,102.052453 L135.011743,55.7646143 Z" id="Shape"></path>
            <polygon id="Path" points="216.951983 240.501044 232.985386 240.501044 232.985386 256.534447 216.951983 256.534447"></polygon>
            <polygon id="Path" points="249.018789 240.501044 265.052192 240.501044 265.052192 256.534447 249.018789 256.534447"></polygon>
            <polygon id="Path" points="184.885177 240.501044 200.91858 240.501044 200.91858 256.534447 184.885177 256.534447"></polygon>
            <polygon id="Path" points="152.818372 240.501044 168.851775 240.501044 168.851775 256.534447 152.818372 256.534447"></polygon>
        </g>
    </g>
</svg>