<?xml version="1.0" encoding="UTF-8"?>
<svg width="480px" height="432px" viewBox="0 0 480 432" version="1.1" xmlns="http://www.w3.org/2000/svg" xmlns:xlink="http://www.w3.org/1999/xlink">
    <!-- Generator: Sketch 61.2 (89653) - https://sketch.com -->
    <title>read</title>
    <desc>Created with Sketch.</desc>
    <g id="Page-1" stroke="none" stroke-width="1" fill="none" fill-rule="evenodd">
        <g id="read" fill="#979797" fill-rule="nonzero">
            <path d="M64,96.222656 L48,96.222656 L48,328 C48,332.417969 51.582031,336 56,336 L208,336 L208,320 L64,320 L64,96.222656 Z" id="Path"></path>
            <polygon id="Path" points="104 120 120 120 120 136 104 136"></polygon>
            <polygon id="Path" points="136 120 200 120 200 136 136 136"></polygon>
            <polygon id="Path" points="104 152 200 152 200 168 104 168"></polygon>
            <polygon id="Path" points="104 184 200 184 200 200 104 200"></polygon>
            <polygon id="Path" points="104 216 200 216 200 232 104 232"></polygon>
            <path d="M400,312 C404.417969,312 408,308.417969 408,304 L408,80 C408,75.582031 404.417969,72 400,72 L256,72 C251.582031,72 248,75.582031 248,80 L248,88 L232,88 L232,80 C232,75.582031 228.417969,72 224,72 L80,72 C75.582031,72 72,75.582031 72,80 L72,304 C72,308.417969 75.582031,312 80,312 L216,312 L216,320 C216,333.253906 226.746094,344 240,344 C253.253906,344 264,333.253906 264,320 L264,312 L400,312 Z M264,88 L392,88 L392,296 L264,296 L264,88 Z M88,296 L88,88 L216,88 L216,296 L88,296 Z M248,320 C248,324.417969 244.417969,328 240,328 C235.582031,328 232,324.417969 232,320 L232,104 L248,104 L248,320 Z" id="Shape"></path>
            <path d="M432,328 L432,96.222656 L416,96.222656 L416,320 L272,320 L272,336 L424,336 C428.417969,336 432,332.417969 432,328 Z" id="Path"></path>
            <polygon id="Path" points="328 120 376 120 376 136 328 136"></polygon>
            <polygon id="Path" points="280 120 312 120 312 136 280 136"></polygon>
            <polygon id="Path" points="280 152 376 152 376 168 280 168"></polygon>
            <polygon id="Path" points="280 184 376 184 376 200 280 200"></polygon>
            <polygon id="Path" points="280 216 376 216 376 232 280 232"></polygon>
            <polygon id="Path" points="104 248 200 248 200 264 104 264"></polygon>
            <polygon id="Path" points="280 248 376 248 376 264 280 264"></polygon>
            <path d="M403.3125,32 L416,32 L416,16 L400,16 C397.878906,16 395.84375,16.84375 394.34375,18.34375 L362.34375,50.34375 L373.65625,61.65625 L403.3125,32 Z" id="Path"></path>
            <path d="M456,48 C469.253906,48 480,37.253906 480,24 C480,10.746094 469.253906,0 456,0 C442.746094,0 432,10.746094 432,24 C432,37.253906 442.746094,48 456,48 Z M456,16 C460.417969,16 464,19.582031 464,24 C464,28.417969 460.417969,32 456,32 C451.582031,32 448,28.417969 448,24 C448,19.582031 451.582031,16 456,16 Z" id="Shape"></path>
            <path d="M8,48 L40,48 C44.417969,48 48,44.417969 48,40 L48,8 C48,3.582031 44.417969,0 40,0 L8,0 C3.582031,0 0,3.582031 0,8 L0,40 C0,44.417969 3.582031,48 8,48 Z M16,16 L32,16 L32,32 L16,32 L16,16 Z" id="Shape"></path>
            <path d="M136,56 L152,56 L152,24 C152,19.582031 148.417969,16 144,16 L64,16 L64,32 L136,32 L136,56 Z" id="Path"></path>
            <path d="M116.6875,392 L96,392 L96,408 L120,408 C122.121094,408 124.15625,407.15625 125.65625,405.65625 L165.65625,365.65625 L154.34375,354.34375 L116.6875,392 Z" id="Path"></path>
            <polygon id="Path" points="32 392 80 392 80 408 32 408"></polygon>
            <polygon id="Path" points="32 416 80 416 80 432 32 432"></polygon>
            <path d="M352,352 L336,352 L336,384 C336,386.121094 336.84375,388.15625 338.34375,389.65625 L362.34375,413.65625 L373.65625,402.34375 L352,380.6875 L352,352 Z" id="Path"></path>
            <polygon id="Path" points="392 392 440 392 440 408 392 408"></polygon>
            <polygon id="Path" points="392 416 440 416 440 432 392 432"></polygon>
            <polygon id="Path" points="448 200 480 200 480 216 448 216"></polygon>
            <polygon id="Path" points="442.34375 162.34375 466.347656 138.34375 477.660156 149.65625 453.660156 173.65625"></polygon>
            <polygon id="Path" points="442.347656 253.65625 453.664062 242.34375 477.664062 266.34375 466.351562 277.660156"></polygon>
            <polygon id="Path" points="0 200 32 200 32 216 0 216"></polygon>
            <polygon id="Path" points="2.347656 149.660156 13.660156 138.347656 37.664062 162.347656 26.347656 173.664062"></polygon>
            <polygon id="Path" points="2.339844 266.339844 26.34375 242.335938 37.65625 253.648438 13.65625 277.652344"></polygon>
        </g>
    </g>
</svg>