<?xml version="1.0" encoding="UTF-8"?>
<svg width="496px" height="496px" viewBox="0 0 496 496" version="1.1" xmlns="http://www.w3.org/2000/svg" xmlns:xlink="http://www.w3.org/1999/xlink">
    <!-- Generator: Sketch 61.2 (89653) - https://sketch.com -->
    <title>solution</title>
    <desc>Created with Sketch.</desc>
    <g id="Page-1" stroke="none" stroke-width="1" fill="none" fill-rule="evenodd">
        <g id="solution" fill="#979797" fill-rule="nonzero">
            <polygon id="Path" points="272 352 288 352 288 368 272 368"></polygon>
            <polygon id="Path" points="208 352 224 352 224 368 208 368"></polygon>
            <polygon id="Path" points="240 352 256 352 256 368 240 368"></polygon>
            <path d="M248,144 C203.888,144 168,179.888 168,224 C168,268.112 203.888,304 248,304 C292.112,304 328,268.112 328,224 C328,179.888 292.112,144 248,144 Z M248,288 C245.496,288 240.136,279.816 236.304,264 L259.696,264 C255.864,279.816 250.504,288 248,288 Z M233.448,248 C232.832,243.088 232.376,237.784 232.16,232 L263.856,232 C263.64,237.784 263.176,243.088 262.568,248 L233.448,248 Z M248,160 C250.504,160 255.864,168.184 259.696,184 L236.304,184 C240.136,168.184 245.496,160 248,160 L248,160 Z M262.552,200 C263.168,204.912 263.624,210.216 263.84,216 L232.144,216 C232.36,210.216 232.824,204.912 233.432,200 L262.552,200 Z M216.152,216 L184.552,216 C185.256,210.416 186.656,205.048 188.712,200 L217.344,200 C216.752,205.256 216.344,210.616 216.152,216 Z M184.552,232 L216.152,232 C216.344,237.384 216.752,242.744 217.344,248 L188.712,248 C186.664,242.952 185.256,237.584 184.552,232 Z M279.848,232 L311.448,232 C310.744,237.584 309.344,242.952 307.288,248 L278.656,248 C279.248,242.744 279.656,237.384 279.848,232 Z M279.848,216 C279.656,210.616 279.248,205.256 278.656,200 L307.288,200 C309.336,205.048 310.744,210.416 311.448,216 L279.848,216 Z M297.88,184 L276.128,184 C274.592,176.648 272.608,169.832 270.112,164.016 C281.096,168.08 290.672,175.032 297.88,184 Z M225.888,164.016 C223.392,169.832 221.408,176.648 219.872,184 L198.12,184 C205.328,175.032 214.904,168.08 225.888,164.016 Z M198.12,264 L219.872,264 C221.408,271.352 223.392,278.168 225.888,283.984 C214.904,279.92 205.328,272.968 198.12,264 Z M270.112,283.984 C272.608,278.168 274.592,271.352 276.128,264 L297.88,264 C290.672,272.968 281.096,279.92 270.112,283.984 Z" id="Shape"></path>
            <path d="M496,118.112 L496,73.896 L475,68.152 C474.312,66.32 473.552,64.496 472.712,62.68 L483.512,43.744 L452.248,12.488 L433.328,23.296 C431.52,22.464 429.688,21.696 427.848,21.008 L422.104,0 L377.896,0 L372.152,21 C370.312,21.688 368.48,22.456 366.672,23.288 L347.752,12.48 L316.488,43.736 L327.288,62.672 C326.456,64.488 325.688,66.312 325,68.144 L304,73.888 L304,80 L192,80 L192,0 L-1.13686838e-13,0 L-1.13686838e-13,160 L32,160 L32,252.176 C12.72,265.104 -1.13686838e-13,287.088 -1.13686838e-13,312 L-1.13686838e-13,313.544 C-1.13686838e-13,329.832 5.6,345.8 15.776,358.528 L32,378.808 L32,392 C32,414.056 49.944,432 72,432 C91.312,432 107.472,418.232 111.192,400 L165.752,400 L153.752,448 L128,448 C114.768,448 104,458.768 104,472 L104,496 L392,496 L392,472 C392,458.768 381.232,448 368,448 L342.248,448 L330.248,400 L424,400 C443.312,400 459.472,386.232 463.192,368 L472,368 C485.232,368 496,357.232 496,344 L496,280 C496,266.768 485.232,256 472,256 L464,256 L464,167.768 L483.512,148.256 L472.712,129.32 C473.544,127.504 474.312,125.68 475,123.848 L496,118.112 Z M416,244.688 L400.968,229.648 C397.368,226.064 392.392,224 387.312,224 C376.664,224 368,232.664 368,243.312 L368,256 L360,256 C346.768,256 336,266.768 336,280 L336,320 L143.696,320 C143.888,317.856 144,315.704 144,313.544 L144,312 C144,275 115.944,244.464 80,240.472 L80,160 L192,160 L192,128 L326.736,128 C326.928,128.44 327.088,128.88 327.288,129.32 L316.488,148.256 L347.752,179.512 L366.672,168.704 C368.48,169.536 370.312,170.304 372.152,170.992 L377.896,192 L416,192 L416,244.688 Z M176,136.288 L125.184,99.328 C126.176,98.272 127.12,97.168 128,96 L176,32 L176,136.288 Z M115.2,86.4 C110.696,92.416 103.512,96 96,96 C88.488,96 81.304,92.416 76.8,86.408 L23.992,16 L168,16 L115.2,86.4 Z M64,96.008 C64.88,97.176 65.824,98.28 66.816,99.336 L16,136.288 L16,32 L64,96.008 Z M80.832,108.928 C85.6,110.888 90.744,112 96,112 C101.256,112 106.392,110.888 111.168,108.928 L159.4,144 L32.6,144 L80.832,108.928 Z M304,96 L304,112 L192,112 L192,96 L304,96 Z M48,160 L64,160 L64,240.472 C58.448,241.088 53.104,242.392 48,244.2 L48,160 Z M28.272,348.528 C20.36,338.64 16,326.208 16,313.544 L16,312 C16,281.128 41.12,256 72,256 C102.88,256 128,281.128 128,312 L128,313.544 C128,326.208 123.64,338.64 115.728,348.528 L100.16,368 L80,368 L80,334.528 C89.288,331.216 96,322.416 96,312 C96,298.768 85.232,288 72,288 C58.768,288 48,298.768 48,312 C48,322.416 54.712,331.216 64,334.528 L64,368 L43.84,368 L28.272,348.528 Z M64,312 C64,307.584 67.592,304 72,304 C76.408,304 80,307.584 80,312 C80,316.416 76.408,320 72,320 C67.592,320 64,316.416 64,312 Z M72,416 C58.768,416 48,405.232 48,392 L48,384 L96,384 L96,392 C96,405.232 85.232,416 72,416 Z M376,472 L376,480 L120,480 L120,472 C120,467.584 123.592,464 128,464 L368,464 C372.408,464 376,467.584 376,472 Z M325.752,448 L170.248,448 L182.248,400 L313.752,400 L325.752,448 Z M424,384 L112,384 L112,378.808 L128.224,358.536 C133.616,351.792 137.68,344.128 140.344,336.008 L336,336.008 L336,344.008 C336,357.24 346.768,368.008 360,368.008 L446.528,368.008 C443.216,377.288 434.416,384 424,384 Z M480,280 L480,344 C480,348.416 476.408,352 472,352 L360,352 C355.592,352 352,348.416 352,344 L352,280 C352,275.584 355.592,272 360,272 L384,272 L384,243.312 C384,240.616 387.736,239.064 389.656,240.968 L420.688,272 L472,272 C476.408,272 480,275.584 480,280 Z M432,256 L432,169.264 C432.44,169.072 432.888,168.912 433.328,168.712 L448,177.088 L448,256 L432,256 Z M462.456,110.696 L461.16,114.888 C460.024,118.56 458.488,122.256 456.584,125.856 L454.536,129.736 L463.568,145.568 L449.568,159.56 L433.736,150.52 L429.848,152.584 C426.288,154.472 422.6,156.016 418.896,157.16 L414.696,158.448 L409.896,176 L390.104,176 L385.304,158.456 L381.104,157.168 C377.4,156.016 373.712,154.48 370.152,152.592 L366.264,150.528 L350.432,159.568 L336.432,145.576 L345.464,129.744 L343.416,125.864 C341.512,122.264 339.976,118.568 338.84,114.896 L337.544,110.704 L320,105.888 L320,86.104 L337.544,81.296 L338.84,77.104 C339.976,73.432 341.512,69.736 343.416,66.136 L345.464,62.256 L336.432,46.424 L350.432,32.432 L366.264,41.472 L370.152,39.408 C373.712,37.52 377.4,35.976 381.104,34.832 L385.304,33.544 L390.104,16 L409.896,16 L414.696,33.544 L418.896,34.832 C422.6,35.984 426.288,37.52 429.848,39.408 L433.736,41.472 L449.568,32.432 L463.568,46.424 L454.536,62.256 L456.584,66.136 C458.488,69.736 460.024,73.432 461.16,77.104 L462.456,81.296 L480,86.112 L480,105.896 L462.456,110.696 Z" id="Shape"></path>
            <path d="M400,48 C373.528,48 352,69.528 352,96 C352,122.472 373.528,144 400,144 C426.472,144 448,122.472 448,96 C448,69.528 426.472,48 400,48 Z M400,128 C382.352,128 368,113.648 368,96 C368,78.352 382.352,64 400,64 C417.648,64 432,78.352 432,96 C432,113.648 417.648,128 400,128 Z" id="Shape"></path>
            <polygon id="Path" points="368 320 432 320 432 336 368 336"></polygon>
            <polygon id="Path" points="448 320 464 320 464 336 448 336"></polygon>
            <polygon id="Path" points="368 288 464 288 464 304 368 304"></polygon>
        </g>
    </g>
</svg>