<?xml version="1.0" encoding="UTF-8"?>
<svg width="480px" height="480px" viewBox="0 0 480 480" version="1.1" xmlns="http://www.w3.org/2000/svg" xmlns:xlink="http://www.w3.org/1999/xlink">
    <!-- Generator: Sketch 61.2 (89653) - https://sketch.com -->
    <title>talk</title>
    <desc>Created with Sketch.</desc>
    <g id="Page-1" stroke="none" stroke-width="1" fill="none" fill-rule="evenodd">
        <g id="talk" fill="#979797" fill-rule="nonzero">
            <path d="M8,80 L128,80 L128,96 C128,99.230469 129.953125,102.152344 132.9375,103.390625 C133.929688,103.800781 134.96875,104 136,104 C138.078125,104 140.128906,103.183594 141.65625,101.65625 L163.3125,80 L184,80 C188.414062,80 192,76.414062 192,72 L192,8 C192,3.585938 188.414062,0 184,0 L8,0 C3.585938,0 0,3.585938 0,8 L0,72 C0,76.414062 3.585938,80 8,80 Z M16,16 L176,16 L176,64 L160,64 C157.878906,64 155.839844,64.839844 154.34375,66.34375 L144,76.6875 L144,72 C144,67.585938 140.414062,64 136,64 L16,64 L16,16 Z" id="Shape"></path>
            <path d="M312,64 L348.6875,64 L370.34375,85.65625 C371.871094,87.183594 373.921875,88 376,88 C377.03125,88 378.070312,87.800781 379.0625,87.390625 C382.046875,86.152344 384,83.230469 384,80 L384,64 L424,64 C428.414062,64 432,60.414062 432,56 L432,8 C432,3.585938 428.414062,0 424,0 L312,0 C307.585938,0 304,3.585938 304,8 L304,56 C304,60.414062 307.585938,64 312,64 Z M320,16 L416,16 L416,48 L376,48 C371.585938,48 368,51.585938 368,56 L368,60.6875 L357.65625,50.34375 C356.160156,48.839844 354.121094,48 352,48 L320,48 L320,16 Z" id="Shape"></path>
            <path d="M40,376 L40,480 L56,480 L56,376 L120,376 L120,472 C120,476.414062 123.585938,480 128,480 L176,480 C180.414062,480 184,476.414062 184,472 L184,352 C184,342.960938 180.871094,334.703125 175.792969,328 L232,328 L232,464 L200,464 L200,480 L280,480 L280,464 L248,464 L248,328 L304.015625,328 C298.992188,334.6875 296,343 296,352 L296,472 C296,476.414062 299.585938,480 304,480 L352,480 C356.414062,480 360,476.414062 360,472 L360,376 L424,376 L424,480 L440,480 L440,376 C462.054688,376 480,358.054688 480,336 L480,232 C480,214.390625 468.488281,199.566406 452.648438,194.246094 C464.480469,183.96875 472,168.863281 472,152 C472,121.121094 446.878906,96 416,96 C385.121094,96 360,121.121094 360,152 C360,168.863281 367.519531,183.96875 379.351562,194.246094 C363.511719,199.566406 352,214.390625 352,232 L352,264 L288,264 C283.585938,264 280,267.585938 280,272 L280,312 L203.105469,312 L223.59375,250.527344 L208.414062,245.464844 L186.230469,312 L113.976562,312 L126.425781,256 L168,256 C170.121094,256 172.160156,255.160156 173.65625,253.65625 L219.3125,208 L225.03125,208 C224.351562,210.59375 224,213.28125 224,216 C224,233.648438 238.351562,248 256,248 C273.648438,248 288,233.648438 288,216 C288,213.28125 287.648438,210.59375 286.96875,208 L304,208 C308.414062,208 312,204.414062 312,200 L312,161.761719 C312,158.59375 310.136719,155.726562 307.238281,154.449219 C304.359375,153.175781 300.976562,153.710938 298.625,155.832031 C295.664062,158.519531 291.886719,160 288,160 C279.175781,160 272,152.824219 272,144 C272,135.175781 279.175781,128 288,128 C291.886719,128 295.664062,129.480469 298.632812,132.167969 C300.976562,134.296875 304.351562,134.824219 307.246094,133.550781 C310.136719,132.273438 312,129.398438 312,126.238281 L312,88 C312,83.585938 308.414062,80 304,80 L286.96875,80 C287.648438,77.40625 288,74.71875 288,72 C288,54.351562 273.648438,40 256,40 C238.351562,40 224,54.351562 224,72 C224,74.71875 224.351562,77.40625 225.03125,80 L208,80 C203.585938,80 200,83.585938 200,88 L200,140.6875 L148.6875,192 L127.121094,192 C137.519531,181.824219 144,167.664062 144,152 C144,121.121094 118.878906,96 88,96 C57.121094,96 32,121.121094 32,152 C32,169.191406 39.800781,184.574219 52.03125,194.863281 C39.503906,199.816406 29.902344,210.855469 27.351562,224.703125 L16,282.777344 L16,216 L0,216 L0,336 C0,358.054688 17.945312,376 40,376 Z M376,152 C376,129.945312 393.945312,112 416,112 C438.054688,112 456,129.945312 456,152 C456,174.054688 438.054688,192 416,192 C393.945312,192 376,174.054688 376,152 Z M296,280 L360,280 C364.414062,280 368,276.414062 368,272 L368,232 C368,218.769531 378.769531,208 392,208 L440,208 C453.230469,208 464,218.769531 464,232 L464,336 C464,349.230469 453.230469,360 440,360 L352,360 C347.585938,360 344,363.585938 344,368 L344,464 L312,464 L312,352 C312,338.769531 322.769531,328 336,328 L408,328 C412.414062,328 416,324.414062 416,320 L416,248 L400,248 L400,312 L296,312 L296,280 Z M216,96 L238.238281,96 C241.40625,96 244.273438,94.136719 245.550781,91.238281 C246.839844,88.351562 246.296875,84.96875 244.167969,82.625 C241.480469,79.664062 240,75.886719 240,72 C240,63.175781 247.175781,56 256,56 C264.824219,56 272,63.175781 272,72 C272,75.886719 270.519531,79.664062 267.832031,82.632812 C265.703125,84.976562 265.167969,88.351562 266.449219,91.246094 C267.726562,94.136719 270.59375,96 273.761719,96 L296,96 L296,113.03125 C293.40625,112.351562 290.71875,112 288,112 C270.351562,112 256,126.351562 256,144 C256,161.648438 270.351562,176 288,176 C290.71875,176 293.40625,175.648438 296,174.96875 L296,192 L273.761719,192 C270.59375,192 267.726562,193.863281 266.449219,196.761719 C265.160156,199.65625 265.710938,203.03125 267.832031,205.375 C270.519531,208.335938 272,212.113281 272,216 C272,224.824219 264.824219,232 256,232 C247.175781,232 240,224.824219 240,216 C240,212.113281 241.480469,208.335938 244.167969,205.375 C246.296875,203.03125 246.839844,199.65625 245.550781,196.761719 C244.273438,193.863281 241.40625,192 238.238281,192 L235.3125,192 L245.65625,181.65625 C248.785156,178.527344 248.785156,173.472656 245.65625,170.34375 L216,140.6875 L216,96 Z M48,152 C48,129.945312 65.945312,112 88,112 C110.054688,112 128,129.945312 128,152 C128,174.054688 110.054688,192 88,192 C65.945312,192 48,174.054688 48,152 Z M22.726562,331.777344 L43.0625,227.6875 C45.167969,216.28125 55.121094,208 66.71875,208 L152,208 C154.121094,208 156.160156,207.160156 157.65625,205.65625 L208,155.3125 L228.6875,176 L164.6875,240 L120,240 C116.246094,240 113,242.609375 112.191406,246.265625 L96.191406,318.265625 C95.664062,320.632812 96.238281,323.113281 97.761719,325 C99.28125,326.894531 101.574219,328 104,328 L144,328 C157.230469,328 168,338.769531 168,352 L168,464 L136,464 L136,368 C136,363.585938 132.414062,360 128,360 L46.320312,360 C39.199219,360 32.488281,356.855469 27.929688,351.375 C23.34375,345.886719 21.464844,338.710938 22.726562,331.777344 Z" id="Shape"></path>
            <polygon id="Path" points="32 32 64 32 64 48 32 48"></polygon>
            <polygon id="Path" points="80 32 96 32 96 48 80 48"></polygon>
            <polygon id="Path" points="112 32 128 32 128 48 112 48"></polygon>
            <polygon id="Path" points="144 32 160 32 160 48 144 48"></polygon>
        </g>
    </g>
</svg>