<?xml version="1.0" encoding="UTF-8"?>
<svg width="418px" height="481px" viewBox="0 0 418 481" version="1.1" xmlns="http://www.w3.org/2000/svg" xmlns:xlink="http://www.w3.org/1999/xlink">
    <!-- Generator: Sketch 61.2 (89653) - https://sketch.com -->
    <title>team-profiles</title>
    <desc>Created with Sketch.</desc>
    <g id="Page-1" stroke="none" stroke-width="1" fill="none" fill-rule="evenodd">
        <g id="team-profiles" fill="#979797" fill-rule="nonzero">
            <path d="M152.818372,112.23382 L120.751566,112.23382 L120.751566,100.760699 C135.340553,94.4232772 144.786013,80.0417537 144.80167,64.1336117 L144.80167,55.9485906 C154.842119,48.409447 160.776357,36.6075157 160.835073,24.0501044 L160.835073,8.01670146 C160.835073,3.58950914 157.245564,0 152.818372,0 L88.6847599,0 C66.5566286,0.0274008852 48.6286537,17.955376 48.6012526,40.0835073 L48.6012526,64.1336117 C48.6090809,80.0300102 58.0623693,94.3997912 72.651357,100.705898 L72.651357,112.23382 L40.5845511,112.23382 C18.4564199,112.261222 0.528444927,130.189196 0.501043841,152.317328 L0.501043841,216.450939 C0.501043841,220.878132 4.09055299,224.467641 8.5177453,224.467641 L184.885177,224.467641 C189.31237,224.467641 192.901879,220.878132 192.901879,216.450939 L192.901879,152.317328 C192.874478,130.189196 174.946503,112.261222 152.818372,112.23382 Z M64.6346555,64.1336117 L64.6346555,40.0835073 C64.6346555,26.8019314 75.403184,16.0334029 88.6847599,16.0334029 L144.801673,16.0334029 L144.801673,24.0501044 C144.805584,32.6069932 140.213987,40.5101772 132.776618,44.7416498 C130.302714,46.1704073 128.772181,48.8087158 128.768267,51.666232 L128.768267,64.1336117 C128.748695,73.6651881 123.080637,82.2768792 114.33977,86.0660232 C108.507307,88.5986425 104.729906,94.3489042 104.718163,100.705898 L104.718163,112.23382 L88.6847599,112.23382 L88.6847599,100.705898 C88.6651881,94.3489042 84.8917017,88.6025577 79.0631529,86.0581939 C70.3222858,82.272964 64.6542273,73.661273 64.6346555,64.1336117 Z M99.7625266,128.267223 L96.7014614,134.393267 L93.6403962,128.267223 L99.7625266,128.267223 Z M176.868476,208.434238 L160.835073,208.434238 L160.835073,144.300626 L144.80167,144.300626 L144.80167,208.434238 L48.6012526,208.434238 L48.6012526,144.300626 L32.5678497,144.300626 L32.5678497,208.434238 L16.5344468,208.434238 L16.5344468,152.317328 C16.5344468,139.035752 27.3029752,128.267223 40.5845511,128.267223 L75.7124222,128.267223 L89.5263572,155.899009 C90.8807409,158.623434 93.6599689,160.341858 96.7014614,160.341858 C99.7429538,160.341858 102.522182,158.623434 103.876566,155.899009 L117.690501,128.267223 L152.818372,128.267223 C166.099948,128.267223 176.868476,139.035752 176.868476,152.317328 L176.868476,208.434238 Z" id="Shape"></path>
            <path d="M152.818372,368.768267 L120.751566,368.768267 L120.751566,357.295146 C135.340553,350.957724 144.786013,336.5762 144.80167,320.668058 L144.80167,312.483037 C154.842119,304.943894 160.776357,293.141962 160.835073,280.584551 L160.835073,264.551148 C160.835073,260.123956 157.245564,256.534447 152.818372,256.534447 L88.6847599,256.534447 C66.5566286,256.561848 48.6286537,274.489823 48.6012526,296.617954 L48.6012526,320.668058 C48.6090809,336.564457 58.0623693,350.934238 72.651357,357.240345 L72.651357,368.768267 L40.5845511,368.768267 C18.4564199,368.795668 0.528444927,386.723643 0.501043841,408.851775 L0.501043841,472.985386 C0.501043841,477.412579 4.09055299,481.002088 8.5177453,481.002088 L184.885177,481.002088 C189.31237,481.002088 192.901879,477.412579 192.901879,472.985386 L192.901879,408.851775 C192.874478,386.723643 174.946503,368.795668 152.818372,368.768267 Z M64.6346555,320.668058 L64.6346555,296.617954 C64.6346555,283.336378 75.403184,272.56785 88.6847599,272.56785 L144.801673,272.56785 L144.801673,280.584551 C144.805584,289.14144 140.213987,297.044624 132.776618,301.276097 C130.302714,302.704854 128.772181,305.343163 128.768267,308.200679 L128.768267,320.668058 C128.748695,330.199635 123.080637,338.811326 114.33977,342.60047 C108.507307,345.133089 104.729906,350.883351 104.718163,357.240345 L104.718163,368.768267 L88.6847599,368.768267 L88.6847599,357.240345 C88.6651881,350.883351 84.8917017,345.137004 79.0631529,342.592641 C70.3222858,338.807411 64.6542273,330.19572 64.6346555,320.668058 Z M99.7625266,384.80167 L96.7014614,390.927714 L93.6403962,384.80167 L99.7625266,384.80167 Z M176.868476,464.968685 L160.835073,464.968685 L160.835073,400.835073 L144.80167,400.835073 L144.80167,464.968685 L48.6012526,464.968685 L48.6012526,400.835073 L32.5678497,400.835073 L32.5678497,464.968685 L16.5344468,464.968685 L16.5344468,408.851775 C16.5344468,395.570199 27.3029752,384.80167 40.5845511,384.80167 L75.7124222,384.80167 L89.5263572,412.433455 C90.8807409,415.157881 93.6599689,416.876304 96.7014614,416.876304 C99.7429538,416.876304 102.522182,415.157881 103.876566,412.433455 L117.690501,384.80167 L152.818372,384.80167 C166.099948,384.80167 176.868476,395.570199 176.868476,408.851775 L176.868476,464.968685 Z" id="Shape"></path>
            <polygon id="Path" points="224.968685 208.434238 289.102296 208.434238 289.102296 224.467641 224.968685 224.467641"></polygon>
            <polygon id="Path" points="305.135699 208.434238 337.202505 208.434238 337.202505 224.467641 305.135699 224.467641"></polygon>
            <polygon id="Path" points="353.235908 208.434238 417.36952 208.434238 417.36952 224.467641 353.235908 224.467641"></polygon>
            <polygon id="Path" points="224.968685 160.334029 417.36952 160.334029 417.36952 176.367432 224.968685 176.367432"></polygon>
            <polygon id="Path" points="224.968685 112.23382 257.035491 112.23382 257.035491 128.267223 224.968685 128.267223"></polygon>
            <polygon id="Path" points="273.068894 112.23382 305.135699 112.23382 305.135699 128.267223 273.068894 128.267223"></polygon>
            <polygon id="Path" points="321.169102 112.23382 385.302714 112.23382 385.302714 128.267223 321.169102 128.267223"></polygon>
            <polygon id="Path" points="401.336117 112.23382 417.36952 112.23382 417.36952 128.267223 401.336117 128.267223"></polygon>
            <polygon id="Path" points="224.968685 464.968685 353.235908 464.968685 353.235908 481.002088 224.968685 481.002088"></polygon>
            <polygon id="Path" points="369.269311 464.968685 417.36952 464.968685 417.36952 481.002088 369.269311 481.002088"></polygon>
            <polygon id="Path" points="224.968685 416.868476 289.102296 416.868476 289.102296 432.901879 224.968685 432.901879"></polygon>
            <polygon id="Path" points="305.135699 416.868476 321.169102 416.868476 321.169102 432.901879 305.135699 432.901879"></polygon>
            <polygon id="Path" points="337.202505 416.868476 385.302714 416.868476 385.302714 432.901879 337.202505 432.901879"></polygon>
            <polygon id="Path" points="401.336117 416.868476 417.36952 416.868476 417.36952 432.901879 401.336117 432.901879"></polygon>
            <polygon id="Path" points="224.968685 368.768267 337.202505 368.768267 337.202505 384.80167 224.968685 384.80167"></polygon>
            <polygon id="Path" points="353.235908 368.768267 417.36952 368.768267 417.36952 384.80167 353.235908 384.80167"></polygon>
        </g>
    </g>
</svg>