<?xml version="1.0" encoding="UTF-8"?>
<svg width="42px" height="30px" viewBox="0 0 42 30" version="1.1" xmlns="http://www.w3.org/2000/svg" xmlns:xlink="http://www.w3.org/1999/xlink">
    <!-- Generator: Sketch 43.2 (39069) - http://www.bohemiancoding.com/sketch -->
    <title>Artboard</title>
    <desc>Created with Sketch.</desc>
    <defs></defs>
    <g id="Page-1" stroke="none" stroke-width="1" fill="none" fill-rule="evenodd">
        <g id="Artboard">
            <g id="car" transform="translate(2.000000, 7.000000)">
                <g id="Group-11" transform="translate(0.000000, 0.022252)" stroke="#969696" stroke-linecap="round" stroke-linejoin="round">
                    <path d="M10.2810793,12.1814186 C10.2810793,14.297601 8.51595795,16.0130575 6.33865026,16.0130575 C4.16134256,16.0130575 2.3962212,14.297601 2.3962212,12.1814186 C2.3962212,10.0652362 4.16134256,8.34977983 6.33865026,8.34977983 C8.51595795,8.34977983 10.2810793,10.0652362 10.2810793,12.1814186 Z" id="Stroke-1"></path>
                    <path d="M31.1528742,12.1814186 C31.1528742,14.297601 29.3878161,16.0130575 27.2104451,16.0130575 C25.0330742,16.0130575 23.2680161,14.297601 23.2680161,12.1814186 C23.2680161,10.0652362 25.0330742,8.34977983 27.2104451,8.34977983 C29.3878161,8.34977983 31.1528742,10.0652362 31.1528742,12.1814186 Z" id="Stroke-3"></path>
                    <path d="M2.3962212,12.6527127 L2.3962212,12.6527127 C2.3962212,12.6527127 0.0349887179,12.4478317 0.0349887179,10.3373045 L0.0349887179,7.69407433 C0.0349887179,7.69407433 -0.133693333,5.84996022 1.93242462,5.84996022 L28.5386503,5.84996022 C28.5386503,5.84996022 32.6708229,5.72701928 34.4417631,6.87448855 C36.2127032,8.02195781 36.9716776,8.84148212 36.9716776,8.84148212 L36.9716776,10.521716 C36.9716776,10.521716 37.0560503,12.038008 36.0018981,12.2428891 L31.1528742,12.2428891" id="Stroke-5"></path>
                    <path d="" id="Stroke-7"></path>
                    <path d="M1.76371094,5.78464785 L4.20931607,2.18223242 C4.20931607,2.18223242 5.76945111,0.0102348333 8.38367504,0.0102348333 L17.8270238,0.0102348333 C17.8270238,0.0102348333 19.0936255,-0.0717053033 20.6958836,0.870821414 C22.298205,1.8134096 28.3699998,5.78464785 28.3699998,5.78464785" id="Stroke-9"></path>
                </g>
                <path d="" id="Stroke-12" stroke="#969696" stroke-linecap="round" stroke-linejoin="round"></path>
                <path d="M10.5,12.5 L22.5,12.5" id="Line" stroke="#979797" stroke-linecap="square"></path>
                <path d="M11.5,5.5 L11.5,0.5" id="Line" stroke="#979797" stroke-linecap="square"></path>
            </g>
        </g>
    </g>
</svg>