<?xml version="1.0" encoding="UTF-8"?>
<svg width="42px" height="30px" viewBox="0 0 42 30" version="1.1" xmlns="http://www.w3.org/2000/svg" xmlns:xlink="http://www.w3.org/1999/xlink">
    <!-- Generator: Sketch 43.2 (39069) - http://www.bohemiancoding.com/sketch -->
    <title>Artboard</title>
    <desc>Created with Sketch.</desc>
    <defs></defs>
    <g id="Page-1" stroke="none" stroke-width="1" fill="none" fill-rule="evenodd">
        <g id="Artboard" stroke="#969696">
            <g id="Page-1" transform="translate(1.000000, 5.000000)">
                <path d="M39.7848387,10.4569355 C39.7848387,14.9462903 30.9148387,12.5808065 19.9729032,12.5808065 C9.03129032,12.5808065 0.161290323,14.731129 0.161290323,10.4569355 C0.161290323,4.77080645 9.03129032,0.161129032 19.9729032,0.161129032 C30.9148387,0.161129032 39.7848387,4.77080645 39.7848387,10.4569355 Z" id="Stroke-1"></path>
                <path d="M10.2329677,1.49019355 L13.118129,5.9676129" id="Stroke-3" stroke-linecap="round" stroke-linejoin="round"></path>
                <path d="M18.5953226,0.186322581 L21.3440323,4.89245161" id="Stroke-5" stroke-linecap="round" stroke-linejoin="round"></path>
                <path d="M27.6247419,0.958129032 L29.9999032,5.37651613" id="Stroke-7" stroke-linecap="round" stroke-linejoin="round"></path>
                <polyline id="Stroke-9" points="6.77419355 13.2036129 12.5806452 17.0968387 17.9564516 12.6039355"></polyline>
                <polyline id="Stroke-11" points="22.366129 12.6160968 28.4945161 17.0970645 34.3009677 13.2035161"></polyline>
                <path d="M2.79012903,12.8891935 C2.34174194,13.3037097 2.09690323,13.741129 2.09690323,14.1933871 C2.09690323,16.0279032 6.04335484,16.478871 11.8098065,16.5846774 L6.58529032,13.1120968 C5.09335484,13.1356452 3.80690323,13.0853226 2.79012903,12.8891935 Z" id="Stroke-13"></path>
                <path d="M37.8493548,14.1933871 C37.8493548,13.7698387 37.6358065,13.3591935 37.2406452,12.9682258 C36.4196774,13.1366129 35.4141935,13.1985484 34.2654839,13.1995161 L29.2929032,16.5579032 C34.4235484,16.4104839 37.8493548,15.9020968 37.8493548,14.1933871 Z" id="Stroke-15"></path>
                <path d="M19.9730645,12.5808065 C19.3014516,12.5808065 18.6382258,12.588871 17.9840323,12.6030645 L13.1746774,16.6030645 C15.2701613,16.6237097 17.5614516,16.6130645 19.9698387,16.6130645 C22.7785484,16.6130645 25.4353226,16.6285484 27.8004839,16.5908065 L22.3524194,12.6172581 C21.5717742,12.5953226 20.7795161,12.5808065 19.9730645,12.5808065 Z" id="Stroke-17"></path>
                <path d="M2.64980645,15.2159355 C2.64980645,15.2159355 -0.645032258,18.9785161 6.5323871,19.4220645 L29.2927097,19.8656129 C29.2927097,19.8656129 34.7581935,19.5430323 36.4517419,18.7769032 C38.1452903,18.0107742 39.3549677,16.534 37.500129,15.2159355" id="Stroke-19"></path>
            </g>
        </g>
    </g>
</svg>