<?xml version="1.0" encoding="UTF-8"?>
<svg width="42px" height="30px" viewBox="0 0 42 30" version="1.1" xmlns="http://www.w3.org/2000/svg" xmlns:xlink="http://www.w3.org/1999/xlink">
    <!-- Generator: Sketch 43.2 (39069) - http://www.bohemiancoding.com/sketch -->
    <title>Artboard</title>
    <desc>Created with Sketch.</desc>
    <defs></defs>
    <g id="Page-1" stroke="none" stroke-width="1" fill="none" fill-rule="evenodd" stroke-linecap="round" stroke-linejoin="round">
        <g id="Artboard" stroke="#979797">
            <path d="M12.9235365,20.2457545 L13.583895,27.5470465 C13.6053507,27.7894164 13.7928893,28 14.0368485,28 L23.0490332,28 C23.2929923,28 23.4797363,27.7941843 23.5019866,27.5470465 L24.1623451,20.2457545 L12.9235365,20.2457545 Z M25.3138005,16.6086176 L11.7720811,16.6086176 C11.5225594,16.6086176 11.2921094,16.8144333 11.3191276,17.0615711 L11.5829532,19.4757336 C11.6099715,19.7220767 11.7879742,19.9286871 12.0359066,19.9286871 L25.049975,19.9286871 C25.2979074,19.9286871 25.4759102,19.723666 25.5029285,19.4757336 L25.766754,17.0615711 C25.7937723,16.8136386 25.5625276,16.6086176 25.3138005,16.6086176 Z M23.1134002,16.5680902 C24.6756924,15.1877741 25.6968243,13.088295 25.7651647,10.7241958 L25.8064867,10.7249904 C27.9210642,10.7249904 30.2581452,9.18177002 31.0265768,7.27936545 C31.795803,5.37616623 30.7055361,3.83294582 28.5909586,3.83294582 C27.0723725,3.83294582 25.439356,4.62839568 24.3546517,5.78144039 C23.0657209,3.88777703 21.0147158,2.66241869 18.7046531,2.66241869 C14.8028961,2.66241869 11.6401683,6.1573123 11.6401683,10.4683168 C11.6401683,12.8761221 12.6263355,15.028843 14.1759131,16.4608117 L23.1134002,16.5680902 Z M18.622009,1 L18.622009,16.6133855 L18.622009,1 Z M14.9014333,2.19913471 L15.4839156,3.07484475 L14.9014333,2.19913471 Z M10.1462166,7.73788151 L11.2166171,8.02793066 L10.1462166,7.73788151 Z M11.827707,4.47264326 L12.7407658,5.06307208 L11.827707,4.47264326 Z M10,11.2327751 L11.1045707,11.0802013 L10,11.2327751 Z M10.8463078,14.5592018 L11.8134032,14.0458545 L10.8463078,14.5592018 Z M22.7311711,2.2277423 L22.1486888,3.10424699 L22.7311711,2.2277423 Z M32.0890308,4.02525238 L26.0210436,7.94687583 L32.0890308,4.02525238 Z M26.6996792,14.150749 L25.6872885,13.7184566 L26.6996792,14.150749 Z M29.2274774,2.36919092 L28.9731877,3.36966183 L29.2274774,2.36919092 Z M25.7842364,3.08676458 L26.3667187,3.96247462 L25.7842364,3.08676458 Z M32.5960208,7.74423875 L31.5367454,7.41922477 L32.5960208,7.74423875 Z M30.0118021,9.52903435 L30.5942844,10.4047444 L30.0118021,9.52903435 Z M27.5126115,10.9522618 L27.7438561,11.9575007 L27.5126115,10.9522618 Z M24.3546517,5.78144039 C24.771051,6.08420402 25.4544545,7.84357065 25.7651647,10.7241958 L24.3546517,5.78144039 Z M20.5490479,16.6078229 C21.6591812,15.3888219 22.4069518,13.0859111 22.4069518,10.4460665 C22.4069518,6.53238956 20.7620155,3.36012597 18.7324661,3.36012597 C16.7037113,3.36012597 15.0579804,6.53238956 15.0579804,10.4460665 C15.0579804,12.9110869 15.711187,15.0820849 16.7005327,16.351944 L20.5490479,16.6078229 Z" id="Stroke-186"></path>
        </g>
    </g>
</svg>
