<?xml version="1.0" encoding="UTF-8"?>
<svg width="42px" height="30px" viewBox="0 0 42 30" version="1.1" xmlns="http://www.w3.org/2000/svg" xmlns:xlink="http://www.w3.org/1999/xlink">
    <!-- Generator: Sketch 43.2 (39069) - http://www.bohemiancoding.com/sketch -->
    <title>Artboard</title>
    <desc>Created with Sketch.</desc>
    <defs></defs>
    <g id="Page-1" stroke="none" stroke-width="1" fill="none" fill-rule="evenodd">
        <g id="Artboard" stroke="#979797">
            <g id="Group" transform="translate(6.000000, -9.000000)">
                <path d="M9.21703618,15.1315011 C10.0325077,13.2186903 12.2979176,11.002001 14.22813,10.2291854 L24.1156187,6.2704473 C25.7569086,5.61331011 26.3603018,6.21262662 25.715178,7.84805664 L24.0684329,12.0226611 L22.9302844,14.9079406 L21.8767912,17.5786133 C21.1199467,19.4972628 18.8886362,21.6794245 16.9485351,22.3981605 L6.75345672,26.1750616 C5.08746761,26.7922492 4.50521409,26.1837868 5.202591,24.5479846 L9.21703618,15.1315011 Z" id="Rectangle" transform="translate(15.441386, 16.209832) rotate(-315.000000) translate(-15.441386, -16.209832) "></path>
                <path d="M1.52083333,17.5682169 L1.52083333,19.7890629 C1.52083333,19.7890629 13.4375,25.507031 15.4427083,25.5632625 C17.4479167,25.619494 29.3645833,19.5669783 29.3645833,19.5669783 L29.3645833,17.4542545" id="Path-2" stroke-linecap="round" stroke-linejoin="round"></path>
                <path d="M6.21875,22.0099089 L6.21875,27.3399393 C6.21875,27.3399393 8.96875,32.2258004 15.5,32.2258004 C22.03125,32.2258004 24.8958333,27.5620239 24.8958333,27.5620239 L24.8958333,21.7867567" id="Path-3"></path>
                <ellipse id="Oval" cx="15.3854167" cy="17.7903015" rx="1.48958333" ry="1.11042299"></ellipse>
                <polyline id="Path-4" points="16.7604167 18.4565553 22.9479167 20.4553167 22.9479167 32.8925499"></polyline>
                <ellipse id="Oval-2" cx="23.0625" cy="33.7803926" rx="1" ry="1"></ellipse>
                <path d="M22.4895833,34.4466464 L21.2291667,37.6668731" id="Path-5"></path>
                <path d="M23.25,34.1752097 L24.3958333,37.5064787" id="Path-7"></path>
            </g>
        </g>
    </g>
</svg>